%TF.GenerationSoftware,KiCad,Pcbnew,8.0.6*%
%TF.CreationDate,2025-09-02T18:07:21+02:00*%
%TF.ProjectId,atmos-fc,61746d6f-732d-4666-932e-6b696361645f,rev?*%
%TF.SameCoordinates,Original*%
%TF.FileFunction,Legend,Bot*%
%TF.FilePolarity,Positive*%
%FSLAX46Y46*%
G04 Gerber Fmt 4.6, Leading zero omitted, Abs format (unit mm)*
G04 Created by KiCad (PCBNEW 8.0.6) date 2025-09-02 18:07:21*
%MOMM*%
%LPD*%
G01*
G04 APERTURE LIST*
%ADD10C,0.000000*%
G04 APERTURE END LIST*
D10*
%TO.C,G\u002A\u002A\u002A*%
G36*
X143171470Y-86763643D02*
G01*
X143171470Y-87198986D01*
X143546766Y-87198986D01*
X143922061Y-87198986D01*
X143922061Y-87304069D01*
X143922061Y-87409151D01*
X143546766Y-87409151D01*
X143171470Y-87409151D01*
X143171470Y-87739411D01*
X143171470Y-88069672D01*
X143561778Y-88069672D01*
X143952085Y-88069672D01*
X143952085Y-88174754D01*
X143952085Y-88279837D01*
X143456695Y-88279837D01*
X142961305Y-88279837D01*
X142961305Y-87304069D01*
X142961305Y-86328300D01*
X143066388Y-86328300D01*
X143171470Y-86328300D01*
X143171470Y-86763643D01*
G37*
G36*
X137016624Y-86883738D02*
G01*
X137016624Y-87439175D01*
X137121707Y-87439175D01*
X137226789Y-87439175D01*
X137226789Y-87619317D01*
X137226789Y-87799459D01*
X137121707Y-87799459D01*
X137016624Y-87799459D01*
X137016624Y-88039648D01*
X137016624Y-88279837D01*
X136776435Y-88279837D01*
X136536246Y-88279837D01*
X136536246Y-88039648D01*
X136536246Y-87799459D01*
X136431163Y-87799459D01*
X136326080Y-87799459D01*
X136326080Y-87619317D01*
X136326080Y-87439175D01*
X136431163Y-87439175D01*
X136536246Y-87439175D01*
X136536246Y-86883738D01*
X136536246Y-86328300D01*
X136776435Y-86328300D01*
X137016624Y-86328300D01*
X137016624Y-86883738D01*
G37*
G36*
X136312455Y-86241281D02*
G01*
X136318633Y-86249773D01*
X136313478Y-86272531D01*
X136293936Y-86315880D01*
X136256954Y-86386144D01*
X136199479Y-86489649D01*
X136118456Y-86632718D01*
X136010832Y-86821677D01*
X135710596Y-87348600D01*
X135040068Y-87348852D01*
X134900004Y-87348608D01*
X134698143Y-87346630D01*
X134549589Y-87342487D01*
X134450059Y-87335960D01*
X134395274Y-87326827D01*
X134380952Y-87314867D01*
X134403866Y-87296269D01*
X134473975Y-87251185D01*
X134585255Y-87183836D01*
X134731686Y-87097756D01*
X134907250Y-86996481D01*
X135105925Y-86883545D01*
X135321693Y-86762483D01*
X135515376Y-86654915D01*
X135718474Y-86543077D01*
X135900341Y-86443938D01*
X136054754Y-86360843D01*
X136175492Y-86297139D01*
X136256333Y-86256170D01*
X136291053Y-86241283D01*
X136297998Y-86240732D01*
X136312455Y-86241281D01*
G37*
G36*
X140868717Y-86309300D02*
G01*
X141053082Y-86392979D01*
X141208484Y-86521227D01*
X141326050Y-86690624D01*
X141370763Y-86796717D01*
X141393709Y-86907198D01*
X141400076Y-87048834D01*
X141396336Y-87160946D01*
X141370445Y-87314269D01*
X141313741Y-87443945D01*
X141219026Y-87570728D01*
X141092779Y-87685374D01*
X140910518Y-87778596D01*
X140695403Y-87821808D01*
X140601735Y-87825098D01*
X140385449Y-87796393D01*
X140197504Y-87716513D01*
X140041594Y-87587417D01*
X139921411Y-87411067D01*
X139863488Y-87260883D01*
X139835375Y-87062389D01*
X139836479Y-87051934D01*
X140289313Y-87051934D01*
X140299766Y-87112632D01*
X140348700Y-87215088D01*
X140423670Y-87309757D01*
X140509062Y-87373773D01*
X140515507Y-87376774D01*
X140632082Y-87398949D01*
X140748264Y-87363099D01*
X140858392Y-87270891D01*
X140914458Y-87192297D01*
X140953205Y-87067811D01*
X140932416Y-86944519D01*
X140852144Y-86826111D01*
X140824086Y-86799008D01*
X140745954Y-86739541D01*
X140679508Y-86708360D01*
X140587926Y-86708794D01*
X140478604Y-86753096D01*
X140382974Y-86833348D01*
X140315167Y-86937108D01*
X140289313Y-87051934D01*
X139836479Y-87051934D01*
X139855990Y-86867123D01*
X139921509Y-86684887D01*
X140028108Y-86525484D01*
X140171962Y-86398716D01*
X140349248Y-86314387D01*
X140448601Y-86289321D01*
X140664265Y-86273608D01*
X140868717Y-86309300D01*
G37*
G36*
X132448962Y-86241805D02*
G01*
X132493688Y-86274599D01*
X132576296Y-86341119D01*
X132691871Y-86437086D01*
X132835500Y-86558222D01*
X133002269Y-86700247D01*
X133187265Y-86858885D01*
X133385574Y-87029855D01*
X133592282Y-87208879D01*
X133802477Y-87391679D01*
X134011245Y-87573975D01*
X134213671Y-87751491D01*
X134404843Y-87919945D01*
X134579847Y-88075061D01*
X134733770Y-88212560D01*
X134861697Y-88328162D01*
X134958716Y-88417590D01*
X135019913Y-88476564D01*
X135040374Y-88500806D01*
X135038811Y-88505223D01*
X135015025Y-88554126D01*
X134968298Y-88641562D01*
X134903845Y-88758432D01*
X134826878Y-88895633D01*
X134742613Y-89044067D01*
X134656262Y-89194633D01*
X134573040Y-89338230D01*
X134498161Y-89465758D01*
X134436838Y-89568117D01*
X134394285Y-89636206D01*
X134375715Y-89660924D01*
X134370120Y-89653358D01*
X134338533Y-89601996D01*
X134281925Y-89506597D01*
X134203327Y-89372445D01*
X134105770Y-89204822D01*
X133992283Y-89009011D01*
X133865898Y-88790293D01*
X133729645Y-88553950D01*
X133586555Y-88305267D01*
X133439658Y-88049523D01*
X133291984Y-87792003D01*
X133146564Y-87537989D01*
X133006429Y-87292762D01*
X132874608Y-87061605D01*
X132754134Y-86849801D01*
X132648035Y-86662631D01*
X132559343Y-86505379D01*
X132491088Y-86383327D01*
X132446300Y-86301756D01*
X132428011Y-86265950D01*
X132426260Y-86258670D01*
X132443023Y-86239077D01*
X132448962Y-86241805D01*
G37*
G36*
X145315761Y-86296293D02*
G01*
X145552800Y-86362652D01*
X145768869Y-86481897D01*
X145822160Y-86524595D01*
X145904572Y-86604219D01*
X145979041Y-86689534D01*
X146032965Y-86765681D01*
X146053740Y-86817798D01*
X146052492Y-86820965D01*
X146016266Y-86833587D01*
X145945563Y-86838702D01*
X145928429Y-86838299D01*
X145856636Y-86823924D01*
X145782088Y-86782082D01*
X145686941Y-86703440D01*
X145630511Y-86656406D01*
X145445279Y-86547129D01*
X145251817Y-86494371D01*
X145056933Y-86497366D01*
X144867432Y-86555349D01*
X144690120Y-86667556D01*
X144531803Y-86833222D01*
X144445690Y-86974359D01*
X144385551Y-87165881D01*
X144379964Y-87362775D01*
X144427791Y-87556786D01*
X144527895Y-87739656D01*
X144679141Y-87903130D01*
X144795210Y-87985376D01*
X144982669Y-88062321D01*
X145180010Y-88086580D01*
X145376961Y-88058686D01*
X145563252Y-87979173D01*
X145728610Y-87848575D01*
X145788501Y-87792663D01*
X145861501Y-87750719D01*
X145944184Y-87739411D01*
X145996612Y-87740110D01*
X146042517Y-87750524D01*
X146044162Y-87785006D01*
X146009492Y-87857984D01*
X145907997Y-87995512D01*
X145758758Y-88115064D01*
X145575078Y-88208066D01*
X145368969Y-88268459D01*
X145152444Y-88290186D01*
X144988173Y-88278072D01*
X144758486Y-88214275D01*
X144555474Y-88098615D01*
X144384328Y-87934347D01*
X144250242Y-87724726D01*
X144203701Y-87622798D01*
X144174356Y-87529843D01*
X144160800Y-87428480D01*
X144157510Y-87292984D01*
X144158150Y-87229559D01*
X144167022Y-87099396D01*
X144189945Y-86993894D01*
X144231492Y-86888010D01*
X144252548Y-86844690D01*
X144384589Y-86646380D01*
X144554206Y-86483955D01*
X144751586Y-86365286D01*
X144966916Y-86298240D01*
X145069720Y-86285560D01*
X145315761Y-86296293D01*
G37*
G36*
X142311288Y-86288153D02*
G01*
X142437133Y-86324687D01*
X142538201Y-86383868D01*
X142652332Y-86498307D01*
X142722597Y-86636049D01*
X142743920Y-86785773D01*
X142711227Y-86936155D01*
X142689741Y-86980683D01*
X142636347Y-87051133D01*
X142556583Y-87110912D01*
X142439567Y-87167274D01*
X142274418Y-87227478D01*
X142183859Y-87259338D01*
X142098597Y-87296703D01*
X142053058Y-87331109D01*
X142036328Y-87369043D01*
X142046335Y-87425418D01*
X142091500Y-87458382D01*
X142153731Y-87455830D01*
X142213663Y-87412965D01*
X142240976Y-87385260D01*
X142287500Y-87362533D01*
X142361116Y-87351801D01*
X142478233Y-87349104D01*
X142529460Y-87349230D01*
X142619634Y-87352039D01*
X142667982Y-87361855D01*
X142687477Y-87382982D01*
X142691092Y-87419723D01*
X142682619Y-87468807D01*
X142636746Y-87566258D01*
X142562385Y-87666757D01*
X142472461Y-87750735D01*
X142406503Y-87786180D01*
X142274434Y-87819756D01*
X142121742Y-87828790D01*
X141969271Y-87812628D01*
X141837863Y-87770619D01*
X141734619Y-87703576D01*
X141635932Y-87593380D01*
X141574762Y-87465568D01*
X141557111Y-87333632D01*
X141588981Y-87211068D01*
X141615389Y-87164559D01*
X141669449Y-87096578D01*
X141743787Y-87038985D01*
X141850932Y-86982972D01*
X142003414Y-86919730D01*
X142110610Y-86876010D01*
X142199045Y-86832338D01*
X142247313Y-86794699D01*
X142265077Y-86757085D01*
X142261287Y-86709279D01*
X142220156Y-86659972D01*
X142151812Y-86645025D01*
X142073594Y-86672131D01*
X142023190Y-86713307D01*
X142000548Y-86749323D01*
X141999965Y-86751509D01*
X141964928Y-86765401D01*
X141885498Y-86775044D01*
X141775371Y-86778655D01*
X141724929Y-86778516D01*
X141629700Y-86775732D01*
X141577182Y-86766660D01*
X141554854Y-86747797D01*
X141550194Y-86715639D01*
X141550425Y-86704780D01*
X141582612Y-86580004D01*
X141660535Y-86460894D01*
X141771850Y-86362013D01*
X141904213Y-86297929D01*
X142002010Y-86278434D01*
X142156824Y-86272262D01*
X142311288Y-86288153D01*
G37*
G36*
X137830255Y-86741125D02*
G01*
X137830589Y-86777104D01*
X137833706Y-86932147D01*
X137838993Y-87067709D01*
X137845803Y-87170269D01*
X137853487Y-87226303D01*
X137868591Y-87264295D01*
X137933353Y-87343173D01*
X138021297Y-87391932D01*
X138111852Y-87396982D01*
X138165231Y-87374096D01*
X138210588Y-87325662D01*
X138242668Y-87246169D01*
X138263309Y-87128442D01*
X138274346Y-86965309D01*
X138277617Y-86749596D01*
X138277617Y-86328300D01*
X138500728Y-86328300D01*
X138723840Y-86328300D01*
X138733411Y-86807688D01*
X138733743Y-86824061D01*
X138739288Y-87021231D01*
X138748624Y-87166703D01*
X138764723Y-87268264D01*
X138790560Y-87333701D01*
X138829109Y-87370801D01*
X138883344Y-87387351D01*
X138956238Y-87391137D01*
X138959621Y-87391131D01*
X139024829Y-87386639D01*
X139073078Y-87368523D01*
X139106892Y-87329050D01*
X139128796Y-87260488D01*
X139141316Y-87155104D01*
X139146977Y-87005166D01*
X139148302Y-86802940D01*
X139148302Y-86328300D01*
X139388492Y-86328300D01*
X139628681Y-86328300D01*
X139627964Y-86816185D01*
X139627691Y-86891367D01*
X139623639Y-87115698D01*
X139612953Y-87291504D01*
X139593259Y-87427639D01*
X139562183Y-87532958D01*
X139517352Y-87616316D01*
X139456392Y-87686568D01*
X139376929Y-87752568D01*
X139354522Y-87767927D01*
X139290137Y-87796287D01*
X139202794Y-87810550D01*
X139074129Y-87814471D01*
X139046110Y-87814410D01*
X138937265Y-87810888D01*
X138862996Y-87797577D01*
X138802151Y-87768457D01*
X138733580Y-87717505D01*
X138612919Y-87620539D01*
X138518176Y-87709042D01*
X138466617Y-87749184D01*
X138327996Y-87809322D01*
X138171766Y-87828596D01*
X138016983Y-87806056D01*
X137882701Y-87740751D01*
X137864590Y-87727393D01*
X137817314Y-87695932D01*
X137799793Y-87699768D01*
X137797239Y-87738513D01*
X137797158Y-87744299D01*
X137789616Y-87774030D01*
X137760667Y-87790645D01*
X137697443Y-87797877D01*
X137587073Y-87799459D01*
X137376908Y-87799459D01*
X137376908Y-87063880D01*
X137376908Y-86328300D01*
X137602085Y-86328300D01*
X137827262Y-86328300D01*
X137830255Y-86741125D01*
G37*
%TD*%
M02*
