%TF.GenerationSoftware,KiCad,Pcbnew,8.0.6*%
%TF.CreationDate,2025-09-02T18:07:18+02:00*%
%TF.ProjectId,atmos-fc,61746d6f-732d-4666-932e-6b696361645f,rev?*%
%TF.SameCoordinates,Original*%
%TF.FileFunction,Drillmap*%
%TF.FilePolarity,Positive*%
%FSLAX45Y45*%
G04 Gerber Fmt 4.5, Leading zero omitted, Abs format (unit mm)*
G04 Created by KiCad (PCBNEW 8.0.6) date 2025-09-02 18:07:18*
%MOMM*%
%LPD*%
G01*
G04 APERTURE LIST*
%ADD10C,0.100000*%
%ADD11C,0.200000*%
G04 APERTURE END LIST*
D10*
X11925000Y-8825000D02*
G75*
G02*
X12175000Y-8575000I250000J0D01*
G01*
X12175000Y-12575000D02*
X15675000Y-12575000D01*
X15925000Y-12325000D02*
X15925000Y-8825000D01*
X15675000Y-8575000D02*
G75*
G02*
X15925000Y-8825000I0J-250000D01*
G01*
X11925000Y-12325000D02*
X11925000Y-8825000D01*
X15925000Y-12325000D02*
G75*
G02*
X15675000Y-12575000I-250000J0D01*
G01*
X12175000Y-12575000D02*
G75*
G02*
X11925000Y-12325000I0J250000D01*
G01*
X12175000Y-8575000D02*
X15675000Y-8575000D01*
D11*
D10*
X12125000Y-11157500D02*
X12150000Y-11182500D01*
X12150000Y-11157500D02*
X12125000Y-11182500D01*
X12220000Y-11100000D02*
X12245000Y-11125000D01*
X12245000Y-11100000D02*
X12220000Y-11125000D01*
X12220000Y-11215000D02*
X12245000Y-11240000D01*
X12245000Y-11215000D02*
X12220000Y-11240000D01*
X12315000Y-11157500D02*
X12340000Y-11182500D01*
X12340000Y-11157500D02*
X12315000Y-11182500D01*
X12417450Y-11118467D02*
G75*
G02*
X12387450Y-11118467I-15000J0D01*
G01*
X12387450Y-11118467D02*
G75*
G02*
X12417450Y-11118467I15000J0D01*
G01*
X12477520Y-11065706D02*
G75*
G02*
X12447520Y-11065706I-15000J0D01*
G01*
X12447520Y-11065706D02*
G75*
G02*
X12477520Y-11065706I15000J0D01*
G01*
X12605000Y-10150000D02*
G75*
G02*
X12575000Y-10150000I-15000J0D01*
G01*
X12575000Y-10150000D02*
G75*
G02*
X12605000Y-10150000I15000J0D01*
G01*
X12652500Y-12135000D02*
G75*
G02*
X12622500Y-12135000I-15000J0D01*
G01*
X12622500Y-12135000D02*
G75*
G02*
X12652500Y-12135000I15000J0D01*
G01*
X12693210Y-9342607D02*
G75*
G02*
X12663210Y-9342607I-15000J0D01*
G01*
X12663210Y-9342607D02*
G75*
G02*
X12693210Y-9342607I15000J0D01*
G01*
X12735000Y-12134000D02*
G75*
G02*
X12705000Y-12134000I-15000J0D01*
G01*
X12705000Y-12134000D02*
G75*
G02*
X12735000Y-12134000I15000J0D01*
G01*
X12885000Y-12365000D02*
G75*
G02*
X12855000Y-12365000I-15000J0D01*
G01*
X12855000Y-12365000D02*
G75*
G02*
X12885000Y-12365000I15000J0D01*
G01*
X12940615Y-9674084D02*
G75*
G02*
X12910615Y-9674084I-15000J0D01*
G01*
X12910615Y-9674084D02*
G75*
G02*
X12940615Y-9674084I15000J0D01*
G01*
X12945000Y-8805000D02*
G75*
G02*
X12915000Y-8805000I-15000J0D01*
G01*
X12915000Y-8805000D02*
G75*
G02*
X12945000Y-8805000I15000J0D01*
G01*
X12995000Y-8740000D02*
G75*
G02*
X12965000Y-8740000I-15000J0D01*
G01*
X12965000Y-8740000D02*
G75*
G02*
X12995000Y-8740000I15000J0D01*
G01*
X12997677Y-10064714D02*
G75*
G02*
X12967677Y-10064714I-15000J0D01*
G01*
X12967677Y-10064714D02*
G75*
G02*
X12997677Y-10064714I15000J0D01*
G01*
X13045000Y-8805000D02*
G75*
G02*
X13015000Y-8805000I-15000J0D01*
G01*
X13015000Y-8805000D02*
G75*
G02*
X13045000Y-8805000I15000J0D01*
G01*
X13045000Y-10942500D02*
G75*
G02*
X13015000Y-10942500I-15000J0D01*
G01*
X13015000Y-10942500D02*
G75*
G02*
X13045000Y-10942500I15000J0D01*
G01*
X13045000Y-11062500D02*
G75*
G02*
X13015000Y-11062500I-15000J0D01*
G01*
X13015000Y-11062500D02*
G75*
G02*
X13045000Y-11062500I15000J0D01*
G01*
X13045000Y-11182500D02*
G75*
G02*
X13015000Y-11182500I-15000J0D01*
G01*
X13015000Y-11182500D02*
G75*
G02*
X13045000Y-11182500I15000J0D01*
G01*
X13045000Y-11302500D02*
G75*
G02*
X13015000Y-11302500I-15000J0D01*
G01*
X13015000Y-11302500D02*
G75*
G02*
X13045000Y-11302500I15000J0D01*
G01*
X13045000Y-11422500D02*
G75*
G02*
X13015000Y-11422500I-15000J0D01*
G01*
X13015000Y-11422500D02*
G75*
G02*
X13045000Y-11422500I15000J0D01*
G01*
X13095000Y-12365000D02*
G75*
G02*
X13065000Y-12365000I-15000J0D01*
G01*
X13065000Y-12365000D02*
G75*
G02*
X13095000Y-12365000I15000J0D01*
G01*
X13114248Y-12104248D02*
G75*
G02*
X13084248Y-12104248I-15000J0D01*
G01*
X13084248Y-12104248D02*
G75*
G02*
X13114248Y-12104248I15000J0D01*
G01*
X13115000Y-10350000D02*
G75*
G02*
X13085000Y-10350000I-15000J0D01*
G01*
X13085000Y-10350000D02*
G75*
G02*
X13115000Y-10350000I15000J0D01*
G01*
X13127796Y-11578038D02*
G75*
G02*
X13097796Y-11578038I-15000J0D01*
G01*
X13097796Y-11578038D02*
G75*
G02*
X13127796Y-11578038I15000J0D01*
G01*
X13192500Y-11625000D02*
G75*
G02*
X13162500Y-11625000I-15000J0D01*
G01*
X13162500Y-11625000D02*
G75*
G02*
X13192500Y-11625000I15000J0D01*
G01*
X13195000Y-8805000D02*
G75*
G02*
X13165000Y-8805000I-15000J0D01*
G01*
X13165000Y-8805000D02*
G75*
G02*
X13195000Y-8805000I15000J0D01*
G01*
X13200000Y-10942500D02*
G75*
G02*
X13170000Y-10942500I-15000J0D01*
G01*
X13170000Y-10942500D02*
G75*
G02*
X13200000Y-10942500I15000J0D01*
G01*
X13200000Y-11062500D02*
G75*
G02*
X13170000Y-11062500I-15000J0D01*
G01*
X13170000Y-11062500D02*
G75*
G02*
X13200000Y-11062500I15000J0D01*
G01*
X13200000Y-11182500D02*
G75*
G02*
X13170000Y-11182500I-15000J0D01*
G01*
X13170000Y-11182500D02*
G75*
G02*
X13200000Y-11182500I15000J0D01*
G01*
X13200000Y-11302500D02*
G75*
G02*
X13170000Y-11302500I-15000J0D01*
G01*
X13170000Y-11302500D02*
G75*
G02*
X13200000Y-11302500I15000J0D01*
G01*
X13200000Y-11422500D02*
G75*
G02*
X13170000Y-11422500I-15000J0D01*
G01*
X13170000Y-11422500D02*
G75*
G02*
X13200000Y-11422500I15000J0D01*
G01*
X13210000Y-12105000D02*
G75*
G02*
X13180000Y-12105000I-15000J0D01*
G01*
X13180000Y-12105000D02*
G75*
G02*
X13210000Y-12105000I15000J0D01*
G01*
X13245000Y-8740000D02*
G75*
G02*
X13215000Y-8740000I-15000J0D01*
G01*
X13215000Y-8740000D02*
G75*
G02*
X13245000Y-8740000I15000J0D01*
G01*
X13254950Y-9960000D02*
G75*
G02*
X13224950Y-9960000I-15000J0D01*
G01*
X13224950Y-9960000D02*
G75*
G02*
X13254950Y-9960000I15000J0D01*
G01*
X13260000Y-11577890D02*
G75*
G02*
X13230000Y-11577890I-15000J0D01*
G01*
X13230000Y-11577890D02*
G75*
G02*
X13260000Y-11577890I15000J0D01*
G01*
X13295000Y-8805000D02*
G75*
G02*
X13265000Y-8805000I-15000J0D01*
G01*
X13265000Y-8805000D02*
G75*
G02*
X13295000Y-8805000I15000J0D01*
G01*
X13305050Y-10644050D02*
G75*
G02*
X13275050Y-10644050I-15000J0D01*
G01*
X13275050Y-10644050D02*
G75*
G02*
X13305050Y-10644050I15000J0D01*
G01*
X13322500Y-9887500D02*
G75*
G02*
X13292500Y-9887500I-15000J0D01*
G01*
X13292500Y-9887500D02*
G75*
G02*
X13322500Y-9887500I15000J0D01*
G01*
X13335000Y-12340000D02*
G75*
G02*
X13305000Y-12340000I-15000J0D01*
G01*
X13305000Y-12340000D02*
G75*
G02*
X13335000Y-12340000I15000J0D01*
G01*
X13370000Y-10102500D02*
G75*
G02*
X13340000Y-10102500I-15000J0D01*
G01*
X13340000Y-10102500D02*
G75*
G02*
X13370000Y-10102500I15000J0D01*
G01*
X13372242Y-10015040D02*
G75*
G02*
X13342242Y-10015040I-15000J0D01*
G01*
X13342242Y-10015040D02*
G75*
G02*
X13372242Y-10015040I15000J0D01*
G01*
X13372500Y-10190000D02*
G75*
G02*
X13342500Y-10190000I-15000J0D01*
G01*
X13342500Y-10190000D02*
G75*
G02*
X13372500Y-10190000I15000J0D01*
G01*
X13385000Y-12405000D02*
G75*
G02*
X13355000Y-12405000I-15000J0D01*
G01*
X13355000Y-12405000D02*
G75*
G02*
X13385000Y-12405000I15000J0D01*
G01*
X13435000Y-12340000D02*
G75*
G02*
X13405000Y-12340000I-15000J0D01*
G01*
X13405000Y-12340000D02*
G75*
G02*
X13435000Y-12340000I15000J0D01*
G01*
X13475000Y-10271950D02*
G75*
G02*
X13445000Y-10271950I-15000J0D01*
G01*
X13445000Y-10271950D02*
G75*
G02*
X13475000Y-10271950I15000J0D01*
G01*
X13520000Y-12370000D02*
G75*
G02*
X13490000Y-12370000I-15000J0D01*
G01*
X13490000Y-12370000D02*
G75*
G02*
X13520000Y-12370000I15000J0D01*
G01*
X13525000Y-12075000D02*
G75*
G02*
X13495000Y-12075000I-15000J0D01*
G01*
X13495000Y-12075000D02*
G75*
G02*
X13525000Y-12075000I15000J0D01*
G01*
X13556223Y-11311223D02*
G75*
G02*
X13526223Y-11311223I-15000J0D01*
G01*
X13526223Y-11311223D02*
G75*
G02*
X13556223Y-11311223I15000J0D01*
G01*
X13565000Y-10680000D02*
G75*
G02*
X13535000Y-10680000I-15000J0D01*
G01*
X13535000Y-10680000D02*
G75*
G02*
X13565000Y-10680000I15000J0D01*
G01*
X13565000Y-11025000D02*
G75*
G02*
X13535000Y-11025000I-15000J0D01*
G01*
X13535000Y-11025000D02*
G75*
G02*
X13565000Y-11025000I15000J0D01*
G01*
X13574431Y-11685000D02*
G75*
G02*
X13544431Y-11685000I-15000J0D01*
G01*
X13544431Y-11685000D02*
G75*
G02*
X13574431Y-11685000I15000J0D01*
G01*
X13615000Y-9849950D02*
G75*
G02*
X13585000Y-9849950I-15000J0D01*
G01*
X13585000Y-9849950D02*
G75*
G02*
X13615000Y-9849950I15000J0D01*
G01*
X13645000Y-10440000D02*
G75*
G02*
X13615000Y-10440000I-15000J0D01*
G01*
X13615000Y-10440000D02*
G75*
G02*
X13645000Y-10440000I15000J0D01*
G01*
X13648632Y-10693632D02*
G75*
G02*
X13618632Y-10693632I-15000J0D01*
G01*
X13618632Y-10693632D02*
G75*
G02*
X13648632Y-10693632I15000J0D01*
G01*
X13652651Y-11024968D02*
G75*
G02*
X13622651Y-11024968I-15000J0D01*
G01*
X13622651Y-11024968D02*
G75*
G02*
X13652651Y-11024968I15000J0D01*
G01*
X13655000Y-10170000D02*
G75*
G02*
X13625000Y-10170000I-15000J0D01*
G01*
X13625000Y-10170000D02*
G75*
G02*
X13655000Y-10170000I15000J0D01*
G01*
X13655000Y-10590000D02*
G75*
G02*
X13625000Y-10590000I-15000J0D01*
G01*
X13625000Y-10590000D02*
G75*
G02*
X13655000Y-10590000I15000J0D01*
G01*
X13660000Y-10035000D02*
G75*
G02*
X13630000Y-10035000I-15000J0D01*
G01*
X13630000Y-10035000D02*
G75*
G02*
X13660000Y-10035000I15000J0D01*
G01*
X13665000Y-11520000D02*
G75*
G02*
X13635000Y-11520000I-15000J0D01*
G01*
X13635000Y-11520000D02*
G75*
G02*
X13665000Y-11520000I15000J0D01*
G01*
X13671926Y-11102560D02*
G75*
G02*
X13641926Y-11102560I-15000J0D01*
G01*
X13641926Y-11102560D02*
G75*
G02*
X13671926Y-11102560I15000J0D01*
G01*
X13695000Y-9850000D02*
G75*
G02*
X13665000Y-9850000I-15000J0D01*
G01*
X13665000Y-9850000D02*
G75*
G02*
X13695000Y-9850000I15000J0D01*
G01*
X13795000Y-11000000D02*
G75*
G02*
X13765000Y-11000000I-15000J0D01*
G01*
X13765000Y-11000000D02*
G75*
G02*
X13795000Y-11000000I15000J0D01*
G01*
X13800000Y-12075000D02*
G75*
G02*
X13770000Y-12075000I-15000J0D01*
G01*
X13770000Y-12075000D02*
G75*
G02*
X13800000Y-12075000I15000J0D01*
G01*
X13800000Y-12365000D02*
G75*
G02*
X13770000Y-12365000I-15000J0D01*
G01*
X13770000Y-12365000D02*
G75*
G02*
X13800000Y-12365000I15000J0D01*
G01*
X13805000Y-9540000D02*
G75*
G02*
X13775000Y-9540000I-15000J0D01*
G01*
X13775000Y-9540000D02*
G75*
G02*
X13805000Y-9540000I15000J0D01*
G01*
X13865000Y-11418050D02*
G75*
G02*
X13835000Y-11418050I-15000J0D01*
G01*
X13835000Y-11418050D02*
G75*
G02*
X13865000Y-11418050I15000J0D01*
G01*
X13875000Y-11005000D02*
G75*
G02*
X13845000Y-11005000I-15000J0D01*
G01*
X13845000Y-11005000D02*
G75*
G02*
X13875000Y-11005000I15000J0D01*
G01*
X13880050Y-10735363D02*
G75*
G02*
X13850050Y-10735363I-15000J0D01*
G01*
X13850050Y-10735363D02*
G75*
G02*
X13880050Y-10735363I15000J0D01*
G01*
X13925000Y-11760000D02*
G75*
G02*
X13895000Y-11760000I-15000J0D01*
G01*
X13895000Y-11760000D02*
G75*
G02*
X13925000Y-11760000I15000J0D01*
G01*
X13935000Y-10080000D02*
G75*
G02*
X13905000Y-10080000I-15000J0D01*
G01*
X13905000Y-10080000D02*
G75*
G02*
X13935000Y-10080000I15000J0D01*
G01*
X13935000Y-10200000D02*
G75*
G02*
X13905000Y-10200000I-15000J0D01*
G01*
X13905000Y-10200000D02*
G75*
G02*
X13935000Y-10200000I15000J0D01*
G01*
X13935000Y-10320000D02*
G75*
G02*
X13905000Y-10320000I-15000J0D01*
G01*
X13905000Y-10320000D02*
G75*
G02*
X13935000Y-10320000I15000J0D01*
G01*
X13935000Y-10440000D02*
G75*
G02*
X13905000Y-10440000I-15000J0D01*
G01*
X13905000Y-10440000D02*
G75*
G02*
X13935000Y-10440000I15000J0D01*
G01*
X13950283Y-11286633D02*
G75*
G02*
X13920283Y-11286633I-15000J0D01*
G01*
X13920283Y-11286633D02*
G75*
G02*
X13950283Y-11286633I15000J0D01*
G01*
X13955000Y-11000000D02*
G75*
G02*
X13925000Y-11000000I-15000J0D01*
G01*
X13925000Y-11000000D02*
G75*
G02*
X13955000Y-11000000I15000J0D01*
G01*
X14005821Y-10739089D02*
G75*
G02*
X13975821Y-10739089I-15000J0D01*
G01*
X13975821Y-10739089D02*
G75*
G02*
X14005821Y-10739089I15000J0D01*
G01*
X14029425Y-11089643D02*
G75*
G02*
X13999425Y-11089643I-15000J0D01*
G01*
X13999425Y-11089643D02*
G75*
G02*
X14029425Y-11089643I15000J0D01*
G01*
X14055000Y-10080000D02*
G75*
G02*
X14025000Y-10080000I-15000J0D01*
G01*
X14025000Y-10080000D02*
G75*
G02*
X14055000Y-10080000I15000J0D01*
G01*
X14055000Y-10200000D02*
G75*
G02*
X14025000Y-10200000I-15000J0D01*
G01*
X14025000Y-10200000D02*
G75*
G02*
X14055000Y-10200000I15000J0D01*
G01*
X14055000Y-10320000D02*
G75*
G02*
X14025000Y-10320000I-15000J0D01*
G01*
X14025000Y-10320000D02*
G75*
G02*
X14055000Y-10320000I15000J0D01*
G01*
X14055000Y-10440000D02*
G75*
G02*
X14025000Y-10440000I-15000J0D01*
G01*
X14025000Y-10440000D02*
G75*
G02*
X14055000Y-10440000I15000J0D01*
G01*
X14075000Y-9532050D02*
G75*
G02*
X14045000Y-9532050I-15000J0D01*
G01*
X14045000Y-9532050D02*
G75*
G02*
X14075000Y-9532050I15000J0D01*
G01*
X14075000Y-12075000D02*
G75*
G02*
X14045000Y-12075000I-15000J0D01*
G01*
X14045000Y-12075000D02*
G75*
G02*
X14075000Y-12075000I15000J0D01*
G01*
X14077500Y-12365000D02*
G75*
G02*
X14047500Y-12365000I-15000J0D01*
G01*
X14047500Y-12365000D02*
G75*
G02*
X14077500Y-12365000I15000J0D01*
G01*
X14094900Y-10725000D02*
G75*
G02*
X14064900Y-10725000I-15000J0D01*
G01*
X14064900Y-10725000D02*
G75*
G02*
X14094900Y-10725000I15000J0D01*
G01*
X14109368Y-11088582D02*
G75*
G02*
X14079368Y-11088582I-15000J0D01*
G01*
X14079368Y-11088582D02*
G75*
G02*
X14109368Y-11088582I15000J0D01*
G01*
X14174850Y-10725000D02*
G75*
G02*
X14144850Y-10725000I-15000J0D01*
G01*
X14144850Y-10725000D02*
G75*
G02*
X14174850Y-10725000I15000J0D01*
G01*
X14175000Y-10080000D02*
G75*
G02*
X14145000Y-10080000I-15000J0D01*
G01*
X14145000Y-10080000D02*
G75*
G02*
X14175000Y-10080000I15000J0D01*
G01*
X14175000Y-10200000D02*
G75*
G02*
X14145000Y-10200000I-15000J0D01*
G01*
X14145000Y-10200000D02*
G75*
G02*
X14175000Y-10200000I15000J0D01*
G01*
X14175000Y-10320000D02*
G75*
G02*
X14145000Y-10320000I-15000J0D01*
G01*
X14145000Y-10320000D02*
G75*
G02*
X14175000Y-10320000I15000J0D01*
G01*
X14175000Y-10440000D02*
G75*
G02*
X14145000Y-10440000I-15000J0D01*
G01*
X14145000Y-10440000D02*
G75*
G02*
X14175000Y-10440000I15000J0D01*
G01*
X14185000Y-9530000D02*
G75*
G02*
X14155000Y-9530000I-15000J0D01*
G01*
X14155000Y-9530000D02*
G75*
G02*
X14185000Y-9530000I15000J0D01*
G01*
X14265000Y-9540000D02*
G75*
G02*
X14235000Y-9540000I-15000J0D01*
G01*
X14235000Y-9540000D02*
G75*
G02*
X14265000Y-9540000I15000J0D01*
G01*
X14295000Y-10080000D02*
G75*
G02*
X14265000Y-10080000I-15000J0D01*
G01*
X14265000Y-10080000D02*
G75*
G02*
X14295000Y-10080000I15000J0D01*
G01*
X14295000Y-10200000D02*
G75*
G02*
X14265000Y-10200000I-15000J0D01*
G01*
X14265000Y-10200000D02*
G75*
G02*
X14295000Y-10200000I15000J0D01*
G01*
X14295000Y-10320000D02*
G75*
G02*
X14265000Y-10320000I-15000J0D01*
G01*
X14265000Y-10320000D02*
G75*
G02*
X14295000Y-10320000I15000J0D01*
G01*
X14295000Y-10440000D02*
G75*
G02*
X14265000Y-10440000I-15000J0D01*
G01*
X14265000Y-10440000D02*
G75*
G02*
X14295000Y-10440000I15000J0D01*
G01*
X14345000Y-12155000D02*
G75*
G02*
X14315000Y-12155000I-15000J0D01*
G01*
X14315000Y-12155000D02*
G75*
G02*
X14345000Y-12155000I15000J0D01*
G01*
X14347500Y-12069950D02*
G75*
G02*
X14317500Y-12069950I-15000J0D01*
G01*
X14317500Y-12069950D02*
G75*
G02*
X14347500Y-12069950I15000J0D01*
G01*
X14355000Y-9780000D02*
G75*
G02*
X14325000Y-9780000I-15000J0D01*
G01*
X14325000Y-9780000D02*
G75*
G02*
X14355000Y-9780000I15000J0D01*
G01*
X14438000Y-12344000D02*
G75*
G02*
X14408000Y-12344000I-15000J0D01*
G01*
X14408000Y-12344000D02*
G75*
G02*
X14438000Y-12344000I15000J0D01*
G01*
X14447500Y-11785000D02*
G75*
G02*
X14417500Y-11785000I-15000J0D01*
G01*
X14417500Y-11785000D02*
G75*
G02*
X14447500Y-11785000I15000J0D01*
G01*
X14455000Y-11620000D02*
G75*
G02*
X14425000Y-11620000I-15000J0D01*
G01*
X14425000Y-11620000D02*
G75*
G02*
X14455000Y-11620000I15000J0D01*
G01*
X14455000Y-11700000D02*
G75*
G02*
X14425000Y-11700000I-15000J0D01*
G01*
X14425000Y-11700000D02*
G75*
G02*
X14455000Y-11700000I15000J0D01*
G01*
X14465000Y-9800000D02*
G75*
G02*
X14435000Y-9800000I-15000J0D01*
G01*
X14435000Y-9800000D02*
G75*
G02*
X14465000Y-9800000I15000J0D01*
G01*
X14480000Y-11490000D02*
G75*
G02*
X14450000Y-11490000I-15000J0D01*
G01*
X14450000Y-11490000D02*
G75*
G02*
X14480000Y-11490000I15000J0D01*
G01*
X14485000Y-11290000D02*
G75*
G02*
X14455000Y-11290000I-15000J0D01*
G01*
X14455000Y-11290000D02*
G75*
G02*
X14485000Y-11290000I15000J0D01*
G01*
X14485000Y-12410050D02*
G75*
G02*
X14455000Y-12410050I-15000J0D01*
G01*
X14455000Y-12410050D02*
G75*
G02*
X14485000Y-12410050I15000J0D01*
G01*
X14485111Y-11384671D02*
G75*
G02*
X14455111Y-11384671I-15000J0D01*
G01*
X14455111Y-11384671D02*
G75*
G02*
X14485111Y-11384671I15000J0D01*
G01*
X14532000Y-12344000D02*
G75*
G02*
X14502000Y-12344000I-15000J0D01*
G01*
X14502000Y-12344000D02*
G75*
G02*
X14532000Y-12344000I15000J0D01*
G01*
X14535000Y-11620000D02*
G75*
G02*
X14505000Y-11620000I-15000J0D01*
G01*
X14505000Y-11620000D02*
G75*
G02*
X14535000Y-11620000I15000J0D01*
G01*
X14535000Y-11700000D02*
G75*
G02*
X14505000Y-11700000I-15000J0D01*
G01*
X14505000Y-11700000D02*
G75*
G02*
X14535000Y-11700000I15000J0D01*
G01*
X14564929Y-10094950D02*
G75*
G02*
X14534929Y-10094950I-15000J0D01*
G01*
X14534929Y-10094950D02*
G75*
G02*
X14564929Y-10094950I15000J0D01*
G01*
X14565000Y-10530000D02*
G75*
G02*
X14535000Y-10530000I-15000J0D01*
G01*
X14535000Y-10530000D02*
G75*
G02*
X14565000Y-10530000I15000J0D01*
G01*
X14569609Y-10175050D02*
G75*
G02*
X14539609Y-10175050I-15000J0D01*
G01*
X14539609Y-10175050D02*
G75*
G02*
X14569609Y-10175050I15000J0D01*
G01*
X14570109Y-11369891D02*
G75*
G02*
X14540109Y-11369891I-15000J0D01*
G01*
X14540109Y-11369891D02*
G75*
G02*
X14570109Y-11369891I15000J0D01*
G01*
X14572109Y-10297109D02*
G75*
G02*
X14542109Y-10297109I-15000J0D01*
G01*
X14542109Y-10297109D02*
G75*
G02*
X14572109Y-10297109I15000J0D01*
G01*
X14576307Y-10609147D02*
G75*
G02*
X14546307Y-10609147I-15000J0D01*
G01*
X14546307Y-10609147D02*
G75*
G02*
X14576307Y-10609147I15000J0D01*
G01*
X14580000Y-11785000D02*
G75*
G02*
X14550000Y-11785000I-15000J0D01*
G01*
X14550000Y-11785000D02*
G75*
G02*
X14580000Y-11785000I15000J0D01*
G01*
X14625000Y-12155000D02*
G75*
G02*
X14595000Y-12155000I-15000J0D01*
G01*
X14595000Y-12155000D02*
G75*
G02*
X14625000Y-12155000I15000J0D01*
G01*
X14625057Y-12070050D02*
G75*
G02*
X14595057Y-12070050I-15000J0D01*
G01*
X14595057Y-12070050D02*
G75*
G02*
X14625057Y-12070050I15000J0D01*
G01*
X14665000Y-8805000D02*
G75*
G02*
X14635000Y-8805000I-15000J0D01*
G01*
X14635000Y-8805000D02*
G75*
G02*
X14665000Y-8805000I15000J0D01*
G01*
X14682609Y-10610050D02*
G75*
G02*
X14652609Y-10610050I-15000J0D01*
G01*
X14652609Y-10610050D02*
G75*
G02*
X14682609Y-10610050I15000J0D01*
G01*
X14705000Y-11320000D02*
G75*
G02*
X14675000Y-11320000I-15000J0D01*
G01*
X14675000Y-11320000D02*
G75*
G02*
X14705000Y-11320000I15000J0D01*
G01*
X14710000Y-11535000D02*
G75*
G02*
X14680000Y-11535000I-15000J0D01*
G01*
X14680000Y-11535000D02*
G75*
G02*
X14710000Y-11535000I15000J0D01*
G01*
X14710000Y-12155000D02*
G75*
G02*
X14680000Y-12155000I-15000J0D01*
G01*
X14680000Y-12155000D02*
G75*
G02*
X14710000Y-12155000I15000J0D01*
G01*
X14710000Y-12345000D02*
G75*
G02*
X14680000Y-12345000I-15000J0D01*
G01*
X14680000Y-12345000D02*
G75*
G02*
X14710000Y-12345000I15000J0D01*
G01*
X14715000Y-8740000D02*
G75*
G02*
X14685000Y-8740000I-15000J0D01*
G01*
X14685000Y-8740000D02*
G75*
G02*
X14715000Y-8740000I15000J0D01*
G01*
X14760000Y-12410000D02*
G75*
G02*
X14730000Y-12410000I-15000J0D01*
G01*
X14730000Y-12410000D02*
G75*
G02*
X14760000Y-12410000I15000J0D01*
G01*
X14765000Y-8805000D02*
G75*
G02*
X14735000Y-8805000I-15000J0D01*
G01*
X14735000Y-8805000D02*
G75*
G02*
X14765000Y-8805000I15000J0D01*
G01*
X14765000Y-12090000D02*
G75*
G02*
X14735000Y-12090000I-15000J0D01*
G01*
X14735000Y-12090000D02*
G75*
G02*
X14765000Y-12090000I15000J0D01*
G01*
X14810000Y-12345000D02*
G75*
G02*
X14780000Y-12345000I-15000J0D01*
G01*
X14780000Y-12345000D02*
G75*
G02*
X14810000Y-12345000I15000J0D01*
G01*
X14815000Y-12155000D02*
G75*
G02*
X14785000Y-12155000I-15000J0D01*
G01*
X14785000Y-12155000D02*
G75*
G02*
X14815000Y-12155000I15000J0D01*
G01*
X14860000Y-9705000D02*
G75*
G02*
X14830000Y-9705000I-15000J0D01*
G01*
X14830000Y-9705000D02*
G75*
G02*
X14860000Y-9705000I15000J0D01*
G01*
X14885000Y-10670000D02*
G75*
G02*
X14855000Y-10670000I-15000J0D01*
G01*
X14855000Y-10670000D02*
G75*
G02*
X14885000Y-10670000I15000J0D01*
G01*
X14895000Y-10820000D02*
G75*
G02*
X14865000Y-10820000I-15000J0D01*
G01*
X14865000Y-10820000D02*
G75*
G02*
X14895000Y-10820000I15000J0D01*
G01*
X14925000Y-11240000D02*
G75*
G02*
X14895000Y-11240000I-15000J0D01*
G01*
X14895000Y-11240000D02*
G75*
G02*
X14925000Y-11240000I15000J0D01*
G01*
X14940000Y-8805000D02*
G75*
G02*
X14910000Y-8805000I-15000J0D01*
G01*
X14910000Y-8805000D02*
G75*
G02*
X14940000Y-8805000I15000J0D01*
G01*
X14985000Y-12155000D02*
G75*
G02*
X14955000Y-12155000I-15000J0D01*
G01*
X14955000Y-12155000D02*
G75*
G02*
X14985000Y-12155000I15000J0D01*
G01*
X14985000Y-12340000D02*
G75*
G02*
X14955000Y-12340000I-15000J0D01*
G01*
X14955000Y-12340000D02*
G75*
G02*
X14985000Y-12340000I15000J0D01*
G01*
X14990000Y-8740000D02*
G75*
G02*
X14960000Y-8740000I-15000J0D01*
G01*
X14960000Y-8740000D02*
G75*
G02*
X14990000Y-8740000I15000J0D01*
G01*
X14995000Y-10380000D02*
G75*
G02*
X14965000Y-10380000I-15000J0D01*
G01*
X14965000Y-10380000D02*
G75*
G02*
X14995000Y-10380000I15000J0D01*
G01*
X15035000Y-12090000D02*
G75*
G02*
X15005000Y-12090000I-15000J0D01*
G01*
X15005000Y-12090000D02*
G75*
G02*
X15035000Y-12090000I15000J0D01*
G01*
X15035000Y-12410000D02*
G75*
G02*
X15005000Y-12410000I-15000J0D01*
G01*
X15005000Y-12410000D02*
G75*
G02*
X15035000Y-12410000I15000J0D01*
G01*
X15040000Y-8805000D02*
G75*
G02*
X15010000Y-8805000I-15000J0D01*
G01*
X15010000Y-8805000D02*
G75*
G02*
X15040000Y-8805000I15000J0D01*
G01*
X15040000Y-10675000D02*
G75*
G02*
X15010000Y-10675000I-15000J0D01*
G01*
X15010000Y-10675000D02*
G75*
G02*
X15040000Y-10675000I15000J0D01*
G01*
X15065000Y-9320000D02*
G75*
G02*
X15035000Y-9320000I-15000J0D01*
G01*
X15035000Y-9320000D02*
G75*
G02*
X15065000Y-9320000I15000J0D01*
G01*
X15065000Y-9410000D02*
G75*
G02*
X15035000Y-9410000I-15000J0D01*
G01*
X15035000Y-9410000D02*
G75*
G02*
X15065000Y-9410000I15000J0D01*
G01*
X15085000Y-12155000D02*
G75*
G02*
X15055000Y-12155000I-15000J0D01*
G01*
X15055000Y-12155000D02*
G75*
G02*
X15085000Y-12155000I15000J0D01*
G01*
X15085000Y-12340000D02*
G75*
G02*
X15055000Y-12340000I-15000J0D01*
G01*
X15055000Y-12340000D02*
G75*
G02*
X15085000Y-12340000I15000J0D01*
G01*
X15086854Y-10111177D02*
G75*
G02*
X15056854Y-10111177I-15000J0D01*
G01*
X15056854Y-10111177D02*
G75*
G02*
X15086854Y-10111177I15000J0D01*
G01*
X15235379Y-9328701D02*
G75*
G02*
X15205379Y-9328701I-15000J0D01*
G01*
X15205379Y-9328701D02*
G75*
G02*
X15235379Y-9328701I15000J0D01*
G01*
X15260000Y-9882500D02*
G75*
G02*
X15230000Y-9882500I-15000J0D01*
G01*
X15230000Y-9882500D02*
G75*
G02*
X15260000Y-9882500I15000J0D01*
G01*
X15267500Y-10250000D02*
G75*
G02*
X15237500Y-10250000I-15000J0D01*
G01*
X15237500Y-10250000D02*
G75*
G02*
X15267500Y-10250000I15000J0D01*
G01*
X15324000Y-9314000D02*
G75*
G02*
X15294000Y-9314000I-15000J0D01*
G01*
X15294000Y-9314000D02*
G75*
G02*
X15324000Y-9314000I15000J0D01*
G01*
X15585000Y-11260000D02*
G75*
G02*
X15555000Y-11260000I-15000J0D01*
G01*
X15555000Y-11260000D02*
G75*
G02*
X15585000Y-11260000I15000J0D01*
G01*
X12705000Y-9932000D02*
X12705000Y-9962000D01*
X12690000Y-9947000D02*
X12720000Y-9947000D01*
X12800000Y-9882000D02*
X12800000Y-9912000D01*
X12785000Y-9897000D02*
X12815000Y-9897000D01*
X12800000Y-9982000D02*
X12800000Y-10012000D01*
X12785000Y-9997000D02*
X12815000Y-9997000D01*
X12895000Y-9932000D02*
X12895000Y-9962000D01*
X12880000Y-9947000D02*
X12910000Y-9947000D01*
X12034142Y-10304142D02*
X12034142Y-10275858D01*
X12005858Y-10275858D01*
X12005858Y-10304142D01*
X12034142Y-10304142D01*
X12034142Y-10544142D02*
X12034142Y-10515858D01*
X12005858Y-10515858D01*
X12005858Y-10544142D01*
X12034142Y-10544142D01*
X12034142Y-10754142D02*
X12034142Y-10725858D01*
X12005858Y-10725858D01*
X12005858Y-10754142D01*
X12034142Y-10754142D01*
X12044142Y-9304142D02*
X12044142Y-9275858D01*
X12015858Y-9275858D01*
X12015858Y-9304142D01*
X12044142Y-9304142D01*
X12044142Y-9824142D02*
X12044142Y-9795858D01*
X12015858Y-9795858D01*
X12015858Y-9824142D01*
X12044142Y-9824142D01*
X12174142Y-8784142D02*
X12174142Y-8755858D01*
X12145858Y-8755858D01*
X12145858Y-8784142D01*
X12174142Y-8784142D01*
X12266692Y-10304142D02*
X12266692Y-10275858D01*
X12238408Y-10275858D01*
X12238408Y-10304142D01*
X12266692Y-10304142D01*
X12266692Y-10544142D02*
X12266692Y-10515858D01*
X12238408Y-10515858D01*
X12238408Y-10544142D01*
X12266692Y-10544142D01*
X12284142Y-11644142D02*
X12284142Y-11615858D01*
X12255858Y-11615858D01*
X12255858Y-11644142D01*
X12284142Y-11644142D01*
X12284142Y-11744142D02*
X12284142Y-11715858D01*
X12255858Y-11715858D01*
X12255858Y-11744142D01*
X12284142Y-11744142D01*
X12384142Y-11644142D02*
X12384142Y-11615858D01*
X12355858Y-11615858D01*
X12355858Y-11644142D01*
X12384142Y-11644142D01*
X12384142Y-11744142D02*
X12384142Y-11715858D01*
X12355858Y-11715858D01*
X12355858Y-11744142D01*
X12384142Y-11744142D01*
X12389088Y-10962140D02*
X12389088Y-10933855D01*
X12360803Y-10933855D01*
X12360803Y-10962140D01*
X12389088Y-10962140D01*
X12414142Y-11429142D02*
X12414142Y-11400858D01*
X12385858Y-11400858D01*
X12385858Y-11429142D01*
X12414142Y-11429142D01*
X12414142Y-11529142D02*
X12414142Y-11500858D01*
X12385858Y-11500858D01*
X12385858Y-11529142D01*
X12414142Y-11529142D01*
X12481692Y-11234852D02*
X12481692Y-11206567D01*
X12453408Y-11206567D01*
X12453408Y-11234852D01*
X12481692Y-11234852D01*
X12488204Y-10985396D02*
X12488204Y-10957111D01*
X12459920Y-10957111D01*
X12459920Y-10985396D01*
X12488204Y-10985396D01*
X12544142Y-10704142D02*
X12544142Y-10675858D01*
X12515858Y-10675858D01*
X12515858Y-10704142D01*
X12544142Y-10704142D01*
X12544142Y-10804142D02*
X12544142Y-10775858D01*
X12515858Y-10775858D01*
X12515858Y-10804142D01*
X12544142Y-10804142D01*
X12558204Y-10918204D02*
X12558204Y-10889920D01*
X12529920Y-10889920D01*
X12529920Y-10918204D01*
X12558204Y-10918204D01*
X12569092Y-10064142D02*
X12569092Y-10035858D01*
X12540808Y-10035858D01*
X12540808Y-10064142D01*
X12569092Y-10064142D01*
X12604142Y-9814142D02*
X12604142Y-9785858D01*
X12575858Y-9785858D01*
X12575858Y-9814142D01*
X12604142Y-9814142D01*
X12644142Y-10704142D02*
X12644142Y-10675858D01*
X12615858Y-10675858D01*
X12615858Y-10704142D01*
X12644142Y-10704142D01*
X12644142Y-10804142D02*
X12644142Y-10775858D01*
X12615858Y-10775858D01*
X12615858Y-10804142D01*
X12644142Y-10804142D01*
X12659192Y-11604142D02*
X12659192Y-11575858D01*
X12630908Y-11575858D01*
X12630908Y-11604142D01*
X12659192Y-11604142D01*
X12659951Y-11491292D02*
X12659951Y-11463008D01*
X12631666Y-11463008D01*
X12631666Y-11491292D01*
X12659951Y-11491292D01*
X12664142Y-11929142D02*
X12664142Y-11900858D01*
X12635858Y-11900858D01*
X12635858Y-11929142D01*
X12664142Y-11929142D01*
X12689142Y-9446642D02*
X12689142Y-9418358D01*
X12660858Y-9418358D01*
X12660858Y-9446642D01*
X12689142Y-9446642D01*
X12691407Y-9266804D02*
X12691407Y-9238520D01*
X12663123Y-9238520D01*
X12663123Y-9266804D01*
X12691407Y-9266804D01*
X12771881Y-11771592D02*
X12771881Y-11743308D01*
X12743596Y-11743308D01*
X12743596Y-11771592D01*
X12771881Y-11771592D01*
X12804142Y-10554142D02*
X12804142Y-10525858D01*
X12775858Y-10525858D01*
X12775858Y-10554142D01*
X12804142Y-10554142D01*
X12814142Y-10354142D02*
X12814142Y-10325858D01*
X12785858Y-10325858D01*
X12785858Y-10354142D01*
X12814142Y-10354142D01*
X12854142Y-9054142D02*
X12854142Y-9025858D01*
X12825858Y-9025858D01*
X12825858Y-9054142D01*
X12854142Y-9054142D01*
X12854142Y-9154142D02*
X12854142Y-9125858D01*
X12825858Y-9125858D01*
X12825858Y-9154142D01*
X12854142Y-9154142D01*
X12954142Y-9054142D02*
X12954142Y-9025858D01*
X12925858Y-9025858D01*
X12925858Y-9054142D01*
X12954142Y-9054142D01*
X12954142Y-9154142D02*
X12954142Y-9125858D01*
X12925858Y-9125858D01*
X12925858Y-9154142D01*
X12954142Y-9154142D01*
X12989142Y-12394142D02*
X12989142Y-12365858D01*
X12960858Y-12365858D01*
X12960858Y-12394142D01*
X12989142Y-12394142D01*
X13019142Y-9329142D02*
X13019142Y-9300858D01*
X12990858Y-9300858D01*
X12990858Y-9329142D01*
X13019142Y-9329142D01*
X13024142Y-9574142D02*
X13024142Y-9545858D01*
X12995858Y-9545858D01*
X12995858Y-9574142D01*
X13024142Y-9574142D01*
X13044142Y-10304142D02*
X13044142Y-10275858D01*
X13015858Y-10275858D01*
X13015858Y-10304142D01*
X13044142Y-10304142D01*
X13044142Y-10544142D02*
X13044142Y-10515858D01*
X13015858Y-10515858D01*
X13015858Y-10544142D01*
X13044142Y-10544142D01*
X13094142Y-10214142D02*
X13094142Y-10185858D01*
X13065858Y-10185858D01*
X13065858Y-10214142D01*
X13094142Y-10214142D01*
X13124142Y-10761642D02*
X13124142Y-10733358D01*
X13095858Y-10733358D01*
X13095858Y-10761642D01*
X13124142Y-10761642D01*
X13144142Y-9174142D02*
X13144142Y-9145858D01*
X13115858Y-9145858D01*
X13115858Y-9174142D01*
X13144142Y-9174142D01*
X13304142Y-10284142D02*
X13304142Y-10255858D01*
X13275858Y-10255858D01*
X13275858Y-10284142D01*
X13304142Y-10284142D01*
X13304142Y-10376192D02*
X13304142Y-10347908D01*
X13275858Y-10347908D01*
X13275858Y-10376192D01*
X13304142Y-10376192D01*
X13324142Y-9704142D02*
X13324142Y-9675858D01*
X13295858Y-9675858D01*
X13295858Y-9704142D01*
X13324142Y-9704142D01*
X13324142Y-9804142D02*
X13324142Y-9775858D01*
X13295858Y-9775858D01*
X13295858Y-9804142D01*
X13324142Y-9804142D01*
X13369142Y-9046642D02*
X13369142Y-9018358D01*
X13340858Y-9018358D01*
X13340858Y-9046642D01*
X13369142Y-9046642D01*
X13424142Y-9704142D02*
X13424142Y-9675858D01*
X13395858Y-9675858D01*
X13395858Y-9704142D01*
X13424142Y-9704142D01*
X13424142Y-9804142D02*
X13424142Y-9775858D01*
X13395858Y-9775858D01*
X13395858Y-9804142D01*
X13424142Y-9804142D01*
X13434092Y-10659142D02*
X13434092Y-10630858D01*
X13405808Y-10630858D01*
X13405808Y-10659142D01*
X13434092Y-10659142D01*
X13474142Y-9046642D02*
X13474142Y-9018358D01*
X13445858Y-9018358D01*
X13445858Y-9046642D01*
X13474142Y-9046642D01*
X13474142Y-9146642D02*
X13474142Y-9118358D01*
X13445858Y-9118358D01*
X13445858Y-9146642D01*
X13474142Y-9146642D01*
X13594142Y-9454142D02*
X13594142Y-9425858D01*
X13565858Y-9425858D01*
X13565858Y-9454142D01*
X13594142Y-9454142D01*
X13944142Y-8849192D02*
X13944142Y-8820908D01*
X13915858Y-8820908D01*
X13915858Y-8849192D01*
X13944142Y-8849192D01*
X13947908Y-11394387D02*
X13947908Y-11366102D01*
X13919623Y-11366102D01*
X13919623Y-11394387D01*
X13947908Y-11394387D01*
X13954142Y-11494142D02*
X13954142Y-11465858D01*
X13925858Y-11465858D01*
X13925858Y-11494142D01*
X13954142Y-11494142D01*
X13954142Y-11594142D02*
X13954142Y-11565858D01*
X13925858Y-11565858D01*
X13925858Y-11594142D01*
X13954142Y-11594142D01*
X13954142Y-11689142D02*
X13954142Y-11660858D01*
X13925858Y-11660858D01*
X13925858Y-11689142D01*
X13954142Y-11689142D01*
X14124142Y-11014142D02*
X14124142Y-10985858D01*
X14095858Y-10985858D01*
X14095858Y-11014142D01*
X14124142Y-11014142D01*
X14374142Y-10984142D02*
X14374142Y-10955858D01*
X14345858Y-10955858D01*
X14345858Y-10984142D01*
X14374142Y-10984142D01*
X14404142Y-9294142D02*
X14404142Y-9265858D01*
X14375858Y-9265858D01*
X14375858Y-9294142D01*
X14404142Y-9294142D01*
X14474142Y-10984142D02*
X14474142Y-10955858D01*
X14445858Y-10955858D01*
X14445858Y-10984142D01*
X14474142Y-10984142D01*
X14564142Y-10754092D02*
X14564142Y-10725808D01*
X14535858Y-10725808D01*
X14535858Y-10754092D01*
X14564142Y-10754092D01*
X14584142Y-9794142D02*
X14584142Y-9765858D01*
X14555858Y-9765858D01*
X14555858Y-9794142D01*
X14584142Y-9794142D01*
X14604142Y-9294142D02*
X14604142Y-9265858D01*
X14575858Y-9265858D01*
X14575858Y-9294142D01*
X14604142Y-9294142D01*
X14664142Y-10874142D02*
X14664142Y-10845858D01*
X14635858Y-10845858D01*
X14635858Y-10874142D01*
X14664142Y-10874142D01*
X14694142Y-9794142D02*
X14694142Y-9765858D01*
X14665858Y-9765858D01*
X14665858Y-9794142D01*
X14694142Y-9794142D01*
X14804142Y-9894142D02*
X14804142Y-9865858D01*
X14775858Y-9865858D01*
X14775858Y-9894142D01*
X14804142Y-9894142D01*
X14804142Y-9984142D02*
X14804142Y-9955858D01*
X14775858Y-9955858D01*
X14775858Y-9984142D01*
X14804142Y-9984142D01*
X14804142Y-10924142D02*
X14804142Y-10895858D01*
X14775858Y-10895858D01*
X14775858Y-10924142D01*
X14804142Y-10924142D01*
X14804142Y-11034142D02*
X14804142Y-11005858D01*
X14775858Y-11005858D01*
X14775858Y-11034142D01*
X14804142Y-11034142D01*
X14804142Y-11374142D02*
X14804142Y-11345858D01*
X14775858Y-11345858D01*
X14775858Y-11374142D01*
X14804142Y-11374142D01*
X14854142Y-11794142D02*
X14854142Y-11765858D01*
X14825858Y-11765858D01*
X14825858Y-11794142D01*
X14854142Y-11794142D01*
X14904142Y-10404142D02*
X14904142Y-10375858D01*
X14875858Y-10375858D01*
X14875858Y-10404142D01*
X14904142Y-10404142D01*
X14991642Y-10134192D02*
X14991642Y-10105908D01*
X14963358Y-10105908D01*
X14963358Y-10134192D01*
X14991642Y-10134192D01*
X15004142Y-11774142D02*
X15004142Y-11745858D01*
X14975858Y-11745858D01*
X14975858Y-11774142D01*
X15004142Y-11774142D01*
X15006642Y-11584142D02*
X15006642Y-11555858D01*
X14978358Y-11555858D01*
X14978358Y-11584142D01*
X15006642Y-11584142D01*
X15006642Y-11684142D02*
X15006642Y-11655858D01*
X14978358Y-11655858D01*
X14978358Y-11684142D01*
X15006642Y-11684142D01*
X15073434Y-9513611D02*
X15073434Y-9485327D01*
X15045150Y-9485327D01*
X15045150Y-9513611D01*
X15073434Y-9513611D01*
X15077692Y-11009142D02*
X15077692Y-10980858D01*
X15049407Y-10980858D01*
X15049407Y-11009142D01*
X15077692Y-11009142D01*
X15101553Y-10036724D02*
X15101553Y-10008440D01*
X15073269Y-10008440D01*
X15073269Y-10036724D01*
X15101553Y-10036724D01*
X15104142Y-11774142D02*
X15104142Y-11745858D01*
X15075858Y-11745858D01*
X15075858Y-11774142D01*
X15104142Y-11774142D01*
X15179142Y-10309142D02*
X15179142Y-10280858D01*
X15150858Y-10280858D01*
X15150858Y-10309142D01*
X15179142Y-10309142D01*
X15184142Y-9834142D02*
X15184142Y-9805858D01*
X15155858Y-9805858D01*
X15155858Y-9834142D01*
X15184142Y-9834142D01*
X15214142Y-9064142D02*
X15214142Y-9035858D01*
X15185858Y-9035858D01*
X15185858Y-9064142D01*
X15214142Y-9064142D01*
X15214142Y-11774142D02*
X15214142Y-11745858D01*
X15185858Y-11745858D01*
X15185858Y-11774142D01*
X15214142Y-11774142D01*
X15246642Y-12494142D02*
X15246642Y-12465858D01*
X15218358Y-12465858D01*
X15218358Y-12494142D01*
X15246642Y-12494142D01*
X15314142Y-11774142D02*
X15314142Y-11745858D01*
X15285858Y-11745858D01*
X15285858Y-11774142D01*
X15314142Y-11774142D01*
X15334142Y-9834142D02*
X15334142Y-9805858D01*
X15305858Y-9805858D01*
X15305858Y-9834142D01*
X15334142Y-9834142D01*
X15334142Y-10204142D02*
X15334142Y-10175858D01*
X15305858Y-10175858D01*
X15305858Y-10204142D01*
X15334142Y-10204142D01*
X15334142Y-11344142D02*
X15334142Y-11315858D01*
X15305858Y-11315858D01*
X15305858Y-11344142D01*
X15334142Y-11344142D01*
X15394192Y-10854142D02*
X15394192Y-10825858D01*
X15365908Y-10825858D01*
X15365908Y-10854142D01*
X15394192Y-10854142D01*
X15404142Y-10394142D02*
X15404142Y-10365858D01*
X15375858Y-10365858D01*
X15375858Y-10394142D01*
X15404142Y-10394142D01*
X15414142Y-11294142D02*
X15414142Y-11265858D01*
X15385858Y-11265858D01*
X15385858Y-11294142D01*
X15414142Y-11294142D01*
X15414142Y-11394142D02*
X15414142Y-11365858D01*
X15385858Y-11365858D01*
X15385858Y-11394142D01*
X15414142Y-11394142D01*
X15514142Y-11204142D02*
X15514142Y-11175858D01*
X15485858Y-11175858D01*
X15485858Y-11204142D01*
X15514142Y-11204142D01*
X15524142Y-9744142D02*
X15524142Y-9715858D01*
X15495858Y-9715858D01*
X15495858Y-9744142D01*
X15524142Y-9744142D01*
X15534142Y-10994142D02*
X15534142Y-10965858D01*
X15505858Y-10965858D01*
X15505858Y-10994142D01*
X15534142Y-10994142D01*
X15544142Y-10894142D02*
X15544142Y-10865858D01*
X15515858Y-10865858D01*
X15515858Y-10894142D01*
X15544142Y-10894142D01*
X15604142Y-10164142D02*
X15604142Y-10135858D01*
X15575858Y-10135858D01*
X15575858Y-10164142D01*
X15604142Y-10164142D01*
X15604142Y-10444142D02*
X15604142Y-10415858D01*
X15575858Y-10415858D01*
X15575858Y-10444142D01*
X15604142Y-10444142D01*
X15614142Y-11774142D02*
X15614142Y-11745858D01*
X15585858Y-11745858D01*
X15585858Y-11774142D01*
X15614142Y-11774142D01*
X15644142Y-10894142D02*
X15644142Y-10865858D01*
X15615858Y-10865858D01*
X15615858Y-10894142D01*
X15644142Y-10894142D01*
X15644142Y-10994142D02*
X15644142Y-10965858D01*
X15615858Y-10965858D01*
X15615858Y-10994142D01*
X15644142Y-10994142D01*
X15654142Y-11204142D02*
X15654142Y-11175858D01*
X15625858Y-11175858D01*
X15625858Y-11204142D01*
X15654142Y-11204142D01*
X15674142Y-11514142D02*
X15674142Y-11485858D01*
X15645858Y-11485858D01*
X15645858Y-11514142D01*
X15674142Y-11514142D01*
X15714142Y-11774142D02*
X15714142Y-11745858D01*
X15685858Y-11745858D01*
X15685858Y-11774142D01*
X15714142Y-11774142D01*
X15734142Y-12114142D02*
X15734142Y-12085858D01*
X15705858Y-12085858D01*
X15705858Y-12114142D01*
X15734142Y-12114142D01*
X15744142Y-8804142D02*
X15744142Y-8775858D01*
X15715858Y-8775858D01*
X15715858Y-8804142D01*
X15744142Y-8804142D01*
X15744142Y-10894142D02*
X15744142Y-10865858D01*
X15715858Y-10865858D01*
X15715858Y-10894142D01*
X15744142Y-10894142D01*
X15744142Y-10994142D02*
X15744142Y-10965858D01*
X15715858Y-10965858D01*
X15715858Y-10994142D01*
X15744142Y-10994142D01*
X15764142Y-11204142D02*
X15764142Y-11175858D01*
X15735858Y-11175858D01*
X15735858Y-11204142D01*
X15764142Y-11204142D01*
X15846642Y-9334142D02*
X15846642Y-9305858D01*
X15818358Y-9305858D01*
X15818358Y-9334142D01*
X15846642Y-9334142D01*
X15238500Y-10788000D02*
X15268500Y-10758000D01*
X15238500Y-10728000D01*
X15208500Y-10758000D01*
X15238500Y-10788000D01*
X15183500Y-10788000D02*
X15293500Y-10788000D01*
X15293500Y-10728000D02*
G75*
G02*
X15293500Y-10788000I0J-30000D01*
G01*
X15293500Y-10728000D02*
X15183500Y-10728000D01*
X15183500Y-10728000D02*
G75*
G03*
X15183500Y-10788000I0J-30000D01*
G01*
X15238500Y-11652000D02*
X15268500Y-11622000D01*
X15238500Y-11592000D01*
X15208500Y-11622000D01*
X15238500Y-11652000D01*
X15183500Y-11652000D02*
X15293500Y-11652000D01*
X15293500Y-11592000D02*
G75*
G02*
X15293500Y-11652000I0J-30000D01*
G01*
X15293500Y-11592000D02*
X15183500Y-11592000D01*
X15183500Y-11592000D02*
G75*
G03*
X15183500Y-11652000I0J-30000D01*
G01*
X15656500Y-10788000D02*
X15686500Y-10758000D01*
X15656500Y-10728000D01*
X15626500Y-10758000D01*
X15656500Y-10788000D01*
X15616500Y-10788000D02*
X15696500Y-10788000D01*
X15696500Y-10728000D02*
G75*
G02*
X15696500Y-10788000I0J-30000D01*
G01*
X15696500Y-10728000D02*
X15616500Y-10728000D01*
X15616500Y-10728000D02*
G75*
G03*
X15616500Y-10788000I0J-30000D01*
G01*
X15656500Y-11652000D02*
X15686500Y-11622000D01*
X15656500Y-11592000D01*
X15626500Y-11622000D01*
X15656500Y-11652000D01*
X15616500Y-11652000D02*
X15696500Y-11652000D01*
X15696500Y-11592000D02*
G75*
G02*
X15696500Y-11652000I0J-30000D01*
G01*
X15696500Y-11592000D02*
X15616500Y-11592000D01*
X15616500Y-11592000D02*
G75*
G03*
X15616500Y-11652000I0J-30000D01*
G01*
D11*
X12180777Y-12891484D02*
X12180777Y-12691484D01*
X12180777Y-12691484D02*
X12228396Y-12691484D01*
X12228396Y-12691484D02*
X12256967Y-12701008D01*
X12256967Y-12701008D02*
X12276015Y-12720055D01*
X12276015Y-12720055D02*
X12285539Y-12739103D01*
X12285539Y-12739103D02*
X12295062Y-12777198D01*
X12295062Y-12777198D02*
X12295062Y-12805769D01*
X12295062Y-12805769D02*
X12285539Y-12843865D01*
X12285539Y-12843865D02*
X12276015Y-12862912D01*
X12276015Y-12862912D02*
X12256967Y-12881960D01*
X12256967Y-12881960D02*
X12228396Y-12891484D01*
X12228396Y-12891484D02*
X12180777Y-12891484D01*
X12380777Y-12891484D02*
X12380777Y-12758150D01*
X12380777Y-12796246D02*
X12390301Y-12777198D01*
X12390301Y-12777198D02*
X12399824Y-12767674D01*
X12399824Y-12767674D02*
X12418872Y-12758150D01*
X12418872Y-12758150D02*
X12437920Y-12758150D01*
X12504586Y-12891484D02*
X12504586Y-12758150D01*
X12504586Y-12691484D02*
X12495062Y-12701008D01*
X12495062Y-12701008D02*
X12504586Y-12710531D01*
X12504586Y-12710531D02*
X12514110Y-12701008D01*
X12514110Y-12701008D02*
X12504586Y-12691484D01*
X12504586Y-12691484D02*
X12504586Y-12710531D01*
X12628396Y-12891484D02*
X12609348Y-12881960D01*
X12609348Y-12881960D02*
X12599824Y-12862912D01*
X12599824Y-12862912D02*
X12599824Y-12691484D01*
X12733158Y-12891484D02*
X12714110Y-12881960D01*
X12714110Y-12881960D02*
X12704586Y-12862912D01*
X12704586Y-12862912D02*
X12704586Y-12691484D01*
X12961729Y-12891484D02*
X12961729Y-12691484D01*
X12961729Y-12691484D02*
X13028396Y-12834341D01*
X13028396Y-12834341D02*
X13095062Y-12691484D01*
X13095062Y-12691484D02*
X13095062Y-12891484D01*
X13276015Y-12891484D02*
X13276015Y-12786722D01*
X13276015Y-12786722D02*
X13266491Y-12767674D01*
X13266491Y-12767674D02*
X13247443Y-12758150D01*
X13247443Y-12758150D02*
X13209348Y-12758150D01*
X13209348Y-12758150D02*
X13190301Y-12767674D01*
X13276015Y-12881960D02*
X13256967Y-12891484D01*
X13256967Y-12891484D02*
X13209348Y-12891484D01*
X13209348Y-12891484D02*
X13190301Y-12881960D01*
X13190301Y-12881960D02*
X13180777Y-12862912D01*
X13180777Y-12862912D02*
X13180777Y-12843865D01*
X13180777Y-12843865D02*
X13190301Y-12824817D01*
X13190301Y-12824817D02*
X13209348Y-12815293D01*
X13209348Y-12815293D02*
X13256967Y-12815293D01*
X13256967Y-12815293D02*
X13276015Y-12805769D01*
X13371253Y-12758150D02*
X13371253Y-12958150D01*
X13371253Y-12767674D02*
X13390301Y-12758150D01*
X13390301Y-12758150D02*
X13428396Y-12758150D01*
X13428396Y-12758150D02*
X13447443Y-12767674D01*
X13447443Y-12767674D02*
X13456967Y-12777198D01*
X13456967Y-12777198D02*
X13466491Y-12796246D01*
X13466491Y-12796246D02*
X13466491Y-12853388D01*
X13466491Y-12853388D02*
X13456967Y-12872436D01*
X13456967Y-12872436D02*
X13447443Y-12881960D01*
X13447443Y-12881960D02*
X13428396Y-12891484D01*
X13428396Y-12891484D02*
X13390301Y-12891484D01*
X13390301Y-12891484D02*
X13371253Y-12881960D01*
X13552205Y-12872436D02*
X13561729Y-12881960D01*
X13561729Y-12881960D02*
X13552205Y-12891484D01*
X13552205Y-12891484D02*
X13542682Y-12881960D01*
X13542682Y-12881960D02*
X13552205Y-12872436D01*
X13552205Y-12872436D02*
X13552205Y-12891484D01*
X13552205Y-12767674D02*
X13561729Y-12777198D01*
X13561729Y-12777198D02*
X13552205Y-12786722D01*
X13552205Y-12786722D02*
X13542682Y-12777198D01*
X13542682Y-12777198D02*
X13552205Y-12767674D01*
X13552205Y-12767674D02*
X13552205Y-12786722D01*
D10*
X11895000Y-13207500D02*
X11920000Y-13232500D01*
X11920000Y-13207500D02*
X11895000Y-13232500D01*
D11*
X12218872Y-13111484D02*
X12237920Y-13111484D01*
X12237920Y-13111484D02*
X12256967Y-13121008D01*
X12256967Y-13121008D02*
X12266491Y-13130531D01*
X12266491Y-13130531D02*
X12276015Y-13149579D01*
X12276015Y-13149579D02*
X12285539Y-13187674D01*
X12285539Y-13187674D02*
X12285539Y-13235293D01*
X12285539Y-13235293D02*
X12276015Y-13273388D01*
X12276015Y-13273388D02*
X12266491Y-13292436D01*
X12266491Y-13292436D02*
X12256967Y-13301960D01*
X12256967Y-13301960D02*
X12237920Y-13311484D01*
X12237920Y-13311484D02*
X12218872Y-13311484D01*
X12218872Y-13311484D02*
X12199824Y-13301960D01*
X12199824Y-13301960D02*
X12190301Y-13292436D01*
X12190301Y-13292436D02*
X12180777Y-13273388D01*
X12180777Y-13273388D02*
X12171253Y-13235293D01*
X12171253Y-13235293D02*
X12171253Y-13187674D01*
X12171253Y-13187674D02*
X12180777Y-13149579D01*
X12180777Y-13149579D02*
X12190301Y-13130531D01*
X12190301Y-13130531D02*
X12199824Y-13121008D01*
X12199824Y-13121008D02*
X12218872Y-13111484D01*
X12371253Y-13292436D02*
X12380777Y-13301960D01*
X12380777Y-13301960D02*
X12371253Y-13311484D01*
X12371253Y-13311484D02*
X12361729Y-13301960D01*
X12361729Y-13301960D02*
X12371253Y-13292436D01*
X12371253Y-13292436D02*
X12371253Y-13311484D01*
X12456967Y-13130531D02*
X12466491Y-13121008D01*
X12466491Y-13121008D02*
X12485539Y-13111484D01*
X12485539Y-13111484D02*
X12533158Y-13111484D01*
X12533158Y-13111484D02*
X12552205Y-13121008D01*
X12552205Y-13121008D02*
X12561729Y-13130531D01*
X12561729Y-13130531D02*
X12571253Y-13149579D01*
X12571253Y-13149579D02*
X12571253Y-13168627D01*
X12571253Y-13168627D02*
X12561729Y-13197198D01*
X12561729Y-13197198D02*
X12447443Y-13311484D01*
X12447443Y-13311484D02*
X12571253Y-13311484D01*
X12752205Y-13111484D02*
X12656967Y-13111484D01*
X12656967Y-13111484D02*
X12647443Y-13206722D01*
X12647443Y-13206722D02*
X12656967Y-13197198D01*
X12656967Y-13197198D02*
X12676015Y-13187674D01*
X12676015Y-13187674D02*
X12723634Y-13187674D01*
X12723634Y-13187674D02*
X12742682Y-13197198D01*
X12742682Y-13197198D02*
X12752205Y-13206722D01*
X12752205Y-13206722D02*
X12761729Y-13225769D01*
X12761729Y-13225769D02*
X12761729Y-13273388D01*
X12761729Y-13273388D02*
X12752205Y-13292436D01*
X12752205Y-13292436D02*
X12742682Y-13301960D01*
X12742682Y-13301960D02*
X12723634Y-13311484D01*
X12723634Y-13311484D02*
X12676015Y-13311484D01*
X12676015Y-13311484D02*
X12656967Y-13301960D01*
X12656967Y-13301960D02*
X12647443Y-13292436D01*
X12885539Y-13111484D02*
X12904586Y-13111484D01*
X12904586Y-13111484D02*
X12923634Y-13121008D01*
X12923634Y-13121008D02*
X12933158Y-13130531D01*
X12933158Y-13130531D02*
X12942682Y-13149579D01*
X12942682Y-13149579D02*
X12952205Y-13187674D01*
X12952205Y-13187674D02*
X12952205Y-13235293D01*
X12952205Y-13235293D02*
X12942682Y-13273388D01*
X12942682Y-13273388D02*
X12933158Y-13292436D01*
X12933158Y-13292436D02*
X12923634Y-13301960D01*
X12923634Y-13301960D02*
X12904586Y-13311484D01*
X12904586Y-13311484D02*
X12885539Y-13311484D01*
X12885539Y-13311484D02*
X12866491Y-13301960D01*
X12866491Y-13301960D02*
X12856967Y-13292436D01*
X12856967Y-13292436D02*
X12847443Y-13273388D01*
X12847443Y-13273388D02*
X12837920Y-13235293D01*
X12837920Y-13235293D02*
X12837920Y-13187674D01*
X12837920Y-13187674D02*
X12847443Y-13149579D01*
X12847443Y-13149579D02*
X12856967Y-13130531D01*
X12856967Y-13130531D02*
X12866491Y-13121008D01*
X12866491Y-13121008D02*
X12885539Y-13111484D01*
X13037920Y-13311484D02*
X13037920Y-13178150D01*
X13037920Y-13197198D02*
X13047443Y-13187674D01*
X13047443Y-13187674D02*
X13066491Y-13178150D01*
X13066491Y-13178150D02*
X13095063Y-13178150D01*
X13095063Y-13178150D02*
X13114110Y-13187674D01*
X13114110Y-13187674D02*
X13123634Y-13206722D01*
X13123634Y-13206722D02*
X13123634Y-13311484D01*
X13123634Y-13206722D02*
X13133158Y-13187674D01*
X13133158Y-13187674D02*
X13152205Y-13178150D01*
X13152205Y-13178150D02*
X13180777Y-13178150D01*
X13180777Y-13178150D02*
X13199824Y-13187674D01*
X13199824Y-13187674D02*
X13209348Y-13206722D01*
X13209348Y-13206722D02*
X13209348Y-13311484D01*
X13304586Y-13311484D02*
X13304586Y-13178150D01*
X13304586Y-13197198D02*
X13314110Y-13187674D01*
X13314110Y-13187674D02*
X13333158Y-13178150D01*
X13333158Y-13178150D02*
X13361729Y-13178150D01*
X13361729Y-13178150D02*
X13380777Y-13187674D01*
X13380777Y-13187674D02*
X13390301Y-13206722D01*
X13390301Y-13206722D02*
X13390301Y-13311484D01*
X13390301Y-13206722D02*
X13399824Y-13187674D01*
X13399824Y-13187674D02*
X13418872Y-13178150D01*
X13418872Y-13178150D02*
X13447443Y-13178150D01*
X13447443Y-13178150D02*
X13466491Y-13187674D01*
X13466491Y-13187674D02*
X13476015Y-13206722D01*
X13476015Y-13206722D02*
X13476015Y-13311484D01*
X13866491Y-13101960D02*
X13695063Y-13359103D01*
X14123634Y-13111484D02*
X14142682Y-13111484D01*
X14142682Y-13111484D02*
X14161729Y-13121008D01*
X14161729Y-13121008D02*
X14171253Y-13130531D01*
X14171253Y-13130531D02*
X14180777Y-13149579D01*
X14180777Y-13149579D02*
X14190301Y-13187674D01*
X14190301Y-13187674D02*
X14190301Y-13235293D01*
X14190301Y-13235293D02*
X14180777Y-13273388D01*
X14180777Y-13273388D02*
X14171253Y-13292436D01*
X14171253Y-13292436D02*
X14161729Y-13301960D01*
X14161729Y-13301960D02*
X14142682Y-13311484D01*
X14142682Y-13311484D02*
X14123634Y-13311484D01*
X14123634Y-13311484D02*
X14104586Y-13301960D01*
X14104586Y-13301960D02*
X14095063Y-13292436D01*
X14095063Y-13292436D02*
X14085539Y-13273388D01*
X14085539Y-13273388D02*
X14076015Y-13235293D01*
X14076015Y-13235293D02*
X14076015Y-13187674D01*
X14076015Y-13187674D02*
X14085539Y-13149579D01*
X14085539Y-13149579D02*
X14095063Y-13130531D01*
X14095063Y-13130531D02*
X14104586Y-13121008D01*
X14104586Y-13121008D02*
X14123634Y-13111484D01*
X14276015Y-13292436D02*
X14285539Y-13301960D01*
X14285539Y-13301960D02*
X14276015Y-13311484D01*
X14276015Y-13311484D02*
X14266491Y-13301960D01*
X14266491Y-13301960D02*
X14276015Y-13292436D01*
X14276015Y-13292436D02*
X14276015Y-13311484D01*
X14409348Y-13111484D02*
X14428396Y-13111484D01*
X14428396Y-13111484D02*
X14447444Y-13121008D01*
X14447444Y-13121008D02*
X14456967Y-13130531D01*
X14456967Y-13130531D02*
X14466491Y-13149579D01*
X14466491Y-13149579D02*
X14476015Y-13187674D01*
X14476015Y-13187674D02*
X14476015Y-13235293D01*
X14476015Y-13235293D02*
X14466491Y-13273388D01*
X14466491Y-13273388D02*
X14456967Y-13292436D01*
X14456967Y-13292436D02*
X14447444Y-13301960D01*
X14447444Y-13301960D02*
X14428396Y-13311484D01*
X14428396Y-13311484D02*
X14409348Y-13311484D01*
X14409348Y-13311484D02*
X14390301Y-13301960D01*
X14390301Y-13301960D02*
X14380777Y-13292436D01*
X14380777Y-13292436D02*
X14371253Y-13273388D01*
X14371253Y-13273388D02*
X14361729Y-13235293D01*
X14361729Y-13235293D02*
X14361729Y-13187674D01*
X14361729Y-13187674D02*
X14371253Y-13149579D01*
X14371253Y-13149579D02*
X14380777Y-13130531D01*
X14380777Y-13130531D02*
X14390301Y-13121008D01*
X14390301Y-13121008D02*
X14409348Y-13111484D01*
X14599825Y-13111484D02*
X14618872Y-13111484D01*
X14618872Y-13111484D02*
X14637920Y-13121008D01*
X14637920Y-13121008D02*
X14647444Y-13130531D01*
X14647444Y-13130531D02*
X14656967Y-13149579D01*
X14656967Y-13149579D02*
X14666491Y-13187674D01*
X14666491Y-13187674D02*
X14666491Y-13235293D01*
X14666491Y-13235293D02*
X14656967Y-13273388D01*
X14656967Y-13273388D02*
X14647444Y-13292436D01*
X14647444Y-13292436D02*
X14637920Y-13301960D01*
X14637920Y-13301960D02*
X14618872Y-13311484D01*
X14618872Y-13311484D02*
X14599825Y-13311484D01*
X14599825Y-13311484D02*
X14580777Y-13301960D01*
X14580777Y-13301960D02*
X14571253Y-13292436D01*
X14571253Y-13292436D02*
X14561729Y-13273388D01*
X14561729Y-13273388D02*
X14552206Y-13235293D01*
X14552206Y-13235293D02*
X14552206Y-13187674D01*
X14552206Y-13187674D02*
X14561729Y-13149579D01*
X14561729Y-13149579D02*
X14571253Y-13130531D01*
X14571253Y-13130531D02*
X14580777Y-13121008D01*
X14580777Y-13121008D02*
X14599825Y-13111484D01*
X14761729Y-13311484D02*
X14799825Y-13311484D01*
X14799825Y-13311484D02*
X14818872Y-13301960D01*
X14818872Y-13301960D02*
X14828396Y-13292436D01*
X14828396Y-13292436D02*
X14847444Y-13263865D01*
X14847444Y-13263865D02*
X14856967Y-13225769D01*
X14856967Y-13225769D02*
X14856967Y-13149579D01*
X14856967Y-13149579D02*
X14847444Y-13130531D01*
X14847444Y-13130531D02*
X14837920Y-13121008D01*
X14837920Y-13121008D02*
X14818872Y-13111484D01*
X14818872Y-13111484D02*
X14780777Y-13111484D01*
X14780777Y-13111484D02*
X14761729Y-13121008D01*
X14761729Y-13121008D02*
X14752206Y-13130531D01*
X14752206Y-13130531D02*
X14742682Y-13149579D01*
X14742682Y-13149579D02*
X14742682Y-13197198D01*
X14742682Y-13197198D02*
X14752206Y-13216246D01*
X14752206Y-13216246D02*
X14761729Y-13225769D01*
X14761729Y-13225769D02*
X14780777Y-13235293D01*
X14780777Y-13235293D02*
X14818872Y-13235293D01*
X14818872Y-13235293D02*
X14837920Y-13225769D01*
X14837920Y-13225769D02*
X14847444Y-13216246D01*
X14847444Y-13216246D02*
X14856967Y-13197198D01*
X14971253Y-13197198D02*
X14952206Y-13187674D01*
X14952206Y-13187674D02*
X14942682Y-13178150D01*
X14942682Y-13178150D02*
X14933158Y-13159103D01*
X14933158Y-13159103D02*
X14933158Y-13149579D01*
X14933158Y-13149579D02*
X14942682Y-13130531D01*
X14942682Y-13130531D02*
X14952206Y-13121008D01*
X14952206Y-13121008D02*
X14971253Y-13111484D01*
X14971253Y-13111484D02*
X15009348Y-13111484D01*
X15009348Y-13111484D02*
X15028396Y-13121008D01*
X15028396Y-13121008D02*
X15037920Y-13130531D01*
X15037920Y-13130531D02*
X15047444Y-13149579D01*
X15047444Y-13149579D02*
X15047444Y-13159103D01*
X15047444Y-13159103D02*
X15037920Y-13178150D01*
X15037920Y-13178150D02*
X15028396Y-13187674D01*
X15028396Y-13187674D02*
X15009348Y-13197198D01*
X15009348Y-13197198D02*
X14971253Y-13197198D01*
X14971253Y-13197198D02*
X14952206Y-13206722D01*
X14952206Y-13206722D02*
X14942682Y-13216246D01*
X14942682Y-13216246D02*
X14933158Y-13235293D01*
X14933158Y-13235293D02*
X14933158Y-13273388D01*
X14933158Y-13273388D02*
X14942682Y-13292436D01*
X14942682Y-13292436D02*
X14952206Y-13301960D01*
X14952206Y-13301960D02*
X14971253Y-13311484D01*
X14971253Y-13311484D02*
X15009348Y-13311484D01*
X15009348Y-13311484D02*
X15028396Y-13301960D01*
X15028396Y-13301960D02*
X15037920Y-13292436D01*
X15037920Y-13292436D02*
X15047444Y-13273388D01*
X15047444Y-13273388D02*
X15047444Y-13235293D01*
X15047444Y-13235293D02*
X15037920Y-13216246D01*
X15037920Y-13216246D02*
X15028396Y-13206722D01*
X15028396Y-13206722D02*
X15009348Y-13197198D01*
X15123634Y-13111484D02*
X15123634Y-13149579D01*
X15199825Y-13111484D02*
X15199825Y-13149579D01*
X15495063Y-13387674D02*
X15485539Y-13378150D01*
X15485539Y-13378150D02*
X15466491Y-13349579D01*
X15466491Y-13349579D02*
X15456968Y-13330531D01*
X15456968Y-13330531D02*
X15447444Y-13301960D01*
X15447444Y-13301960D02*
X15437920Y-13254341D01*
X15437920Y-13254341D02*
X15437920Y-13216246D01*
X15437920Y-13216246D02*
X15447444Y-13168627D01*
X15447444Y-13168627D02*
X15456968Y-13140055D01*
X15456968Y-13140055D02*
X15466491Y-13121008D01*
X15466491Y-13121008D02*
X15485539Y-13092436D01*
X15485539Y-13092436D02*
X15495063Y-13082912D01*
X15656968Y-13178150D02*
X15656968Y-13311484D01*
X15609348Y-13101960D02*
X15561729Y-13244817D01*
X15561729Y-13244817D02*
X15685539Y-13244817D01*
X15914110Y-13311484D02*
X15914110Y-13111484D01*
X15999825Y-13311484D02*
X15999825Y-13206722D01*
X15999825Y-13206722D02*
X15990301Y-13187674D01*
X15990301Y-13187674D02*
X15971253Y-13178150D01*
X15971253Y-13178150D02*
X15942682Y-13178150D01*
X15942682Y-13178150D02*
X15923634Y-13187674D01*
X15923634Y-13187674D02*
X15914110Y-13197198D01*
X16123634Y-13311484D02*
X16104587Y-13301960D01*
X16104587Y-13301960D02*
X16095063Y-13292436D01*
X16095063Y-13292436D02*
X16085539Y-13273388D01*
X16085539Y-13273388D02*
X16085539Y-13216246D01*
X16085539Y-13216246D02*
X16095063Y-13197198D01*
X16095063Y-13197198D02*
X16104587Y-13187674D01*
X16104587Y-13187674D02*
X16123634Y-13178150D01*
X16123634Y-13178150D02*
X16152206Y-13178150D01*
X16152206Y-13178150D02*
X16171253Y-13187674D01*
X16171253Y-13187674D02*
X16180777Y-13197198D01*
X16180777Y-13197198D02*
X16190301Y-13216246D01*
X16190301Y-13216246D02*
X16190301Y-13273388D01*
X16190301Y-13273388D02*
X16180777Y-13292436D01*
X16180777Y-13292436D02*
X16171253Y-13301960D01*
X16171253Y-13301960D02*
X16152206Y-13311484D01*
X16152206Y-13311484D02*
X16123634Y-13311484D01*
X16304587Y-13311484D02*
X16285539Y-13301960D01*
X16285539Y-13301960D02*
X16276015Y-13282912D01*
X16276015Y-13282912D02*
X16276015Y-13111484D01*
X16456968Y-13301960D02*
X16437920Y-13311484D01*
X16437920Y-13311484D02*
X16399825Y-13311484D01*
X16399825Y-13311484D02*
X16380777Y-13301960D01*
X16380777Y-13301960D02*
X16371253Y-13282912D01*
X16371253Y-13282912D02*
X16371253Y-13206722D01*
X16371253Y-13206722D02*
X16380777Y-13187674D01*
X16380777Y-13187674D02*
X16399825Y-13178150D01*
X16399825Y-13178150D02*
X16437920Y-13178150D01*
X16437920Y-13178150D02*
X16456968Y-13187674D01*
X16456968Y-13187674D02*
X16466491Y-13206722D01*
X16466491Y-13206722D02*
X16466491Y-13225769D01*
X16466491Y-13225769D02*
X16371253Y-13244817D01*
X16542682Y-13301960D02*
X16561730Y-13311484D01*
X16561730Y-13311484D02*
X16599825Y-13311484D01*
X16599825Y-13311484D02*
X16618872Y-13301960D01*
X16618872Y-13301960D02*
X16628396Y-13282912D01*
X16628396Y-13282912D02*
X16628396Y-13273388D01*
X16628396Y-13273388D02*
X16618872Y-13254341D01*
X16618872Y-13254341D02*
X16599825Y-13244817D01*
X16599825Y-13244817D02*
X16571253Y-13244817D01*
X16571253Y-13244817D02*
X16552206Y-13235293D01*
X16552206Y-13235293D02*
X16542682Y-13216246D01*
X16542682Y-13216246D02*
X16542682Y-13206722D01*
X16542682Y-13206722D02*
X16552206Y-13187674D01*
X16552206Y-13187674D02*
X16571253Y-13178150D01*
X16571253Y-13178150D02*
X16599825Y-13178150D01*
X16599825Y-13178150D02*
X16618872Y-13187674D01*
X16695063Y-13387674D02*
X16704587Y-13378150D01*
X16704587Y-13378150D02*
X16723634Y-13349579D01*
X16723634Y-13349579D02*
X16733158Y-13330531D01*
X16733158Y-13330531D02*
X16742682Y-13301960D01*
X16742682Y-13301960D02*
X16752206Y-13254341D01*
X16752206Y-13254341D02*
X16752206Y-13216246D01*
X16752206Y-13216246D02*
X16742682Y-13168627D01*
X16742682Y-13168627D02*
X16733158Y-13140055D01*
X16733158Y-13140055D02*
X16723634Y-13121008D01*
X16723634Y-13121008D02*
X16704587Y-13092436D01*
X16704587Y-13092436D02*
X16695063Y-13082912D01*
D10*
X11920000Y-13484000D02*
G75*
G02*
X11890000Y-13484000I-15000J0D01*
G01*
X11890000Y-13484000D02*
G75*
G02*
X11920000Y-13484000I15000J0D01*
G01*
D11*
X12218872Y-13375484D02*
X12237920Y-13375484D01*
X12237920Y-13375484D02*
X12256967Y-13385008D01*
X12256967Y-13385008D02*
X12266491Y-13394531D01*
X12266491Y-13394531D02*
X12276015Y-13413579D01*
X12276015Y-13413579D02*
X12285539Y-13451674D01*
X12285539Y-13451674D02*
X12285539Y-13499293D01*
X12285539Y-13499293D02*
X12276015Y-13537388D01*
X12276015Y-13537388D02*
X12266491Y-13556436D01*
X12266491Y-13556436D02*
X12256967Y-13565960D01*
X12256967Y-13565960D02*
X12237920Y-13575484D01*
X12237920Y-13575484D02*
X12218872Y-13575484D01*
X12218872Y-13575484D02*
X12199824Y-13565960D01*
X12199824Y-13565960D02*
X12190301Y-13556436D01*
X12190301Y-13556436D02*
X12180777Y-13537388D01*
X12180777Y-13537388D02*
X12171253Y-13499293D01*
X12171253Y-13499293D02*
X12171253Y-13451674D01*
X12171253Y-13451674D02*
X12180777Y-13413579D01*
X12180777Y-13413579D02*
X12190301Y-13394531D01*
X12190301Y-13394531D02*
X12199824Y-13385008D01*
X12199824Y-13385008D02*
X12218872Y-13375484D01*
X12371253Y-13556436D02*
X12380777Y-13565960D01*
X12380777Y-13565960D02*
X12371253Y-13575484D01*
X12371253Y-13575484D02*
X12361729Y-13565960D01*
X12361729Y-13565960D02*
X12371253Y-13556436D01*
X12371253Y-13556436D02*
X12371253Y-13575484D01*
X12447443Y-13375484D02*
X12571253Y-13375484D01*
X12571253Y-13375484D02*
X12504586Y-13451674D01*
X12504586Y-13451674D02*
X12533158Y-13451674D01*
X12533158Y-13451674D02*
X12552205Y-13461198D01*
X12552205Y-13461198D02*
X12561729Y-13470722D01*
X12561729Y-13470722D02*
X12571253Y-13489769D01*
X12571253Y-13489769D02*
X12571253Y-13537388D01*
X12571253Y-13537388D02*
X12561729Y-13556436D01*
X12561729Y-13556436D02*
X12552205Y-13565960D01*
X12552205Y-13565960D02*
X12533158Y-13575484D01*
X12533158Y-13575484D02*
X12476015Y-13575484D01*
X12476015Y-13575484D02*
X12456967Y-13565960D01*
X12456967Y-13565960D02*
X12447443Y-13556436D01*
X12695062Y-13375484D02*
X12714110Y-13375484D01*
X12714110Y-13375484D02*
X12733158Y-13385008D01*
X12733158Y-13385008D02*
X12742682Y-13394531D01*
X12742682Y-13394531D02*
X12752205Y-13413579D01*
X12752205Y-13413579D02*
X12761729Y-13451674D01*
X12761729Y-13451674D02*
X12761729Y-13499293D01*
X12761729Y-13499293D02*
X12752205Y-13537388D01*
X12752205Y-13537388D02*
X12742682Y-13556436D01*
X12742682Y-13556436D02*
X12733158Y-13565960D01*
X12733158Y-13565960D02*
X12714110Y-13575484D01*
X12714110Y-13575484D02*
X12695062Y-13575484D01*
X12695062Y-13575484D02*
X12676015Y-13565960D01*
X12676015Y-13565960D02*
X12666491Y-13556436D01*
X12666491Y-13556436D02*
X12656967Y-13537388D01*
X12656967Y-13537388D02*
X12647443Y-13499293D01*
X12647443Y-13499293D02*
X12647443Y-13451674D01*
X12647443Y-13451674D02*
X12656967Y-13413579D01*
X12656967Y-13413579D02*
X12666491Y-13394531D01*
X12666491Y-13394531D02*
X12676015Y-13385008D01*
X12676015Y-13385008D02*
X12695062Y-13375484D01*
X12885539Y-13375484D02*
X12904586Y-13375484D01*
X12904586Y-13375484D02*
X12923634Y-13385008D01*
X12923634Y-13385008D02*
X12933158Y-13394531D01*
X12933158Y-13394531D02*
X12942682Y-13413579D01*
X12942682Y-13413579D02*
X12952205Y-13451674D01*
X12952205Y-13451674D02*
X12952205Y-13499293D01*
X12952205Y-13499293D02*
X12942682Y-13537388D01*
X12942682Y-13537388D02*
X12933158Y-13556436D01*
X12933158Y-13556436D02*
X12923634Y-13565960D01*
X12923634Y-13565960D02*
X12904586Y-13575484D01*
X12904586Y-13575484D02*
X12885539Y-13575484D01*
X12885539Y-13575484D02*
X12866491Y-13565960D01*
X12866491Y-13565960D02*
X12856967Y-13556436D01*
X12856967Y-13556436D02*
X12847443Y-13537388D01*
X12847443Y-13537388D02*
X12837920Y-13499293D01*
X12837920Y-13499293D02*
X12837920Y-13451674D01*
X12837920Y-13451674D02*
X12847443Y-13413579D01*
X12847443Y-13413579D02*
X12856967Y-13394531D01*
X12856967Y-13394531D02*
X12866491Y-13385008D01*
X12866491Y-13385008D02*
X12885539Y-13375484D01*
X13037920Y-13575484D02*
X13037920Y-13442150D01*
X13037920Y-13461198D02*
X13047443Y-13451674D01*
X13047443Y-13451674D02*
X13066491Y-13442150D01*
X13066491Y-13442150D02*
X13095063Y-13442150D01*
X13095063Y-13442150D02*
X13114110Y-13451674D01*
X13114110Y-13451674D02*
X13123634Y-13470722D01*
X13123634Y-13470722D02*
X13123634Y-13575484D01*
X13123634Y-13470722D02*
X13133158Y-13451674D01*
X13133158Y-13451674D02*
X13152205Y-13442150D01*
X13152205Y-13442150D02*
X13180777Y-13442150D01*
X13180777Y-13442150D02*
X13199824Y-13451674D01*
X13199824Y-13451674D02*
X13209348Y-13470722D01*
X13209348Y-13470722D02*
X13209348Y-13575484D01*
X13304586Y-13575484D02*
X13304586Y-13442150D01*
X13304586Y-13461198D02*
X13314110Y-13451674D01*
X13314110Y-13451674D02*
X13333158Y-13442150D01*
X13333158Y-13442150D02*
X13361729Y-13442150D01*
X13361729Y-13442150D02*
X13380777Y-13451674D01*
X13380777Y-13451674D02*
X13390301Y-13470722D01*
X13390301Y-13470722D02*
X13390301Y-13575484D01*
X13390301Y-13470722D02*
X13399824Y-13451674D01*
X13399824Y-13451674D02*
X13418872Y-13442150D01*
X13418872Y-13442150D02*
X13447443Y-13442150D01*
X13447443Y-13442150D02*
X13466491Y-13451674D01*
X13466491Y-13451674D02*
X13476015Y-13470722D01*
X13476015Y-13470722D02*
X13476015Y-13575484D01*
X13866491Y-13365960D02*
X13695063Y-13623103D01*
X14123634Y-13375484D02*
X14142682Y-13375484D01*
X14142682Y-13375484D02*
X14161729Y-13385008D01*
X14161729Y-13385008D02*
X14171253Y-13394531D01*
X14171253Y-13394531D02*
X14180777Y-13413579D01*
X14180777Y-13413579D02*
X14190301Y-13451674D01*
X14190301Y-13451674D02*
X14190301Y-13499293D01*
X14190301Y-13499293D02*
X14180777Y-13537388D01*
X14180777Y-13537388D02*
X14171253Y-13556436D01*
X14171253Y-13556436D02*
X14161729Y-13565960D01*
X14161729Y-13565960D02*
X14142682Y-13575484D01*
X14142682Y-13575484D02*
X14123634Y-13575484D01*
X14123634Y-13575484D02*
X14104586Y-13565960D01*
X14104586Y-13565960D02*
X14095063Y-13556436D01*
X14095063Y-13556436D02*
X14085539Y-13537388D01*
X14085539Y-13537388D02*
X14076015Y-13499293D01*
X14076015Y-13499293D02*
X14076015Y-13451674D01*
X14076015Y-13451674D02*
X14085539Y-13413579D01*
X14085539Y-13413579D02*
X14095063Y-13394531D01*
X14095063Y-13394531D02*
X14104586Y-13385008D01*
X14104586Y-13385008D02*
X14123634Y-13375484D01*
X14276015Y-13556436D02*
X14285539Y-13565960D01*
X14285539Y-13565960D02*
X14276015Y-13575484D01*
X14276015Y-13575484D02*
X14266491Y-13565960D01*
X14266491Y-13565960D02*
X14276015Y-13556436D01*
X14276015Y-13556436D02*
X14276015Y-13575484D01*
X14409348Y-13375484D02*
X14428396Y-13375484D01*
X14428396Y-13375484D02*
X14447444Y-13385008D01*
X14447444Y-13385008D02*
X14456967Y-13394531D01*
X14456967Y-13394531D02*
X14466491Y-13413579D01*
X14466491Y-13413579D02*
X14476015Y-13451674D01*
X14476015Y-13451674D02*
X14476015Y-13499293D01*
X14476015Y-13499293D02*
X14466491Y-13537388D01*
X14466491Y-13537388D02*
X14456967Y-13556436D01*
X14456967Y-13556436D02*
X14447444Y-13565960D01*
X14447444Y-13565960D02*
X14428396Y-13575484D01*
X14428396Y-13575484D02*
X14409348Y-13575484D01*
X14409348Y-13575484D02*
X14390301Y-13565960D01*
X14390301Y-13565960D02*
X14380777Y-13556436D01*
X14380777Y-13556436D02*
X14371253Y-13537388D01*
X14371253Y-13537388D02*
X14361729Y-13499293D01*
X14361729Y-13499293D02*
X14361729Y-13451674D01*
X14361729Y-13451674D02*
X14371253Y-13413579D01*
X14371253Y-13413579D02*
X14380777Y-13394531D01*
X14380777Y-13394531D02*
X14390301Y-13385008D01*
X14390301Y-13385008D02*
X14409348Y-13375484D01*
X14666491Y-13575484D02*
X14552206Y-13575484D01*
X14609348Y-13575484D02*
X14609348Y-13375484D01*
X14609348Y-13375484D02*
X14590301Y-13404055D01*
X14590301Y-13404055D02*
X14571253Y-13423103D01*
X14571253Y-13423103D02*
X14552206Y-13432627D01*
X14856967Y-13575484D02*
X14742682Y-13575484D01*
X14799825Y-13575484D02*
X14799825Y-13375484D01*
X14799825Y-13375484D02*
X14780777Y-13404055D01*
X14780777Y-13404055D02*
X14761729Y-13423103D01*
X14761729Y-13423103D02*
X14742682Y-13432627D01*
X14971253Y-13461198D02*
X14952206Y-13451674D01*
X14952206Y-13451674D02*
X14942682Y-13442150D01*
X14942682Y-13442150D02*
X14933158Y-13423103D01*
X14933158Y-13423103D02*
X14933158Y-13413579D01*
X14933158Y-13413579D02*
X14942682Y-13394531D01*
X14942682Y-13394531D02*
X14952206Y-13385008D01*
X14952206Y-13385008D02*
X14971253Y-13375484D01*
X14971253Y-13375484D02*
X15009348Y-13375484D01*
X15009348Y-13375484D02*
X15028396Y-13385008D01*
X15028396Y-13385008D02*
X15037920Y-13394531D01*
X15037920Y-13394531D02*
X15047444Y-13413579D01*
X15047444Y-13413579D02*
X15047444Y-13423103D01*
X15047444Y-13423103D02*
X15037920Y-13442150D01*
X15037920Y-13442150D02*
X15028396Y-13451674D01*
X15028396Y-13451674D02*
X15009348Y-13461198D01*
X15009348Y-13461198D02*
X14971253Y-13461198D01*
X14971253Y-13461198D02*
X14952206Y-13470722D01*
X14952206Y-13470722D02*
X14942682Y-13480246D01*
X14942682Y-13480246D02*
X14933158Y-13499293D01*
X14933158Y-13499293D02*
X14933158Y-13537388D01*
X14933158Y-13537388D02*
X14942682Y-13556436D01*
X14942682Y-13556436D02*
X14952206Y-13565960D01*
X14952206Y-13565960D02*
X14971253Y-13575484D01*
X14971253Y-13575484D02*
X15009348Y-13575484D01*
X15009348Y-13575484D02*
X15028396Y-13565960D01*
X15028396Y-13565960D02*
X15037920Y-13556436D01*
X15037920Y-13556436D02*
X15047444Y-13537388D01*
X15047444Y-13537388D02*
X15047444Y-13499293D01*
X15047444Y-13499293D02*
X15037920Y-13480246D01*
X15037920Y-13480246D02*
X15028396Y-13470722D01*
X15028396Y-13470722D02*
X15009348Y-13461198D01*
X15123634Y-13375484D02*
X15123634Y-13413579D01*
X15199825Y-13375484D02*
X15199825Y-13413579D01*
X15495063Y-13651674D02*
X15485539Y-13642150D01*
X15485539Y-13642150D02*
X15466491Y-13613579D01*
X15466491Y-13613579D02*
X15456968Y-13594531D01*
X15456968Y-13594531D02*
X15447444Y-13565960D01*
X15447444Y-13565960D02*
X15437920Y-13518341D01*
X15437920Y-13518341D02*
X15437920Y-13480246D01*
X15437920Y-13480246D02*
X15447444Y-13432627D01*
X15447444Y-13432627D02*
X15456968Y-13404055D01*
X15456968Y-13404055D02*
X15466491Y-13385008D01*
X15466491Y-13385008D02*
X15485539Y-13356436D01*
X15485539Y-13356436D02*
X15495063Y-13346912D01*
X15676015Y-13575484D02*
X15561729Y-13575484D01*
X15618872Y-13575484D02*
X15618872Y-13375484D01*
X15618872Y-13375484D02*
X15599825Y-13404055D01*
X15599825Y-13404055D02*
X15580777Y-13423103D01*
X15580777Y-13423103D02*
X15561729Y-13432627D01*
X15856968Y-13375484D02*
X15761729Y-13375484D01*
X15761729Y-13375484D02*
X15752206Y-13470722D01*
X15752206Y-13470722D02*
X15761729Y-13461198D01*
X15761729Y-13461198D02*
X15780777Y-13451674D01*
X15780777Y-13451674D02*
X15828396Y-13451674D01*
X15828396Y-13451674D02*
X15847444Y-13461198D01*
X15847444Y-13461198D02*
X15856968Y-13470722D01*
X15856968Y-13470722D02*
X15866491Y-13489769D01*
X15866491Y-13489769D02*
X15866491Y-13537388D01*
X15866491Y-13537388D02*
X15856968Y-13556436D01*
X15856968Y-13556436D02*
X15847444Y-13565960D01*
X15847444Y-13565960D02*
X15828396Y-13575484D01*
X15828396Y-13575484D02*
X15780777Y-13575484D01*
X15780777Y-13575484D02*
X15761729Y-13565960D01*
X15761729Y-13565960D02*
X15752206Y-13556436D01*
X15933158Y-13375484D02*
X16056968Y-13375484D01*
X16056968Y-13375484D02*
X15990301Y-13451674D01*
X15990301Y-13451674D02*
X16018872Y-13451674D01*
X16018872Y-13451674D02*
X16037920Y-13461198D01*
X16037920Y-13461198D02*
X16047444Y-13470722D01*
X16047444Y-13470722D02*
X16056968Y-13489769D01*
X16056968Y-13489769D02*
X16056968Y-13537388D01*
X16056968Y-13537388D02*
X16047444Y-13556436D01*
X16047444Y-13556436D02*
X16037920Y-13565960D01*
X16037920Y-13565960D02*
X16018872Y-13575484D01*
X16018872Y-13575484D02*
X15961729Y-13575484D01*
X15961729Y-13575484D02*
X15942682Y-13565960D01*
X15942682Y-13565960D02*
X15933158Y-13556436D01*
X16295063Y-13575484D02*
X16295063Y-13375484D01*
X16380777Y-13575484D02*
X16380777Y-13470722D01*
X16380777Y-13470722D02*
X16371253Y-13451674D01*
X16371253Y-13451674D02*
X16352206Y-13442150D01*
X16352206Y-13442150D02*
X16323634Y-13442150D01*
X16323634Y-13442150D02*
X16304587Y-13451674D01*
X16304587Y-13451674D02*
X16295063Y-13461198D01*
X16504587Y-13575484D02*
X16485539Y-13565960D01*
X16485539Y-13565960D02*
X16476015Y-13556436D01*
X16476015Y-13556436D02*
X16466491Y-13537388D01*
X16466491Y-13537388D02*
X16466491Y-13480246D01*
X16466491Y-13480246D02*
X16476015Y-13461198D01*
X16476015Y-13461198D02*
X16485539Y-13451674D01*
X16485539Y-13451674D02*
X16504587Y-13442150D01*
X16504587Y-13442150D02*
X16533158Y-13442150D01*
X16533158Y-13442150D02*
X16552206Y-13451674D01*
X16552206Y-13451674D02*
X16561730Y-13461198D01*
X16561730Y-13461198D02*
X16571253Y-13480246D01*
X16571253Y-13480246D02*
X16571253Y-13537388D01*
X16571253Y-13537388D02*
X16561730Y-13556436D01*
X16561730Y-13556436D02*
X16552206Y-13565960D01*
X16552206Y-13565960D02*
X16533158Y-13575484D01*
X16533158Y-13575484D02*
X16504587Y-13575484D01*
X16685539Y-13575484D02*
X16666491Y-13565960D01*
X16666491Y-13565960D02*
X16656968Y-13546912D01*
X16656968Y-13546912D02*
X16656968Y-13375484D01*
X16837920Y-13565960D02*
X16818873Y-13575484D01*
X16818873Y-13575484D02*
X16780777Y-13575484D01*
X16780777Y-13575484D02*
X16761730Y-13565960D01*
X16761730Y-13565960D02*
X16752206Y-13546912D01*
X16752206Y-13546912D02*
X16752206Y-13470722D01*
X16752206Y-13470722D02*
X16761730Y-13451674D01*
X16761730Y-13451674D02*
X16780777Y-13442150D01*
X16780777Y-13442150D02*
X16818873Y-13442150D01*
X16818873Y-13442150D02*
X16837920Y-13451674D01*
X16837920Y-13451674D02*
X16847444Y-13470722D01*
X16847444Y-13470722D02*
X16847444Y-13489769D01*
X16847444Y-13489769D02*
X16752206Y-13508817D01*
X16923634Y-13565960D02*
X16942682Y-13575484D01*
X16942682Y-13575484D02*
X16980777Y-13575484D01*
X16980777Y-13575484D02*
X16999825Y-13565960D01*
X16999825Y-13565960D02*
X17009349Y-13546912D01*
X17009349Y-13546912D02*
X17009349Y-13537388D01*
X17009349Y-13537388D02*
X16999825Y-13518341D01*
X16999825Y-13518341D02*
X16980777Y-13508817D01*
X16980777Y-13508817D02*
X16952206Y-13508817D01*
X16952206Y-13508817D02*
X16933158Y-13499293D01*
X16933158Y-13499293D02*
X16923634Y-13480246D01*
X16923634Y-13480246D02*
X16923634Y-13470722D01*
X16923634Y-13470722D02*
X16933158Y-13451674D01*
X16933158Y-13451674D02*
X16952206Y-13442150D01*
X16952206Y-13442150D02*
X16980777Y-13442150D01*
X16980777Y-13442150D02*
X16999825Y-13451674D01*
X17076015Y-13651674D02*
X17085539Y-13642150D01*
X17085539Y-13642150D02*
X17104587Y-13613579D01*
X17104587Y-13613579D02*
X17114111Y-13594531D01*
X17114111Y-13594531D02*
X17123634Y-13565960D01*
X17123634Y-13565960D02*
X17133158Y-13518341D01*
X17133158Y-13518341D02*
X17133158Y-13480246D01*
X17133158Y-13480246D02*
X17123634Y-13432627D01*
X17123634Y-13432627D02*
X17114111Y-13404055D01*
X17114111Y-13404055D02*
X17104587Y-13385008D01*
X17104587Y-13385008D02*
X17085539Y-13356436D01*
X17085539Y-13356436D02*
X17076015Y-13346912D01*
D10*
X11905000Y-13733000D02*
X11905000Y-13763000D01*
X11890000Y-13748000D02*
X11920000Y-13748000D01*
D11*
X12218872Y-13639484D02*
X12237920Y-13639484D01*
X12237920Y-13639484D02*
X12256967Y-13649008D01*
X12256967Y-13649008D02*
X12266491Y-13658531D01*
X12266491Y-13658531D02*
X12276015Y-13677579D01*
X12276015Y-13677579D02*
X12285539Y-13715674D01*
X12285539Y-13715674D02*
X12285539Y-13763293D01*
X12285539Y-13763293D02*
X12276015Y-13801388D01*
X12276015Y-13801388D02*
X12266491Y-13820436D01*
X12266491Y-13820436D02*
X12256967Y-13829960D01*
X12256967Y-13829960D02*
X12237920Y-13839484D01*
X12237920Y-13839484D02*
X12218872Y-13839484D01*
X12218872Y-13839484D02*
X12199824Y-13829960D01*
X12199824Y-13829960D02*
X12190301Y-13820436D01*
X12190301Y-13820436D02*
X12180777Y-13801388D01*
X12180777Y-13801388D02*
X12171253Y-13763293D01*
X12171253Y-13763293D02*
X12171253Y-13715674D01*
X12171253Y-13715674D02*
X12180777Y-13677579D01*
X12180777Y-13677579D02*
X12190301Y-13658531D01*
X12190301Y-13658531D02*
X12199824Y-13649008D01*
X12199824Y-13649008D02*
X12218872Y-13639484D01*
X12371253Y-13820436D02*
X12380777Y-13829960D01*
X12380777Y-13829960D02*
X12371253Y-13839484D01*
X12371253Y-13839484D02*
X12361729Y-13829960D01*
X12361729Y-13829960D02*
X12371253Y-13820436D01*
X12371253Y-13820436D02*
X12371253Y-13839484D01*
X12447443Y-13639484D02*
X12571253Y-13639484D01*
X12571253Y-13639484D02*
X12504586Y-13715674D01*
X12504586Y-13715674D02*
X12533158Y-13715674D01*
X12533158Y-13715674D02*
X12552205Y-13725198D01*
X12552205Y-13725198D02*
X12561729Y-13734722D01*
X12561729Y-13734722D02*
X12571253Y-13753769D01*
X12571253Y-13753769D02*
X12571253Y-13801388D01*
X12571253Y-13801388D02*
X12561729Y-13820436D01*
X12561729Y-13820436D02*
X12552205Y-13829960D01*
X12552205Y-13829960D02*
X12533158Y-13839484D01*
X12533158Y-13839484D02*
X12476015Y-13839484D01*
X12476015Y-13839484D02*
X12456967Y-13829960D01*
X12456967Y-13829960D02*
X12447443Y-13820436D01*
X12695062Y-13639484D02*
X12714110Y-13639484D01*
X12714110Y-13639484D02*
X12733158Y-13649008D01*
X12733158Y-13649008D02*
X12742682Y-13658531D01*
X12742682Y-13658531D02*
X12752205Y-13677579D01*
X12752205Y-13677579D02*
X12761729Y-13715674D01*
X12761729Y-13715674D02*
X12761729Y-13763293D01*
X12761729Y-13763293D02*
X12752205Y-13801388D01*
X12752205Y-13801388D02*
X12742682Y-13820436D01*
X12742682Y-13820436D02*
X12733158Y-13829960D01*
X12733158Y-13829960D02*
X12714110Y-13839484D01*
X12714110Y-13839484D02*
X12695062Y-13839484D01*
X12695062Y-13839484D02*
X12676015Y-13829960D01*
X12676015Y-13829960D02*
X12666491Y-13820436D01*
X12666491Y-13820436D02*
X12656967Y-13801388D01*
X12656967Y-13801388D02*
X12647443Y-13763293D01*
X12647443Y-13763293D02*
X12647443Y-13715674D01*
X12647443Y-13715674D02*
X12656967Y-13677579D01*
X12656967Y-13677579D02*
X12666491Y-13658531D01*
X12666491Y-13658531D02*
X12676015Y-13649008D01*
X12676015Y-13649008D02*
X12695062Y-13639484D01*
X12885539Y-13639484D02*
X12904586Y-13639484D01*
X12904586Y-13639484D02*
X12923634Y-13649008D01*
X12923634Y-13649008D02*
X12933158Y-13658531D01*
X12933158Y-13658531D02*
X12942682Y-13677579D01*
X12942682Y-13677579D02*
X12952205Y-13715674D01*
X12952205Y-13715674D02*
X12952205Y-13763293D01*
X12952205Y-13763293D02*
X12942682Y-13801388D01*
X12942682Y-13801388D02*
X12933158Y-13820436D01*
X12933158Y-13820436D02*
X12923634Y-13829960D01*
X12923634Y-13829960D02*
X12904586Y-13839484D01*
X12904586Y-13839484D02*
X12885539Y-13839484D01*
X12885539Y-13839484D02*
X12866491Y-13829960D01*
X12866491Y-13829960D02*
X12856967Y-13820436D01*
X12856967Y-13820436D02*
X12847443Y-13801388D01*
X12847443Y-13801388D02*
X12837920Y-13763293D01*
X12837920Y-13763293D02*
X12837920Y-13715674D01*
X12837920Y-13715674D02*
X12847443Y-13677579D01*
X12847443Y-13677579D02*
X12856967Y-13658531D01*
X12856967Y-13658531D02*
X12866491Y-13649008D01*
X12866491Y-13649008D02*
X12885539Y-13639484D01*
X13037920Y-13839484D02*
X13037920Y-13706150D01*
X13037920Y-13725198D02*
X13047443Y-13715674D01*
X13047443Y-13715674D02*
X13066491Y-13706150D01*
X13066491Y-13706150D02*
X13095063Y-13706150D01*
X13095063Y-13706150D02*
X13114110Y-13715674D01*
X13114110Y-13715674D02*
X13123634Y-13734722D01*
X13123634Y-13734722D02*
X13123634Y-13839484D01*
X13123634Y-13734722D02*
X13133158Y-13715674D01*
X13133158Y-13715674D02*
X13152205Y-13706150D01*
X13152205Y-13706150D02*
X13180777Y-13706150D01*
X13180777Y-13706150D02*
X13199824Y-13715674D01*
X13199824Y-13715674D02*
X13209348Y-13734722D01*
X13209348Y-13734722D02*
X13209348Y-13839484D01*
X13304586Y-13839484D02*
X13304586Y-13706150D01*
X13304586Y-13725198D02*
X13314110Y-13715674D01*
X13314110Y-13715674D02*
X13333158Y-13706150D01*
X13333158Y-13706150D02*
X13361729Y-13706150D01*
X13361729Y-13706150D02*
X13380777Y-13715674D01*
X13380777Y-13715674D02*
X13390301Y-13734722D01*
X13390301Y-13734722D02*
X13390301Y-13839484D01*
X13390301Y-13734722D02*
X13399824Y-13715674D01*
X13399824Y-13715674D02*
X13418872Y-13706150D01*
X13418872Y-13706150D02*
X13447443Y-13706150D01*
X13447443Y-13706150D02*
X13466491Y-13715674D01*
X13466491Y-13715674D02*
X13476015Y-13734722D01*
X13476015Y-13734722D02*
X13476015Y-13839484D01*
X13866491Y-13629960D02*
X13695063Y-13887103D01*
X14123634Y-13639484D02*
X14142682Y-13639484D01*
X14142682Y-13639484D02*
X14161729Y-13649008D01*
X14161729Y-13649008D02*
X14171253Y-13658531D01*
X14171253Y-13658531D02*
X14180777Y-13677579D01*
X14180777Y-13677579D02*
X14190301Y-13715674D01*
X14190301Y-13715674D02*
X14190301Y-13763293D01*
X14190301Y-13763293D02*
X14180777Y-13801388D01*
X14180777Y-13801388D02*
X14171253Y-13820436D01*
X14171253Y-13820436D02*
X14161729Y-13829960D01*
X14161729Y-13829960D02*
X14142682Y-13839484D01*
X14142682Y-13839484D02*
X14123634Y-13839484D01*
X14123634Y-13839484D02*
X14104586Y-13829960D01*
X14104586Y-13829960D02*
X14095063Y-13820436D01*
X14095063Y-13820436D02*
X14085539Y-13801388D01*
X14085539Y-13801388D02*
X14076015Y-13763293D01*
X14076015Y-13763293D02*
X14076015Y-13715674D01*
X14076015Y-13715674D02*
X14085539Y-13677579D01*
X14085539Y-13677579D02*
X14095063Y-13658531D01*
X14095063Y-13658531D02*
X14104586Y-13649008D01*
X14104586Y-13649008D02*
X14123634Y-13639484D01*
X14276015Y-13820436D02*
X14285539Y-13829960D01*
X14285539Y-13829960D02*
X14276015Y-13839484D01*
X14276015Y-13839484D02*
X14266491Y-13829960D01*
X14266491Y-13829960D02*
X14276015Y-13820436D01*
X14276015Y-13820436D02*
X14276015Y-13839484D01*
X14409348Y-13639484D02*
X14428396Y-13639484D01*
X14428396Y-13639484D02*
X14447444Y-13649008D01*
X14447444Y-13649008D02*
X14456967Y-13658531D01*
X14456967Y-13658531D02*
X14466491Y-13677579D01*
X14466491Y-13677579D02*
X14476015Y-13715674D01*
X14476015Y-13715674D02*
X14476015Y-13763293D01*
X14476015Y-13763293D02*
X14466491Y-13801388D01*
X14466491Y-13801388D02*
X14456967Y-13820436D01*
X14456967Y-13820436D02*
X14447444Y-13829960D01*
X14447444Y-13829960D02*
X14428396Y-13839484D01*
X14428396Y-13839484D02*
X14409348Y-13839484D01*
X14409348Y-13839484D02*
X14390301Y-13829960D01*
X14390301Y-13829960D02*
X14380777Y-13820436D01*
X14380777Y-13820436D02*
X14371253Y-13801388D01*
X14371253Y-13801388D02*
X14361729Y-13763293D01*
X14361729Y-13763293D02*
X14361729Y-13715674D01*
X14361729Y-13715674D02*
X14371253Y-13677579D01*
X14371253Y-13677579D02*
X14380777Y-13658531D01*
X14380777Y-13658531D02*
X14390301Y-13649008D01*
X14390301Y-13649008D02*
X14409348Y-13639484D01*
X14666491Y-13839484D02*
X14552206Y-13839484D01*
X14609348Y-13839484D02*
X14609348Y-13639484D01*
X14609348Y-13639484D02*
X14590301Y-13668055D01*
X14590301Y-13668055D02*
X14571253Y-13687103D01*
X14571253Y-13687103D02*
X14552206Y-13696627D01*
X14856967Y-13839484D02*
X14742682Y-13839484D01*
X14799825Y-13839484D02*
X14799825Y-13639484D01*
X14799825Y-13639484D02*
X14780777Y-13668055D01*
X14780777Y-13668055D02*
X14761729Y-13687103D01*
X14761729Y-13687103D02*
X14742682Y-13696627D01*
X14971253Y-13725198D02*
X14952206Y-13715674D01*
X14952206Y-13715674D02*
X14942682Y-13706150D01*
X14942682Y-13706150D02*
X14933158Y-13687103D01*
X14933158Y-13687103D02*
X14933158Y-13677579D01*
X14933158Y-13677579D02*
X14942682Y-13658531D01*
X14942682Y-13658531D02*
X14952206Y-13649008D01*
X14952206Y-13649008D02*
X14971253Y-13639484D01*
X14971253Y-13639484D02*
X15009348Y-13639484D01*
X15009348Y-13639484D02*
X15028396Y-13649008D01*
X15028396Y-13649008D02*
X15037920Y-13658531D01*
X15037920Y-13658531D02*
X15047444Y-13677579D01*
X15047444Y-13677579D02*
X15047444Y-13687103D01*
X15047444Y-13687103D02*
X15037920Y-13706150D01*
X15037920Y-13706150D02*
X15028396Y-13715674D01*
X15028396Y-13715674D02*
X15009348Y-13725198D01*
X15009348Y-13725198D02*
X14971253Y-13725198D01*
X14971253Y-13725198D02*
X14952206Y-13734722D01*
X14952206Y-13734722D02*
X14942682Y-13744246D01*
X14942682Y-13744246D02*
X14933158Y-13763293D01*
X14933158Y-13763293D02*
X14933158Y-13801388D01*
X14933158Y-13801388D02*
X14942682Y-13820436D01*
X14942682Y-13820436D02*
X14952206Y-13829960D01*
X14952206Y-13829960D02*
X14971253Y-13839484D01*
X14971253Y-13839484D02*
X15009348Y-13839484D01*
X15009348Y-13839484D02*
X15028396Y-13829960D01*
X15028396Y-13829960D02*
X15037920Y-13820436D01*
X15037920Y-13820436D02*
X15047444Y-13801388D01*
X15047444Y-13801388D02*
X15047444Y-13763293D01*
X15047444Y-13763293D02*
X15037920Y-13744246D01*
X15037920Y-13744246D02*
X15028396Y-13734722D01*
X15028396Y-13734722D02*
X15009348Y-13725198D01*
X15123634Y-13639484D02*
X15123634Y-13677579D01*
X15199825Y-13639484D02*
X15199825Y-13677579D01*
X15495063Y-13915674D02*
X15485539Y-13906150D01*
X15485539Y-13906150D02*
X15466491Y-13877579D01*
X15466491Y-13877579D02*
X15456968Y-13858531D01*
X15456968Y-13858531D02*
X15447444Y-13829960D01*
X15447444Y-13829960D02*
X15437920Y-13782341D01*
X15437920Y-13782341D02*
X15437920Y-13744246D01*
X15437920Y-13744246D02*
X15447444Y-13696627D01*
X15447444Y-13696627D02*
X15456968Y-13668055D01*
X15456968Y-13668055D02*
X15466491Y-13649008D01*
X15466491Y-13649008D02*
X15485539Y-13620436D01*
X15485539Y-13620436D02*
X15495063Y-13610912D01*
X15656968Y-13706150D02*
X15656968Y-13839484D01*
X15609348Y-13629960D02*
X15561729Y-13772817D01*
X15561729Y-13772817D02*
X15685539Y-13772817D01*
X15914110Y-13839484D02*
X15914110Y-13639484D01*
X15999825Y-13839484D02*
X15999825Y-13734722D01*
X15999825Y-13734722D02*
X15990301Y-13715674D01*
X15990301Y-13715674D02*
X15971253Y-13706150D01*
X15971253Y-13706150D02*
X15942682Y-13706150D01*
X15942682Y-13706150D02*
X15923634Y-13715674D01*
X15923634Y-13715674D02*
X15914110Y-13725198D01*
X16123634Y-13839484D02*
X16104587Y-13829960D01*
X16104587Y-13829960D02*
X16095063Y-13820436D01*
X16095063Y-13820436D02*
X16085539Y-13801388D01*
X16085539Y-13801388D02*
X16085539Y-13744246D01*
X16085539Y-13744246D02*
X16095063Y-13725198D01*
X16095063Y-13725198D02*
X16104587Y-13715674D01*
X16104587Y-13715674D02*
X16123634Y-13706150D01*
X16123634Y-13706150D02*
X16152206Y-13706150D01*
X16152206Y-13706150D02*
X16171253Y-13715674D01*
X16171253Y-13715674D02*
X16180777Y-13725198D01*
X16180777Y-13725198D02*
X16190301Y-13744246D01*
X16190301Y-13744246D02*
X16190301Y-13801388D01*
X16190301Y-13801388D02*
X16180777Y-13820436D01*
X16180777Y-13820436D02*
X16171253Y-13829960D01*
X16171253Y-13829960D02*
X16152206Y-13839484D01*
X16152206Y-13839484D02*
X16123634Y-13839484D01*
X16304587Y-13839484D02*
X16285539Y-13829960D01*
X16285539Y-13829960D02*
X16276015Y-13810912D01*
X16276015Y-13810912D02*
X16276015Y-13639484D01*
X16456968Y-13829960D02*
X16437920Y-13839484D01*
X16437920Y-13839484D02*
X16399825Y-13839484D01*
X16399825Y-13839484D02*
X16380777Y-13829960D01*
X16380777Y-13829960D02*
X16371253Y-13810912D01*
X16371253Y-13810912D02*
X16371253Y-13734722D01*
X16371253Y-13734722D02*
X16380777Y-13715674D01*
X16380777Y-13715674D02*
X16399825Y-13706150D01*
X16399825Y-13706150D02*
X16437920Y-13706150D01*
X16437920Y-13706150D02*
X16456968Y-13715674D01*
X16456968Y-13715674D02*
X16466491Y-13734722D01*
X16466491Y-13734722D02*
X16466491Y-13753769D01*
X16466491Y-13753769D02*
X16371253Y-13772817D01*
X16542682Y-13829960D02*
X16561730Y-13839484D01*
X16561730Y-13839484D02*
X16599825Y-13839484D01*
X16599825Y-13839484D02*
X16618872Y-13829960D01*
X16618872Y-13829960D02*
X16628396Y-13810912D01*
X16628396Y-13810912D02*
X16628396Y-13801388D01*
X16628396Y-13801388D02*
X16618872Y-13782341D01*
X16618872Y-13782341D02*
X16599825Y-13772817D01*
X16599825Y-13772817D02*
X16571253Y-13772817D01*
X16571253Y-13772817D02*
X16552206Y-13763293D01*
X16552206Y-13763293D02*
X16542682Y-13744246D01*
X16542682Y-13744246D02*
X16542682Y-13734722D01*
X16542682Y-13734722D02*
X16552206Y-13715674D01*
X16552206Y-13715674D02*
X16571253Y-13706150D01*
X16571253Y-13706150D02*
X16599825Y-13706150D01*
X16599825Y-13706150D02*
X16618872Y-13715674D01*
X16695063Y-13915674D02*
X16704587Y-13906150D01*
X16704587Y-13906150D02*
X16723634Y-13877579D01*
X16723634Y-13877579D02*
X16733158Y-13858531D01*
X16733158Y-13858531D02*
X16742682Y-13829960D01*
X16742682Y-13829960D02*
X16752206Y-13782341D01*
X16752206Y-13782341D02*
X16752206Y-13744246D01*
X16752206Y-13744246D02*
X16742682Y-13696627D01*
X16742682Y-13696627D02*
X16733158Y-13668055D01*
X16733158Y-13668055D02*
X16723634Y-13649008D01*
X16723634Y-13649008D02*
X16704587Y-13620436D01*
X16704587Y-13620436D02*
X16695063Y-13610912D01*
D10*
X11914142Y-14026142D02*
X11914142Y-13997858D01*
X11885858Y-13997858D01*
X11885858Y-14026142D01*
X11914142Y-14026142D01*
D11*
X12218872Y-13903484D02*
X12237920Y-13903484D01*
X12237920Y-13903484D02*
X12256967Y-13913008D01*
X12256967Y-13913008D02*
X12266491Y-13922531D01*
X12266491Y-13922531D02*
X12276015Y-13941579D01*
X12276015Y-13941579D02*
X12285539Y-13979674D01*
X12285539Y-13979674D02*
X12285539Y-14027293D01*
X12285539Y-14027293D02*
X12276015Y-14065388D01*
X12276015Y-14065388D02*
X12266491Y-14084436D01*
X12266491Y-14084436D02*
X12256967Y-14093960D01*
X12256967Y-14093960D02*
X12237920Y-14103484D01*
X12237920Y-14103484D02*
X12218872Y-14103484D01*
X12218872Y-14103484D02*
X12199824Y-14093960D01*
X12199824Y-14093960D02*
X12190301Y-14084436D01*
X12190301Y-14084436D02*
X12180777Y-14065388D01*
X12180777Y-14065388D02*
X12171253Y-14027293D01*
X12171253Y-14027293D02*
X12171253Y-13979674D01*
X12171253Y-13979674D02*
X12180777Y-13941579D01*
X12180777Y-13941579D02*
X12190301Y-13922531D01*
X12190301Y-13922531D02*
X12199824Y-13913008D01*
X12199824Y-13913008D02*
X12218872Y-13903484D01*
X12371253Y-14084436D02*
X12380777Y-14093960D01*
X12380777Y-14093960D02*
X12371253Y-14103484D01*
X12371253Y-14103484D02*
X12361729Y-14093960D01*
X12361729Y-14093960D02*
X12371253Y-14084436D01*
X12371253Y-14084436D02*
X12371253Y-14103484D01*
X12552205Y-13970150D02*
X12552205Y-14103484D01*
X12504586Y-13893960D02*
X12456967Y-14036817D01*
X12456967Y-14036817D02*
X12580777Y-14036817D01*
X12695062Y-13903484D02*
X12714110Y-13903484D01*
X12714110Y-13903484D02*
X12733158Y-13913008D01*
X12733158Y-13913008D02*
X12742682Y-13922531D01*
X12742682Y-13922531D02*
X12752205Y-13941579D01*
X12752205Y-13941579D02*
X12761729Y-13979674D01*
X12761729Y-13979674D02*
X12761729Y-14027293D01*
X12761729Y-14027293D02*
X12752205Y-14065388D01*
X12752205Y-14065388D02*
X12742682Y-14084436D01*
X12742682Y-14084436D02*
X12733158Y-14093960D01*
X12733158Y-14093960D02*
X12714110Y-14103484D01*
X12714110Y-14103484D02*
X12695062Y-14103484D01*
X12695062Y-14103484D02*
X12676015Y-14093960D01*
X12676015Y-14093960D02*
X12666491Y-14084436D01*
X12666491Y-14084436D02*
X12656967Y-14065388D01*
X12656967Y-14065388D02*
X12647443Y-14027293D01*
X12647443Y-14027293D02*
X12647443Y-13979674D01*
X12647443Y-13979674D02*
X12656967Y-13941579D01*
X12656967Y-13941579D02*
X12666491Y-13922531D01*
X12666491Y-13922531D02*
X12676015Y-13913008D01*
X12676015Y-13913008D02*
X12695062Y-13903484D01*
X12885539Y-13903484D02*
X12904586Y-13903484D01*
X12904586Y-13903484D02*
X12923634Y-13913008D01*
X12923634Y-13913008D02*
X12933158Y-13922531D01*
X12933158Y-13922531D02*
X12942682Y-13941579D01*
X12942682Y-13941579D02*
X12952205Y-13979674D01*
X12952205Y-13979674D02*
X12952205Y-14027293D01*
X12952205Y-14027293D02*
X12942682Y-14065388D01*
X12942682Y-14065388D02*
X12933158Y-14084436D01*
X12933158Y-14084436D02*
X12923634Y-14093960D01*
X12923634Y-14093960D02*
X12904586Y-14103484D01*
X12904586Y-14103484D02*
X12885539Y-14103484D01*
X12885539Y-14103484D02*
X12866491Y-14093960D01*
X12866491Y-14093960D02*
X12856967Y-14084436D01*
X12856967Y-14084436D02*
X12847443Y-14065388D01*
X12847443Y-14065388D02*
X12837920Y-14027293D01*
X12837920Y-14027293D02*
X12837920Y-13979674D01*
X12837920Y-13979674D02*
X12847443Y-13941579D01*
X12847443Y-13941579D02*
X12856967Y-13922531D01*
X12856967Y-13922531D02*
X12866491Y-13913008D01*
X12866491Y-13913008D02*
X12885539Y-13903484D01*
X13037920Y-14103484D02*
X13037920Y-13970150D01*
X13037920Y-13989198D02*
X13047443Y-13979674D01*
X13047443Y-13979674D02*
X13066491Y-13970150D01*
X13066491Y-13970150D02*
X13095063Y-13970150D01*
X13095063Y-13970150D02*
X13114110Y-13979674D01*
X13114110Y-13979674D02*
X13123634Y-13998722D01*
X13123634Y-13998722D02*
X13123634Y-14103484D01*
X13123634Y-13998722D02*
X13133158Y-13979674D01*
X13133158Y-13979674D02*
X13152205Y-13970150D01*
X13152205Y-13970150D02*
X13180777Y-13970150D01*
X13180777Y-13970150D02*
X13199824Y-13979674D01*
X13199824Y-13979674D02*
X13209348Y-13998722D01*
X13209348Y-13998722D02*
X13209348Y-14103484D01*
X13304586Y-14103484D02*
X13304586Y-13970150D01*
X13304586Y-13989198D02*
X13314110Y-13979674D01*
X13314110Y-13979674D02*
X13333158Y-13970150D01*
X13333158Y-13970150D02*
X13361729Y-13970150D01*
X13361729Y-13970150D02*
X13380777Y-13979674D01*
X13380777Y-13979674D02*
X13390301Y-13998722D01*
X13390301Y-13998722D02*
X13390301Y-14103484D01*
X13390301Y-13998722D02*
X13399824Y-13979674D01*
X13399824Y-13979674D02*
X13418872Y-13970150D01*
X13418872Y-13970150D02*
X13447443Y-13970150D01*
X13447443Y-13970150D02*
X13466491Y-13979674D01*
X13466491Y-13979674D02*
X13476015Y-13998722D01*
X13476015Y-13998722D02*
X13476015Y-14103484D01*
X13866491Y-13893960D02*
X13695063Y-14151103D01*
X14123634Y-13903484D02*
X14142682Y-13903484D01*
X14142682Y-13903484D02*
X14161729Y-13913008D01*
X14161729Y-13913008D02*
X14171253Y-13922531D01*
X14171253Y-13922531D02*
X14180777Y-13941579D01*
X14180777Y-13941579D02*
X14190301Y-13979674D01*
X14190301Y-13979674D02*
X14190301Y-14027293D01*
X14190301Y-14027293D02*
X14180777Y-14065388D01*
X14180777Y-14065388D02*
X14171253Y-14084436D01*
X14171253Y-14084436D02*
X14161729Y-14093960D01*
X14161729Y-14093960D02*
X14142682Y-14103484D01*
X14142682Y-14103484D02*
X14123634Y-14103484D01*
X14123634Y-14103484D02*
X14104586Y-14093960D01*
X14104586Y-14093960D02*
X14095063Y-14084436D01*
X14095063Y-14084436D02*
X14085539Y-14065388D01*
X14085539Y-14065388D02*
X14076015Y-14027293D01*
X14076015Y-14027293D02*
X14076015Y-13979674D01*
X14076015Y-13979674D02*
X14085539Y-13941579D01*
X14085539Y-13941579D02*
X14095063Y-13922531D01*
X14095063Y-13922531D02*
X14104586Y-13913008D01*
X14104586Y-13913008D02*
X14123634Y-13903484D01*
X14276015Y-14084436D02*
X14285539Y-14093960D01*
X14285539Y-14093960D02*
X14276015Y-14103484D01*
X14276015Y-14103484D02*
X14266491Y-14093960D01*
X14266491Y-14093960D02*
X14276015Y-14084436D01*
X14276015Y-14084436D02*
X14276015Y-14103484D01*
X14409348Y-13903484D02*
X14428396Y-13903484D01*
X14428396Y-13903484D02*
X14447444Y-13913008D01*
X14447444Y-13913008D02*
X14456967Y-13922531D01*
X14456967Y-13922531D02*
X14466491Y-13941579D01*
X14466491Y-13941579D02*
X14476015Y-13979674D01*
X14476015Y-13979674D02*
X14476015Y-14027293D01*
X14476015Y-14027293D02*
X14466491Y-14065388D01*
X14466491Y-14065388D02*
X14456967Y-14084436D01*
X14456967Y-14084436D02*
X14447444Y-14093960D01*
X14447444Y-14093960D02*
X14428396Y-14103484D01*
X14428396Y-14103484D02*
X14409348Y-14103484D01*
X14409348Y-14103484D02*
X14390301Y-14093960D01*
X14390301Y-14093960D02*
X14380777Y-14084436D01*
X14380777Y-14084436D02*
X14371253Y-14065388D01*
X14371253Y-14065388D02*
X14361729Y-14027293D01*
X14361729Y-14027293D02*
X14361729Y-13979674D01*
X14361729Y-13979674D02*
X14371253Y-13941579D01*
X14371253Y-13941579D02*
X14380777Y-13922531D01*
X14380777Y-13922531D02*
X14390301Y-13913008D01*
X14390301Y-13913008D02*
X14409348Y-13903484D01*
X14666491Y-14103484D02*
X14552206Y-14103484D01*
X14609348Y-14103484D02*
X14609348Y-13903484D01*
X14609348Y-13903484D02*
X14590301Y-13932055D01*
X14590301Y-13932055D02*
X14571253Y-13951103D01*
X14571253Y-13951103D02*
X14552206Y-13960627D01*
X14847444Y-13903484D02*
X14752206Y-13903484D01*
X14752206Y-13903484D02*
X14742682Y-13998722D01*
X14742682Y-13998722D02*
X14752206Y-13989198D01*
X14752206Y-13989198D02*
X14771253Y-13979674D01*
X14771253Y-13979674D02*
X14818872Y-13979674D01*
X14818872Y-13979674D02*
X14837920Y-13989198D01*
X14837920Y-13989198D02*
X14847444Y-13998722D01*
X14847444Y-13998722D02*
X14856967Y-14017769D01*
X14856967Y-14017769D02*
X14856967Y-14065388D01*
X14856967Y-14065388D02*
X14847444Y-14084436D01*
X14847444Y-14084436D02*
X14837920Y-14093960D01*
X14837920Y-14093960D02*
X14818872Y-14103484D01*
X14818872Y-14103484D02*
X14771253Y-14103484D01*
X14771253Y-14103484D02*
X14752206Y-14093960D01*
X14752206Y-14093960D02*
X14742682Y-14084436D01*
X14923634Y-13903484D02*
X15056967Y-13903484D01*
X15056967Y-13903484D02*
X14971253Y-14103484D01*
X15123634Y-13903484D02*
X15123634Y-13941579D01*
X15199825Y-13903484D02*
X15199825Y-13941579D01*
X15495063Y-14179674D02*
X15485539Y-14170150D01*
X15485539Y-14170150D02*
X15466491Y-14141579D01*
X15466491Y-14141579D02*
X15456968Y-14122531D01*
X15456968Y-14122531D02*
X15447444Y-14093960D01*
X15447444Y-14093960D02*
X15437920Y-14046341D01*
X15437920Y-14046341D02*
X15437920Y-14008246D01*
X15437920Y-14008246D02*
X15447444Y-13960627D01*
X15447444Y-13960627D02*
X15456968Y-13932055D01*
X15456968Y-13932055D02*
X15466491Y-13913008D01*
X15466491Y-13913008D02*
X15485539Y-13884436D01*
X15485539Y-13884436D02*
X15495063Y-13874912D01*
X15676015Y-14103484D02*
X15561729Y-14103484D01*
X15618872Y-14103484D02*
X15618872Y-13903484D01*
X15618872Y-13903484D02*
X15599825Y-13932055D01*
X15599825Y-13932055D02*
X15580777Y-13951103D01*
X15580777Y-13951103D02*
X15561729Y-13960627D01*
X15866491Y-14103484D02*
X15752206Y-14103484D01*
X15809348Y-14103484D02*
X15809348Y-13903484D01*
X15809348Y-13903484D02*
X15790301Y-13932055D01*
X15790301Y-13932055D02*
X15771253Y-13951103D01*
X15771253Y-13951103D02*
X15752206Y-13960627D01*
X16047444Y-13903484D02*
X15952206Y-13903484D01*
X15952206Y-13903484D02*
X15942682Y-13998722D01*
X15942682Y-13998722D02*
X15952206Y-13989198D01*
X15952206Y-13989198D02*
X15971253Y-13979674D01*
X15971253Y-13979674D02*
X16018872Y-13979674D01*
X16018872Y-13979674D02*
X16037920Y-13989198D01*
X16037920Y-13989198D02*
X16047444Y-13998722D01*
X16047444Y-13998722D02*
X16056968Y-14017769D01*
X16056968Y-14017769D02*
X16056968Y-14065388D01*
X16056968Y-14065388D02*
X16047444Y-14084436D01*
X16047444Y-14084436D02*
X16037920Y-14093960D01*
X16037920Y-14093960D02*
X16018872Y-14103484D01*
X16018872Y-14103484D02*
X15971253Y-14103484D01*
X15971253Y-14103484D02*
X15952206Y-14093960D01*
X15952206Y-14093960D02*
X15942682Y-14084436D01*
X16295063Y-14103484D02*
X16295063Y-13903484D01*
X16380777Y-14103484D02*
X16380777Y-13998722D01*
X16380777Y-13998722D02*
X16371253Y-13979674D01*
X16371253Y-13979674D02*
X16352206Y-13970150D01*
X16352206Y-13970150D02*
X16323634Y-13970150D01*
X16323634Y-13970150D02*
X16304587Y-13979674D01*
X16304587Y-13979674D02*
X16295063Y-13989198D01*
X16504587Y-14103484D02*
X16485539Y-14093960D01*
X16485539Y-14093960D02*
X16476015Y-14084436D01*
X16476015Y-14084436D02*
X16466491Y-14065388D01*
X16466491Y-14065388D02*
X16466491Y-14008246D01*
X16466491Y-14008246D02*
X16476015Y-13989198D01*
X16476015Y-13989198D02*
X16485539Y-13979674D01*
X16485539Y-13979674D02*
X16504587Y-13970150D01*
X16504587Y-13970150D02*
X16533158Y-13970150D01*
X16533158Y-13970150D02*
X16552206Y-13979674D01*
X16552206Y-13979674D02*
X16561730Y-13989198D01*
X16561730Y-13989198D02*
X16571253Y-14008246D01*
X16571253Y-14008246D02*
X16571253Y-14065388D01*
X16571253Y-14065388D02*
X16561730Y-14084436D01*
X16561730Y-14084436D02*
X16552206Y-14093960D01*
X16552206Y-14093960D02*
X16533158Y-14103484D01*
X16533158Y-14103484D02*
X16504587Y-14103484D01*
X16685539Y-14103484D02*
X16666491Y-14093960D01*
X16666491Y-14093960D02*
X16656968Y-14074912D01*
X16656968Y-14074912D02*
X16656968Y-13903484D01*
X16837920Y-14093960D02*
X16818873Y-14103484D01*
X16818873Y-14103484D02*
X16780777Y-14103484D01*
X16780777Y-14103484D02*
X16761730Y-14093960D01*
X16761730Y-14093960D02*
X16752206Y-14074912D01*
X16752206Y-14074912D02*
X16752206Y-13998722D01*
X16752206Y-13998722D02*
X16761730Y-13979674D01*
X16761730Y-13979674D02*
X16780777Y-13970150D01*
X16780777Y-13970150D02*
X16818873Y-13970150D01*
X16818873Y-13970150D02*
X16837920Y-13979674D01*
X16837920Y-13979674D02*
X16847444Y-13998722D01*
X16847444Y-13998722D02*
X16847444Y-14017769D01*
X16847444Y-14017769D02*
X16752206Y-14036817D01*
X16923634Y-14093960D02*
X16942682Y-14103484D01*
X16942682Y-14103484D02*
X16980777Y-14103484D01*
X16980777Y-14103484D02*
X16999825Y-14093960D01*
X16999825Y-14093960D02*
X17009349Y-14074912D01*
X17009349Y-14074912D02*
X17009349Y-14065388D01*
X17009349Y-14065388D02*
X16999825Y-14046341D01*
X16999825Y-14046341D02*
X16980777Y-14036817D01*
X16980777Y-14036817D02*
X16952206Y-14036817D01*
X16952206Y-14036817D02*
X16933158Y-14027293D01*
X16933158Y-14027293D02*
X16923634Y-14008246D01*
X16923634Y-14008246D02*
X16923634Y-13998722D01*
X16923634Y-13998722D02*
X16933158Y-13979674D01*
X16933158Y-13979674D02*
X16952206Y-13970150D01*
X16952206Y-13970150D02*
X16980777Y-13970150D01*
X16980777Y-13970150D02*
X16999825Y-13979674D01*
X17076015Y-14179674D02*
X17085539Y-14170150D01*
X17085539Y-14170150D02*
X17104587Y-14141579D01*
X17104587Y-14141579D02*
X17114111Y-14122531D01*
X17114111Y-14122531D02*
X17123634Y-14093960D01*
X17123634Y-14093960D02*
X17133158Y-14046341D01*
X17133158Y-14046341D02*
X17133158Y-14008246D01*
X17133158Y-14008246D02*
X17123634Y-13960627D01*
X17123634Y-13960627D02*
X17114111Y-13932055D01*
X17114111Y-13932055D02*
X17104587Y-13913008D01*
X17104587Y-13913008D02*
X17085539Y-13884436D01*
X17085539Y-13884436D02*
X17076015Y-13874912D01*
D10*
X11890000Y-14306000D02*
X11920000Y-14276000D01*
X11890000Y-14246000D01*
X11860000Y-14276000D01*
X11890000Y-14306000D01*
D11*
X12218872Y-14167484D02*
X12237920Y-14167484D01*
X12237920Y-14167484D02*
X12256967Y-14177008D01*
X12256967Y-14177008D02*
X12266491Y-14186531D01*
X12266491Y-14186531D02*
X12276015Y-14205579D01*
X12276015Y-14205579D02*
X12285539Y-14243674D01*
X12285539Y-14243674D02*
X12285539Y-14291293D01*
X12285539Y-14291293D02*
X12276015Y-14329388D01*
X12276015Y-14329388D02*
X12266491Y-14348436D01*
X12266491Y-14348436D02*
X12256967Y-14357960D01*
X12256967Y-14357960D02*
X12237920Y-14367484D01*
X12237920Y-14367484D02*
X12218872Y-14367484D01*
X12218872Y-14367484D02*
X12199824Y-14357960D01*
X12199824Y-14357960D02*
X12190301Y-14348436D01*
X12190301Y-14348436D02*
X12180777Y-14329388D01*
X12180777Y-14329388D02*
X12171253Y-14291293D01*
X12171253Y-14291293D02*
X12171253Y-14243674D01*
X12171253Y-14243674D02*
X12180777Y-14205579D01*
X12180777Y-14205579D02*
X12190301Y-14186531D01*
X12190301Y-14186531D02*
X12199824Y-14177008D01*
X12199824Y-14177008D02*
X12218872Y-14167484D01*
X12371253Y-14348436D02*
X12380777Y-14357960D01*
X12380777Y-14357960D02*
X12371253Y-14367484D01*
X12371253Y-14367484D02*
X12361729Y-14357960D01*
X12361729Y-14357960D02*
X12371253Y-14348436D01*
X12371253Y-14348436D02*
X12371253Y-14367484D01*
X12552205Y-14167484D02*
X12514110Y-14167484D01*
X12514110Y-14167484D02*
X12495062Y-14177008D01*
X12495062Y-14177008D02*
X12485539Y-14186531D01*
X12485539Y-14186531D02*
X12466491Y-14215103D01*
X12466491Y-14215103D02*
X12456967Y-14253198D01*
X12456967Y-14253198D02*
X12456967Y-14329388D01*
X12456967Y-14329388D02*
X12466491Y-14348436D01*
X12466491Y-14348436D02*
X12476015Y-14357960D01*
X12476015Y-14357960D02*
X12495062Y-14367484D01*
X12495062Y-14367484D02*
X12533158Y-14367484D01*
X12533158Y-14367484D02*
X12552205Y-14357960D01*
X12552205Y-14357960D02*
X12561729Y-14348436D01*
X12561729Y-14348436D02*
X12571253Y-14329388D01*
X12571253Y-14329388D02*
X12571253Y-14281769D01*
X12571253Y-14281769D02*
X12561729Y-14262722D01*
X12561729Y-14262722D02*
X12552205Y-14253198D01*
X12552205Y-14253198D02*
X12533158Y-14243674D01*
X12533158Y-14243674D02*
X12495062Y-14243674D01*
X12495062Y-14243674D02*
X12476015Y-14253198D01*
X12476015Y-14253198D02*
X12466491Y-14262722D01*
X12466491Y-14262722D02*
X12456967Y-14281769D01*
X12695062Y-14167484D02*
X12714110Y-14167484D01*
X12714110Y-14167484D02*
X12733158Y-14177008D01*
X12733158Y-14177008D02*
X12742682Y-14186531D01*
X12742682Y-14186531D02*
X12752205Y-14205579D01*
X12752205Y-14205579D02*
X12761729Y-14243674D01*
X12761729Y-14243674D02*
X12761729Y-14291293D01*
X12761729Y-14291293D02*
X12752205Y-14329388D01*
X12752205Y-14329388D02*
X12742682Y-14348436D01*
X12742682Y-14348436D02*
X12733158Y-14357960D01*
X12733158Y-14357960D02*
X12714110Y-14367484D01*
X12714110Y-14367484D02*
X12695062Y-14367484D01*
X12695062Y-14367484D02*
X12676015Y-14357960D01*
X12676015Y-14357960D02*
X12666491Y-14348436D01*
X12666491Y-14348436D02*
X12656967Y-14329388D01*
X12656967Y-14329388D02*
X12647443Y-14291293D01*
X12647443Y-14291293D02*
X12647443Y-14243674D01*
X12647443Y-14243674D02*
X12656967Y-14205579D01*
X12656967Y-14205579D02*
X12666491Y-14186531D01*
X12666491Y-14186531D02*
X12676015Y-14177008D01*
X12676015Y-14177008D02*
X12695062Y-14167484D01*
X12885539Y-14167484D02*
X12904586Y-14167484D01*
X12904586Y-14167484D02*
X12923634Y-14177008D01*
X12923634Y-14177008D02*
X12933158Y-14186531D01*
X12933158Y-14186531D02*
X12942682Y-14205579D01*
X12942682Y-14205579D02*
X12952205Y-14243674D01*
X12952205Y-14243674D02*
X12952205Y-14291293D01*
X12952205Y-14291293D02*
X12942682Y-14329388D01*
X12942682Y-14329388D02*
X12933158Y-14348436D01*
X12933158Y-14348436D02*
X12923634Y-14357960D01*
X12923634Y-14357960D02*
X12904586Y-14367484D01*
X12904586Y-14367484D02*
X12885539Y-14367484D01*
X12885539Y-14367484D02*
X12866491Y-14357960D01*
X12866491Y-14357960D02*
X12856967Y-14348436D01*
X12856967Y-14348436D02*
X12847443Y-14329388D01*
X12847443Y-14329388D02*
X12837920Y-14291293D01*
X12837920Y-14291293D02*
X12837920Y-14243674D01*
X12837920Y-14243674D02*
X12847443Y-14205579D01*
X12847443Y-14205579D02*
X12856967Y-14186531D01*
X12856967Y-14186531D02*
X12866491Y-14177008D01*
X12866491Y-14177008D02*
X12885539Y-14167484D01*
X13037920Y-14367484D02*
X13037920Y-14234150D01*
X13037920Y-14253198D02*
X13047443Y-14243674D01*
X13047443Y-14243674D02*
X13066491Y-14234150D01*
X13066491Y-14234150D02*
X13095063Y-14234150D01*
X13095063Y-14234150D02*
X13114110Y-14243674D01*
X13114110Y-14243674D02*
X13123634Y-14262722D01*
X13123634Y-14262722D02*
X13123634Y-14367484D01*
X13123634Y-14262722D02*
X13133158Y-14243674D01*
X13133158Y-14243674D02*
X13152205Y-14234150D01*
X13152205Y-14234150D02*
X13180777Y-14234150D01*
X13180777Y-14234150D02*
X13199824Y-14243674D01*
X13199824Y-14243674D02*
X13209348Y-14262722D01*
X13209348Y-14262722D02*
X13209348Y-14367484D01*
X13304586Y-14367484D02*
X13304586Y-14234150D01*
X13304586Y-14253198D02*
X13314110Y-14243674D01*
X13314110Y-14243674D02*
X13333158Y-14234150D01*
X13333158Y-14234150D02*
X13361729Y-14234150D01*
X13361729Y-14234150D02*
X13380777Y-14243674D01*
X13380777Y-14243674D02*
X13390301Y-14262722D01*
X13390301Y-14262722D02*
X13390301Y-14367484D01*
X13390301Y-14262722D02*
X13399824Y-14243674D01*
X13399824Y-14243674D02*
X13418872Y-14234150D01*
X13418872Y-14234150D02*
X13447443Y-14234150D01*
X13447443Y-14234150D02*
X13466491Y-14243674D01*
X13466491Y-14243674D02*
X13476015Y-14262722D01*
X13476015Y-14262722D02*
X13476015Y-14367484D01*
X13866491Y-14157960D02*
X13695063Y-14415103D01*
X14123634Y-14167484D02*
X14142682Y-14167484D01*
X14142682Y-14167484D02*
X14161729Y-14177008D01*
X14161729Y-14177008D02*
X14171253Y-14186531D01*
X14171253Y-14186531D02*
X14180777Y-14205579D01*
X14180777Y-14205579D02*
X14190301Y-14243674D01*
X14190301Y-14243674D02*
X14190301Y-14291293D01*
X14190301Y-14291293D02*
X14180777Y-14329388D01*
X14180777Y-14329388D02*
X14171253Y-14348436D01*
X14171253Y-14348436D02*
X14161729Y-14357960D01*
X14161729Y-14357960D02*
X14142682Y-14367484D01*
X14142682Y-14367484D02*
X14123634Y-14367484D01*
X14123634Y-14367484D02*
X14104586Y-14357960D01*
X14104586Y-14357960D02*
X14095063Y-14348436D01*
X14095063Y-14348436D02*
X14085539Y-14329388D01*
X14085539Y-14329388D02*
X14076015Y-14291293D01*
X14076015Y-14291293D02*
X14076015Y-14243674D01*
X14076015Y-14243674D02*
X14085539Y-14205579D01*
X14085539Y-14205579D02*
X14095063Y-14186531D01*
X14095063Y-14186531D02*
X14104586Y-14177008D01*
X14104586Y-14177008D02*
X14123634Y-14167484D01*
X14276015Y-14348436D02*
X14285539Y-14357960D01*
X14285539Y-14357960D02*
X14276015Y-14367484D01*
X14276015Y-14367484D02*
X14266491Y-14357960D01*
X14266491Y-14357960D02*
X14276015Y-14348436D01*
X14276015Y-14348436D02*
X14276015Y-14367484D01*
X14409348Y-14167484D02*
X14428396Y-14167484D01*
X14428396Y-14167484D02*
X14447444Y-14177008D01*
X14447444Y-14177008D02*
X14456967Y-14186531D01*
X14456967Y-14186531D02*
X14466491Y-14205579D01*
X14466491Y-14205579D02*
X14476015Y-14243674D01*
X14476015Y-14243674D02*
X14476015Y-14291293D01*
X14476015Y-14291293D02*
X14466491Y-14329388D01*
X14466491Y-14329388D02*
X14456967Y-14348436D01*
X14456967Y-14348436D02*
X14447444Y-14357960D01*
X14447444Y-14357960D02*
X14428396Y-14367484D01*
X14428396Y-14367484D02*
X14409348Y-14367484D01*
X14409348Y-14367484D02*
X14390301Y-14357960D01*
X14390301Y-14357960D02*
X14380777Y-14348436D01*
X14380777Y-14348436D02*
X14371253Y-14329388D01*
X14371253Y-14329388D02*
X14361729Y-14291293D01*
X14361729Y-14291293D02*
X14361729Y-14243674D01*
X14361729Y-14243674D02*
X14371253Y-14205579D01*
X14371253Y-14205579D02*
X14380777Y-14186531D01*
X14380777Y-14186531D02*
X14390301Y-14177008D01*
X14390301Y-14177008D02*
X14409348Y-14167484D01*
X14552206Y-14186531D02*
X14561729Y-14177008D01*
X14561729Y-14177008D02*
X14580777Y-14167484D01*
X14580777Y-14167484D02*
X14628396Y-14167484D01*
X14628396Y-14167484D02*
X14647444Y-14177008D01*
X14647444Y-14177008D02*
X14656967Y-14186531D01*
X14656967Y-14186531D02*
X14666491Y-14205579D01*
X14666491Y-14205579D02*
X14666491Y-14224627D01*
X14666491Y-14224627D02*
X14656967Y-14253198D01*
X14656967Y-14253198D02*
X14542682Y-14367484D01*
X14542682Y-14367484D02*
X14666491Y-14367484D01*
X14733158Y-14167484D02*
X14856967Y-14167484D01*
X14856967Y-14167484D02*
X14790301Y-14243674D01*
X14790301Y-14243674D02*
X14818872Y-14243674D01*
X14818872Y-14243674D02*
X14837920Y-14253198D01*
X14837920Y-14253198D02*
X14847444Y-14262722D01*
X14847444Y-14262722D02*
X14856967Y-14281769D01*
X14856967Y-14281769D02*
X14856967Y-14329388D01*
X14856967Y-14329388D02*
X14847444Y-14348436D01*
X14847444Y-14348436D02*
X14837920Y-14357960D01*
X14837920Y-14357960D02*
X14818872Y-14367484D01*
X14818872Y-14367484D02*
X14761729Y-14367484D01*
X14761729Y-14367484D02*
X14742682Y-14357960D01*
X14742682Y-14357960D02*
X14733158Y-14348436D01*
X15028396Y-14167484D02*
X14990301Y-14167484D01*
X14990301Y-14167484D02*
X14971253Y-14177008D01*
X14971253Y-14177008D02*
X14961729Y-14186531D01*
X14961729Y-14186531D02*
X14942682Y-14215103D01*
X14942682Y-14215103D02*
X14933158Y-14253198D01*
X14933158Y-14253198D02*
X14933158Y-14329388D01*
X14933158Y-14329388D02*
X14942682Y-14348436D01*
X14942682Y-14348436D02*
X14952206Y-14357960D01*
X14952206Y-14357960D02*
X14971253Y-14367484D01*
X14971253Y-14367484D02*
X15009348Y-14367484D01*
X15009348Y-14367484D02*
X15028396Y-14357960D01*
X15028396Y-14357960D02*
X15037920Y-14348436D01*
X15037920Y-14348436D02*
X15047444Y-14329388D01*
X15047444Y-14329388D02*
X15047444Y-14281769D01*
X15047444Y-14281769D02*
X15037920Y-14262722D01*
X15037920Y-14262722D02*
X15028396Y-14253198D01*
X15028396Y-14253198D02*
X15009348Y-14243674D01*
X15009348Y-14243674D02*
X14971253Y-14243674D01*
X14971253Y-14243674D02*
X14952206Y-14253198D01*
X14952206Y-14253198D02*
X14942682Y-14262722D01*
X14942682Y-14262722D02*
X14933158Y-14281769D01*
X15123634Y-14167484D02*
X15123634Y-14205579D01*
X15199825Y-14167484D02*
X15199825Y-14205579D01*
X15495063Y-14443674D02*
X15485539Y-14434150D01*
X15485539Y-14434150D02*
X15466491Y-14405579D01*
X15466491Y-14405579D02*
X15456968Y-14386531D01*
X15456968Y-14386531D02*
X15447444Y-14357960D01*
X15447444Y-14357960D02*
X15437920Y-14310341D01*
X15437920Y-14310341D02*
X15437920Y-14272246D01*
X15437920Y-14272246D02*
X15447444Y-14224627D01*
X15447444Y-14224627D02*
X15456968Y-14196055D01*
X15456968Y-14196055D02*
X15466491Y-14177008D01*
X15466491Y-14177008D02*
X15485539Y-14148436D01*
X15485539Y-14148436D02*
X15495063Y-14138912D01*
X15609348Y-14167484D02*
X15628396Y-14167484D01*
X15628396Y-14167484D02*
X15647444Y-14177008D01*
X15647444Y-14177008D02*
X15656968Y-14186531D01*
X15656968Y-14186531D02*
X15666491Y-14205579D01*
X15666491Y-14205579D02*
X15676015Y-14243674D01*
X15676015Y-14243674D02*
X15676015Y-14291293D01*
X15676015Y-14291293D02*
X15666491Y-14329388D01*
X15666491Y-14329388D02*
X15656968Y-14348436D01*
X15656968Y-14348436D02*
X15647444Y-14357960D01*
X15647444Y-14357960D02*
X15628396Y-14367484D01*
X15628396Y-14367484D02*
X15609348Y-14367484D01*
X15609348Y-14367484D02*
X15590301Y-14357960D01*
X15590301Y-14357960D02*
X15580777Y-14348436D01*
X15580777Y-14348436D02*
X15571253Y-14329388D01*
X15571253Y-14329388D02*
X15561729Y-14291293D01*
X15561729Y-14291293D02*
X15561729Y-14243674D01*
X15561729Y-14243674D02*
X15571253Y-14205579D01*
X15571253Y-14205579D02*
X15580777Y-14186531D01*
X15580777Y-14186531D02*
X15590301Y-14177008D01*
X15590301Y-14177008D02*
X15609348Y-14167484D01*
X15914110Y-14367484D02*
X15914110Y-14167484D01*
X15999825Y-14367484D02*
X15999825Y-14262722D01*
X15999825Y-14262722D02*
X15990301Y-14243674D01*
X15990301Y-14243674D02*
X15971253Y-14234150D01*
X15971253Y-14234150D02*
X15942682Y-14234150D01*
X15942682Y-14234150D02*
X15923634Y-14243674D01*
X15923634Y-14243674D02*
X15914110Y-14253198D01*
X16123634Y-14367484D02*
X16104587Y-14357960D01*
X16104587Y-14357960D02*
X16095063Y-14348436D01*
X16095063Y-14348436D02*
X16085539Y-14329388D01*
X16085539Y-14329388D02*
X16085539Y-14272246D01*
X16085539Y-14272246D02*
X16095063Y-14253198D01*
X16095063Y-14253198D02*
X16104587Y-14243674D01*
X16104587Y-14243674D02*
X16123634Y-14234150D01*
X16123634Y-14234150D02*
X16152206Y-14234150D01*
X16152206Y-14234150D02*
X16171253Y-14243674D01*
X16171253Y-14243674D02*
X16180777Y-14253198D01*
X16180777Y-14253198D02*
X16190301Y-14272246D01*
X16190301Y-14272246D02*
X16190301Y-14329388D01*
X16190301Y-14329388D02*
X16180777Y-14348436D01*
X16180777Y-14348436D02*
X16171253Y-14357960D01*
X16171253Y-14357960D02*
X16152206Y-14367484D01*
X16152206Y-14367484D02*
X16123634Y-14367484D01*
X16304587Y-14367484D02*
X16285539Y-14357960D01*
X16285539Y-14357960D02*
X16276015Y-14338912D01*
X16276015Y-14338912D02*
X16276015Y-14167484D01*
X16456968Y-14357960D02*
X16437920Y-14367484D01*
X16437920Y-14367484D02*
X16399825Y-14367484D01*
X16399825Y-14367484D02*
X16380777Y-14357960D01*
X16380777Y-14357960D02*
X16371253Y-14338912D01*
X16371253Y-14338912D02*
X16371253Y-14262722D01*
X16371253Y-14262722D02*
X16380777Y-14243674D01*
X16380777Y-14243674D02*
X16399825Y-14234150D01*
X16399825Y-14234150D02*
X16437920Y-14234150D01*
X16437920Y-14234150D02*
X16456968Y-14243674D01*
X16456968Y-14243674D02*
X16466491Y-14262722D01*
X16466491Y-14262722D02*
X16466491Y-14281769D01*
X16466491Y-14281769D02*
X16371253Y-14300817D01*
X16542682Y-14357960D02*
X16561730Y-14367484D01*
X16561730Y-14367484D02*
X16599825Y-14367484D01*
X16599825Y-14367484D02*
X16618872Y-14357960D01*
X16618872Y-14357960D02*
X16628396Y-14338912D01*
X16628396Y-14338912D02*
X16628396Y-14329388D01*
X16628396Y-14329388D02*
X16618872Y-14310341D01*
X16618872Y-14310341D02*
X16599825Y-14300817D01*
X16599825Y-14300817D02*
X16571253Y-14300817D01*
X16571253Y-14300817D02*
X16552206Y-14291293D01*
X16552206Y-14291293D02*
X16542682Y-14272246D01*
X16542682Y-14272246D02*
X16542682Y-14262722D01*
X16542682Y-14262722D02*
X16552206Y-14243674D01*
X16552206Y-14243674D02*
X16571253Y-14234150D01*
X16571253Y-14234150D02*
X16599825Y-14234150D01*
X16599825Y-14234150D02*
X16618872Y-14243674D01*
X16866492Y-14291293D02*
X17018873Y-14291293D01*
X16942682Y-14367484D02*
X16942682Y-14215103D01*
X17352206Y-14234150D02*
X17352206Y-14367484D01*
X17304587Y-14157960D02*
X17256968Y-14300817D01*
X17256968Y-14300817D02*
X17380777Y-14300817D01*
X17599825Y-14357960D02*
X17618873Y-14367484D01*
X17618873Y-14367484D02*
X17656968Y-14367484D01*
X17656968Y-14367484D02*
X17676016Y-14357960D01*
X17676016Y-14357960D02*
X17685539Y-14338912D01*
X17685539Y-14338912D02*
X17685539Y-14329388D01*
X17685539Y-14329388D02*
X17676016Y-14310341D01*
X17676016Y-14310341D02*
X17656968Y-14300817D01*
X17656968Y-14300817D02*
X17628396Y-14300817D01*
X17628396Y-14300817D02*
X17609349Y-14291293D01*
X17609349Y-14291293D02*
X17599825Y-14272246D01*
X17599825Y-14272246D02*
X17599825Y-14262722D01*
X17599825Y-14262722D02*
X17609349Y-14243674D01*
X17609349Y-14243674D02*
X17628396Y-14234150D01*
X17628396Y-14234150D02*
X17656968Y-14234150D01*
X17656968Y-14234150D02*
X17676016Y-14243674D01*
X17799825Y-14367484D02*
X17780777Y-14357960D01*
X17780777Y-14357960D02*
X17771254Y-14338912D01*
X17771254Y-14338912D02*
X17771254Y-14167484D01*
X17904587Y-14367484D02*
X17885539Y-14357960D01*
X17885539Y-14357960D02*
X17876016Y-14348436D01*
X17876016Y-14348436D02*
X17866492Y-14329388D01*
X17866492Y-14329388D02*
X17866492Y-14272246D01*
X17866492Y-14272246D02*
X17876016Y-14253198D01*
X17876016Y-14253198D02*
X17885539Y-14243674D01*
X17885539Y-14243674D02*
X17904587Y-14234150D01*
X17904587Y-14234150D02*
X17933158Y-14234150D01*
X17933158Y-14234150D02*
X17952206Y-14243674D01*
X17952206Y-14243674D02*
X17961730Y-14253198D01*
X17961730Y-14253198D02*
X17971254Y-14272246D01*
X17971254Y-14272246D02*
X17971254Y-14329388D01*
X17971254Y-14329388D02*
X17961730Y-14348436D01*
X17961730Y-14348436D02*
X17952206Y-14357960D01*
X17952206Y-14357960D02*
X17933158Y-14367484D01*
X17933158Y-14367484D02*
X17904587Y-14367484D01*
X18028397Y-14234150D02*
X18104587Y-14234150D01*
X18056968Y-14167484D02*
X18056968Y-14338912D01*
X18056968Y-14338912D02*
X18066492Y-14357960D01*
X18066492Y-14357960D02*
X18085539Y-14367484D01*
X18085539Y-14367484D02*
X18104587Y-14367484D01*
X18161730Y-14357960D02*
X18180777Y-14367484D01*
X18180777Y-14367484D02*
X18218873Y-14367484D01*
X18218873Y-14367484D02*
X18237920Y-14357960D01*
X18237920Y-14357960D02*
X18247444Y-14338912D01*
X18247444Y-14338912D02*
X18247444Y-14329388D01*
X18247444Y-14329388D02*
X18237920Y-14310341D01*
X18237920Y-14310341D02*
X18218873Y-14300817D01*
X18218873Y-14300817D02*
X18190301Y-14300817D01*
X18190301Y-14300817D02*
X18171254Y-14291293D01*
X18171254Y-14291293D02*
X18161730Y-14272246D01*
X18161730Y-14272246D02*
X18161730Y-14262722D01*
X18161730Y-14262722D02*
X18171254Y-14243674D01*
X18171254Y-14243674D02*
X18190301Y-14234150D01*
X18190301Y-14234150D02*
X18218873Y-14234150D01*
X18218873Y-14234150D02*
X18237920Y-14243674D01*
X18314111Y-14443674D02*
X18323635Y-14434150D01*
X18323635Y-14434150D02*
X18342682Y-14405579D01*
X18342682Y-14405579D02*
X18352206Y-14386531D01*
X18352206Y-14386531D02*
X18361730Y-14357960D01*
X18361730Y-14357960D02*
X18371254Y-14310341D01*
X18371254Y-14310341D02*
X18371254Y-14272246D01*
X18371254Y-14272246D02*
X18361730Y-14224627D01*
X18361730Y-14224627D02*
X18352206Y-14196055D01*
X18352206Y-14196055D02*
X18342682Y-14177008D01*
X18342682Y-14177008D02*
X18323635Y-14148436D01*
X18323635Y-14148436D02*
X18314111Y-14138912D01*
M02*
