%TF.GenerationSoftware,KiCad,Pcbnew,8.0.6*%
%TF.CreationDate,2025-09-02T14:19:07+02:00*%
%TF.ProjectId,atmos-fc,61746d6f-732d-4666-932e-6b696361645f,rev?*%
%TF.SameCoordinates,Original*%
%TF.FileFunction,Paste,Top*%
%TF.FilePolarity,Positive*%
%FSLAX46Y46*%
G04 Gerber Fmt 4.6, Leading zero omitted, Abs format (unit mm)*
G04 Created by KiCad (PCBNEW 8.0.6) date 2025-09-02 14:19:07*
%MOMM*%
%LPD*%
G01*
G04 APERTURE LIST*
G04 Aperture macros list*
%AMRoundRect*
0 Rectangle with rounded corners*
0 $1 Rounding radius*
0 $2 $3 $4 $5 $6 $7 $8 $9 X,Y pos of 4 corners*
0 Add a 4 corners polygon primitive as box body*
4,1,4,$2,$3,$4,$5,$6,$7,$8,$9,$2,$3,0*
0 Add four circle primitives for the rounded corners*
1,1,$1+$1,$2,$3*
1,1,$1+$1,$4,$5*
1,1,$1+$1,$6,$7*
1,1,$1+$1,$8,$9*
0 Add four rect primitives between the rounded corners*
20,1,$1+$1,$2,$3,$4,$5,0*
20,1,$1+$1,$4,$5,$6,$7,0*
20,1,$1+$1,$6,$7,$8,$9,0*
20,1,$1+$1,$8,$9,$2,$3,0*%
%AMFreePoly0*
4,1,9,0.450000,-0.220000,0.150000,-0.220000,0.150000,-0.560000,-0.150000,-0.560000,-0.150000,-0.220000,-0.450000,-0.220000,-0.450000,0.220000,0.450000,0.220000,0.450000,-0.220000,0.450000,-0.220000,$1*%
%AMFreePoly1*
4,1,9,1.100000,-0.965000,-1.100000,-0.965000,-1.100000,-0.650000,-1.450000,-0.650000,-1.450000,0.650000,-1.100000,0.650000,-1.100000,0.965000,1.100000,0.965000,1.100000,-0.965000,1.100000,-0.965000,$1*%
G04 Aperture macros list end*
%ADD10C,0.050000*%
%ADD11C,0.000000*%
%ADD12C,0.175000*%
%ADD13RoundRect,0.009394X0.145606X-0.290606X0.145606X0.290606X-0.145606X0.290606X-0.145606X-0.290606X0*%
%ADD14R,1.100000X1.300000*%
%ADD15RoundRect,0.135000X-0.135000X-0.185000X0.135000X-0.185000X0.135000X0.185000X-0.135000X0.185000X0*%
%ADD16RoundRect,0.218750X0.218750X0.256250X-0.218750X0.256250X-0.218750X-0.256250X0.218750X-0.256250X0*%
%ADD17RoundRect,0.135000X0.185000X-0.135000X0.185000X0.135000X-0.185000X0.135000X-0.185000X-0.135000X0*%
%ADD18RoundRect,0.250000X-0.325000X-0.650000X0.325000X-0.650000X0.325000X0.650000X-0.325000X0.650000X0*%
%ADD19RoundRect,0.147500X-0.172500X0.147500X-0.172500X-0.147500X0.172500X-0.147500X0.172500X0.147500X0*%
%ADD20RoundRect,0.140000X0.170000X-0.140000X0.170000X0.140000X-0.170000X0.140000X-0.170000X-0.140000X0*%
%ADD21R,0.500000X0.350000*%
%ADD22FreePoly0,270.000000*%
%ADD23RoundRect,0.075000X0.075000X-0.150000X0.075000X0.150000X-0.075000X0.150000X-0.075000X-0.150000X0*%
%ADD24R,1.000000X1.200000*%
%ADD25R,0.800000X0.900000*%
%ADD26RoundRect,0.135000X0.135000X0.185000X-0.135000X0.185000X-0.135000X-0.185000X0.135000X-0.185000X0*%
%ADD27RoundRect,0.225000X-0.225000X-0.250000X0.225000X-0.250000X0.225000X0.250000X-0.225000X0.250000X0*%
%ADD28RoundRect,0.135000X-0.185000X0.135000X-0.185000X-0.135000X0.185000X-0.135000X0.185000X0.135000X0*%
%ADD29RoundRect,0.125000X0.125000X-0.200000X0.125000X0.200000X-0.125000X0.200000X-0.125000X-0.200000X0*%
%ADD30RoundRect,0.200000X-1.200000X0.800000X-1.200000X-0.800000X1.200000X-0.800000X1.200000X0.800000X0*%
%ADD31RoundRect,0.140000X-0.170000X0.140000X-0.170000X-0.140000X0.170000X-0.140000X0.170000X0.140000X0*%
%ADD32RoundRect,0.225000X0.250000X-0.225000X0.250000X0.225000X-0.250000X0.225000X-0.250000X-0.225000X0*%
%ADD33RoundRect,0.140000X-0.140000X-0.170000X0.140000X-0.170000X0.140000X0.170000X-0.140000X0.170000X0*%
%ADD34R,0.254800X0.807999*%
%ADD35RoundRect,0.225000X-0.250000X0.225000X-0.250000X-0.225000X0.250000X-0.225000X0.250000X0.225000X0*%
%ADD36R,1.353299X0.354800*%
%ADD37RoundRect,0.250000X-0.275000X0.312500X-0.275000X-0.312500X0.275000X-0.312500X0.275000X0.312500X0*%
%ADD38RoundRect,0.250000X0.325000X0.650000X-0.325000X0.650000X-0.325000X-0.650000X0.325000X-0.650000X0*%
%ADD39RoundRect,0.150000X0.425000X-0.150000X0.425000X0.150000X-0.425000X0.150000X-0.425000X-0.150000X0*%
%ADD40RoundRect,0.075000X0.500000X-0.075000X0.500000X0.075000X-0.500000X0.075000X-0.500000X-0.075000X0*%
%ADD41O,2.100000X1.000000*%
%ADD42O,1.800000X1.000000*%
%ADD43RoundRect,0.050000X0.250000X-0.100000X0.250000X0.100000X-0.250000X0.100000X-0.250000X-0.100000X0*%
%ADD44R,0.600000X1.550000*%
%ADD45R,1.200000X1.800000*%
%ADD46RoundRect,0.093750X-0.156250X-0.093750X0.156250X-0.093750X0.156250X0.093750X-0.156250X0.093750X0*%
%ADD47RoundRect,0.075000X-0.250000X-0.075000X0.250000X-0.075000X0.250000X0.075000X-0.250000X0.075000X0*%
%ADD48RoundRect,0.160000X-0.325000X0.160000X-0.325000X-0.160000X0.325000X-0.160000X0.325000X0.160000X0*%
%ADD49RoundRect,0.100000X0.150000X0.100000X-0.150000X0.100000X-0.150000X-0.100000X0.150000X-0.100000X0*%
%ADD50R,0.250000X0.400000*%
%ADD51FreePoly1,90.000000*%
%ADD52R,0.860000X0.700000*%
%ADD53RoundRect,0.140000X0.140000X0.170000X-0.140000X0.170000X-0.140000X-0.170000X0.140000X-0.170000X0*%
%ADD54R,0.300000X0.600000*%
%ADD55R,0.600000X0.300000*%
%ADD56RoundRect,0.250000X-0.315000X0.315000X-0.315000X-0.315000X0.315000X-0.315000X0.315000X0.315000X0*%
%ADD57RoundRect,0.062500X-0.062500X0.375000X-0.062500X-0.375000X0.062500X-0.375000X0.062500X0.375000X0*%
%ADD58RoundRect,0.062500X-0.375000X0.062500X-0.375000X-0.062500X0.375000X-0.062500X0.375000X0.062500X0*%
G04 APERTURE END LIST*
%TO.C,U2*%
D10*
X122175000Y-110945000D02*
X121195000Y-110945000D01*
X121195000Y-112455000D01*
X122175000Y-112455000D01*
X122175000Y-110945000D01*
G36*
X122175000Y-110945000D02*
G01*
X121195000Y-110945000D01*
X121195000Y-112455000D01*
X122175000Y-112455000D01*
X122175000Y-110945000D01*
G37*
X123455000Y-110945000D02*
X122475000Y-110945000D01*
X122475000Y-112455000D01*
X123455000Y-112455000D01*
X123455000Y-110945000D01*
G36*
X123455000Y-110945000D02*
G01*
X122475000Y-110945000D01*
X122475000Y-112455000D01*
X123455000Y-112455000D01*
X123455000Y-110945000D01*
G37*
D11*
%TO.C,U1*%
G36*
X127900001Y-100195500D02*
G01*
X126804601Y-100195500D01*
X126804601Y-98744500D01*
X127900001Y-98744500D01*
X127900001Y-100195500D01*
G37*
G36*
X129195401Y-100195500D02*
G01*
X128100001Y-100195500D01*
X128100001Y-98744500D01*
X129195401Y-98744500D01*
X129195401Y-100195500D01*
G37*
%TO.C,U4*%
G36*
X130975452Y-109652360D02*
G01*
X129626052Y-109652360D01*
X129626052Y-108470600D01*
X130975452Y-108470600D01*
X130975452Y-109652360D01*
G37*
G36*
X130975452Y-111034120D02*
G01*
X129626052Y-111034120D01*
X129626052Y-109852360D01*
X130975452Y-109852360D01*
X130975452Y-111034120D01*
G37*
G36*
X130975452Y-112415880D02*
G01*
X129626052Y-112415880D01*
X129626052Y-111234120D01*
X130975452Y-111234120D01*
X130975452Y-112415880D01*
G37*
G36*
X130975452Y-113797640D02*
G01*
X129626052Y-113797640D01*
X129626052Y-112615880D01*
X130975452Y-112615880D01*
X130975452Y-113797640D01*
G37*
G36*
X130975452Y-115179400D02*
G01*
X129626052Y-115179400D01*
X129626052Y-113997640D01*
X130975452Y-113997640D01*
X130975452Y-115179400D01*
G37*
G36*
X132524852Y-109652360D02*
G01*
X131175452Y-109652360D01*
X131175452Y-108470600D01*
X132524852Y-108470600D01*
X132524852Y-109652360D01*
G37*
G36*
X132524852Y-111034120D02*
G01*
X131175452Y-111034120D01*
X131175452Y-109852360D01*
X132524852Y-109852360D01*
X132524852Y-111034120D01*
G37*
G36*
X132524852Y-112415880D02*
G01*
X131175452Y-112415880D01*
X131175452Y-111234120D01*
X132524852Y-111234120D01*
X132524852Y-112415880D01*
G37*
G36*
X132524852Y-113797640D02*
G01*
X131175452Y-113797640D01*
X131175452Y-112615880D01*
X132524852Y-112615880D01*
X132524852Y-113797640D01*
G37*
G36*
X132524852Y-115179400D02*
G01*
X131175452Y-115179400D01*
X131175452Y-113997640D01*
X132524852Y-113997640D01*
X132524852Y-115179400D01*
G37*
D12*
%TO.C,U7*%
X146263000Y-114725000D02*
G75*
G02*
X146087000Y-114725000I-88000J0D01*
G01*
X146087000Y-114725000D02*
G75*
G02*
X146263000Y-114725000I88000J0D01*
G01*
X146263000Y-115375000D02*
G75*
G02*
X146087000Y-115375000I-88000J0D01*
G01*
X146087000Y-115375000D02*
G75*
G02*
X146263000Y-115375000I88000J0D01*
G01*
X146263000Y-116025000D02*
G75*
G02*
X146087000Y-116025000I-88000J0D01*
G01*
X146087000Y-116025000D02*
G75*
G02*
X146263000Y-116025000I88000J0D01*
G01*
X146263000Y-116675000D02*
G75*
G02*
X146087000Y-116675000I-88000J0D01*
G01*
X146087000Y-116675000D02*
G75*
G02*
X146263000Y-116675000I88000J0D01*
G01*
X147713000Y-114725000D02*
G75*
G02*
X147537000Y-114725000I-88000J0D01*
G01*
X147537000Y-114725000D02*
G75*
G02*
X147713000Y-114725000I88000J0D01*
G01*
X147713000Y-115375000D02*
G75*
G02*
X147537000Y-115375000I-88000J0D01*
G01*
X147537000Y-115375000D02*
G75*
G02*
X147713000Y-115375000I88000J0D01*
G01*
X147713000Y-116025000D02*
G75*
G02*
X147537000Y-116025000I-88000J0D01*
G01*
X147537000Y-116025000D02*
G75*
G02*
X147713000Y-116025000I88000J0D01*
G01*
X147713000Y-116675000D02*
G75*
G02*
X147537000Y-116675000I-88000J0D01*
G01*
X147537000Y-116675000D02*
G75*
G02*
X147713000Y-116675000I88000J0D01*
G01*
%TD*%
D13*
%TO.C,U2*%
X121350000Y-113100000D03*
X122000000Y-113100000D03*
X122650000Y-113100000D03*
X123300000Y-113100000D03*
X123300000Y-110300000D03*
X122650000Y-110300000D03*
X122000000Y-110300000D03*
X121350000Y-110300000D03*
%TD*%
D14*
%TO.C,Y1*%
X147100000Y-96500000D03*
X147100000Y-94200000D03*
X145300000Y-94200000D03*
X145300000Y-96500000D03*
%TD*%
D15*
%TO.C,R10*%
X153090000Y-105900000D03*
X154110000Y-105900000D03*
%TD*%
D16*
%TO.C,D6*%
X157950000Y-94500000D03*
X156375000Y-94500000D03*
%TD*%
D17*
%TO.C,R27*%
X137300000Y-97110000D03*
X137300000Y-96090000D03*
%TD*%
%TO.C,R11*%
X137800000Y-109210000D03*
X137800000Y-108190000D03*
%TD*%
D15*
%TO.C,R35*%
X146390000Y-104100000D03*
X147410000Y-104100000D03*
%TD*%
D18*
%TO.C,C2*%
X128325000Y-95650000D03*
X131275000Y-95650000D03*
%TD*%
D19*
%TO.C,FB1*%
X142425000Y-116865000D03*
X142425000Y-117835000D03*
%TD*%
D15*
%TO.C,R39*%
X137350000Y-115025000D03*
X138370000Y-115025000D03*
%TD*%
D20*
%TO.C,C32*%
X148950000Y-116675000D03*
X148950000Y-115715000D03*
%TD*%
D21*
%TO.C,Q1*%
X138360000Y-116025000D03*
X138360000Y-116675000D03*
D22*
X137670000Y-116350000D03*
%TD*%
D17*
%TO.C,R19*%
X129000000Y-122860000D03*
X129000000Y-121840000D03*
%TD*%
%TO.C,R30*%
X140600000Y-97110000D03*
X140600000Y-96090000D03*
%TD*%
%TO.C,R12*%
X138900000Y-109210000D03*
X138900000Y-108190000D03*
%TD*%
D23*
%TO.C,D8*%
X140150000Y-94600000D03*
X140650000Y-94600000D03*
X141150000Y-94600000D03*
X141150000Y-93200000D03*
X140150000Y-93200000D03*
%TD*%
D24*
%TO.C,SW1*%
X155925000Y-100000000D03*
X157625000Y-100000000D03*
X155925000Y-105600000D03*
X157625000Y-105600000D03*
%TD*%
D15*
%TO.C,R25*%
X148790000Y-109100000D03*
X149810000Y-109100000D03*
%TD*%
D25*
%TO.C,Y2*%
X137600000Y-113400000D03*
X137600000Y-112000000D03*
X136500000Y-112000000D03*
X136500000Y-113400000D03*
%TD*%
D20*
%TO.C,C20*%
X143900000Y-94680000D03*
X143900000Y-93720000D03*
%TD*%
D17*
%TO.C,R18*%
X125500000Y-111420000D03*
X125500000Y-110400000D03*
%TD*%
D26*
%TO.C,R31*%
X135510000Y-101900000D03*
X134490000Y-101900000D03*
%TD*%
D27*
%TO.C,C10*%
X121275000Y-114500000D03*
X122825000Y-114500000D03*
%TD*%
D28*
%TO.C,R5*%
X141100000Y-108190000D03*
X141100000Y-109210000D03*
%TD*%
D20*
%TO.C,C12*%
X146800000Y-99580000D03*
X146800000Y-98620000D03*
%TD*%
D15*
%TO.C,R20*%
X141790000Y-112000000D03*
X142810000Y-112000000D03*
%TD*%
D29*
%TO.C,U6*%
X149445000Y-104700000D03*
X150715000Y-104700000D03*
X151985000Y-104700000D03*
X153255000Y-104700000D03*
X153255000Y-97200000D03*
X151985000Y-97200000D03*
X150715000Y-97200000D03*
X149445000Y-97200000D03*
%TD*%
D26*
%TO.C,R8*%
X147410000Y-103000000D03*
X146390000Y-103000000D03*
%TD*%
D30*
%TO.C,L1*%
X123200000Y-95800000D03*
X123200000Y-100300000D03*
%TD*%
D31*
%TO.C,C18*%
X141700000Y-96120000D03*
X141700000Y-97080000D03*
%TD*%
D32*
%TO.C,C9*%
X121300000Y-108925000D03*
X121300000Y-107375000D03*
%TD*%
D27*
%TO.C,C11*%
X143795000Y-108600000D03*
X145345000Y-108600000D03*
%TD*%
D15*
%TO.C,R15*%
X146390000Y-100800000D03*
X147410000Y-100800000D03*
%TD*%
D26*
%TO.C,R33*%
X149730000Y-93500000D03*
X148710000Y-93500000D03*
%TD*%
D31*
%TO.C,C22*%
X126550000Y-110430000D03*
X126550000Y-111390000D03*
%TD*%
D33*
%TO.C,C31*%
X148720000Y-95900000D03*
X149680000Y-95900000D03*
%TD*%
D34*
%TO.C,U1*%
X129250001Y-98050000D03*
X128750002Y-98050000D03*
X128250001Y-98050000D03*
X127750001Y-98050000D03*
X127250000Y-98050000D03*
X126750001Y-98050000D03*
X126750001Y-100890000D03*
X127250000Y-100890000D03*
X127750001Y-100890000D03*
X128250001Y-100890000D03*
X128750002Y-100890000D03*
X129250001Y-100890000D03*
%TD*%
D35*
%TO.C,C4*%
X130800000Y-99365000D03*
X130800000Y-100915000D03*
%TD*%
D17*
%TO.C,R32*%
X142550000Y-94610000D03*
X142550000Y-93590000D03*
%TD*%
D36*
%TO.C,U4*%
X134000000Y-116050000D03*
X134000000Y-115399999D03*
X134000000Y-114750000D03*
X134000000Y-114099999D03*
X134000000Y-113450001D03*
X134000000Y-112799999D03*
X134000000Y-112150001D03*
X134000000Y-111500002D03*
X134000000Y-110850001D03*
X134000000Y-110200002D03*
X134000000Y-109550001D03*
X134000000Y-108900002D03*
X134000000Y-108250001D03*
X134000000Y-107600002D03*
X128150904Y-107600000D03*
X128150904Y-108250001D03*
X128150904Y-108900000D03*
X128150904Y-109550001D03*
X128150904Y-110199999D03*
X128150904Y-110850001D03*
X128150904Y-111499999D03*
X128150904Y-112150001D03*
X128150904Y-112799999D03*
X128150904Y-113450001D03*
X128150904Y-114099999D03*
X128150904Y-114750000D03*
X128150904Y-115399999D03*
X128150904Y-116050000D03*
%TD*%
D37*
%TO.C,C25*%
X129400000Y-118050000D03*
X129400000Y-119825000D03*
%TD*%
D38*
%TO.C,C7*%
X124375000Y-105300000D03*
X121425000Y-105300000D03*
%TD*%
D33*
%TO.C,C33*%
X146445000Y-118050000D03*
X147405000Y-118050000D03*
%TD*%
D15*
%TO.C,R13*%
X153090000Y-94700000D03*
X154110000Y-94700000D03*
%TD*%
D26*
%TO.C,R2*%
X135510000Y-99700000D03*
X134490000Y-99700000D03*
%TD*%
D38*
%TO.C,C8*%
X124375000Y-102900000D03*
X121425000Y-102900000D03*
%TD*%
D39*
%TO.C,J3*%
X151810000Y-115100000D03*
X151810000Y-114300000D03*
D40*
X151810000Y-113150000D03*
X151810000Y-112150000D03*
X151810000Y-111650000D03*
X151810000Y-110650000D03*
D39*
X151810000Y-109500000D03*
X151810000Y-108700000D03*
X151810000Y-108700000D03*
X151810000Y-109500000D03*
D40*
X151810000Y-110150000D03*
X151810000Y-111150000D03*
X151810000Y-112650000D03*
X151810000Y-113650000D03*
D39*
X151810000Y-114300000D03*
X151810000Y-115100000D03*
D41*
X152385000Y-116220000D03*
D42*
X156565000Y-116220000D03*
D41*
X152385000Y-107580000D03*
D42*
X156565000Y-107580000D03*
%TD*%
D33*
%TO.C,C28*%
X140420000Y-117850000D03*
X141380000Y-117850000D03*
%TD*%
D20*
%TO.C,C15*%
X145700000Y-99580000D03*
X145700000Y-98620000D03*
%TD*%
D17*
%TO.C,R16*%
X125500000Y-115820000D03*
X125500000Y-114800000D03*
%TD*%
D15*
%TO.C,R26*%
X148915000Y-113600000D03*
X149935000Y-113600000D03*
%TD*%
D17*
%TO.C,R6*%
X131810000Y-105585000D03*
X131810000Y-104565000D03*
%TD*%
D33*
%TO.C,C29*%
X140420000Y-116850000D03*
X141380000Y-116850000D03*
%TD*%
D20*
%TO.C,C30*%
X140250000Y-114930000D03*
X140250000Y-113970000D03*
%TD*%
D17*
%TO.C,R28*%
X138400000Y-97110000D03*
X138400000Y-96090000D03*
%TD*%
D20*
%TO.C,C24*%
X135600000Y-116080000D03*
X135600000Y-115120000D03*
%TD*%
D28*
%TO.C,R38*%
X130350000Y-121840000D03*
X130350000Y-122860000D03*
%TD*%
D15*
%TO.C,R22*%
X150890000Y-105900000D03*
X151910000Y-105900000D03*
%TD*%
D43*
%TO.C,D1*%
X135800000Y-93550000D03*
X135800000Y-92850000D03*
%TD*%
D44*
%TO.C,J2*%
X142750000Y-90825000D03*
X141750000Y-90825000D03*
X140750000Y-90825000D03*
X139750000Y-90825000D03*
X138750000Y-90825000D03*
X137750000Y-90825000D03*
X136750000Y-90825000D03*
X135750000Y-90825000D03*
D45*
X144050000Y-86950000D03*
X134450000Y-86950000D03*
%TD*%
D23*
%TO.C,D7*%
X137400000Y-94600000D03*
X137900000Y-94600000D03*
X138400000Y-94600000D03*
X138400000Y-93200000D03*
X137400000Y-93200000D03*
%TD*%
D46*
%TO.C,U8*%
X148225000Y-111362500D03*
D47*
X148150000Y-111900000D03*
D46*
X148225000Y-112437500D03*
X149925000Y-112437500D03*
D47*
X150000000Y-111900000D03*
D46*
X149925000Y-111362500D03*
%TD*%
D20*
%TO.C,C13*%
X135500000Y-103985000D03*
X135500000Y-103025000D03*
%TD*%
D17*
%TO.C,R29*%
X139500000Y-97110000D03*
X139500000Y-96090000D03*
%TD*%
D48*
%TO.C,D3*%
X123250000Y-108370000D03*
X123250000Y-107570000D03*
D49*
X124300000Y-108600000D03*
X124300000Y-107300000D03*
D50*
X122575000Y-107950000D03*
%TD*%
D26*
%TO.C,R9*%
X147410000Y-101900000D03*
X146390000Y-101900000D03*
%TD*%
D28*
%TO.C,R4*%
X140000000Y-108190000D03*
X140000000Y-109210000D03*
%TD*%
%TO.C,R37*%
X131700000Y-121840000D03*
X131700000Y-122860000D03*
%TD*%
D31*
%TO.C,C23*%
X126550000Y-112870000D03*
X126550000Y-113830000D03*
%TD*%
D51*
%TO.C,D2*%
X133600000Y-94700000D03*
D52*
X133600000Y-92540000D03*
%TD*%
D31*
%TO.C,C16*%
X135500000Y-105025000D03*
X135500000Y-105985000D03*
%TD*%
D15*
%TO.C,R21*%
X148705000Y-105900000D03*
X149725000Y-105900000D03*
%TD*%
D18*
%TO.C,C1*%
X128325000Y-93150000D03*
X131275000Y-93150000D03*
%TD*%
D15*
%TO.C,R14*%
X153090000Y-95900000D03*
X154110000Y-95900000D03*
%TD*%
D18*
%TO.C,C6*%
X126125000Y-105300000D03*
X129075000Y-105300000D03*
%TD*%
D26*
%TO.C,R40*%
X138370000Y-117675000D03*
X137350000Y-117675000D03*
%TD*%
D15*
%TO.C,R23*%
X150890000Y-95900000D03*
X151910000Y-95900000D03*
%TD*%
D31*
%TO.C,C21*%
X125500000Y-112870000D03*
X125500000Y-113830000D03*
%TD*%
D18*
%TO.C,C5*%
X126125000Y-102900000D03*
X129075000Y-102900000D03*
%TD*%
D26*
%TO.C,R1*%
X131510000Y-98100000D03*
X130490000Y-98100000D03*
%TD*%
D31*
%TO.C,C19*%
X143900000Y-96040000D03*
X143900000Y-97000000D03*
%TD*%
D26*
%TO.C,R24*%
X149960000Y-114700000D03*
X148940000Y-114700000D03*
%TD*%
D35*
%TO.C,C17*%
X134200000Y-103750000D03*
X134200000Y-105300000D03*
%TD*%
D33*
%TO.C,C14*%
X143540000Y-107300000D03*
X144500000Y-107300000D03*
%TD*%
D53*
%TO.C,C34*%
X149780000Y-110200000D03*
X148820000Y-110200000D03*
%TD*%
D54*
%TO.C,U5*%
X143050000Y-113300000D03*
X142550000Y-113300000D03*
X142050000Y-113300000D03*
X141550000Y-113300000D03*
D55*
X141400000Y-113950000D03*
X141400000Y-114450000D03*
X141400000Y-114950000D03*
D54*
X141550000Y-115600000D03*
X142050000Y-115600000D03*
X142550000Y-115600000D03*
X143050000Y-115600000D03*
D55*
X143200000Y-114950000D03*
X143200000Y-114450000D03*
X143200000Y-113950000D03*
%TD*%
D31*
%TO.C,C3*%
X126750000Y-95440000D03*
X126750000Y-96400000D03*
%TD*%
D26*
%TO.C,R34*%
X149730000Y-94700000D03*
X148710000Y-94700000D03*
%TD*%
D56*
%TO.C,U3*%
X143012500Y-100500000D03*
X141612500Y-100500000D03*
X140212500Y-100500000D03*
X138812500Y-100500000D03*
X143012500Y-101900000D03*
X141612500Y-101900000D03*
X140212500Y-101900000D03*
X138812500Y-101900000D03*
X143012500Y-103300000D03*
X141612500Y-103300000D03*
X140212500Y-103300000D03*
X138812500Y-103300000D03*
X143012500Y-104700000D03*
X141612500Y-104700000D03*
X140212500Y-104700000D03*
X138812500Y-104700000D03*
D57*
X143662500Y-99162500D03*
X143162500Y-99162500D03*
X142662500Y-99162500D03*
X142162500Y-99162500D03*
X141662500Y-99162500D03*
X141162500Y-99162500D03*
X140662500Y-99162500D03*
X140162500Y-99162500D03*
X139662500Y-99162500D03*
X139162500Y-99162500D03*
X138662500Y-99162500D03*
X138162500Y-99162500D03*
D58*
X137475000Y-99850000D03*
X137475000Y-100350000D03*
X137475000Y-100850000D03*
X137475000Y-101350000D03*
X137475000Y-101850000D03*
X137475000Y-102350000D03*
X137475000Y-102850000D03*
X137475000Y-103350000D03*
X137475000Y-103850000D03*
X137475000Y-104350000D03*
X137475000Y-104850000D03*
X137475000Y-105350000D03*
D57*
X138162500Y-106037500D03*
X138662500Y-106037500D03*
X139162500Y-106037500D03*
X139662500Y-106037500D03*
X140162500Y-106037500D03*
X140662500Y-106037500D03*
X141162500Y-106037500D03*
X141662500Y-106037500D03*
X142162500Y-106037500D03*
X142662500Y-106037500D03*
X143162500Y-106037500D03*
X143662500Y-106037500D03*
D58*
X144350000Y-105350000D03*
X144350000Y-104850000D03*
X144350000Y-104350000D03*
X144350000Y-103850000D03*
X144350000Y-103350000D03*
X144350000Y-102850000D03*
X144350000Y-102350000D03*
X144350000Y-101850000D03*
X144350000Y-101350000D03*
X144350000Y-100850000D03*
X144350000Y-100350000D03*
X144350000Y-99850000D03*
%TD*%
D15*
%TO.C,R36*%
X146390000Y-105200000D03*
X147410000Y-105200000D03*
%TD*%
D16*
%TO.C,D5*%
X157950000Y-96410000D03*
X156375000Y-96410000D03*
%TD*%
%TO.C,D4*%
X157950000Y-98200000D03*
X156375000Y-98200000D03*
%TD*%
D28*
%TO.C,R17*%
X135600000Y-108190000D03*
X135600000Y-109210000D03*
%TD*%
%TO.C,R7*%
X132875000Y-104565000D03*
X132875000Y-105585000D03*
%TD*%
D26*
%TO.C,R3*%
X135510000Y-100800000D03*
X134490000Y-100800000D03*
%TD*%
D37*
%TO.C,C26*%
X131300000Y-118062500D03*
X131300000Y-119837500D03*
%TD*%
D20*
%TO.C,C27*%
X143500000Y-117830000D03*
X143500000Y-116870000D03*
%TD*%
M02*
