%TF.GenerationSoftware,KiCad,Pcbnew,8.0.6*%
%TF.CreationDate,2025-09-02T14:19:07+02:00*%
%TF.ProjectId,atmos-fc,61746d6f-732d-4666-932e-6b696361645f,rev?*%
%TF.SameCoordinates,Original*%
%TF.FileFunction,Copper,L2,Inr*%
%TF.FilePolarity,Positive*%
%FSLAX46Y46*%
G04 Gerber Fmt 4.6, Leading zero omitted, Abs format (unit mm)*
G04 Created by KiCad (PCBNEW 8.0.6) date 2025-09-02 14:19:07*
%MOMM*%
%LPD*%
G01*
G04 APERTURE LIST*
%TA.AperFunction,ComponentPad*%
%ADD10C,0.500000*%
%TD*%
%TA.AperFunction,ComponentPad*%
%ADD11C,0.650000*%
%TD*%
%TA.AperFunction,ComponentPad*%
%ADD12O,2.100000X1.000000*%
%TD*%
%TA.AperFunction,ComponentPad*%
%ADD13O,1.800000X1.000000*%
%TD*%
%TA.AperFunction,ViaPad*%
%ADD14C,0.600000*%
%TD*%
%TA.AperFunction,ViaPad*%
%ADD15C,0.800000*%
%TD*%
G04 APERTURE END LIST*
D10*
%TO.N,GND*%
%TO.C,U2*%
X122325000Y-112275000D03*
X121375000Y-111700000D03*
X123275000Y-111700000D03*
X122325000Y-111125000D03*
%TD*%
D11*
%TO.N,GND*%
%TO.C,U1*%
X128000001Y-98970000D03*
X128950001Y-99470000D03*
X127050001Y-99470000D03*
X128000001Y-99970000D03*
%TD*%
D12*
%TO.N,GND*%
%TO.C,J3*%
X152385000Y-116220000D03*
D13*
X156565000Y-116220000D03*
D12*
X152385000Y-107580000D03*
D13*
X156565000Y-107580000D03*
%TD*%
D14*
%TO.N,GND*%
X130300000Y-111825000D03*
D15*
X125549500Y-100500000D03*
D14*
X152450000Y-98825000D03*
X143300000Y-121550000D03*
D15*
X152000000Y-90500000D03*
D14*
X131850000Y-109425000D03*
D15*
X130300000Y-105300000D03*
D14*
X141600000Y-104400000D03*
X130300000Y-88050000D03*
X136000000Y-98499500D03*
D15*
X127900000Y-105400000D03*
D14*
X146100000Y-121550000D03*
X145551089Y-113698911D03*
X140600000Y-95320500D03*
X144700000Y-124100500D03*
D15*
X147900000Y-113600000D03*
X133550000Y-90325000D03*
D14*
X137850000Y-123650000D03*
D15*
X146800000Y-97800000D03*
D14*
X139200000Y-104400000D03*
X149800000Y-103800000D03*
X142800000Y-100800000D03*
X141600000Y-100800000D03*
D15*
X139400000Y-115800000D03*
X156000000Y-117600000D03*
X121600000Y-87700000D03*
D14*
X142800000Y-104400000D03*
D15*
X156300000Y-109800000D03*
D14*
X139200000Y-103200000D03*
X131850000Y-113025000D03*
X145170000Y-123440000D03*
X148450000Y-97050000D03*
D15*
X157300000Y-109800000D03*
D14*
X135594313Y-116850000D03*
X152525000Y-102500000D03*
D15*
X129750000Y-123800000D03*
X131100000Y-107475000D03*
D14*
X137900000Y-95400000D03*
D15*
X156600000Y-115000000D03*
X135800000Y-94400000D03*
D14*
X138600000Y-110050000D03*
X137850000Y-120750000D03*
X139200000Y-100800000D03*
X130300000Y-114225000D03*
X131850000Y-114225000D03*
X130300000Y-109425000D03*
X144325000Y-117850000D03*
D15*
X131300000Y-91600000D03*
X155900000Y-101500000D03*
X124000000Y-115150000D03*
X130100000Y-95600000D03*
D14*
X130300000Y-113025000D03*
X140400000Y-104400000D03*
D15*
X120300000Y-98100000D03*
D14*
X149750000Y-87400000D03*
X142800000Y-103200000D03*
D15*
X152325000Y-124800000D03*
X120300000Y-92900000D03*
D14*
X124625197Y-110657064D03*
X140144250Y-110896428D03*
D15*
X153000000Y-117600000D03*
D14*
X131850000Y-111825000D03*
D15*
X128000000Y-103400000D03*
X157000000Y-117600000D03*
X120200000Y-105300000D03*
X156300000Y-108800000D03*
X134600000Y-91325000D03*
X145900000Y-92800000D03*
D14*
X133550000Y-101025000D03*
X147500000Y-120900000D03*
X148000000Y-121550000D03*
D15*
X152000000Y-117600000D03*
D14*
X144230000Y-123440000D03*
D15*
X125900000Y-98000000D03*
X143900000Y-92800000D03*
X130300000Y-102900000D03*
D14*
X141600000Y-103200000D03*
X150250000Y-88050000D03*
D15*
X122525500Y-105300000D03*
X130800000Y-102000000D03*
X130050000Y-93150000D03*
X122525500Y-102900000D03*
X150900000Y-117600000D03*
X145500000Y-107399500D03*
X157300000Y-87900000D03*
X157500000Y-111900000D03*
X134199500Y-106450000D03*
D14*
X150718544Y-101111769D03*
D15*
X155300000Y-108800000D03*
X126500000Y-119150000D03*
D14*
X135412235Y-113112235D03*
X139200000Y-102000000D03*
D15*
X139400000Y-114800000D03*
X157300000Y-108800000D03*
X139300000Y-88350500D03*
D14*
X135100000Y-120750000D03*
X140600000Y-120750000D03*
D15*
X134600000Y-90325000D03*
X147900000Y-109100000D03*
X120200000Y-102900000D03*
D14*
X142800000Y-102000000D03*
X149100000Y-112400000D03*
X131775001Y-116250000D03*
X133075000Y-98875000D03*
X155700000Y-112600000D03*
D15*
X124000000Y-114150000D03*
D14*
X149250000Y-88050000D03*
D15*
X123749455Y-109479977D03*
X149900000Y-117600000D03*
D14*
X134600000Y-102719500D03*
D15*
X139400000Y-116750000D03*
X153800500Y-108400000D03*
D14*
X130300000Y-110625000D03*
D15*
X126450500Y-115900000D03*
D14*
X146950000Y-121550000D03*
X140400000Y-103200000D03*
X136569260Y-111025602D03*
D15*
X155100000Y-97300000D03*
X155200000Y-109800000D03*
X146500000Y-108600000D03*
D14*
X145650000Y-117850000D03*
D15*
X157200000Y-121000000D03*
X145700000Y-97800000D03*
D14*
X135500000Y-106800000D03*
D15*
X149925000Y-116700000D03*
X120200000Y-107400000D03*
D14*
X129800000Y-87400000D03*
X126782105Y-93426071D03*
X141600000Y-102000000D03*
D15*
X158325000Y-93200000D03*
D14*
X131850000Y-110625000D03*
X140400000Y-100800000D03*
D15*
X147900000Y-110200000D03*
D14*
X129300000Y-88050000D03*
X140400000Y-102000000D03*
D15*
%TO.N,+3V3*%
X147900000Y-98800000D03*
D14*
X148800000Y-108200000D03*
D15*
X127577384Y-117574500D03*
D14*
X145200000Y-116200000D03*
D15*
X141100000Y-110000000D03*
X122700000Y-116300000D03*
X123700000Y-116300000D03*
X122700000Y-117300000D03*
X132900000Y-103620500D03*
X148400000Y-117800000D03*
D14*
X144400000Y-116200000D03*
D15*
X123700000Y-117300000D03*
D14*
X150250000Y-106750000D03*
D15*
X147900000Y-99700000D03*
X150592920Y-94994690D03*
X143600000Y-109700000D03*
X149925000Y-115700000D03*
D14*
X144400000Y-117000000D03*
D15*
X144600000Y-109700000D03*
X132900000Y-102700000D03*
X155900000Y-104300000D03*
X139337653Y-113802443D03*
D14*
X145200000Y-117000000D03*
%TO.N,/Connectors/CURRENT_SENSE_C*%
X133575000Y-101900000D03*
X141700000Y-95300000D03*
D15*
%TO.N,+BATT_P*%
X134100000Y-96900000D03*
X128400000Y-90400000D03*
X128400000Y-91400000D03*
D14*
X149700000Y-123400000D03*
X150200000Y-124100000D03*
D15*
X134100000Y-97900000D03*
D14*
X150700000Y-123400000D03*
D15*
X129400000Y-90400000D03*
X133100000Y-96900000D03*
X133100000Y-97900000D03*
X129400000Y-91400000D03*
%TO.N,+5V*%
X126300000Y-107900000D03*
D14*
X149700000Y-121550000D03*
X132800000Y-88050000D03*
X147000000Y-87400000D03*
X150200000Y-120900000D03*
X139100000Y-117600000D03*
X133200000Y-123400000D03*
X146950000Y-123450000D03*
X147500000Y-88050000D03*
X150700000Y-121550000D03*
X146500000Y-88050000D03*
D15*
X125300000Y-107900000D03*
X124675500Y-112207094D03*
D14*
X136500000Y-115200000D03*
X131800000Y-88050000D03*
D15*
X126458088Y-114771499D03*
D14*
X132300000Y-87400000D03*
X147450000Y-124100000D03*
D15*
X125300000Y-106900000D03*
D14*
X133700000Y-124050000D03*
X147950000Y-123450000D03*
D15*
X126300000Y-106900000D03*
D14*
X134200000Y-123400000D03*
D15*
%TO.N,/Power Management/BUCK_BST*%
X126750000Y-94325000D03*
D14*
X129256148Y-96740835D03*
%TO.N,/Power Management/BIAS*%
X129826768Y-100647142D03*
X125900000Y-101500000D03*
D15*
%TO.N,/Connectors/VIDEO_CAM*%
X126772652Y-92526618D03*
D14*
X124024500Y-111184667D03*
D15*
%TO.N,/Connectors/+5V_USB*%
X154000000Y-112800000D03*
X125440621Y-109040621D03*
X154000000Y-113800000D03*
D14*
X127200000Y-121340000D03*
X126375000Y-121350000D03*
D15*
X153200000Y-113300000D03*
X150635498Y-109950000D03*
X124740621Y-109712533D03*
D14*
%TO.N,/Connectors/UART4_TX_C*%
X146676089Y-106100500D03*
D15*
X155000000Y-111900000D03*
D14*
%TO.N,/Connectors/I2C_SDA*%
X146100571Y-120700498D03*
X140798996Y-107250000D03*
X146950000Y-115350000D03*
%TO.N,/Connectors/I2C_SCK*%
X141598499Y-107250000D03*
X143325000Y-120699500D03*
X146900000Y-113200000D03*
D15*
%TO.N,/Connectors/UART4_RX_C*%
X148900000Y-103900000D03*
X156400000Y-111900000D03*
D14*
%TO.N,/Connectors/VIDEO_VTX*%
X140625000Y-123650000D03*
X128700000Y-123650000D03*
%TO.N,/Connectors/UART3_TX_C*%
X130800000Y-123650000D03*
X135050000Y-123700000D03*
%TO.N,/MCU/OSD_SPI_SCK*%
X132399500Y-99600000D03*
X131000000Y-103500000D03*
%TO.N,/MCU/OSD_SPI_MOSI*%
X133572421Y-100150401D03*
X135500000Y-110250000D03*
%TO.N,/MCU/MCU_VBAT_SENSE*%
X132900500Y-106440500D03*
X136400000Y-101700000D03*
D15*
%TO.N,/Flash Memory/FLASH_SPI_SCK*%
X151700000Y-98200000D03*
X151650000Y-102950000D03*
%TO.N,/Flash Memory/FLASH_SPI_MOSI*%
X153200000Y-98200000D03*
X153200000Y-101900000D03*
D14*
%TO.N,/MCU/BOOT0*%
X145499293Y-100949500D03*
D15*
X153900000Y-103800000D03*
D14*
%TO.N,/IMU/IMU_SPI_SCK*%
X144701115Y-113846707D03*
X137800000Y-110000000D03*
%TO.N,/IMU/IMU_SPI_MOSI*%
X139400000Y-110000000D03*
X144700000Y-112900000D03*
%TO.N,/MCU/LED_BLUE_EN*%
X143400000Y-97800000D03*
X153090000Y-93140000D03*
%TO.N,/MCU/LED_GREEN_EN*%
X152203788Y-93287005D03*
X144500000Y-98000000D03*
%TO.N,/MCU/OSD_SPI_MISO*%
X136336322Y-106936322D03*
X136450000Y-100350000D03*
%TO.N,/IMU/IMU_SPI_MISO*%
X140943680Y-110885816D03*
X138650500Y-107353628D03*
%TO.N,/Flash Memory/FLASH_SPI_MISO*%
X148700000Y-106700000D03*
X145571089Y-102971089D03*
%TO.N,/Connectors/TELEMETRY*%
X142500000Y-95400000D03*
X145546089Y-101750500D03*
%TO.N,/Connectors/UART2_RX*%
X145500000Y-105300000D03*
X150500000Y-93200000D03*
D15*
X150874110Y-100225821D03*
%TO.N,/Connectors/UART2_TX*%
X149775000Y-101200500D03*
D14*
X145613067Y-106091467D03*
X150500000Y-94100000D03*
%TO.N,/Connectors/UART3_RX*%
X131950000Y-121050000D03*
X132450000Y-115778902D03*
X136400000Y-105900000D03*
%TO.N,/Connectors/UART3_TX*%
X131127963Y-115780376D03*
X136300000Y-104400000D03*
X130992477Y-121042477D03*
%TO.N,/MCU/BUZZER_CTRL*%
X138500000Y-114180500D03*
X139908208Y-107390894D03*
%TO.N,/MCU/OSD_SPI_~{CS}*%
X136800000Y-98500000D03*
X136376514Y-110249683D03*
%TO.N,/IMU/IMU_SPI_~{CS}*%
X139352827Y-112866335D03*
X144650000Y-114900000D03*
%TD*%
%TA.AperFunction,Conductor*%
%TO.N,GND*%
G36*
X156753736Y-86050726D02*
G01*
X157007638Y-86066084D01*
X157022495Y-86067888D01*
X157269000Y-86113061D01*
X157283536Y-86116644D01*
X157522791Y-86191200D01*
X157536788Y-86196508D01*
X157765319Y-86299361D01*
X157778578Y-86306320D01*
X157885808Y-86371143D01*
X157993045Y-86435970D01*
X158005356Y-86444468D01*
X158202636Y-86599027D01*
X158213844Y-86608957D01*
X158391042Y-86786155D01*
X158400972Y-86797363D01*
X158555527Y-86994637D01*
X158564033Y-87006960D01*
X158693679Y-87221421D01*
X158700638Y-87234680D01*
X158803491Y-87463211D01*
X158808800Y-87477211D01*
X158883354Y-87716461D01*
X158886938Y-87731001D01*
X158932110Y-87977500D01*
X158933915Y-87992364D01*
X158949274Y-88246263D01*
X158949500Y-88253750D01*
X158949500Y-102472261D01*
X158929815Y-102539300D01*
X158877011Y-102585055D01*
X158807853Y-102594999D01*
X158744297Y-102565974D01*
X158710940Y-102519716D01*
X158704313Y-102503719D01*
X158704311Y-102503714D01*
X158704309Y-102503711D01*
X158704307Y-102503707D01*
X158635858Y-102401267D01*
X158635855Y-102401263D01*
X158548736Y-102314144D01*
X158548732Y-102314141D01*
X158446292Y-102245692D01*
X158446283Y-102245687D01*
X158353477Y-102207246D01*
X158332452Y-102198537D01*
X158332448Y-102198536D01*
X158332444Y-102198535D01*
X158211610Y-102174500D01*
X158211606Y-102174500D01*
X158088394Y-102174500D01*
X158088389Y-102174500D01*
X157967555Y-102198535D01*
X157967545Y-102198538D01*
X157853716Y-102245687D01*
X157853707Y-102245692D01*
X157751267Y-102314141D01*
X157751263Y-102314144D01*
X157664144Y-102401263D01*
X157664141Y-102401267D01*
X157595692Y-102503707D01*
X157595687Y-102503716D01*
X157548538Y-102617545D01*
X157548535Y-102617555D01*
X157524500Y-102738389D01*
X157524500Y-102861610D01*
X157548535Y-102982444D01*
X157548538Y-102982454D01*
X157595687Y-103096283D01*
X157595692Y-103096292D01*
X157664141Y-103198732D01*
X157664144Y-103198736D01*
X157751263Y-103285855D01*
X157751267Y-103285858D01*
X157853707Y-103354307D01*
X157853716Y-103354312D01*
X157874739Y-103363020D01*
X157967548Y-103401463D01*
X158088389Y-103425499D01*
X158088393Y-103425500D01*
X158088394Y-103425500D01*
X158211607Y-103425500D01*
X158211608Y-103425499D01*
X158332452Y-103401463D01*
X158446286Y-103354311D01*
X158548733Y-103285858D01*
X158635858Y-103198733D01*
X158704311Y-103096286D01*
X158710939Y-103080285D01*
X158754780Y-103025882D01*
X158821074Y-103003817D01*
X158888773Y-103021096D01*
X158936384Y-103072233D01*
X158949500Y-103127738D01*
X158949500Y-123246249D01*
X158949274Y-123253736D01*
X158933915Y-123507635D01*
X158932110Y-123522499D01*
X158886938Y-123768998D01*
X158883354Y-123783538D01*
X158808800Y-124022788D01*
X158803491Y-124036788D01*
X158700638Y-124265319D01*
X158693679Y-124278578D01*
X158564033Y-124493039D01*
X158555527Y-124505362D01*
X158400972Y-124702636D01*
X158391042Y-124713844D01*
X158213844Y-124891042D01*
X158202636Y-124900972D01*
X158005362Y-125055527D01*
X157993039Y-125064033D01*
X157778578Y-125193679D01*
X157765319Y-125200638D01*
X157536788Y-125303491D01*
X157522788Y-125308800D01*
X157283538Y-125383354D01*
X157268998Y-125386938D01*
X157022499Y-125432110D01*
X157007635Y-125433915D01*
X156753736Y-125449274D01*
X156746249Y-125449500D01*
X121753751Y-125449500D01*
X121746264Y-125449274D01*
X121492364Y-125433915D01*
X121477500Y-125432110D01*
X121231001Y-125386938D01*
X121216461Y-125383354D01*
X120977211Y-125308800D01*
X120963211Y-125303491D01*
X120734680Y-125200638D01*
X120721421Y-125193679D01*
X120506960Y-125064033D01*
X120494637Y-125055527D01*
X120297363Y-124900972D01*
X120286155Y-124891042D01*
X120108957Y-124713844D01*
X120099027Y-124702636D01*
X119944468Y-124505356D01*
X119935970Y-124493045D01*
X119833398Y-124323371D01*
X119806320Y-124278578D01*
X119799361Y-124265319D01*
X119696508Y-124036788D01*
X119691199Y-124022788D01*
X119672391Y-123962433D01*
X119616644Y-123783536D01*
X119613061Y-123768998D01*
X119591254Y-123650000D01*
X128194353Y-123650000D01*
X128214834Y-123792456D01*
X128274622Y-123923371D01*
X128274623Y-123923373D01*
X128368872Y-124032143D01*
X128489947Y-124109953D01*
X128489950Y-124109954D01*
X128489949Y-124109954D01*
X128628036Y-124150499D01*
X128628038Y-124150500D01*
X128628039Y-124150500D01*
X128771962Y-124150500D01*
X128771962Y-124150499D01*
X128910053Y-124109953D01*
X129031128Y-124032143D01*
X129125377Y-123923373D01*
X129185165Y-123792457D01*
X129205647Y-123650000D01*
X130294353Y-123650000D01*
X130314834Y-123792456D01*
X130374622Y-123923371D01*
X130374623Y-123923373D01*
X130468872Y-124032143D01*
X130589947Y-124109953D01*
X130589950Y-124109954D01*
X130589949Y-124109954D01*
X130728036Y-124150499D01*
X130728038Y-124150500D01*
X130728039Y-124150500D01*
X130871962Y-124150500D01*
X130871962Y-124150499D01*
X131010053Y-124109953D01*
X131131128Y-124032143D01*
X131225377Y-123923373D01*
X131285165Y-123792457D01*
X131305647Y-123650000D01*
X131285165Y-123507543D01*
X131236051Y-123400000D01*
X132694353Y-123400000D01*
X132714834Y-123542456D01*
X132737669Y-123592456D01*
X132774623Y-123673373D01*
X132868872Y-123782143D01*
X132989947Y-123859953D01*
X132989950Y-123859954D01*
X132989949Y-123859954D01*
X133109195Y-123894967D01*
X133167973Y-123932741D01*
X133196999Y-123996296D01*
X133196999Y-124031587D01*
X133194353Y-124049994D01*
X133194353Y-124049999D01*
X133214834Y-124192456D01*
X133274622Y-124323371D01*
X133274623Y-124323373D01*
X133368872Y-124432143D01*
X133489947Y-124509953D01*
X133489950Y-124509954D01*
X133489949Y-124509954D01*
X133628036Y-124550499D01*
X133628038Y-124550500D01*
X133628039Y-124550500D01*
X133771962Y-124550500D01*
X133771962Y-124550499D01*
X133910053Y-124509953D01*
X134031128Y-124432143D01*
X134125377Y-124323373D01*
X134185165Y-124192457D01*
X134205647Y-124050000D01*
X134203000Y-124031590D01*
X134212943Y-123962433D01*
X134258698Y-123909629D01*
X134290802Y-123894967D01*
X134353035Y-123876694D01*
X134410047Y-123859955D01*
X134410047Y-123859954D01*
X134410053Y-123859953D01*
X134415502Y-123856450D01*
X134482536Y-123836763D01*
X134549577Y-123856443D01*
X134595334Y-123909241D01*
X134595338Y-123909249D01*
X134595339Y-123909251D01*
X134606067Y-123932741D01*
X134624623Y-123973373D01*
X134718872Y-124082143D01*
X134839947Y-124159953D01*
X134839950Y-124159954D01*
X134839949Y-124159954D01*
X134978036Y-124200499D01*
X134978038Y-124200500D01*
X134978039Y-124200500D01*
X135121962Y-124200500D01*
X135121962Y-124200499D01*
X135260053Y-124159953D01*
X135381128Y-124082143D01*
X135475377Y-123973373D01*
X135535165Y-123842457D01*
X135555647Y-123700000D01*
X135548458Y-123650000D01*
X140119353Y-123650000D01*
X140139834Y-123792456D01*
X140199622Y-123923371D01*
X140199623Y-123923373D01*
X140293872Y-124032143D01*
X140414947Y-124109953D01*
X140414950Y-124109954D01*
X140414949Y-124109954D01*
X140553036Y-124150499D01*
X140553038Y-124150500D01*
X140553039Y-124150500D01*
X140696962Y-124150500D01*
X140696962Y-124150499D01*
X140835053Y-124109953D01*
X140956128Y-124032143D01*
X141050377Y-123923373D01*
X141110165Y-123792457D01*
X141130647Y-123650000D01*
X141110165Y-123507543D01*
X141083886Y-123450000D01*
X146444353Y-123450000D01*
X146464834Y-123592456D01*
X146524622Y-123723371D01*
X146524623Y-123723373D01*
X146618872Y-123832143D01*
X146739947Y-123909953D01*
X146739950Y-123909954D01*
X146739949Y-123909954D01*
X146859195Y-123944967D01*
X146917973Y-123982741D01*
X146946999Y-124046296D01*
X146946999Y-124081587D01*
X146944353Y-124099994D01*
X146944353Y-124099999D01*
X146964834Y-124242456D01*
X147001798Y-124323394D01*
X147024623Y-124373373D01*
X147118872Y-124482143D01*
X147239947Y-124559953D01*
X147239950Y-124559954D01*
X147239949Y-124559954D01*
X147378036Y-124600499D01*
X147378038Y-124600500D01*
X147378039Y-124600500D01*
X147521962Y-124600500D01*
X147521962Y-124600499D01*
X147660053Y-124559953D01*
X147781128Y-124482143D01*
X147875377Y-124373373D01*
X147935165Y-124242457D01*
X147955647Y-124100000D01*
X147953000Y-124081590D01*
X147962943Y-124012433D01*
X148008698Y-123959629D01*
X148040802Y-123944967D01*
X148122588Y-123920953D01*
X148160050Y-123909954D01*
X148160050Y-123909953D01*
X148160053Y-123909953D01*
X148281128Y-123832143D01*
X148375377Y-123723373D01*
X148435165Y-123592457D01*
X148455647Y-123450000D01*
X148448458Y-123400000D01*
X149194353Y-123400000D01*
X149214834Y-123542456D01*
X149237669Y-123592456D01*
X149274623Y-123673373D01*
X149368872Y-123782143D01*
X149489947Y-123859953D01*
X149489950Y-123859954D01*
X149489949Y-123859954D01*
X149616093Y-123896993D01*
X149674872Y-123934767D01*
X149703897Y-123998322D01*
X149703897Y-124033616D01*
X149694353Y-124099999D01*
X149714834Y-124242456D01*
X149751798Y-124323394D01*
X149774623Y-124373373D01*
X149868872Y-124482143D01*
X149989947Y-124559953D01*
X149989950Y-124559954D01*
X149989949Y-124559954D01*
X150128036Y-124600499D01*
X150128038Y-124600500D01*
X150128039Y-124600500D01*
X150271962Y-124600500D01*
X150271962Y-124600499D01*
X150410053Y-124559953D01*
X150531128Y-124482143D01*
X150625377Y-124373373D01*
X150685165Y-124242457D01*
X150705647Y-124100000D01*
X150696102Y-124033615D01*
X150706045Y-123964459D01*
X150751800Y-123911655D01*
X150783906Y-123896993D01*
X150910050Y-123859954D01*
X150910050Y-123859953D01*
X150910053Y-123859953D01*
X151031128Y-123782143D01*
X151125377Y-123673373D01*
X151185165Y-123542457D01*
X151205647Y-123400000D01*
X151185165Y-123257543D01*
X151125377Y-123126627D01*
X151031128Y-123017857D01*
X150910053Y-122940047D01*
X150910051Y-122940046D01*
X150910049Y-122940045D01*
X150910050Y-122940045D01*
X150771963Y-122899500D01*
X150771961Y-122899500D01*
X150628039Y-122899500D01*
X150628036Y-122899500D01*
X150489949Y-122940045D01*
X150368873Y-123017856D01*
X150293713Y-123104596D01*
X150234935Y-123142370D01*
X150165065Y-123142370D01*
X150106287Y-123104596D01*
X150031128Y-123017857D01*
X149910053Y-122940047D01*
X149910051Y-122940046D01*
X149910049Y-122940045D01*
X149910050Y-122940045D01*
X149771963Y-122899500D01*
X149771961Y-122899500D01*
X149628039Y-122899500D01*
X149628036Y-122899500D01*
X149489949Y-122940045D01*
X149368873Y-123017856D01*
X149274623Y-123126626D01*
X149274622Y-123126628D01*
X149214834Y-123257543D01*
X149194353Y-123400000D01*
X148448458Y-123400000D01*
X148435165Y-123307543D01*
X148375377Y-123176627D01*
X148281128Y-123067857D01*
X148160053Y-122990047D01*
X148160051Y-122990046D01*
X148160049Y-122990045D01*
X148160050Y-122990045D01*
X148021963Y-122949500D01*
X148021961Y-122949500D01*
X147878039Y-122949500D01*
X147878036Y-122949500D01*
X147739949Y-122990045D01*
X147618873Y-123067856D01*
X147618872Y-123067856D01*
X147618872Y-123067857D01*
X147548129Y-123149500D01*
X147543713Y-123154596D01*
X147484935Y-123192370D01*
X147415065Y-123192370D01*
X147356287Y-123154596D01*
X147281128Y-123067857D01*
X147160053Y-122990047D01*
X147160051Y-122990046D01*
X147160049Y-122990045D01*
X147160050Y-122990045D01*
X147021963Y-122949500D01*
X147021961Y-122949500D01*
X146878039Y-122949500D01*
X146878036Y-122949500D01*
X146739949Y-122990045D01*
X146618873Y-123067856D01*
X146524623Y-123176626D01*
X146524622Y-123176628D01*
X146464834Y-123307543D01*
X146444353Y-123450000D01*
X141083886Y-123450000D01*
X141050377Y-123376627D01*
X140956128Y-123267857D01*
X140835053Y-123190047D01*
X140835051Y-123190046D01*
X140835049Y-123190045D01*
X140835050Y-123190045D01*
X140696963Y-123149500D01*
X140696961Y-123149500D01*
X140553039Y-123149500D01*
X140553036Y-123149500D01*
X140414949Y-123190045D01*
X140293873Y-123267856D01*
X140199623Y-123376626D01*
X140199622Y-123376628D01*
X140139834Y-123507543D01*
X140119353Y-123650000D01*
X135548458Y-123650000D01*
X135535165Y-123557543D01*
X135475377Y-123426627D01*
X135381128Y-123317857D01*
X135260053Y-123240047D01*
X135260051Y-123240046D01*
X135260049Y-123240045D01*
X135260050Y-123240045D01*
X135121963Y-123199500D01*
X135121961Y-123199500D01*
X134978039Y-123199500D01*
X134978036Y-123199500D01*
X134839949Y-123240045D01*
X134839943Y-123240048D01*
X134834486Y-123243555D01*
X134767445Y-123263235D01*
X134700407Y-123243546D01*
X134654660Y-123190747D01*
X134635823Y-123149500D01*
X134625377Y-123126627D01*
X134531128Y-123017857D01*
X134410053Y-122940047D01*
X134410051Y-122940046D01*
X134410049Y-122940045D01*
X134410050Y-122940045D01*
X134271963Y-122899500D01*
X134271961Y-122899500D01*
X134128039Y-122899500D01*
X134128036Y-122899500D01*
X133989949Y-122940045D01*
X133868873Y-123017856D01*
X133793713Y-123104596D01*
X133734935Y-123142370D01*
X133665065Y-123142370D01*
X133606287Y-123104596D01*
X133531128Y-123017857D01*
X133410053Y-122940047D01*
X133410051Y-122940046D01*
X133410049Y-122940045D01*
X133410050Y-122940045D01*
X133271963Y-122899500D01*
X133271961Y-122899500D01*
X133128039Y-122899500D01*
X133128036Y-122899500D01*
X132989949Y-122940045D01*
X132868873Y-123017856D01*
X132774623Y-123126626D01*
X132774622Y-123126628D01*
X132714834Y-123257543D01*
X132694353Y-123400000D01*
X131236051Y-123400000D01*
X131225377Y-123376627D01*
X131131128Y-123267857D01*
X131010053Y-123190047D01*
X131010051Y-123190046D01*
X131010049Y-123190045D01*
X131010050Y-123190045D01*
X130871963Y-123149500D01*
X130871961Y-123149500D01*
X130728039Y-123149500D01*
X130728036Y-123149500D01*
X130589949Y-123190045D01*
X130468873Y-123267856D01*
X130374623Y-123376626D01*
X130374622Y-123376628D01*
X130314834Y-123507543D01*
X130294353Y-123650000D01*
X129205647Y-123650000D01*
X129185165Y-123507543D01*
X129125377Y-123376627D01*
X129031128Y-123267857D01*
X128910053Y-123190047D01*
X128910051Y-123190046D01*
X128910049Y-123190045D01*
X128910050Y-123190045D01*
X128771963Y-123149500D01*
X128771961Y-123149500D01*
X128628039Y-123149500D01*
X128628036Y-123149500D01*
X128489949Y-123190045D01*
X128368873Y-123267856D01*
X128274623Y-123376626D01*
X128274622Y-123376628D01*
X128214834Y-123507543D01*
X128194353Y-123650000D01*
X119591254Y-123650000D01*
X119572837Y-123549500D01*
X119567888Y-123522495D01*
X119566084Y-123507635D01*
X119566078Y-123507543D01*
X119550726Y-123253736D01*
X119550500Y-123246249D01*
X119550500Y-120878711D01*
X122149500Y-120878711D01*
X122149500Y-121121288D01*
X122181161Y-121361785D01*
X122243947Y-121596104D01*
X122332527Y-121809954D01*
X122336776Y-121820212D01*
X122458064Y-122030289D01*
X122458066Y-122030292D01*
X122458067Y-122030293D01*
X122605733Y-122222736D01*
X122605739Y-122222743D01*
X122777256Y-122394260D01*
X122777262Y-122394265D01*
X122969711Y-122541936D01*
X123179788Y-122663224D01*
X123403900Y-122756054D01*
X123638211Y-122818838D01*
X123818586Y-122842584D01*
X123878711Y-122850500D01*
X123878712Y-122850500D01*
X124121289Y-122850500D01*
X124169388Y-122844167D01*
X124361789Y-122818838D01*
X124596100Y-122756054D01*
X124820212Y-122663224D01*
X125030289Y-122541936D01*
X125222738Y-122394265D01*
X125394265Y-122222738D01*
X125541936Y-122030289D01*
X125663224Y-121820212D01*
X125734332Y-121648540D01*
X125778172Y-121594137D01*
X125844466Y-121572072D01*
X125912166Y-121589351D01*
X125942061Y-121618189D01*
X125943815Y-121616670D01*
X125949622Y-121623372D01*
X125949623Y-121623373D01*
X126043872Y-121732143D01*
X126164947Y-121809953D01*
X126164950Y-121809954D01*
X126164949Y-121809954D01*
X126268978Y-121840499D01*
X126285683Y-121845404D01*
X126303036Y-121850499D01*
X126303038Y-121850500D01*
X126303039Y-121850500D01*
X126446962Y-121850500D01*
X126446962Y-121850499D01*
X126585053Y-121809953D01*
X126706128Y-121732143D01*
X126706131Y-121732139D01*
X126712060Y-121727002D01*
X126775614Y-121697972D01*
X126844773Y-121707911D01*
X126860842Y-121718232D01*
X126861411Y-121717348D01*
X126868871Y-121722142D01*
X126868872Y-121722143D01*
X126989947Y-121799953D01*
X126989950Y-121799954D01*
X126989949Y-121799954D01*
X127128036Y-121840499D01*
X127128038Y-121840500D01*
X127128039Y-121840500D01*
X127271962Y-121840500D01*
X127271962Y-121840499D01*
X127410053Y-121799953D01*
X127531128Y-121722143D01*
X127625377Y-121613373D01*
X127685165Y-121482457D01*
X127705647Y-121340000D01*
X127685165Y-121197543D01*
X127625377Y-121066627D01*
X127604451Y-121042477D01*
X130486830Y-121042477D01*
X130507311Y-121184933D01*
X130567099Y-121315848D01*
X130567100Y-121315850D01*
X130661349Y-121424620D01*
X130782424Y-121502430D01*
X130782427Y-121502431D01*
X130782426Y-121502431D01*
X130920513Y-121542976D01*
X130920515Y-121542977D01*
X130920516Y-121542977D01*
X131064439Y-121542977D01*
X131064439Y-121542976D01*
X131202530Y-121502430D01*
X131323605Y-121424620D01*
X131374268Y-121366150D01*
X131433043Y-121328378D01*
X131502913Y-121328378D01*
X131561688Y-121366149D01*
X131618872Y-121432143D01*
X131739947Y-121509953D01*
X131739950Y-121509954D01*
X131739949Y-121509954D01*
X131847107Y-121541417D01*
X131876336Y-121550000D01*
X131878036Y-121550499D01*
X131878038Y-121550500D01*
X131878039Y-121550500D01*
X132021962Y-121550500D01*
X132021962Y-121550499D01*
X132023661Y-121550000D01*
X149194353Y-121550000D01*
X149214834Y-121692456D01*
X149226202Y-121717348D01*
X149274623Y-121823373D01*
X149368872Y-121932143D01*
X149489947Y-122009953D01*
X149489950Y-122009954D01*
X149489949Y-122009954D01*
X149628036Y-122050499D01*
X149628038Y-122050500D01*
X149628039Y-122050500D01*
X149771962Y-122050500D01*
X149771962Y-122050499D01*
X149910053Y-122009953D01*
X150031128Y-121932143D01*
X150106287Y-121845403D01*
X150165064Y-121807629D01*
X150234934Y-121807629D01*
X150293711Y-121845402D01*
X150368872Y-121932143D01*
X150489947Y-122009953D01*
X150489950Y-122009954D01*
X150489949Y-122009954D01*
X150628036Y-122050499D01*
X150628038Y-122050500D01*
X150628039Y-122050500D01*
X150771962Y-122050500D01*
X150771962Y-122050499D01*
X150910053Y-122009953D01*
X151031128Y-121932143D01*
X151125377Y-121823373D01*
X151185165Y-121692457D01*
X151205647Y-121550000D01*
X151185165Y-121407543D01*
X151125377Y-121276627D01*
X151031128Y-121167857D01*
X150910053Y-121090047D01*
X150910051Y-121090046D01*
X150910049Y-121090045D01*
X150910050Y-121090045D01*
X150790804Y-121055032D01*
X150732025Y-121017258D01*
X150703000Y-120953702D01*
X150703000Y-120918410D01*
X150705647Y-120900000D01*
X150702586Y-120878711D01*
X152649500Y-120878711D01*
X152649500Y-121121288D01*
X152681161Y-121361785D01*
X152743947Y-121596104D01*
X152832527Y-121809954D01*
X152836776Y-121820212D01*
X152958064Y-122030289D01*
X152958066Y-122030292D01*
X152958067Y-122030293D01*
X153105733Y-122222736D01*
X153105739Y-122222743D01*
X153277256Y-122394260D01*
X153277262Y-122394265D01*
X153469711Y-122541936D01*
X153679788Y-122663224D01*
X153903900Y-122756054D01*
X154138211Y-122818838D01*
X154318586Y-122842584D01*
X154378711Y-122850500D01*
X154378712Y-122850500D01*
X154621289Y-122850500D01*
X154669388Y-122844167D01*
X154861789Y-122818838D01*
X155096100Y-122756054D01*
X155320212Y-122663224D01*
X155530289Y-122541936D01*
X155722738Y-122394265D01*
X155894265Y-122222738D01*
X156041936Y-122030289D01*
X156163224Y-121820212D01*
X156256054Y-121596100D01*
X156318838Y-121361789D01*
X156350500Y-121121288D01*
X156350500Y-120878712D01*
X156345792Y-120842954D01*
X156327038Y-120700498D01*
X156318838Y-120638211D01*
X156256054Y-120403900D01*
X156254231Y-120399500D01*
X156171595Y-120199998D01*
X156163224Y-120179788D01*
X156041936Y-119969711D01*
X155894265Y-119777262D01*
X155894260Y-119777256D01*
X155722743Y-119605739D01*
X155722736Y-119605733D01*
X155530293Y-119458067D01*
X155530292Y-119458066D01*
X155530289Y-119458064D01*
X155320212Y-119336776D01*
X155320205Y-119336773D01*
X155096104Y-119243947D01*
X154861785Y-119181161D01*
X154621289Y-119149500D01*
X154621288Y-119149500D01*
X154378712Y-119149500D01*
X154378711Y-119149500D01*
X154138214Y-119181161D01*
X153903895Y-119243947D01*
X153679794Y-119336773D01*
X153679785Y-119336777D01*
X153469706Y-119458067D01*
X153277263Y-119605733D01*
X153277256Y-119605739D01*
X153105739Y-119777256D01*
X153105733Y-119777263D01*
X152958067Y-119969706D01*
X152836777Y-120179785D01*
X152836773Y-120179794D01*
X152743947Y-120403895D01*
X152681161Y-120638214D01*
X152649500Y-120878711D01*
X150702586Y-120878711D01*
X150685165Y-120757543D01*
X150625377Y-120626627D01*
X150531128Y-120517857D01*
X150410053Y-120440047D01*
X150410051Y-120440046D01*
X150410049Y-120440045D01*
X150410050Y-120440045D01*
X150271963Y-120399500D01*
X150271961Y-120399500D01*
X150128039Y-120399500D01*
X150128036Y-120399500D01*
X149989949Y-120440045D01*
X149868873Y-120517856D01*
X149774623Y-120626626D01*
X149774622Y-120626628D01*
X149714834Y-120757543D01*
X149694353Y-120900000D01*
X149694353Y-120900004D01*
X149696999Y-120918411D01*
X149687054Y-120987570D01*
X149641298Y-121040372D01*
X149609196Y-121055032D01*
X149489948Y-121090045D01*
X149368873Y-121167856D01*
X149274623Y-121276626D01*
X149274622Y-121276628D01*
X149214834Y-121407543D01*
X149194353Y-121550000D01*
X132023661Y-121550000D01*
X132160053Y-121509953D01*
X132281128Y-121432143D01*
X132375377Y-121323373D01*
X132435165Y-121192457D01*
X132455647Y-121050000D01*
X132435165Y-120907543D01*
X132375377Y-120776627D01*
X132308547Y-120699500D01*
X142819353Y-120699500D01*
X142839834Y-120841956D01*
X142890868Y-120953702D01*
X142899623Y-120972873D01*
X142993872Y-121081643D01*
X143114947Y-121159453D01*
X143114950Y-121159454D01*
X143114949Y-121159454D01*
X143253036Y-121199999D01*
X143253038Y-121200000D01*
X143253039Y-121200000D01*
X143396962Y-121200000D01*
X143396962Y-121199999D01*
X143535053Y-121159453D01*
X143656128Y-121081643D01*
X143750377Y-120972873D01*
X143810165Y-120841957D01*
X143830504Y-120700498D01*
X145594924Y-120700498D01*
X145615405Y-120842954D01*
X145672447Y-120967857D01*
X145675194Y-120973871D01*
X145769443Y-121082641D01*
X145890518Y-121160451D01*
X145890521Y-121160452D01*
X145890520Y-121160452D01*
X146028607Y-121200997D01*
X146028609Y-121200998D01*
X146028610Y-121200998D01*
X146172533Y-121200998D01*
X146172533Y-121200997D01*
X146310624Y-121160451D01*
X146431699Y-121082641D01*
X146525948Y-120973871D01*
X146585736Y-120842955D01*
X146606218Y-120700498D01*
X146585736Y-120558041D01*
X146525948Y-120427125D01*
X146431699Y-120318355D01*
X146310624Y-120240545D01*
X146310622Y-120240544D01*
X146310620Y-120240543D01*
X146310621Y-120240543D01*
X146172534Y-120199998D01*
X146172532Y-120199998D01*
X146028610Y-120199998D01*
X146028607Y-120199998D01*
X145890520Y-120240543D01*
X145769444Y-120318354D01*
X145675194Y-120427124D01*
X145675193Y-120427126D01*
X145615405Y-120558041D01*
X145594924Y-120700498D01*
X143830504Y-120700498D01*
X143830647Y-120699500D01*
X143810165Y-120557043D01*
X143750377Y-120426127D01*
X143656128Y-120317357D01*
X143535053Y-120239547D01*
X143535051Y-120239546D01*
X143535049Y-120239545D01*
X143535050Y-120239545D01*
X143396963Y-120199000D01*
X143396961Y-120199000D01*
X143253039Y-120199000D01*
X143253036Y-120199000D01*
X143114949Y-120239545D01*
X142993873Y-120317356D01*
X142899623Y-120426126D01*
X142899622Y-120426128D01*
X142839834Y-120557043D01*
X142819353Y-120699500D01*
X132308547Y-120699500D01*
X132281128Y-120667857D01*
X132160053Y-120590047D01*
X132160051Y-120590046D01*
X132160049Y-120590045D01*
X132160050Y-120590045D01*
X132021963Y-120549500D01*
X132021961Y-120549500D01*
X131878039Y-120549500D01*
X131878036Y-120549500D01*
X131739949Y-120590045D01*
X131618872Y-120667857D01*
X131618869Y-120667859D01*
X131568209Y-120726324D01*
X131509431Y-120764098D01*
X131439561Y-120764098D01*
X131380784Y-120726323D01*
X131323605Y-120660334D01*
X131323604Y-120660333D01*
X131323603Y-120660332D01*
X131256280Y-120617067D01*
X131202530Y-120582524D01*
X131202528Y-120582523D01*
X131202526Y-120582522D01*
X131202527Y-120582522D01*
X131064440Y-120541977D01*
X131064438Y-120541977D01*
X130920516Y-120541977D01*
X130920513Y-120541977D01*
X130782426Y-120582522D01*
X130661350Y-120660333D01*
X130567100Y-120769103D01*
X130567099Y-120769105D01*
X130507311Y-120900020D01*
X130486830Y-121042477D01*
X127604451Y-121042477D01*
X127531128Y-120957857D01*
X127410053Y-120880047D01*
X127410051Y-120880046D01*
X127410049Y-120880045D01*
X127410050Y-120880045D01*
X127271963Y-120839500D01*
X127271961Y-120839500D01*
X127128039Y-120839500D01*
X127128036Y-120839500D01*
X126989949Y-120880045D01*
X126868867Y-120957859D01*
X126862927Y-120963007D01*
X126799369Y-120992029D01*
X126730211Y-120982082D01*
X126714158Y-120971765D01*
X126713589Y-120972652D01*
X126698581Y-120963007D01*
X126585053Y-120890047D01*
X126585051Y-120890046D01*
X126585049Y-120890045D01*
X126585050Y-120890045D01*
X126446963Y-120849500D01*
X126446961Y-120849500D01*
X126303039Y-120849500D01*
X126303036Y-120849500D01*
X126164949Y-120890045D01*
X126164946Y-120890046D01*
X126040864Y-120969788D01*
X125973825Y-120989472D01*
X125906785Y-120969787D01*
X125861031Y-120916982D01*
X125850887Y-120881657D01*
X125850500Y-120878717D01*
X125850500Y-120878712D01*
X125818838Y-120638211D01*
X125756054Y-120403900D01*
X125754231Y-120399500D01*
X125671595Y-120199998D01*
X125663224Y-120179788D01*
X125541936Y-119969711D01*
X125394265Y-119777262D01*
X125394260Y-119777256D01*
X125222743Y-119605739D01*
X125222736Y-119605733D01*
X125030293Y-119458067D01*
X125030292Y-119458066D01*
X125030289Y-119458064D01*
X124820212Y-119336776D01*
X124820205Y-119336773D01*
X124596104Y-119243947D01*
X124361785Y-119181161D01*
X124121289Y-119149500D01*
X124121288Y-119149500D01*
X123878712Y-119149500D01*
X123878711Y-119149500D01*
X123638214Y-119181161D01*
X123403895Y-119243947D01*
X123179794Y-119336773D01*
X123179785Y-119336777D01*
X122969706Y-119458067D01*
X122777263Y-119605733D01*
X122777256Y-119605739D01*
X122605739Y-119777256D01*
X122605733Y-119777263D01*
X122458067Y-119969706D01*
X122336777Y-120179785D01*
X122336773Y-120179794D01*
X122243947Y-120403895D01*
X122181161Y-120638214D01*
X122149500Y-120878711D01*
X119550500Y-120878711D01*
X119550500Y-116299998D01*
X122094318Y-116299998D01*
X122094318Y-116300001D01*
X122114955Y-116456760D01*
X122114956Y-116456762D01*
X122175464Y-116602842D01*
X122268826Y-116724514D01*
X122294020Y-116789683D01*
X122279981Y-116858128D01*
X122268826Y-116875486D01*
X122175464Y-116997157D01*
X122114956Y-117143237D01*
X122114955Y-117143239D01*
X122094318Y-117299998D01*
X122094318Y-117300001D01*
X122114955Y-117456760D01*
X122114956Y-117456762D01*
X122175464Y-117602841D01*
X122271718Y-117728282D01*
X122397159Y-117824536D01*
X122543238Y-117885044D01*
X122621619Y-117895363D01*
X122699999Y-117905682D01*
X122700000Y-117905682D01*
X122700001Y-117905682D01*
X122752254Y-117898802D01*
X122856762Y-117885044D01*
X123002841Y-117824536D01*
X123124515Y-117731171D01*
X123189683Y-117705979D01*
X123258127Y-117720017D01*
X123275478Y-117731167D01*
X123397159Y-117824536D01*
X123543238Y-117885044D01*
X123621619Y-117895363D01*
X123699999Y-117905682D01*
X123700000Y-117905682D01*
X123700001Y-117905682D01*
X123752254Y-117898802D01*
X123856762Y-117885044D01*
X124002841Y-117824536D01*
X124128282Y-117728282D01*
X124224536Y-117602841D01*
X124236276Y-117574498D01*
X126971702Y-117574498D01*
X126971702Y-117574501D01*
X126992339Y-117731260D01*
X126992340Y-117731262D01*
X127051203Y-117873371D01*
X127052848Y-117877341D01*
X127149102Y-118002782D01*
X127274543Y-118099036D01*
X127420622Y-118159544D01*
X127499003Y-118169863D01*
X127577383Y-118180182D01*
X127577384Y-118180182D01*
X127577385Y-118180182D01*
X127629638Y-118173302D01*
X127734146Y-118159544D01*
X127880225Y-118099036D01*
X128005666Y-118002782D01*
X128101920Y-117877341D01*
X128162428Y-117731262D01*
X128179709Y-117600000D01*
X138594353Y-117600000D01*
X138614834Y-117742456D01*
X138674622Y-117873371D01*
X138674623Y-117873373D01*
X138768872Y-117982143D01*
X138889947Y-118059953D01*
X138889950Y-118059954D01*
X138889949Y-118059954D01*
X139028036Y-118100499D01*
X139028038Y-118100500D01*
X139028039Y-118100500D01*
X139171962Y-118100500D01*
X139171962Y-118100499D01*
X139310053Y-118059953D01*
X139431128Y-117982143D01*
X139525377Y-117873373D01*
X139558887Y-117799998D01*
X147794318Y-117799998D01*
X147794318Y-117800001D01*
X147814955Y-117956760D01*
X147814956Y-117956762D01*
X147857699Y-118059954D01*
X147875464Y-118102841D01*
X147971718Y-118228282D01*
X148097159Y-118324536D01*
X148243238Y-118385044D01*
X148321619Y-118395363D01*
X148399999Y-118405682D01*
X148400000Y-118405682D01*
X148400001Y-118405682D01*
X148452254Y-118398802D01*
X148556762Y-118385044D01*
X148702841Y-118324536D01*
X148828282Y-118228282D01*
X148924536Y-118102841D01*
X148985044Y-117956762D01*
X149005682Y-117800000D01*
X148985044Y-117643238D01*
X148924536Y-117497159D01*
X148828282Y-117371718D01*
X148702841Y-117275464D01*
X148693657Y-117271660D01*
X148556762Y-117214956D01*
X148556760Y-117214955D01*
X148400001Y-117194318D01*
X148399999Y-117194318D01*
X148243239Y-117214955D01*
X148243237Y-117214956D01*
X148097160Y-117275463D01*
X147971718Y-117371718D01*
X147875463Y-117497160D01*
X147814956Y-117643237D01*
X147814955Y-117643239D01*
X147794318Y-117799998D01*
X139558887Y-117799998D01*
X139585165Y-117742457D01*
X139605647Y-117600000D01*
X139585165Y-117457543D01*
X139525377Y-117326627D01*
X139431128Y-117217857D01*
X139310053Y-117140047D01*
X139310051Y-117140046D01*
X139310049Y-117140045D01*
X139310050Y-117140045D01*
X139171963Y-117099500D01*
X139171961Y-117099500D01*
X139028039Y-117099500D01*
X139028036Y-117099500D01*
X138889949Y-117140045D01*
X138768873Y-117217856D01*
X138674623Y-117326626D01*
X138674622Y-117326628D01*
X138614834Y-117457543D01*
X138594353Y-117600000D01*
X128179709Y-117600000D01*
X128183066Y-117574500D01*
X128162428Y-117417738D01*
X128101920Y-117271659D01*
X128005666Y-117146218D01*
X127880225Y-117049964D01*
X127734146Y-116989456D01*
X127734144Y-116989455D01*
X127577385Y-116968818D01*
X127577383Y-116968818D01*
X127420623Y-116989455D01*
X127420621Y-116989456D01*
X127274544Y-117049963D01*
X127149102Y-117146218D01*
X127052847Y-117271660D01*
X126992340Y-117417737D01*
X126992339Y-117417739D01*
X126971702Y-117574498D01*
X124236276Y-117574498D01*
X124285044Y-117456762D01*
X124305682Y-117300000D01*
X124285044Y-117143238D01*
X124224536Y-116997159D01*
X124131171Y-116875484D01*
X124105979Y-116810317D01*
X124120017Y-116741873D01*
X124131167Y-116724521D01*
X124224536Y-116602841D01*
X124285044Y-116456762D01*
X124305682Y-116300000D01*
X124303164Y-116280876D01*
X124285044Y-116143239D01*
X124285044Y-116143238D01*
X124224536Y-115997159D01*
X124128282Y-115871718D01*
X124009242Y-115780376D01*
X130622316Y-115780376D01*
X130642797Y-115922832D01*
X130644531Y-115926628D01*
X130702586Y-116053749D01*
X130796835Y-116162519D01*
X130917910Y-116240329D01*
X130917913Y-116240330D01*
X130917912Y-116240330D01*
X131055999Y-116280875D01*
X131056001Y-116280876D01*
X131056002Y-116280876D01*
X131199925Y-116280876D01*
X131199925Y-116280875D01*
X131338016Y-116240329D01*
X131459091Y-116162519D01*
X131553340Y-116053749D01*
X131613128Y-115922833D01*
X131633610Y-115780376D01*
X131633398Y-115778902D01*
X131944353Y-115778902D01*
X131964834Y-115921358D01*
X132002046Y-116002839D01*
X132024623Y-116052275D01*
X132118872Y-116161045D01*
X132239947Y-116238855D01*
X132239950Y-116238856D01*
X132239949Y-116238856D01*
X132378036Y-116279401D01*
X132378038Y-116279402D01*
X132378039Y-116279402D01*
X132521962Y-116279402D01*
X132521962Y-116279401D01*
X132660053Y-116238855D01*
X132720513Y-116200000D01*
X143894353Y-116200000D01*
X143914834Y-116342456D01*
X143974622Y-116473371D01*
X143974625Y-116473377D01*
X144013983Y-116518798D01*
X144043008Y-116582353D01*
X144033064Y-116651512D01*
X144013983Y-116681202D01*
X143974625Y-116726622D01*
X143974622Y-116726628D01*
X143914834Y-116857543D01*
X143894353Y-117000000D01*
X143914834Y-117142456D01*
X143949269Y-117217856D01*
X143974623Y-117273373D01*
X144068872Y-117382143D01*
X144189947Y-117459953D01*
X144189950Y-117459954D01*
X144189949Y-117459954D01*
X144297107Y-117491417D01*
X144316660Y-117497159D01*
X144328036Y-117500499D01*
X144328038Y-117500500D01*
X144328039Y-117500500D01*
X144471962Y-117500500D01*
X144471962Y-117500499D01*
X144610050Y-117459954D01*
X144610051Y-117459954D01*
X144675739Y-117417739D01*
X144731128Y-117382143D01*
X144731129Y-117382141D01*
X144732960Y-117380965D01*
X144800000Y-117361280D01*
X144867039Y-117380964D01*
X144867040Y-117380965D01*
X144868870Y-117382141D01*
X144868872Y-117382143D01*
X144924259Y-117417738D01*
X144989948Y-117459954D01*
X145108108Y-117494647D01*
X145116660Y-117497159D01*
X145128036Y-117500499D01*
X145128038Y-117500500D01*
X145128039Y-117500500D01*
X145271962Y-117500500D01*
X145271962Y-117500499D01*
X145410053Y-117459953D01*
X145531128Y-117382143D01*
X145625377Y-117273373D01*
X145685165Y-117142457D01*
X145705647Y-117000000D01*
X145685165Y-116857543D01*
X145625377Y-116726627D01*
X145625375Y-116726625D01*
X145625374Y-116726622D01*
X145586017Y-116681203D01*
X145556991Y-116617648D01*
X145566934Y-116548489D01*
X145586017Y-116518797D01*
X145625374Y-116473377D01*
X145625374Y-116473375D01*
X145625377Y-116473373D01*
X145685165Y-116342457D01*
X145705647Y-116200000D01*
X145685165Y-116057543D01*
X145625377Y-115926627D01*
X145531128Y-115817857D01*
X145410053Y-115740047D01*
X145410051Y-115740046D01*
X145410049Y-115740045D01*
X145410050Y-115740045D01*
X145271963Y-115699500D01*
X145271961Y-115699500D01*
X145128039Y-115699500D01*
X145128036Y-115699500D01*
X144989949Y-115740045D01*
X144867039Y-115819035D01*
X144800000Y-115838719D01*
X144732961Y-115819035D01*
X144672806Y-115780376D01*
X144610053Y-115740047D01*
X144610051Y-115740046D01*
X144610049Y-115740045D01*
X144610050Y-115740045D01*
X144471963Y-115699500D01*
X144471961Y-115699500D01*
X144328039Y-115699500D01*
X144328036Y-115699500D01*
X144189949Y-115740045D01*
X144068873Y-115817856D01*
X143974623Y-115926626D01*
X143974622Y-115926628D01*
X143914834Y-116057543D01*
X143894353Y-116200000D01*
X132720513Y-116200000D01*
X132781128Y-116161045D01*
X132875377Y-116052275D01*
X132935165Y-115921359D01*
X132955647Y-115778902D01*
X132935165Y-115636445D01*
X132875377Y-115505529D01*
X132781128Y-115396759D01*
X132660053Y-115318949D01*
X132660051Y-115318948D01*
X132660049Y-115318947D01*
X132660050Y-115318947D01*
X132521963Y-115278402D01*
X132521961Y-115278402D01*
X132378039Y-115278402D01*
X132378036Y-115278402D01*
X132239949Y-115318947D01*
X132118873Y-115396758D01*
X132118872Y-115396758D01*
X132118872Y-115396759D01*
X132106290Y-115411279D01*
X132024623Y-115505528D01*
X132024622Y-115505530D01*
X131964834Y-115636445D01*
X131944353Y-115778902D01*
X131633398Y-115778902D01*
X131613128Y-115637919D01*
X131553340Y-115507003D01*
X131459091Y-115398233D01*
X131338016Y-115320423D01*
X131338014Y-115320422D01*
X131338012Y-115320421D01*
X131338013Y-115320421D01*
X131199926Y-115279876D01*
X131199924Y-115279876D01*
X131056002Y-115279876D01*
X131055999Y-115279876D01*
X130917912Y-115320421D01*
X130796836Y-115398232D01*
X130702586Y-115507002D01*
X130702585Y-115507004D01*
X130642797Y-115637919D01*
X130622316Y-115780376D01*
X124009242Y-115780376D01*
X124002841Y-115775464D01*
X123856762Y-115714956D01*
X123856760Y-115714955D01*
X123700001Y-115694318D01*
X123699999Y-115694318D01*
X123543239Y-115714955D01*
X123543237Y-115714956D01*
X123397157Y-115775464D01*
X123275486Y-115868826D01*
X123210317Y-115894020D01*
X123141872Y-115879981D01*
X123124514Y-115868826D01*
X123002842Y-115775464D01*
X122856762Y-115714956D01*
X122856760Y-115714955D01*
X122700001Y-115694318D01*
X122699999Y-115694318D01*
X122543239Y-115714955D01*
X122543237Y-115714956D01*
X122397160Y-115775463D01*
X122271718Y-115871718D01*
X122175463Y-115997160D01*
X122114956Y-116143237D01*
X122114955Y-116143239D01*
X122094318Y-116299998D01*
X119550500Y-116299998D01*
X119550500Y-114771497D01*
X125852406Y-114771497D01*
X125852406Y-114771500D01*
X125873043Y-114928259D01*
X125873044Y-114928261D01*
X125920345Y-115042457D01*
X125933552Y-115074340D01*
X126029806Y-115199781D01*
X126155247Y-115296035D01*
X126301326Y-115356543D01*
X126369354Y-115365499D01*
X126458087Y-115377181D01*
X126458088Y-115377181D01*
X126458089Y-115377181D01*
X126546814Y-115365500D01*
X126614850Y-115356543D01*
X126760929Y-115296035D01*
X126886085Y-115200000D01*
X135994353Y-115200000D01*
X136014834Y-115342456D01*
X136074622Y-115473371D01*
X136074623Y-115473373D01*
X136168872Y-115582143D01*
X136289947Y-115659953D01*
X136289950Y-115659954D01*
X136289949Y-115659954D01*
X136397107Y-115691417D01*
X136426336Y-115700000D01*
X136428036Y-115700499D01*
X136428038Y-115700500D01*
X136428039Y-115700500D01*
X136571962Y-115700500D01*
X136571962Y-115700499D01*
X136710053Y-115659953D01*
X136831128Y-115582143D01*
X136925377Y-115473373D01*
X136985165Y-115342457D01*
X136991269Y-115300000D01*
X141700000Y-115300000D01*
X142900000Y-115300000D01*
X142900000Y-114900000D01*
X144144353Y-114900000D01*
X144164834Y-115042456D01*
X144224622Y-115173371D01*
X144224623Y-115173373D01*
X144318872Y-115282143D01*
X144439947Y-115359953D01*
X144439950Y-115359954D01*
X144439949Y-115359954D01*
X144547107Y-115391417D01*
X144570318Y-115398233D01*
X144578036Y-115400499D01*
X144578038Y-115400500D01*
X144578039Y-115400500D01*
X144721962Y-115400500D01*
X144721962Y-115400499D01*
X144829121Y-115369035D01*
X144860050Y-115359954D01*
X144860050Y-115359953D01*
X144860053Y-115359953D01*
X144875540Y-115350000D01*
X146444353Y-115350000D01*
X146464834Y-115492456D01*
X146524622Y-115623371D01*
X146524623Y-115623373D01*
X146618872Y-115732143D01*
X146739947Y-115809953D01*
X146739950Y-115809954D01*
X146739949Y-115809954D01*
X146878036Y-115850499D01*
X146878038Y-115850500D01*
X146878039Y-115850500D01*
X147021962Y-115850500D01*
X147021962Y-115850499D01*
X147160053Y-115809953D01*
X147281128Y-115732143D01*
X147308982Y-115699998D01*
X149319318Y-115699998D01*
X149319318Y-115700001D01*
X149339955Y-115856760D01*
X149339956Y-115856762D01*
X149367323Y-115922833D01*
X149400464Y-116002841D01*
X149496718Y-116128282D01*
X149622159Y-116224536D01*
X149768238Y-116285044D01*
X149846619Y-116295363D01*
X149924999Y-116305682D01*
X149925000Y-116305682D01*
X149925001Y-116305682D01*
X149977254Y-116298802D01*
X150081762Y-116285044D01*
X150227841Y-116224536D01*
X150353282Y-116128282D01*
X150449536Y-116002841D01*
X150510044Y-115856762D01*
X150530682Y-115700000D01*
X150510044Y-115543238D01*
X150449536Y-115397159D01*
X150353282Y-115271718D01*
X150227841Y-115175464D01*
X150081762Y-115114956D01*
X150081760Y-115114955D01*
X149925001Y-115094318D01*
X149924999Y-115094318D01*
X149768239Y-115114955D01*
X149768237Y-115114956D01*
X149622160Y-115175463D01*
X149496718Y-115271718D01*
X149400463Y-115397160D01*
X149339956Y-115543237D01*
X149339955Y-115543239D01*
X149319318Y-115699998D01*
X147308982Y-115699998D01*
X147375377Y-115623373D01*
X147435165Y-115492457D01*
X147455647Y-115350000D01*
X147435165Y-115207543D01*
X147375377Y-115076627D01*
X147281128Y-114967857D01*
X147160053Y-114890047D01*
X147160051Y-114890046D01*
X147160049Y-114890045D01*
X147160050Y-114890045D01*
X147021963Y-114849500D01*
X147021961Y-114849500D01*
X146878039Y-114849500D01*
X146878036Y-114849500D01*
X146739949Y-114890045D01*
X146618873Y-114967856D01*
X146524623Y-115076626D01*
X146524622Y-115076628D01*
X146464834Y-115207543D01*
X146444353Y-115350000D01*
X144875540Y-115350000D01*
X144981128Y-115282143D01*
X145075377Y-115173373D01*
X145135165Y-115042457D01*
X145155647Y-114900000D01*
X145135165Y-114757543D01*
X145115386Y-114714234D01*
X152309500Y-114714234D01*
X152309500Y-114865766D01*
X152325808Y-114926628D01*
X152348719Y-115012136D01*
X152366225Y-115042456D01*
X152424485Y-115143365D01*
X152531635Y-115250515D01*
X152662865Y-115326281D01*
X152809234Y-115365500D01*
X152809236Y-115365500D01*
X152960764Y-115365500D01*
X152960766Y-115365500D01*
X153107135Y-115326281D01*
X153238365Y-115250515D01*
X153345515Y-115143365D01*
X153421281Y-115012135D01*
X153460500Y-114865766D01*
X153460500Y-114714234D01*
X153421281Y-114567865D01*
X153345515Y-114436635D01*
X153238365Y-114329485D01*
X153162115Y-114285462D01*
X153107136Y-114253719D01*
X153021315Y-114230724D01*
X152960766Y-114214500D01*
X152809234Y-114214500D01*
X152662863Y-114253719D01*
X152531635Y-114329485D01*
X152531632Y-114329487D01*
X152424487Y-114436632D01*
X152424485Y-114436635D01*
X152348719Y-114567863D01*
X152329269Y-114640453D01*
X152309500Y-114714234D01*
X145115386Y-114714234D01*
X145075377Y-114626627D01*
X144981128Y-114517857D01*
X144981125Y-114517855D01*
X144981126Y-114517855D01*
X144944151Y-114494093D01*
X144898397Y-114441289D01*
X144888453Y-114372131D01*
X144917478Y-114308575D01*
X144944149Y-114285464D01*
X145032243Y-114228850D01*
X145126492Y-114120080D01*
X145186280Y-113989164D01*
X145206762Y-113846707D01*
X145186280Y-113704250D01*
X145126492Y-113573334D01*
X145032243Y-113464564D01*
X145032241Y-113464562D01*
X145026435Y-113457862D01*
X145028062Y-113456451D01*
X144996799Y-113407808D01*
X144996797Y-113337939D01*
X145027263Y-113290529D01*
X145025320Y-113288845D01*
X145031126Y-113282144D01*
X145031128Y-113282143D01*
X145102305Y-113200000D01*
X146394353Y-113200000D01*
X146414834Y-113342456D01*
X146429919Y-113375487D01*
X146474623Y-113473373D01*
X146568872Y-113582143D01*
X146689947Y-113659953D01*
X146689950Y-113659954D01*
X146689949Y-113659954D01*
X146828036Y-113700499D01*
X146828038Y-113700500D01*
X146828039Y-113700500D01*
X146971962Y-113700500D01*
X146971962Y-113700499D01*
X147110053Y-113659953D01*
X147231128Y-113582143D01*
X147325377Y-113473373D01*
X147385165Y-113342457D01*
X147391270Y-113299998D01*
X152594318Y-113299998D01*
X152594318Y-113300001D01*
X152614955Y-113456760D01*
X152614956Y-113456762D01*
X152666890Y-113582143D01*
X152675464Y-113602841D01*
X152771718Y-113728282D01*
X152897159Y-113824536D01*
X153043238Y-113885044D01*
X153110552Y-113893906D01*
X153199999Y-113905682D01*
X153200000Y-113905682D01*
X153289444Y-113893906D01*
X153358476Y-113904671D01*
X153410732Y-113951051D01*
X153420185Y-113969387D01*
X153475464Y-114102841D01*
X153571718Y-114228282D01*
X153697159Y-114324536D01*
X153843238Y-114385044D01*
X153861795Y-114387487D01*
X153999999Y-114405682D01*
X154000000Y-114405682D01*
X154000001Y-114405682D01*
X154052254Y-114398802D01*
X154156762Y-114385044D01*
X154302841Y-114324536D01*
X154428282Y-114228282D01*
X154524536Y-114102841D01*
X154585044Y-113956762D01*
X154605360Y-113802444D01*
X154605682Y-113800001D01*
X154605682Y-113799998D01*
X154587245Y-113659954D01*
X154585044Y-113643238D01*
X154524536Y-113497159D01*
X154431171Y-113375484D01*
X154405979Y-113310317D01*
X154420017Y-113241873D01*
X154431167Y-113224521D01*
X154524536Y-113102841D01*
X154585044Y-112956762D01*
X154605682Y-112800000D01*
X154600092Y-112757543D01*
X154585044Y-112643239D01*
X154585042Y-112643234D01*
X154567034Y-112599757D01*
X154559565Y-112530288D01*
X154590841Y-112467809D01*
X154650930Y-112432157D01*
X154720755Y-112434651D01*
X154729026Y-112437736D01*
X154843238Y-112485044D01*
X154921619Y-112495363D01*
X154999999Y-112505682D01*
X155000000Y-112505682D01*
X155000001Y-112505682D01*
X155064739Y-112497159D01*
X155156762Y-112485044D01*
X155302841Y-112424536D01*
X155428282Y-112328282D01*
X155524536Y-112202841D01*
X155585044Y-112056762D01*
X155585044Y-112056761D01*
X155585439Y-112055808D01*
X155629280Y-112001404D01*
X155695574Y-111979339D01*
X155763273Y-111996618D01*
X155810884Y-112047755D01*
X155814561Y-112055808D01*
X155875462Y-112202838D01*
X155875463Y-112202839D01*
X155875464Y-112202841D01*
X155971718Y-112328282D01*
X156097159Y-112424536D01*
X156243238Y-112485044D01*
X156321619Y-112495363D01*
X156399999Y-112505682D01*
X156400000Y-112505682D01*
X156400001Y-112505682D01*
X156464739Y-112497159D01*
X156556762Y-112485044D01*
X156702841Y-112424536D01*
X156828282Y-112328282D01*
X156924536Y-112202841D01*
X156985044Y-112056762D01*
X157005682Y-111900000D01*
X156985044Y-111743238D01*
X156924536Y-111597159D01*
X156828282Y-111471718D01*
X156702841Y-111375464D01*
X156631153Y-111345770D01*
X156556762Y-111314956D01*
X156556760Y-111314955D01*
X156400001Y-111294318D01*
X156399999Y-111294318D01*
X156243239Y-111314955D01*
X156243237Y-111314956D01*
X156097160Y-111375463D01*
X155971718Y-111471718D01*
X155875463Y-111597160D01*
X155839010Y-111685166D01*
X155814957Y-111743237D01*
X155814561Y-111744192D01*
X155770720Y-111798595D01*
X155704426Y-111820660D01*
X155636727Y-111803381D01*
X155589116Y-111752244D01*
X155585439Y-111744192D01*
X155585044Y-111743238D01*
X155524536Y-111597159D01*
X155428282Y-111471718D01*
X155302841Y-111375464D01*
X155231153Y-111345770D01*
X155156762Y-111314956D01*
X155156760Y-111314955D01*
X155000001Y-111294318D01*
X154999999Y-111294318D01*
X154843239Y-111314955D01*
X154843237Y-111314956D01*
X154697160Y-111375463D01*
X154571718Y-111471718D01*
X154475463Y-111597160D01*
X154414956Y-111743237D01*
X154414955Y-111743239D01*
X154394318Y-111899998D01*
X154394318Y-111900001D01*
X154414955Y-112056760D01*
X154414956Y-112056762D01*
X154432966Y-112100243D01*
X154440433Y-112169712D01*
X154409158Y-112232191D01*
X154349068Y-112267843D01*
X154279243Y-112265348D01*
X154270958Y-112262257D01*
X154156762Y-112214956D01*
X154156760Y-112214955D01*
X154000001Y-112194318D01*
X153999999Y-112194318D01*
X153843239Y-112214955D01*
X153843237Y-112214956D01*
X153697160Y-112275463D01*
X153571718Y-112371718D01*
X153475463Y-112497160D01*
X153420188Y-112630607D01*
X153376347Y-112685010D01*
X153310053Y-112707075D01*
X153289442Y-112706093D01*
X153200001Y-112694318D01*
X153199999Y-112694318D01*
X153043239Y-112714955D01*
X153043237Y-112714956D01*
X152897160Y-112775463D01*
X152771718Y-112871718D01*
X152675463Y-112997160D01*
X152614956Y-113143237D01*
X152614955Y-113143239D01*
X152594318Y-113299998D01*
X147391270Y-113299998D01*
X147405647Y-113200000D01*
X147385165Y-113057543D01*
X147325377Y-112926627D01*
X147231128Y-112817857D01*
X147110053Y-112740047D01*
X147110051Y-112740046D01*
X147110049Y-112740045D01*
X147110050Y-112740045D01*
X146971963Y-112699500D01*
X146971961Y-112699500D01*
X146828039Y-112699500D01*
X146828036Y-112699500D01*
X146689949Y-112740045D01*
X146568873Y-112817856D01*
X146474623Y-112926626D01*
X146474622Y-112926628D01*
X146414834Y-113057543D01*
X146394353Y-113200000D01*
X145102305Y-113200000D01*
X145125377Y-113173373D01*
X145185165Y-113042457D01*
X145205647Y-112900000D01*
X145185165Y-112757543D01*
X145125377Y-112626627D01*
X145031128Y-112517857D01*
X144910053Y-112440047D01*
X144910051Y-112440046D01*
X144910049Y-112440045D01*
X144910050Y-112440045D01*
X144771963Y-112399500D01*
X144771961Y-112399500D01*
X144628039Y-112399500D01*
X144628036Y-112399500D01*
X144489949Y-112440045D01*
X144368873Y-112517856D01*
X144274623Y-112626626D01*
X144274622Y-112626628D01*
X144214834Y-112757543D01*
X144194353Y-112900000D01*
X144214834Y-113042456D01*
X144260861Y-113143239D01*
X144274623Y-113173373D01*
X144368872Y-113282143D01*
X144368873Y-113282143D01*
X144374680Y-113288845D01*
X144373052Y-113290255D01*
X144404314Y-113338896D01*
X144404318Y-113408765D01*
X144373853Y-113456179D01*
X144375795Y-113457862D01*
X144369988Y-113464563D01*
X144369987Y-113464564D01*
X144341743Y-113497160D01*
X144275738Y-113573333D01*
X144275737Y-113573335D01*
X144215949Y-113704250D01*
X144195468Y-113846707D01*
X144215949Y-113989163D01*
X144267864Y-114102839D01*
X144275738Y-114120080D01*
X144369987Y-114228850D01*
X144406962Y-114252612D01*
X144452717Y-114305416D01*
X144462661Y-114374574D01*
X144433636Y-114438130D01*
X144406963Y-114461243D01*
X144318874Y-114517855D01*
X144224623Y-114626626D01*
X144224622Y-114626628D01*
X144164834Y-114757543D01*
X144144353Y-114900000D01*
X142900000Y-114900000D01*
X142900000Y-113600000D01*
X141700000Y-113600000D01*
X141700000Y-115300000D01*
X136991269Y-115300000D01*
X137005647Y-115200000D01*
X136985165Y-115057543D01*
X136925377Y-114926627D01*
X136831128Y-114817857D01*
X136710053Y-114740047D01*
X136710051Y-114740046D01*
X136710049Y-114740045D01*
X136710050Y-114740045D01*
X136571963Y-114699500D01*
X136571961Y-114699500D01*
X136428039Y-114699500D01*
X136428036Y-114699500D01*
X136289949Y-114740045D01*
X136168873Y-114817856D01*
X136074623Y-114926626D01*
X136074622Y-114926628D01*
X136014834Y-115057543D01*
X135994353Y-115200000D01*
X126886085Y-115200000D01*
X126886370Y-115199781D01*
X126982624Y-115074340D01*
X127043132Y-114928261D01*
X127063770Y-114771499D01*
X127043132Y-114614737D01*
X126982624Y-114468658D01*
X126886370Y-114343217D01*
X126760929Y-114246963D01*
X126717200Y-114228850D01*
X126614850Y-114186455D01*
X126614848Y-114186454D01*
X126569621Y-114180500D01*
X137994353Y-114180500D01*
X138014834Y-114322956D01*
X138067433Y-114438130D01*
X138074623Y-114453873D01*
X138168872Y-114562643D01*
X138289947Y-114640453D01*
X138289950Y-114640454D01*
X138289949Y-114640454D01*
X138428036Y-114680999D01*
X138428038Y-114681000D01*
X138428039Y-114681000D01*
X138571962Y-114681000D01*
X138571962Y-114680999D01*
X138710053Y-114640453D01*
X138831128Y-114562643D01*
X138925377Y-114453873D01*
X138941813Y-114417882D01*
X138987567Y-114365080D01*
X139054607Y-114345395D01*
X139102059Y-114354833D01*
X139180891Y-114387487D01*
X139259272Y-114397806D01*
X139337652Y-114408125D01*
X139337653Y-114408125D01*
X139337654Y-114408125D01*
X139389907Y-114401245D01*
X139494415Y-114387487D01*
X139640494Y-114326979D01*
X139765935Y-114230725D01*
X139862189Y-114105284D01*
X139922697Y-113959205D01*
X139943335Y-113802443D01*
X139943013Y-113800000D01*
X139922697Y-113645682D01*
X139922697Y-113645681D01*
X139862189Y-113499602D01*
X139765935Y-113374161D01*
X139762751Y-113371718D01*
X139755690Y-113366299D01*
X139714488Y-113309871D01*
X139710335Y-113240124D01*
X139737464Y-113186724D01*
X139778204Y-113139708D01*
X139837992Y-113008792D01*
X139858474Y-112866335D01*
X139837992Y-112723878D01*
X139778204Y-112592962D01*
X139683955Y-112484192D01*
X139562880Y-112406382D01*
X139562878Y-112406381D01*
X139562876Y-112406380D01*
X139562877Y-112406380D01*
X139424790Y-112365835D01*
X139424788Y-112365835D01*
X139280866Y-112365835D01*
X139280863Y-112365835D01*
X139142776Y-112406380D01*
X139021700Y-112484191D01*
X138927450Y-112592961D01*
X138927449Y-112592963D01*
X138867661Y-112723878D01*
X138847180Y-112866335D01*
X138867661Y-113008791D01*
X138927449Y-113139706D01*
X138927452Y-113139712D01*
X138956068Y-113172736D01*
X138985093Y-113236291D01*
X138975149Y-113305450D01*
X138937844Y-113352312D01*
X138909372Y-113374159D01*
X138813116Y-113499603D01*
X138762971Y-113620665D01*
X138719130Y-113675068D01*
X138652836Y-113697133D01*
X138613476Y-113692189D01*
X138571964Y-113680000D01*
X138571961Y-113680000D01*
X138428039Y-113680000D01*
X138428036Y-113680000D01*
X138289949Y-113720545D01*
X138168873Y-113798356D01*
X138168872Y-113798356D01*
X138168872Y-113798357D01*
X138165331Y-113802444D01*
X138074623Y-113907126D01*
X138074622Y-113907128D01*
X138014834Y-114038043D01*
X137994353Y-114180500D01*
X126569621Y-114180500D01*
X126458089Y-114165817D01*
X126458087Y-114165817D01*
X126301327Y-114186454D01*
X126301325Y-114186455D01*
X126155248Y-114246962D01*
X126029806Y-114343217D01*
X125933551Y-114468659D01*
X125873044Y-114614736D01*
X125873043Y-114614738D01*
X125852406Y-114771497D01*
X119550500Y-114771497D01*
X119550500Y-111184667D01*
X123518853Y-111184667D01*
X123539334Y-111327123D01*
X123547850Y-111345769D01*
X123599123Y-111458040D01*
X123693372Y-111566810D01*
X123814447Y-111644620D01*
X123814450Y-111644621D01*
X123814449Y-111644621D01*
X123921607Y-111676084D01*
X123943653Y-111682558D01*
X123952536Y-111685166D01*
X123952538Y-111685167D01*
X124067627Y-111685167D01*
X124134666Y-111704852D01*
X124180421Y-111757656D01*
X124190365Y-111826814D01*
X124166003Y-111884653D01*
X124150964Y-111904251D01*
X124090456Y-112050331D01*
X124090455Y-112050333D01*
X124069818Y-112207092D01*
X124069818Y-112207095D01*
X124090455Y-112363854D01*
X124090456Y-112363856D01*
X124122014Y-112440045D01*
X124150964Y-112509935D01*
X124247218Y-112635376D01*
X124372659Y-112731630D01*
X124518738Y-112792138D01*
X124578441Y-112799998D01*
X124675499Y-112812776D01*
X124675500Y-112812776D01*
X124675501Y-112812776D01*
X124727754Y-112805896D01*
X124832262Y-112792138D01*
X124978341Y-112731630D01*
X125103782Y-112635376D01*
X125200036Y-112509935D01*
X125260544Y-112363856D01*
X125281182Y-112207094D01*
X125260544Y-112050332D01*
X125200036Y-111904253D01*
X125103782Y-111778812D01*
X124978341Y-111682558D01*
X124832262Y-111622050D01*
X124832260Y-111622049D01*
X124675501Y-111601412D01*
X124675499Y-111601412D01*
X124587775Y-111612961D01*
X124518740Y-111602195D01*
X124466484Y-111555815D01*
X124447599Y-111488546D01*
X124458796Y-111438510D01*
X124509665Y-111327124D01*
X124530147Y-111184667D01*
X124509665Y-111042210D01*
X124449877Y-110911294D01*
X124427800Y-110885816D01*
X140438033Y-110885816D01*
X140458514Y-111028272D01*
X140518302Y-111159187D01*
X140518303Y-111159189D01*
X140612552Y-111267959D01*
X140733627Y-111345769D01*
X140733630Y-111345770D01*
X140733629Y-111345770D01*
X140871716Y-111386315D01*
X140871718Y-111386316D01*
X140871719Y-111386316D01*
X141015642Y-111386316D01*
X141015642Y-111386315D01*
X141153733Y-111345769D01*
X141274808Y-111267959D01*
X141369057Y-111159189D01*
X141428845Y-111028273D01*
X141449327Y-110885816D01*
X141428845Y-110743359D01*
X141389103Y-110656337D01*
X141379159Y-110587178D01*
X141408184Y-110523623D01*
X141426404Y-110506455D01*
X141528282Y-110428282D01*
X141624536Y-110302841D01*
X141685044Y-110156762D01*
X141705682Y-110000000D01*
X141702563Y-109976311D01*
X141685044Y-109843239D01*
X141685044Y-109843238D01*
X141625712Y-109699998D01*
X142994318Y-109699998D01*
X142994318Y-109700001D01*
X143014955Y-109856760D01*
X143014956Y-109856762D01*
X143074287Y-110000001D01*
X143075464Y-110002841D01*
X143171718Y-110128282D01*
X143297159Y-110224536D01*
X143443238Y-110285044D01*
X143521619Y-110295363D01*
X143599999Y-110305682D01*
X143600000Y-110305682D01*
X143600001Y-110305682D01*
X143661564Y-110297577D01*
X143756762Y-110285044D01*
X143902841Y-110224536D01*
X144024515Y-110131171D01*
X144089683Y-110105979D01*
X144158127Y-110120017D01*
X144175478Y-110131167D01*
X144297159Y-110224536D01*
X144443238Y-110285044D01*
X144521619Y-110295363D01*
X144599999Y-110305682D01*
X144600000Y-110305682D01*
X144600001Y-110305682D01*
X144661564Y-110297577D01*
X144756762Y-110285044D01*
X144902841Y-110224536D01*
X145028282Y-110128282D01*
X145124536Y-110002841D01*
X145146424Y-109949998D01*
X150029816Y-109949998D01*
X150029816Y-109950001D01*
X150050453Y-110106760D01*
X150050454Y-110106762D01*
X150110962Y-110252841D01*
X150207216Y-110378282D01*
X150332657Y-110474536D01*
X150478736Y-110535044D01*
X150557117Y-110545363D01*
X150635497Y-110555682D01*
X150635498Y-110555682D01*
X150635499Y-110555682D01*
X150687752Y-110548802D01*
X150792260Y-110535044D01*
X150938339Y-110474536D01*
X151063780Y-110378282D01*
X151160034Y-110252841D01*
X151220542Y-110106762D01*
X151241180Y-109950000D01*
X151237356Y-109920957D01*
X151220542Y-109793239D01*
X151220542Y-109793238D01*
X151160034Y-109647159D01*
X151063780Y-109521718D01*
X150938339Y-109425464D01*
X150912970Y-109414956D01*
X150792260Y-109364956D01*
X150792258Y-109364955D01*
X150635499Y-109344318D01*
X150635497Y-109344318D01*
X150478737Y-109364955D01*
X150478735Y-109364956D01*
X150332658Y-109425463D01*
X150207216Y-109521718D01*
X150110961Y-109647160D01*
X150050454Y-109793237D01*
X150050453Y-109793239D01*
X150029816Y-109949998D01*
X145146424Y-109949998D01*
X145185044Y-109856762D01*
X145205682Y-109700000D01*
X145198725Y-109647159D01*
X145186694Y-109555770D01*
X145185044Y-109543238D01*
X145124536Y-109397159D01*
X145028282Y-109271718D01*
X144902841Y-109175464D01*
X144756762Y-109114956D01*
X144756760Y-109114955D01*
X144600001Y-109094318D01*
X144599999Y-109094318D01*
X144443239Y-109114955D01*
X144443237Y-109114956D01*
X144297157Y-109175464D01*
X144175486Y-109268826D01*
X144110317Y-109294020D01*
X144041872Y-109279981D01*
X144024514Y-109268826D01*
X143902842Y-109175464D01*
X143756762Y-109114956D01*
X143756760Y-109114955D01*
X143600001Y-109094318D01*
X143599999Y-109094318D01*
X143443239Y-109114955D01*
X143443237Y-109114956D01*
X143297160Y-109175463D01*
X143171718Y-109271718D01*
X143075463Y-109397160D01*
X143014956Y-109543237D01*
X143014955Y-109543239D01*
X142994318Y-109699998D01*
X141625712Y-109699998D01*
X141624536Y-109697159D01*
X141528282Y-109571718D01*
X141402841Y-109475464D01*
X141387001Y-109468903D01*
X141256762Y-109414956D01*
X141256760Y-109414955D01*
X141100001Y-109394318D01*
X141099999Y-109394318D01*
X140943239Y-109414955D01*
X140943237Y-109414956D01*
X140797160Y-109475463D01*
X140671718Y-109571718D01*
X140575463Y-109697160D01*
X140514956Y-109843237D01*
X140514955Y-109843239D01*
X140494318Y-109999998D01*
X140494318Y-110000001D01*
X140514955Y-110156760D01*
X140514956Y-110156762D01*
X140573283Y-110297577D01*
X140575464Y-110302841D01*
X140613036Y-110351806D01*
X140638230Y-110416975D01*
X140624192Y-110485419D01*
X140608374Y-110508494D01*
X140518303Y-110612443D01*
X140518302Y-110612444D01*
X140458514Y-110743359D01*
X140438033Y-110885816D01*
X124427800Y-110885816D01*
X124355628Y-110802524D01*
X124234553Y-110724714D01*
X124234551Y-110724713D01*
X124234549Y-110724712D01*
X124234550Y-110724712D01*
X124096463Y-110684167D01*
X124096461Y-110684167D01*
X123952539Y-110684167D01*
X123952536Y-110684167D01*
X123814449Y-110724712D01*
X123693373Y-110802523D01*
X123599123Y-110911293D01*
X123599122Y-110911295D01*
X123539334Y-111042210D01*
X123518853Y-111184667D01*
X119550500Y-111184667D01*
X119550500Y-109712531D01*
X124134939Y-109712531D01*
X124134939Y-109712534D01*
X124155576Y-109869293D01*
X124155577Y-109869295D01*
X124210893Y-110002841D01*
X124216085Y-110015374D01*
X124312339Y-110140815D01*
X124437780Y-110237069D01*
X124583859Y-110297577D01*
X124645423Y-110305682D01*
X124740620Y-110318215D01*
X124740621Y-110318215D01*
X124740622Y-110318215D01*
X124792875Y-110311335D01*
X124897383Y-110297577D01*
X125012244Y-110250000D01*
X134994353Y-110250000D01*
X135014834Y-110392456D01*
X135057290Y-110485419D01*
X135074623Y-110523373D01*
X135168872Y-110632143D01*
X135289947Y-110709953D01*
X135289950Y-110709954D01*
X135289949Y-110709954D01*
X135397107Y-110741417D01*
X135426959Y-110750183D01*
X135428036Y-110750499D01*
X135428038Y-110750500D01*
X135428039Y-110750500D01*
X135571962Y-110750500D01*
X135571962Y-110750499D01*
X135710053Y-110709953D01*
X135831128Y-110632143D01*
X135844681Y-110616501D01*
X135903456Y-110578727D01*
X135973326Y-110578725D01*
X136032103Y-110616497D01*
X136045386Y-110631826D01*
X136045387Y-110631827D01*
X136045879Y-110632143D01*
X136166461Y-110709636D01*
X136166464Y-110709637D01*
X136166463Y-110709637D01*
X136304550Y-110750182D01*
X136304552Y-110750183D01*
X136304553Y-110750183D01*
X136448476Y-110750183D01*
X136448476Y-110750182D01*
X136585484Y-110709954D01*
X136586564Y-110709637D01*
X136586564Y-110709636D01*
X136586567Y-110709636D01*
X136707642Y-110631826D01*
X136801891Y-110523056D01*
X136861679Y-110392140D01*
X136882161Y-110249683D01*
X136861679Y-110107226D01*
X136812710Y-110000000D01*
X137294353Y-110000000D01*
X137314834Y-110142456D01*
X137358043Y-110237069D01*
X137374623Y-110273373D01*
X137468872Y-110382143D01*
X137589947Y-110459953D01*
X137589950Y-110459954D01*
X137589949Y-110459954D01*
X137728036Y-110500499D01*
X137728038Y-110500500D01*
X137728039Y-110500500D01*
X137871962Y-110500500D01*
X137871962Y-110500499D01*
X138010053Y-110459953D01*
X138131128Y-110382143D01*
X138225377Y-110273373D01*
X138285165Y-110142457D01*
X138305647Y-110000000D01*
X138894353Y-110000000D01*
X138914834Y-110142456D01*
X138958043Y-110237069D01*
X138974623Y-110273373D01*
X139068872Y-110382143D01*
X139189947Y-110459953D01*
X139189950Y-110459954D01*
X139189949Y-110459954D01*
X139328036Y-110500499D01*
X139328038Y-110500500D01*
X139328039Y-110500500D01*
X139471962Y-110500500D01*
X139471962Y-110500499D01*
X139610053Y-110459953D01*
X139731128Y-110382143D01*
X139825377Y-110273373D01*
X139885165Y-110142457D01*
X139905647Y-110000000D01*
X139885165Y-109857543D01*
X139825377Y-109726627D01*
X139731128Y-109617857D01*
X139610053Y-109540047D01*
X139610051Y-109540046D01*
X139610049Y-109540045D01*
X139610050Y-109540045D01*
X139471963Y-109499500D01*
X139471961Y-109499500D01*
X139328039Y-109499500D01*
X139328036Y-109499500D01*
X139189949Y-109540045D01*
X139068873Y-109617856D01*
X138974623Y-109726626D01*
X138974622Y-109726628D01*
X138914834Y-109857543D01*
X138894353Y-110000000D01*
X138305647Y-110000000D01*
X138285165Y-109857543D01*
X138225377Y-109726627D01*
X138131128Y-109617857D01*
X138010053Y-109540047D01*
X138010051Y-109540046D01*
X138010049Y-109540045D01*
X138010050Y-109540045D01*
X137871963Y-109499500D01*
X137871961Y-109499500D01*
X137728039Y-109499500D01*
X137728036Y-109499500D01*
X137589949Y-109540045D01*
X137468873Y-109617856D01*
X137374623Y-109726626D01*
X137374622Y-109726628D01*
X137314834Y-109857543D01*
X137294353Y-110000000D01*
X136812710Y-110000000D01*
X136801891Y-109976310D01*
X136707642Y-109867540D01*
X136586567Y-109789730D01*
X136586565Y-109789729D01*
X136586563Y-109789728D01*
X136586564Y-109789728D01*
X136448477Y-109749183D01*
X136448475Y-109749183D01*
X136304553Y-109749183D01*
X136304550Y-109749183D01*
X136166463Y-109789728D01*
X136045386Y-109867540D01*
X136031830Y-109883184D01*
X135973051Y-109920957D01*
X135903182Y-109920955D01*
X135844407Y-109883182D01*
X135831128Y-109867857D01*
X135831127Y-109867856D01*
X135831126Y-109867855D01*
X135763803Y-109824590D01*
X135710053Y-109790047D01*
X135710051Y-109790046D01*
X135710049Y-109790045D01*
X135710050Y-109790045D01*
X135571963Y-109749500D01*
X135571961Y-109749500D01*
X135428039Y-109749500D01*
X135428036Y-109749500D01*
X135289949Y-109790045D01*
X135168873Y-109867856D01*
X135074623Y-109976626D01*
X135074622Y-109976628D01*
X135014834Y-110107543D01*
X134994353Y-110250000D01*
X125012244Y-110250000D01*
X125043462Y-110237069D01*
X125168903Y-110140815D01*
X125265157Y-110015374D01*
X125325665Y-109869295D01*
X125341093Y-109752104D01*
X125369359Y-109688208D01*
X125427684Y-109649737D01*
X125447839Y-109645352D01*
X125597383Y-109625665D01*
X125743462Y-109565157D01*
X125868903Y-109468903D01*
X125965157Y-109343462D01*
X126025665Y-109197383D01*
X126046303Y-109040621D01*
X126032297Y-108934234D01*
X152309500Y-108934234D01*
X152309500Y-109085766D01*
X152320680Y-109127489D01*
X152348719Y-109232136D01*
X152371572Y-109271718D01*
X152424485Y-109363365D01*
X152531635Y-109470515D01*
X152620321Y-109521718D01*
X152657592Y-109543237D01*
X152662865Y-109546281D01*
X152809234Y-109585500D01*
X152809236Y-109585500D01*
X152960764Y-109585500D01*
X152960766Y-109585500D01*
X153107135Y-109546281D01*
X153238365Y-109470515D01*
X153345515Y-109363365D01*
X153421281Y-109232135D01*
X153460500Y-109085766D01*
X153460500Y-108934234D01*
X153421281Y-108787865D01*
X153345515Y-108656635D01*
X153238365Y-108549485D01*
X153162496Y-108505682D01*
X153107136Y-108473719D01*
X153013519Y-108448635D01*
X152960766Y-108434500D01*
X152809234Y-108434500D01*
X152662863Y-108473719D01*
X152531635Y-108549485D01*
X152531632Y-108549487D01*
X152424487Y-108656632D01*
X152424485Y-108656635D01*
X152348719Y-108787863D01*
X152309500Y-108934234D01*
X126032297Y-108934234D01*
X126025665Y-108883859D01*
X125965157Y-108737780D01*
X125965156Y-108737779D01*
X125965156Y-108737778D01*
X125879614Y-108626298D01*
X125854420Y-108561129D01*
X125868458Y-108492684D01*
X125917272Y-108442695D01*
X125985364Y-108427031D01*
X126025439Y-108436250D01*
X126143238Y-108485044D01*
X126201270Y-108492684D01*
X126299999Y-108505682D01*
X126300000Y-108505682D01*
X126300001Y-108505682D01*
X126352254Y-108498802D01*
X126456762Y-108485044D01*
X126602841Y-108424536D01*
X126728282Y-108328282D01*
X126824536Y-108202841D01*
X126825713Y-108200000D01*
X148294353Y-108200000D01*
X148314834Y-108342456D01*
X148363325Y-108448635D01*
X148374623Y-108473373D01*
X148468872Y-108582143D01*
X148589947Y-108659953D01*
X148589950Y-108659954D01*
X148589949Y-108659954D01*
X148728036Y-108700499D01*
X148728038Y-108700500D01*
X148728039Y-108700500D01*
X148871962Y-108700500D01*
X148871962Y-108700499D01*
X149010053Y-108659953D01*
X149131128Y-108582143D01*
X149225377Y-108473373D01*
X149285165Y-108342457D01*
X149305647Y-108200000D01*
X149285165Y-108057543D01*
X149225377Y-107926627D01*
X149131128Y-107817857D01*
X149010053Y-107740047D01*
X149010051Y-107740046D01*
X149010049Y-107740045D01*
X149010050Y-107740045D01*
X148871963Y-107699500D01*
X148871961Y-107699500D01*
X148728039Y-107699500D01*
X148728036Y-107699500D01*
X148589949Y-107740045D01*
X148468873Y-107817856D01*
X148374623Y-107926626D01*
X148374622Y-107926628D01*
X148314834Y-108057543D01*
X148294353Y-108200000D01*
X126825713Y-108200000D01*
X126885044Y-108056762D01*
X126905682Y-107900000D01*
X126885044Y-107743238D01*
X126824536Y-107597159D01*
X126731171Y-107475484D01*
X126705979Y-107410317D01*
X126720017Y-107341873D01*
X126731167Y-107324521D01*
X126824536Y-107202841D01*
X126885044Y-107056762D01*
X126905682Y-106900000D01*
X126904849Y-106893675D01*
X126885044Y-106743239D01*
X126885044Y-106743238D01*
X126824536Y-106597159D01*
X126728282Y-106471718D01*
X126687598Y-106440500D01*
X132394853Y-106440500D01*
X132415334Y-106582956D01*
X132451867Y-106662950D01*
X132475123Y-106713873D01*
X132569372Y-106822643D01*
X132690447Y-106900453D01*
X132690450Y-106900454D01*
X132690449Y-106900454D01*
X132828536Y-106940999D01*
X132828538Y-106941000D01*
X132828539Y-106941000D01*
X132972462Y-106941000D01*
X132972462Y-106940999D01*
X132988391Y-106936322D01*
X135830675Y-106936322D01*
X135851156Y-107078778D01*
X135888228Y-107159953D01*
X135910945Y-107209695D01*
X136005194Y-107318465D01*
X136126269Y-107396275D01*
X136126272Y-107396276D01*
X136126271Y-107396276D01*
X136264358Y-107436821D01*
X136264360Y-107436822D01*
X136264361Y-107436822D01*
X136408284Y-107436822D01*
X136408284Y-107436821D01*
X136546375Y-107396275D01*
X136612735Y-107353628D01*
X138144853Y-107353628D01*
X138165334Y-107496084D01*
X138211494Y-107597159D01*
X138225123Y-107627001D01*
X138319372Y-107735771D01*
X138440447Y-107813581D01*
X138440450Y-107813582D01*
X138440449Y-107813582D01*
X138578536Y-107854127D01*
X138578538Y-107854128D01*
X138578539Y-107854128D01*
X138722462Y-107854128D01*
X138722462Y-107854127D01*
X138860553Y-107813581D01*
X138981628Y-107735771D01*
X139075877Y-107627001D01*
X139135665Y-107496085D01*
X139150789Y-107390894D01*
X139402561Y-107390894D01*
X139423042Y-107533350D01*
X139452183Y-107597159D01*
X139482831Y-107664267D01*
X139577080Y-107773037D01*
X139698155Y-107850847D01*
X139698158Y-107850848D01*
X139698157Y-107850848D01*
X139836244Y-107891393D01*
X139836246Y-107891394D01*
X139836247Y-107891394D01*
X139980170Y-107891394D01*
X139980170Y-107891393D01*
X140118261Y-107850847D01*
X140239336Y-107773037D01*
X140329132Y-107669405D01*
X140387910Y-107631631D01*
X140457779Y-107631631D01*
X140489885Y-107646292D01*
X140588943Y-107709953D01*
X140588946Y-107709954D01*
X140588945Y-107709954D01*
X140727032Y-107750499D01*
X140727034Y-107750500D01*
X140727035Y-107750500D01*
X140870958Y-107750500D01*
X140870958Y-107750499D01*
X141009046Y-107709954D01*
X141009047Y-107709954D01*
X141009049Y-107709953D01*
X141130124Y-107632143D01*
X141130125Y-107632141D01*
X141131707Y-107631125D01*
X141198747Y-107611440D01*
X141265786Y-107631124D01*
X141265786Y-107631125D01*
X141388443Y-107709952D01*
X141388448Y-107709954D01*
X141526535Y-107750499D01*
X141526537Y-107750500D01*
X141526538Y-107750500D01*
X141670461Y-107750500D01*
X141670461Y-107750499D01*
X141808552Y-107709953D01*
X141929627Y-107632143D01*
X142023876Y-107523373D01*
X142083664Y-107392457D01*
X142104146Y-107250000D01*
X142083664Y-107107543D01*
X142023876Y-106976627D01*
X141929627Y-106867857D01*
X141808552Y-106790047D01*
X141808550Y-106790046D01*
X141808548Y-106790045D01*
X141808549Y-106790045D01*
X141670462Y-106749500D01*
X141670460Y-106749500D01*
X141526538Y-106749500D01*
X141526535Y-106749500D01*
X141388448Y-106790045D01*
X141265786Y-106868875D01*
X141198746Y-106888559D01*
X141131708Y-106868875D01*
X141107205Y-106853128D01*
X141009049Y-106790047D01*
X141009047Y-106790046D01*
X141009045Y-106790045D01*
X141009046Y-106790045D01*
X140870959Y-106749500D01*
X140870957Y-106749500D01*
X140727035Y-106749500D01*
X140727032Y-106749500D01*
X140588945Y-106790045D01*
X140467869Y-106867856D01*
X140378071Y-106971488D01*
X140319292Y-107009262D01*
X140249423Y-107009262D01*
X140217319Y-106994601D01*
X140118258Y-106930939D01*
X139980171Y-106890394D01*
X139980169Y-106890394D01*
X139836247Y-106890394D01*
X139836244Y-106890394D01*
X139698157Y-106930939D01*
X139577081Y-107008750D01*
X139482831Y-107117520D01*
X139482830Y-107117522D01*
X139423042Y-107248437D01*
X139402561Y-107390894D01*
X139150789Y-107390894D01*
X139156147Y-107353628D01*
X139135665Y-107211171D01*
X139075877Y-107080255D01*
X138981628Y-106971485D01*
X138860553Y-106893675D01*
X138860551Y-106893674D01*
X138860549Y-106893673D01*
X138860550Y-106893673D01*
X138722463Y-106853128D01*
X138722461Y-106853128D01*
X138578539Y-106853128D01*
X138578536Y-106853128D01*
X138440449Y-106893673D01*
X138319373Y-106971484D01*
X138319372Y-106971484D01*
X138319372Y-106971485D01*
X138314916Y-106976628D01*
X138225123Y-107080254D01*
X138225122Y-107080256D01*
X138165334Y-107211171D01*
X138144853Y-107353628D01*
X136612735Y-107353628D01*
X136667450Y-107318465D01*
X136761699Y-107209695D01*
X136821487Y-107078779D01*
X136841969Y-106936322D01*
X136821487Y-106793865D01*
X136778620Y-106700000D01*
X148194353Y-106700000D01*
X148214834Y-106842456D01*
X148262603Y-106947053D01*
X148274623Y-106973373D01*
X148368872Y-107082143D01*
X148489947Y-107159953D01*
X148489950Y-107159954D01*
X148489949Y-107159954D01*
X148628036Y-107200499D01*
X148628038Y-107200500D01*
X148628039Y-107200500D01*
X148771962Y-107200500D01*
X148771962Y-107200499D01*
X148910053Y-107159953D01*
X149031128Y-107082143D01*
X149125377Y-106973373D01*
X149185165Y-106842457D01*
X149198458Y-106750000D01*
X149744353Y-106750000D01*
X149764834Y-106892456D01*
X149803275Y-106976628D01*
X149824623Y-107023373D01*
X149918872Y-107132143D01*
X150039947Y-107209953D01*
X150039950Y-107209954D01*
X150039949Y-107209954D01*
X150124627Y-107234817D01*
X150176336Y-107250000D01*
X150178036Y-107250499D01*
X150178038Y-107250500D01*
X150178039Y-107250500D01*
X150321962Y-107250500D01*
X150321962Y-107250499D01*
X150460053Y-107209953D01*
X150581128Y-107132143D01*
X150675377Y-107023373D01*
X150735165Y-106892457D01*
X150755647Y-106750000D01*
X150735165Y-106607543D01*
X150675377Y-106476627D01*
X150581128Y-106367857D01*
X150460053Y-106290047D01*
X150460051Y-106290046D01*
X150460049Y-106290045D01*
X150460050Y-106290045D01*
X150321963Y-106249500D01*
X150321961Y-106249500D01*
X150178039Y-106249500D01*
X150178036Y-106249500D01*
X150039949Y-106290045D01*
X149918873Y-106367856D01*
X149824623Y-106476626D01*
X149824622Y-106476628D01*
X149764834Y-106607543D01*
X149744353Y-106750000D01*
X149198458Y-106750000D01*
X149205647Y-106700000D01*
X149185165Y-106557543D01*
X149125377Y-106426627D01*
X149031128Y-106317857D01*
X148910053Y-106240047D01*
X148910051Y-106240046D01*
X148910049Y-106240045D01*
X148910050Y-106240045D01*
X148771963Y-106199500D01*
X148771961Y-106199500D01*
X148628039Y-106199500D01*
X148628036Y-106199500D01*
X148489949Y-106240045D01*
X148368873Y-106317856D01*
X148274623Y-106426626D01*
X148274622Y-106426628D01*
X148214834Y-106557543D01*
X148194353Y-106700000D01*
X136778620Y-106700000D01*
X136761699Y-106662949D01*
X136667450Y-106554179D01*
X136667447Y-106554177D01*
X136649958Y-106542937D01*
X136604203Y-106490132D01*
X136594260Y-106420974D01*
X136623286Y-106357418D01*
X136649954Y-106334309D01*
X136731128Y-106282143D01*
X136825377Y-106173373D01*
X136885165Y-106042457D01*
X136905647Y-105900000D01*
X136885165Y-105757543D01*
X136825377Y-105626627D01*
X136731128Y-105517857D01*
X136610053Y-105440047D01*
X136610051Y-105440046D01*
X136610049Y-105440045D01*
X136610050Y-105440045D01*
X136471963Y-105399500D01*
X136471961Y-105399500D01*
X136328039Y-105399500D01*
X136328036Y-105399500D01*
X136189949Y-105440045D01*
X136068873Y-105517856D01*
X135974623Y-105626626D01*
X135974622Y-105626628D01*
X135914834Y-105757543D01*
X135894353Y-105900000D01*
X135914834Y-106042456D01*
X135971771Y-106167128D01*
X135974623Y-106173373D01*
X136068872Y-106282143D01*
X136081168Y-106290045D01*
X136086362Y-106293383D01*
X136132117Y-106346187D01*
X136142061Y-106415346D01*
X136113036Y-106478902D01*
X136086363Y-106502014D01*
X136005196Y-106554177D01*
X135910945Y-106662948D01*
X135910944Y-106662950D01*
X135851156Y-106793865D01*
X135830675Y-106936322D01*
X132988391Y-106936322D01*
X133110553Y-106900453D01*
X133231628Y-106822643D01*
X133325877Y-106713873D01*
X133385665Y-106582957D01*
X133406147Y-106440500D01*
X133385665Y-106298043D01*
X133325877Y-106167127D01*
X133231628Y-106058357D01*
X133110553Y-105980547D01*
X133110551Y-105980546D01*
X133110549Y-105980545D01*
X133110550Y-105980545D01*
X132972463Y-105940000D01*
X132972461Y-105940000D01*
X132828539Y-105940000D01*
X132828536Y-105940000D01*
X132690449Y-105980545D01*
X132569373Y-106058356D01*
X132475123Y-106167126D01*
X132475122Y-106167128D01*
X132415334Y-106298043D01*
X132394853Y-106440500D01*
X126687598Y-106440500D01*
X126602841Y-106375464D01*
X126598995Y-106373871D01*
X126456762Y-106314956D01*
X126456760Y-106314955D01*
X126300001Y-106294318D01*
X126299999Y-106294318D01*
X126143239Y-106314955D01*
X126143237Y-106314956D01*
X125997157Y-106375464D01*
X125875486Y-106468826D01*
X125810317Y-106494020D01*
X125741872Y-106479981D01*
X125724514Y-106468826D01*
X125602842Y-106375464D01*
X125456762Y-106314956D01*
X125456760Y-106314955D01*
X125300001Y-106294318D01*
X125299999Y-106294318D01*
X125143239Y-106314955D01*
X125143237Y-106314956D01*
X124997160Y-106375463D01*
X124871718Y-106471718D01*
X124775463Y-106597160D01*
X124714956Y-106743237D01*
X124714955Y-106743239D01*
X124694318Y-106899998D01*
X124694318Y-106900001D01*
X124714955Y-107056760D01*
X124714956Y-107056762D01*
X124775464Y-107202842D01*
X124868826Y-107324514D01*
X124894020Y-107389683D01*
X124879981Y-107458128D01*
X124868826Y-107475486D01*
X124775464Y-107597157D01*
X124714956Y-107743237D01*
X124714955Y-107743239D01*
X124694318Y-107899998D01*
X124694318Y-107900001D01*
X124714955Y-108056760D01*
X124714956Y-108056762D01*
X124775464Y-108202841D01*
X124871718Y-108328282D01*
X124997159Y-108424536D01*
X124999836Y-108426590D01*
X125041038Y-108483018D01*
X125045193Y-108552764D01*
X125016225Y-108605077D01*
X125017287Y-108605892D01*
X125012341Y-108612337D01*
X125012339Y-108612339D01*
X124978352Y-108656632D01*
X124916084Y-108737781D01*
X124855577Y-108883858D01*
X124855577Y-108883860D01*
X124840148Y-109001049D01*
X124811881Y-109064946D01*
X124753556Y-109103416D01*
X124733395Y-109107802D01*
X124583859Y-109127489D01*
X124583858Y-109127489D01*
X124437781Y-109187996D01*
X124312339Y-109284251D01*
X124216084Y-109409693D01*
X124155577Y-109555770D01*
X124155576Y-109555772D01*
X124134939Y-109712531D01*
X119550500Y-109712531D01*
X119550500Y-105300000D01*
X144994353Y-105300000D01*
X145014834Y-105442456D01*
X145074622Y-105573371D01*
X145074625Y-105573377D01*
X145169667Y-105683062D01*
X145198692Y-105746618D01*
X145188748Y-105815775D01*
X145127902Y-105949008D01*
X145127901Y-105949009D01*
X145107420Y-106091467D01*
X145127901Y-106233923D01*
X145155056Y-106293383D01*
X145187690Y-106364840D01*
X145281939Y-106473610D01*
X145403014Y-106551420D01*
X145403017Y-106551421D01*
X145403016Y-106551421D01*
X145541103Y-106591966D01*
X145541105Y-106591967D01*
X145541106Y-106591967D01*
X145685029Y-106591967D01*
X145685029Y-106591966D01*
X145813724Y-106554179D01*
X145823117Y-106551421D01*
X145823117Y-106551420D01*
X145823120Y-106551420D01*
X145944195Y-106473610D01*
X146038444Y-106364840D01*
X146038445Y-106364838D01*
X146044252Y-106358137D01*
X146045648Y-106359347D01*
X146090154Y-106320776D01*
X146159311Y-106310827D01*
X146222869Y-106339846D01*
X146245990Y-106366526D01*
X146250710Y-106373870D01*
X146250711Y-106373871D01*
X146250712Y-106373873D01*
X146344961Y-106482643D01*
X146466036Y-106560453D01*
X146466039Y-106560454D01*
X146466038Y-106560454D01*
X146604125Y-106600999D01*
X146604127Y-106601000D01*
X146604128Y-106601000D01*
X146748051Y-106601000D01*
X146748051Y-106600999D01*
X146855210Y-106569535D01*
X146886139Y-106560454D01*
X146886139Y-106560453D01*
X146886142Y-106560453D01*
X147007217Y-106482643D01*
X147101466Y-106373873D01*
X147161254Y-106242957D01*
X147181736Y-106100500D01*
X147161254Y-105958043D01*
X147101466Y-105827127D01*
X147007217Y-105718357D01*
X146886142Y-105640547D01*
X146886140Y-105640546D01*
X146886138Y-105640545D01*
X146886139Y-105640545D01*
X146748052Y-105600000D01*
X146748050Y-105600000D01*
X146604128Y-105600000D01*
X146604125Y-105600000D01*
X146466038Y-105640545D01*
X146344962Y-105718356D01*
X146344961Y-105718356D01*
X146344961Y-105718357D01*
X146260549Y-105815775D01*
X146244904Y-105833830D01*
X146243510Y-105832622D01*
X146198979Y-105871200D01*
X146129819Y-105881136D01*
X146066267Y-105852104D01*
X146043164Y-105825438D01*
X146038443Y-105818092D01*
X145943399Y-105708404D01*
X145914374Y-105644848D01*
X145924318Y-105575690D01*
X145925375Y-105573375D01*
X145925377Y-105573373D01*
X145985165Y-105442457D01*
X146005647Y-105300000D01*
X145985165Y-105157543D01*
X145925377Y-105026627D01*
X145831128Y-104917857D01*
X145710053Y-104840047D01*
X145710051Y-104840046D01*
X145710049Y-104840045D01*
X145710050Y-104840045D01*
X145571963Y-104799500D01*
X145571961Y-104799500D01*
X145428039Y-104799500D01*
X145428036Y-104799500D01*
X145289949Y-104840045D01*
X145168873Y-104917856D01*
X145074623Y-105026626D01*
X145074622Y-105026628D01*
X145014834Y-105157543D01*
X144994353Y-105300000D01*
X119550500Y-105300000D01*
X119550500Y-104400000D01*
X135794353Y-104400000D01*
X135814834Y-104542456D01*
X135874622Y-104673371D01*
X135874623Y-104673373D01*
X135968872Y-104782143D01*
X136089947Y-104859953D01*
X136089950Y-104859954D01*
X136089949Y-104859954D01*
X136228036Y-104900499D01*
X136228038Y-104900500D01*
X136228039Y-104900500D01*
X136371962Y-104900500D01*
X136371962Y-104900499D01*
X136510053Y-104859953D01*
X136631128Y-104782143D01*
X136725377Y-104673373D01*
X136785165Y-104542457D01*
X136805647Y-104400000D01*
X136785165Y-104257543D01*
X136725377Y-104126627D01*
X136631128Y-104017857D01*
X136510053Y-103940047D01*
X136510051Y-103940046D01*
X136510049Y-103940045D01*
X136510050Y-103940045D01*
X136373659Y-103899998D01*
X148294318Y-103899998D01*
X148294318Y-103900001D01*
X148314955Y-104056760D01*
X148314956Y-104056762D01*
X148350775Y-104143238D01*
X148375464Y-104202841D01*
X148471718Y-104328282D01*
X148597159Y-104424536D01*
X148743238Y-104485044D01*
X148821619Y-104495363D01*
X148899999Y-104505682D01*
X148900000Y-104505682D01*
X148900001Y-104505682D01*
X148952254Y-104498802D01*
X149056762Y-104485044D01*
X149202841Y-104424536D01*
X149328282Y-104328282D01*
X149424536Y-104202841D01*
X149485044Y-104056762D01*
X149505682Y-103900000D01*
X149492517Y-103799998D01*
X153294318Y-103799998D01*
X153294318Y-103800001D01*
X153314955Y-103956760D01*
X153314956Y-103956762D01*
X153356376Y-104056760D01*
X153375464Y-104102841D01*
X153471718Y-104228282D01*
X153597159Y-104324536D01*
X153743238Y-104385044D01*
X153821619Y-104395363D01*
X153899999Y-104405682D01*
X153900000Y-104405682D01*
X153900001Y-104405682D01*
X153952254Y-104398802D01*
X154056762Y-104385044D01*
X154202841Y-104324536D01*
X154234820Y-104299998D01*
X155294318Y-104299998D01*
X155294318Y-104300001D01*
X155314955Y-104456760D01*
X155314956Y-104456762D01*
X155375464Y-104602841D01*
X155471718Y-104728282D01*
X155597159Y-104824536D01*
X155743238Y-104885044D01*
X155821619Y-104895363D01*
X155899999Y-104905682D01*
X155900000Y-104905682D01*
X155900001Y-104905682D01*
X155952254Y-104898802D01*
X156056762Y-104885044D01*
X156202841Y-104824536D01*
X156328282Y-104728282D01*
X156424536Y-104602841D01*
X156485044Y-104456762D01*
X156505682Y-104300000D01*
X156500092Y-104257543D01*
X156485044Y-104143239D01*
X156485044Y-104143238D01*
X156424536Y-103997159D01*
X156328282Y-103871718D01*
X156202841Y-103775464D01*
X156056762Y-103714956D01*
X156056760Y-103714955D01*
X155900001Y-103694318D01*
X155899999Y-103694318D01*
X155743239Y-103714955D01*
X155743237Y-103714956D01*
X155597160Y-103775463D01*
X155471718Y-103871718D01*
X155375463Y-103997160D01*
X155314956Y-104143237D01*
X155314955Y-104143239D01*
X155294318Y-104299998D01*
X154234820Y-104299998D01*
X154328282Y-104228282D01*
X154424536Y-104102841D01*
X154485044Y-103956762D01*
X154505682Y-103800000D01*
X154485044Y-103643238D01*
X154424536Y-103497159D01*
X154328282Y-103371718D01*
X154202841Y-103275464D01*
X154148224Y-103252841D01*
X154056762Y-103214956D01*
X154056760Y-103214955D01*
X153900001Y-103194318D01*
X153899999Y-103194318D01*
X153743239Y-103214955D01*
X153743237Y-103214956D01*
X153597160Y-103275463D01*
X153471718Y-103371718D01*
X153375463Y-103497160D01*
X153314956Y-103643237D01*
X153314955Y-103643239D01*
X153294318Y-103799998D01*
X149492517Y-103799998D01*
X149485044Y-103743238D01*
X149424536Y-103597159D01*
X149328282Y-103471718D01*
X149202841Y-103375464D01*
X149193797Y-103371718D01*
X149056762Y-103314956D01*
X149056760Y-103314955D01*
X148900001Y-103294318D01*
X148899999Y-103294318D01*
X148743239Y-103314955D01*
X148743237Y-103314956D01*
X148597160Y-103375463D01*
X148471718Y-103471718D01*
X148375463Y-103597160D01*
X148314956Y-103743237D01*
X148314955Y-103743239D01*
X148294318Y-103899998D01*
X136373659Y-103899998D01*
X136371963Y-103899500D01*
X136371961Y-103899500D01*
X136228039Y-103899500D01*
X136228036Y-103899500D01*
X136089949Y-103940045D01*
X135968873Y-104017856D01*
X135874623Y-104126626D01*
X135874622Y-104126628D01*
X135814834Y-104257543D01*
X135794353Y-104400000D01*
X119550500Y-104400000D01*
X119550500Y-103500000D01*
X130494353Y-103500000D01*
X130514834Y-103642456D01*
X130560861Y-103743239D01*
X130574623Y-103773373D01*
X130668872Y-103882143D01*
X130789947Y-103959953D01*
X130789950Y-103959954D01*
X130789949Y-103959954D01*
X130897107Y-103991417D01*
X130916660Y-103997159D01*
X130928036Y-104000499D01*
X130928038Y-104000500D01*
X130928039Y-104000500D01*
X131071962Y-104000500D01*
X131071962Y-104000499D01*
X131210053Y-103959953D01*
X131331128Y-103882143D01*
X131425377Y-103773373D01*
X131485165Y-103642457D01*
X131505647Y-103500000D01*
X131485165Y-103357543D01*
X131425377Y-103226627D01*
X131331128Y-103117857D01*
X131210053Y-103040047D01*
X131210051Y-103040046D01*
X131210049Y-103040045D01*
X131210050Y-103040045D01*
X131071963Y-102999500D01*
X131071961Y-102999500D01*
X130928039Y-102999500D01*
X130928036Y-102999500D01*
X130789949Y-103040045D01*
X130668873Y-103117856D01*
X130574623Y-103226626D01*
X130574622Y-103226628D01*
X130514834Y-103357543D01*
X130494353Y-103500000D01*
X119550500Y-103500000D01*
X119550500Y-102699998D01*
X132294318Y-102699998D01*
X132294318Y-102700001D01*
X132314955Y-102856760D01*
X132314956Y-102856762D01*
X132375464Y-103002842D01*
X132438325Y-103084764D01*
X132463519Y-103149933D01*
X132449480Y-103218378D01*
X132438325Y-103235736D01*
X132375464Y-103317657D01*
X132314956Y-103463737D01*
X132314955Y-103463739D01*
X132294318Y-103620498D01*
X132294318Y-103620501D01*
X132314955Y-103777260D01*
X132314956Y-103777262D01*
X132375464Y-103923341D01*
X132471718Y-104048782D01*
X132597159Y-104145036D01*
X132743238Y-104205544D01*
X132821619Y-104215863D01*
X132899999Y-104226182D01*
X132900000Y-104226182D01*
X132900001Y-104226182D01*
X132952254Y-104219302D01*
X133056762Y-104205544D01*
X133202841Y-104145036D01*
X133328282Y-104048782D01*
X133424536Y-103923341D01*
X133485044Y-103777262D01*
X133502791Y-103642457D01*
X133505682Y-103620501D01*
X133505682Y-103620498D01*
X133489444Y-103497159D01*
X133485044Y-103463738D01*
X133424536Y-103317659D01*
X133361672Y-103235733D01*
X133336480Y-103170568D01*
X133350518Y-103102123D01*
X133361667Y-103084772D01*
X133424536Y-103002841D01*
X133485044Y-102856762D01*
X133500627Y-102738394D01*
X133505682Y-102700001D01*
X133505682Y-102699998D01*
X133484708Y-102540685D01*
X133495474Y-102471650D01*
X133541854Y-102419394D01*
X133607647Y-102400500D01*
X133646962Y-102400500D01*
X133646962Y-102400499D01*
X133785053Y-102359953D01*
X133906128Y-102282143D01*
X134000377Y-102173373D01*
X134060165Y-102042457D01*
X134080647Y-101900000D01*
X134060165Y-101757543D01*
X134033886Y-101700000D01*
X135894353Y-101700000D01*
X135914834Y-101842456D01*
X135967992Y-101958853D01*
X135974623Y-101973373D01*
X136068872Y-102082143D01*
X136189947Y-102159953D01*
X136189950Y-102159954D01*
X136189949Y-102159954D01*
X136328036Y-102200499D01*
X136328038Y-102200500D01*
X136328039Y-102200500D01*
X136471962Y-102200500D01*
X136471962Y-102200499D01*
X136610053Y-102159953D01*
X136731128Y-102082143D01*
X136825377Y-101973373D01*
X136885165Y-101842457D01*
X136905647Y-101700000D01*
X136885165Y-101557543D01*
X136825377Y-101426627D01*
X136731128Y-101317857D01*
X136610053Y-101240047D01*
X136610051Y-101240046D01*
X136610049Y-101240045D01*
X136610050Y-101240045D01*
X136471963Y-101199500D01*
X136471961Y-101199500D01*
X136328039Y-101199500D01*
X136328036Y-101199500D01*
X136189949Y-101240045D01*
X136068873Y-101317856D01*
X135974623Y-101426626D01*
X135974622Y-101426628D01*
X135914834Y-101557543D01*
X135894353Y-101700000D01*
X134033886Y-101700000D01*
X134000377Y-101626627D01*
X133906128Y-101517857D01*
X133785053Y-101440047D01*
X133785051Y-101440046D01*
X133785049Y-101440045D01*
X133785050Y-101440045D01*
X133646963Y-101399500D01*
X133646961Y-101399500D01*
X133503039Y-101399500D01*
X133503036Y-101399500D01*
X133364949Y-101440045D01*
X133243873Y-101517856D01*
X133149623Y-101626626D01*
X133149622Y-101626628D01*
X133089834Y-101757543D01*
X133069353Y-101900000D01*
X133069353Y-101900001D01*
X133077814Y-101958853D01*
X133067870Y-102028012D01*
X133022114Y-102080815D01*
X132955075Y-102100499D01*
X132938891Y-102099438D01*
X132900001Y-102094318D01*
X132899999Y-102094318D01*
X132743239Y-102114955D01*
X132743237Y-102114956D01*
X132597160Y-102175463D01*
X132471718Y-102271718D01*
X132375463Y-102397160D01*
X132314956Y-102543237D01*
X132314955Y-102543239D01*
X132294318Y-102699998D01*
X119550500Y-102699998D01*
X119550500Y-101500000D01*
X125394353Y-101500000D01*
X125414834Y-101642456D01*
X125474622Y-101773371D01*
X125474623Y-101773373D01*
X125568872Y-101882143D01*
X125689947Y-101959953D01*
X125689950Y-101959954D01*
X125689949Y-101959954D01*
X125828036Y-102000499D01*
X125828038Y-102000500D01*
X125828039Y-102000500D01*
X125971962Y-102000500D01*
X125971962Y-102000499D01*
X126110053Y-101959953D01*
X126231128Y-101882143D01*
X126325377Y-101773373D01*
X126385165Y-101642457D01*
X126405647Y-101500000D01*
X126385165Y-101357543D01*
X126325377Y-101226627D01*
X126231128Y-101117857D01*
X126110053Y-101040047D01*
X126110051Y-101040046D01*
X126110049Y-101040045D01*
X126110050Y-101040045D01*
X125971963Y-100999500D01*
X125971961Y-100999500D01*
X125828039Y-100999500D01*
X125828036Y-100999500D01*
X125689949Y-101040045D01*
X125568873Y-101117856D01*
X125474623Y-101226626D01*
X125474622Y-101226628D01*
X125414834Y-101357543D01*
X125394353Y-101500000D01*
X119550500Y-101500000D01*
X119550500Y-100647142D01*
X129321121Y-100647142D01*
X129341602Y-100789598D01*
X129360740Y-100831503D01*
X129401391Y-100920515D01*
X129495640Y-101029285D01*
X129616715Y-101107095D01*
X129616718Y-101107096D01*
X129616717Y-101107096D01*
X129754804Y-101147641D01*
X129754806Y-101147642D01*
X129754807Y-101147642D01*
X129898730Y-101147642D01*
X129898730Y-101147641D01*
X130036821Y-101107095D01*
X130157896Y-101029285D01*
X130227030Y-100949500D01*
X144993646Y-100949500D01*
X145014127Y-101091956D01*
X145063698Y-101200500D01*
X145073916Y-101222873D01*
X145137107Y-101295800D01*
X145166132Y-101359355D01*
X145156188Y-101428513D01*
X145137109Y-101458202D01*
X145120714Y-101477122D01*
X145120711Y-101477128D01*
X145060923Y-101608043D01*
X145040442Y-101750500D01*
X145060923Y-101892956D01*
X145091018Y-101958853D01*
X145120712Y-102023873D01*
X145214961Y-102132643D01*
X145336036Y-102210453D01*
X145336039Y-102210454D01*
X145336038Y-102210454D01*
X145455352Y-102245487D01*
X145514130Y-102283261D01*
X145543156Y-102346816D01*
X145533213Y-102415975D01*
X145487458Y-102468779D01*
X145455353Y-102483441D01*
X145361038Y-102511134D01*
X145239962Y-102588945D01*
X145145712Y-102697715D01*
X145145711Y-102697717D01*
X145085923Y-102828632D01*
X145065442Y-102971089D01*
X145085923Y-103113545D01*
X145124828Y-103198733D01*
X145145712Y-103244462D01*
X145239961Y-103353232D01*
X145361036Y-103431042D01*
X145361039Y-103431043D01*
X145361038Y-103431043D01*
X145499125Y-103471588D01*
X145499127Y-103471589D01*
X145499128Y-103471589D01*
X145643051Y-103471589D01*
X145643051Y-103471588D01*
X145781142Y-103431042D01*
X145902217Y-103353232D01*
X145996466Y-103244462D01*
X146056254Y-103113546D01*
X146076736Y-102971089D01*
X146073704Y-102949998D01*
X151044318Y-102949998D01*
X151044318Y-102950001D01*
X151064955Y-103106760D01*
X151064956Y-103106762D01*
X151125464Y-103252841D01*
X151221718Y-103378282D01*
X151347159Y-103474536D01*
X151493238Y-103535044D01*
X151571619Y-103545363D01*
X151649999Y-103555682D01*
X151650000Y-103555682D01*
X151650001Y-103555682D01*
X151702254Y-103548802D01*
X151806762Y-103535044D01*
X151952841Y-103474536D01*
X152078282Y-103378282D01*
X152174536Y-103252841D01*
X152235044Y-103106762D01*
X152255682Y-102950000D01*
X152235044Y-102793238D01*
X152212325Y-102738389D01*
X154774500Y-102738389D01*
X154774500Y-102861610D01*
X154798535Y-102982444D01*
X154798538Y-102982454D01*
X154845687Y-103096283D01*
X154845692Y-103096292D01*
X154914141Y-103198732D01*
X154914144Y-103198736D01*
X155001263Y-103285855D01*
X155001267Y-103285858D01*
X155103707Y-103354307D01*
X155103716Y-103354312D01*
X155124739Y-103363020D01*
X155217548Y-103401463D01*
X155338389Y-103425499D01*
X155338393Y-103425500D01*
X155338394Y-103425500D01*
X155461607Y-103425500D01*
X155461608Y-103425499D01*
X155582452Y-103401463D01*
X155696286Y-103354311D01*
X155798733Y-103285858D01*
X155885858Y-103198733D01*
X155954311Y-103096286D01*
X156001463Y-102982452D01*
X156025500Y-102861606D01*
X156025500Y-102738394D01*
X156001463Y-102617548D01*
X155957385Y-102511136D01*
X155954312Y-102503716D01*
X155954307Y-102503707D01*
X155885858Y-102401267D01*
X155885855Y-102401263D01*
X155798736Y-102314144D01*
X155798732Y-102314141D01*
X155696292Y-102245692D01*
X155696283Y-102245687D01*
X155603477Y-102207246D01*
X155582452Y-102198537D01*
X155582448Y-102198536D01*
X155582444Y-102198535D01*
X155461610Y-102174500D01*
X155461606Y-102174500D01*
X155338394Y-102174500D01*
X155338389Y-102174500D01*
X155217555Y-102198535D01*
X155217545Y-102198538D01*
X155103716Y-102245687D01*
X155103707Y-102245692D01*
X155001267Y-102314141D01*
X155001263Y-102314144D01*
X154914144Y-102401263D01*
X154914141Y-102401267D01*
X154845692Y-102503707D01*
X154845687Y-102503716D01*
X154798538Y-102617545D01*
X154798535Y-102617555D01*
X154774500Y-102738389D01*
X152212325Y-102738389D01*
X152174536Y-102647159D01*
X152078282Y-102521718D01*
X151952841Y-102425464D01*
X151894424Y-102401267D01*
X151806762Y-102364956D01*
X151806760Y-102364955D01*
X151650001Y-102344318D01*
X151649999Y-102344318D01*
X151493239Y-102364955D01*
X151493237Y-102364956D01*
X151347160Y-102425463D01*
X151221718Y-102521718D01*
X151125463Y-102647160D01*
X151064956Y-102793237D01*
X151064955Y-102793239D01*
X151044318Y-102949998D01*
X146073704Y-102949998D01*
X146056254Y-102828632D01*
X145996466Y-102697716D01*
X145902217Y-102588946D01*
X145781142Y-102511136D01*
X145781140Y-102511135D01*
X145781138Y-102511134D01*
X145781139Y-102511134D01*
X145661825Y-102476101D01*
X145603046Y-102438327D01*
X145574021Y-102374771D01*
X145583964Y-102305613D01*
X145629719Y-102252809D01*
X145661825Y-102238147D01*
X145756139Y-102210454D01*
X145756139Y-102210453D01*
X145756142Y-102210453D01*
X145877217Y-102132643D01*
X145971466Y-102023873D01*
X146028038Y-101899998D01*
X152594318Y-101899998D01*
X152594318Y-101900001D01*
X152614955Y-102056760D01*
X152614956Y-102056762D01*
X152673681Y-102198538D01*
X152675464Y-102202841D01*
X152771718Y-102328282D01*
X152897159Y-102424536D01*
X153043238Y-102485044D01*
X153121619Y-102495363D01*
X153199999Y-102505682D01*
X153200000Y-102505682D01*
X153200001Y-102505682D01*
X153252254Y-102498802D01*
X153356762Y-102485044D01*
X153502841Y-102424536D01*
X153628282Y-102328282D01*
X153724536Y-102202841D01*
X153785044Y-102056762D01*
X153805682Y-101900000D01*
X153785044Y-101743238D01*
X153724536Y-101597159D01*
X153628282Y-101471718D01*
X153502841Y-101375464D01*
X153485683Y-101368357D01*
X153356762Y-101314956D01*
X153356760Y-101314955D01*
X153200001Y-101294318D01*
X153199999Y-101294318D01*
X153043239Y-101314955D01*
X153043237Y-101314956D01*
X152897160Y-101375463D01*
X152771718Y-101471718D01*
X152675463Y-101597160D01*
X152614956Y-101743237D01*
X152614955Y-101743239D01*
X152594318Y-101899998D01*
X146028038Y-101899998D01*
X146031254Y-101892957D01*
X146051736Y-101750500D01*
X146031254Y-101608043D01*
X145971466Y-101477127D01*
X145908273Y-101404197D01*
X145879249Y-101340644D01*
X145889193Y-101271486D01*
X145908272Y-101241796D01*
X145924670Y-101222873D01*
X145934888Y-101200498D01*
X149169318Y-101200498D01*
X149169318Y-101200501D01*
X149189955Y-101357260D01*
X149189956Y-101357262D01*
X149218687Y-101426626D01*
X149250464Y-101503341D01*
X149346718Y-101628782D01*
X149472159Y-101725036D01*
X149618238Y-101785544D01*
X149696619Y-101795863D01*
X149774999Y-101806182D01*
X149775000Y-101806182D01*
X149775001Y-101806182D01*
X149827254Y-101799302D01*
X149931762Y-101785544D01*
X150077841Y-101725036D01*
X150203282Y-101628782D01*
X150299536Y-101503341D01*
X150360044Y-101357262D01*
X150377242Y-101226627D01*
X150380682Y-101200501D01*
X150380682Y-101200498D01*
X150360044Y-101043739D01*
X150360044Y-101043738D01*
X150299536Y-100897659D01*
X150203282Y-100772218D01*
X150077841Y-100675964D01*
X149950870Y-100623371D01*
X149931762Y-100615456D01*
X149931760Y-100615455D01*
X149775001Y-100594818D01*
X149774999Y-100594818D01*
X149618239Y-100615455D01*
X149618237Y-100615456D01*
X149472160Y-100675963D01*
X149346718Y-100772218D01*
X149250463Y-100897660D01*
X149189956Y-101043737D01*
X149189955Y-101043739D01*
X149169318Y-101200498D01*
X145934888Y-101200498D01*
X145984458Y-101091957D01*
X146004940Y-100949500D01*
X145984458Y-100807043D01*
X145924670Y-100676127D01*
X145830421Y-100567357D01*
X145709346Y-100489547D01*
X145709344Y-100489546D01*
X145709342Y-100489545D01*
X145709343Y-100489545D01*
X145571256Y-100449000D01*
X145571254Y-100449000D01*
X145427332Y-100449000D01*
X145427329Y-100449000D01*
X145289242Y-100489545D01*
X145168166Y-100567356D01*
X145073916Y-100676126D01*
X145073915Y-100676128D01*
X145014127Y-100807043D01*
X144993646Y-100949500D01*
X130227030Y-100949500D01*
X130252145Y-100920515D01*
X130311933Y-100789599D01*
X130332415Y-100647142D01*
X130311933Y-100504685D01*
X130252145Y-100373769D01*
X130157896Y-100264999D01*
X130036821Y-100187189D01*
X130036819Y-100187188D01*
X130036817Y-100187187D01*
X130036818Y-100187187D01*
X129911533Y-100150401D01*
X133066774Y-100150401D01*
X133087255Y-100292857D01*
X133128232Y-100382583D01*
X133147044Y-100423774D01*
X133241293Y-100532544D01*
X133362368Y-100610354D01*
X133362371Y-100610355D01*
X133362370Y-100610355D01*
X133500457Y-100650900D01*
X133500459Y-100650901D01*
X133500460Y-100650901D01*
X133644383Y-100650901D01*
X133644383Y-100650900D01*
X133765098Y-100615456D01*
X133782471Y-100610355D01*
X133782471Y-100610354D01*
X133782474Y-100610354D01*
X133903549Y-100532544D01*
X133997798Y-100423774D01*
X134031490Y-100350000D01*
X135944353Y-100350000D01*
X135964834Y-100492456D01*
X135999041Y-100567357D01*
X136024623Y-100623373D01*
X136118872Y-100732143D01*
X136239947Y-100809953D01*
X136239950Y-100809954D01*
X136239949Y-100809954D01*
X136378036Y-100850499D01*
X136378038Y-100850500D01*
X136378039Y-100850500D01*
X136521962Y-100850500D01*
X136521962Y-100850499D01*
X136656947Y-100810865D01*
X136660050Y-100809954D01*
X136660050Y-100809953D01*
X136660053Y-100809953D01*
X136781128Y-100732143D01*
X136875377Y-100623373D01*
X136935165Y-100492457D01*
X136955647Y-100350000D01*
X136935165Y-100207543D01*
X136875377Y-100076627D01*
X136781128Y-99967857D01*
X136660053Y-99890047D01*
X136660051Y-99890046D01*
X136660049Y-99890045D01*
X136660050Y-99890045D01*
X136521963Y-99849500D01*
X136521961Y-99849500D01*
X136378039Y-99849500D01*
X136378036Y-99849500D01*
X136239949Y-99890045D01*
X136118873Y-99967856D01*
X136024623Y-100076626D01*
X136024622Y-100076628D01*
X135964834Y-100207543D01*
X135944353Y-100350000D01*
X134031490Y-100350000D01*
X134057586Y-100292858D01*
X134078068Y-100150401D01*
X134057586Y-100007944D01*
X133997798Y-99877028D01*
X133903549Y-99768258D01*
X133782474Y-99690448D01*
X133782472Y-99690447D01*
X133782470Y-99690446D01*
X133782471Y-99690446D01*
X133644384Y-99649901D01*
X133644382Y-99649901D01*
X133500460Y-99649901D01*
X133500457Y-99649901D01*
X133362370Y-99690446D01*
X133241294Y-99768257D01*
X133147044Y-99877027D01*
X133147043Y-99877029D01*
X133087255Y-100007944D01*
X133066774Y-100150401D01*
X129911533Y-100150401D01*
X129898731Y-100146642D01*
X129898729Y-100146642D01*
X129754807Y-100146642D01*
X129754804Y-100146642D01*
X129616717Y-100187187D01*
X129495641Y-100264998D01*
X129401391Y-100373768D01*
X129401390Y-100373770D01*
X129341602Y-100504685D01*
X129321121Y-100647142D01*
X119550500Y-100647142D01*
X119550500Y-99600000D01*
X131893853Y-99600000D01*
X131914334Y-99742456D01*
X131926118Y-99768258D01*
X131974123Y-99873373D01*
X132068372Y-99982143D01*
X132189447Y-100059953D01*
X132189450Y-100059954D01*
X132189449Y-100059954D01*
X132327536Y-100100499D01*
X132327538Y-100100500D01*
X132327539Y-100100500D01*
X132471462Y-100100500D01*
X132471462Y-100100499D01*
X132609553Y-100059953D01*
X132730628Y-99982143D01*
X132824877Y-99873373D01*
X132884665Y-99742457D01*
X132905147Y-99600000D01*
X132884665Y-99457543D01*
X132824877Y-99326627D01*
X132730628Y-99217857D01*
X132609553Y-99140047D01*
X132609551Y-99140046D01*
X132609549Y-99140045D01*
X132609550Y-99140045D01*
X132471463Y-99099500D01*
X132471461Y-99099500D01*
X132327539Y-99099500D01*
X132327536Y-99099500D01*
X132189449Y-99140045D01*
X132068373Y-99217856D01*
X131974123Y-99326626D01*
X131974122Y-99326628D01*
X131914334Y-99457543D01*
X131893853Y-99600000D01*
X119550500Y-99600000D01*
X119550500Y-96740835D01*
X128750501Y-96740835D01*
X128770982Y-96883291D01*
X128830770Y-97014206D01*
X128830771Y-97014208D01*
X128925020Y-97122978D01*
X129046095Y-97200788D01*
X129046098Y-97200789D01*
X129046097Y-97200789D01*
X129153255Y-97232252D01*
X129161988Y-97234817D01*
X129184184Y-97241334D01*
X129184186Y-97241335D01*
X129184187Y-97241335D01*
X129328110Y-97241335D01*
X129328110Y-97241334D01*
X129466201Y-97200788D01*
X129587276Y-97122978D01*
X129681525Y-97014208D01*
X129733684Y-96899998D01*
X132494318Y-96899998D01*
X132494318Y-96900001D01*
X132514955Y-97056760D01*
X132514956Y-97056762D01*
X132575464Y-97202842D01*
X132668826Y-97324514D01*
X132694020Y-97389683D01*
X132679981Y-97458128D01*
X132668826Y-97475486D01*
X132575464Y-97597157D01*
X132514956Y-97743237D01*
X132514955Y-97743239D01*
X132494318Y-97899998D01*
X132494318Y-97900001D01*
X132514955Y-98056760D01*
X132514956Y-98056762D01*
X132574287Y-98200001D01*
X132575464Y-98202841D01*
X132671718Y-98328282D01*
X132797159Y-98424536D01*
X132943238Y-98485044D01*
X133021619Y-98495363D01*
X133099999Y-98505682D01*
X133100000Y-98505682D01*
X133100001Y-98505682D01*
X133164739Y-98497159D01*
X133256762Y-98485044D01*
X133402841Y-98424536D01*
X133524515Y-98331171D01*
X133589683Y-98305979D01*
X133658127Y-98320017D01*
X133675478Y-98331167D01*
X133797159Y-98424536D01*
X133943238Y-98485044D01*
X134021619Y-98495363D01*
X134099999Y-98505682D01*
X134100000Y-98505682D01*
X134100001Y-98505682D01*
X134143160Y-98500000D01*
X136294353Y-98500000D01*
X136314834Y-98642456D01*
X136374622Y-98773371D01*
X136374623Y-98773373D01*
X136468872Y-98882143D01*
X136589947Y-98959953D01*
X136589950Y-98959954D01*
X136589949Y-98959954D01*
X136728036Y-99000499D01*
X136728038Y-99000500D01*
X136728039Y-99000500D01*
X136871962Y-99000500D01*
X136871962Y-99000499D01*
X137010053Y-98959953D01*
X137131128Y-98882143D01*
X137202306Y-98799998D01*
X147294318Y-98799998D01*
X147294318Y-98800001D01*
X147314955Y-98956760D01*
X147314956Y-98956762D01*
X147375464Y-99102842D01*
X147430460Y-99174514D01*
X147455654Y-99239683D01*
X147441615Y-99308128D01*
X147430460Y-99325486D01*
X147375464Y-99397157D01*
X147314956Y-99543237D01*
X147314955Y-99543239D01*
X147294318Y-99699998D01*
X147294318Y-99700001D01*
X147314955Y-99856760D01*
X147314956Y-99856762D01*
X147366890Y-99982143D01*
X147375464Y-100002841D01*
X147471718Y-100128282D01*
X147597159Y-100224536D01*
X147743238Y-100285044D01*
X147802584Y-100292857D01*
X147899999Y-100305682D01*
X147900000Y-100305682D01*
X147900001Y-100305682D01*
X147997408Y-100292858D01*
X148056762Y-100285044D01*
X148199744Y-100225819D01*
X150268428Y-100225819D01*
X150268428Y-100225822D01*
X150289065Y-100382581D01*
X150289066Y-100382583D01*
X150349574Y-100528662D01*
X150445828Y-100654103D01*
X150571269Y-100750357D01*
X150717348Y-100810865D01*
X150795729Y-100821184D01*
X150874109Y-100831503D01*
X150874110Y-100831503D01*
X150874111Y-100831503D01*
X150926364Y-100824623D01*
X151030872Y-100810865D01*
X151176951Y-100750357D01*
X151302392Y-100654103D01*
X151398646Y-100528662D01*
X151459154Y-100382583D01*
X151479792Y-100225821D01*
X151459154Y-100069059D01*
X151398646Y-99922980D01*
X151302392Y-99797539D01*
X151176951Y-99701285D01*
X151173851Y-99700001D01*
X151030872Y-99640777D01*
X151030870Y-99640776D01*
X150874111Y-99620139D01*
X150874109Y-99620139D01*
X150717349Y-99640776D01*
X150717347Y-99640777D01*
X150571270Y-99701284D01*
X150445828Y-99797539D01*
X150349573Y-99922981D01*
X150289066Y-100069058D01*
X150289065Y-100069060D01*
X150268428Y-100225819D01*
X148199744Y-100225819D01*
X148202841Y-100224536D01*
X148328282Y-100128282D01*
X148424536Y-100002841D01*
X148485044Y-99856762D01*
X148505682Y-99700000D01*
X148504424Y-99690448D01*
X148485044Y-99543239D01*
X148485044Y-99543238D01*
X148424536Y-99397159D01*
X148424535Y-99397158D01*
X148424535Y-99397157D01*
X148369540Y-99325487D01*
X148344345Y-99260318D01*
X148358383Y-99191873D01*
X148369538Y-99174515D01*
X148424536Y-99102841D01*
X148485044Y-98956762D01*
X148505682Y-98800000D01*
X148485044Y-98643238D01*
X148424536Y-98497159D01*
X148328282Y-98371718D01*
X148202841Y-98275464D01*
X148165394Y-98259953D01*
X148056762Y-98214956D01*
X148056760Y-98214955D01*
X147943146Y-98199998D01*
X151094318Y-98199998D01*
X151094318Y-98200001D01*
X151114955Y-98356760D01*
X151114956Y-98356762D01*
X151157699Y-98459954D01*
X151175464Y-98502841D01*
X151271718Y-98628282D01*
X151397159Y-98724536D01*
X151543238Y-98785044D01*
X151621619Y-98795363D01*
X151699999Y-98805682D01*
X151700000Y-98805682D01*
X151700001Y-98805682D01*
X151752254Y-98798802D01*
X151856762Y-98785044D01*
X152002841Y-98724536D01*
X152128282Y-98628282D01*
X152224536Y-98502841D01*
X152285044Y-98356762D01*
X152305682Y-98200000D01*
X152305682Y-98199998D01*
X152594318Y-98199998D01*
X152594318Y-98200001D01*
X152614955Y-98356760D01*
X152614956Y-98356762D01*
X152657699Y-98459954D01*
X152675464Y-98502841D01*
X152771718Y-98628282D01*
X152897159Y-98724536D01*
X153043238Y-98785044D01*
X153121619Y-98795363D01*
X153199999Y-98805682D01*
X153200000Y-98805682D01*
X153200001Y-98805682D01*
X153252254Y-98798802D01*
X153356762Y-98785044D01*
X153502841Y-98724536D01*
X153628282Y-98628282D01*
X153724536Y-98502841D01*
X153785044Y-98356762D01*
X153805682Y-98200000D01*
X153785044Y-98043238D01*
X153724536Y-97897159D01*
X153628282Y-97771718D01*
X153502841Y-97675464D01*
X153479051Y-97665610D01*
X153356762Y-97614956D01*
X153356760Y-97614955D01*
X153200001Y-97594318D01*
X153199999Y-97594318D01*
X153043239Y-97614955D01*
X153043237Y-97614956D01*
X152897160Y-97675463D01*
X152771718Y-97771718D01*
X152675463Y-97897160D01*
X152614956Y-98043237D01*
X152614955Y-98043239D01*
X152594318Y-98199998D01*
X152305682Y-98199998D01*
X152285044Y-98043238D01*
X152224536Y-97897159D01*
X152128282Y-97771718D01*
X152002841Y-97675464D01*
X151979051Y-97665610D01*
X151856762Y-97614956D01*
X151856760Y-97614955D01*
X151700001Y-97594318D01*
X151699999Y-97594318D01*
X151543239Y-97614955D01*
X151543237Y-97614956D01*
X151397160Y-97675463D01*
X151271718Y-97771718D01*
X151175463Y-97897160D01*
X151114956Y-98043237D01*
X151114955Y-98043239D01*
X151094318Y-98199998D01*
X147943146Y-98199998D01*
X147900001Y-98194318D01*
X147899999Y-98194318D01*
X147743239Y-98214955D01*
X147743237Y-98214956D01*
X147597160Y-98275463D01*
X147471718Y-98371718D01*
X147375463Y-98497160D01*
X147314956Y-98643237D01*
X147314955Y-98643239D01*
X147294318Y-98799998D01*
X137202306Y-98799998D01*
X137225377Y-98773373D01*
X137285165Y-98642457D01*
X137305647Y-98500000D01*
X137285165Y-98357543D01*
X137225377Y-98226627D01*
X137131128Y-98117857D01*
X137010053Y-98040047D01*
X137010051Y-98040046D01*
X137010049Y-98040045D01*
X137010050Y-98040045D01*
X136871963Y-97999500D01*
X136871961Y-97999500D01*
X136728039Y-97999500D01*
X136728036Y-97999500D01*
X136589949Y-98040045D01*
X136468873Y-98117856D01*
X136374623Y-98226626D01*
X136374622Y-98226628D01*
X136314834Y-98357543D01*
X136294353Y-98500000D01*
X134143160Y-98500000D01*
X134164739Y-98497159D01*
X134256762Y-98485044D01*
X134402841Y-98424536D01*
X134528282Y-98328282D01*
X134624536Y-98202841D01*
X134685044Y-98056762D01*
X134705682Y-97900000D01*
X134700092Y-97857543D01*
X134692517Y-97800000D01*
X142894353Y-97800000D01*
X142914834Y-97942456D01*
X142960861Y-98043239D01*
X142974623Y-98073373D01*
X143068872Y-98182143D01*
X143189947Y-98259953D01*
X143189950Y-98259954D01*
X143189949Y-98259954D01*
X143328036Y-98300499D01*
X143328038Y-98300500D01*
X143328039Y-98300500D01*
X143471962Y-98300500D01*
X143471962Y-98300499D01*
X143610053Y-98259953D01*
X143731128Y-98182143D01*
X143803023Y-98099171D01*
X143861798Y-98061398D01*
X143931668Y-98061398D01*
X143990446Y-98099172D01*
X144009971Y-98134928D01*
X144011151Y-98134390D01*
X144014834Y-98142456D01*
X144014835Y-98142457D01*
X144074623Y-98273373D01*
X144168872Y-98382143D01*
X144289947Y-98459953D01*
X144289950Y-98459954D01*
X144289949Y-98459954D01*
X144375400Y-98485044D01*
X144426336Y-98500000D01*
X144428036Y-98500499D01*
X144428038Y-98500500D01*
X144428039Y-98500500D01*
X144571962Y-98500500D01*
X144571962Y-98500499D01*
X144710053Y-98459953D01*
X144831128Y-98382143D01*
X144925377Y-98273373D01*
X144985165Y-98142457D01*
X145005647Y-98000000D01*
X144985165Y-97857543D01*
X144925377Y-97726627D01*
X144831128Y-97617857D01*
X144710053Y-97540047D01*
X144710051Y-97540046D01*
X144710049Y-97540045D01*
X144710050Y-97540045D01*
X144571963Y-97499500D01*
X144571961Y-97499500D01*
X144428039Y-97499500D01*
X144428036Y-97499500D01*
X144289949Y-97540045D01*
X144168873Y-97617856D01*
X144096978Y-97700827D01*
X144038199Y-97738601D01*
X143968330Y-97738601D01*
X143909552Y-97700826D01*
X143890029Y-97665070D01*
X143888849Y-97665610D01*
X143865715Y-97614955D01*
X143825377Y-97526627D01*
X143731128Y-97417857D01*
X143610053Y-97340047D01*
X143610051Y-97340046D01*
X143610049Y-97340045D01*
X143610050Y-97340045D01*
X143471963Y-97299500D01*
X143471961Y-97299500D01*
X143328039Y-97299500D01*
X143328036Y-97299500D01*
X143189949Y-97340045D01*
X143068873Y-97417856D01*
X142974623Y-97526626D01*
X142974622Y-97526628D01*
X142914834Y-97657543D01*
X142894353Y-97800000D01*
X134692517Y-97800000D01*
X134685044Y-97743239D01*
X134685044Y-97743238D01*
X134624536Y-97597159D01*
X134531171Y-97475484D01*
X134505979Y-97410317D01*
X134520017Y-97341873D01*
X134531167Y-97324521D01*
X134624536Y-97202841D01*
X134685044Y-97056762D01*
X134705682Y-96900000D01*
X134703482Y-96883292D01*
X134685044Y-96743239D01*
X134685044Y-96743238D01*
X134624536Y-96597159D01*
X134528282Y-96471718D01*
X134402841Y-96375464D01*
X134362347Y-96358691D01*
X134256762Y-96314956D01*
X134256760Y-96314955D01*
X134100001Y-96294318D01*
X134099999Y-96294318D01*
X133943239Y-96314955D01*
X133943237Y-96314956D01*
X133797157Y-96375464D01*
X133675486Y-96468826D01*
X133610317Y-96494020D01*
X133541872Y-96479981D01*
X133524514Y-96468826D01*
X133402842Y-96375464D01*
X133256762Y-96314956D01*
X133256760Y-96314955D01*
X133100001Y-96294318D01*
X133099999Y-96294318D01*
X132943239Y-96314955D01*
X132943237Y-96314956D01*
X132797160Y-96375463D01*
X132671718Y-96471718D01*
X132575463Y-96597160D01*
X132514956Y-96743237D01*
X132514955Y-96743239D01*
X132494318Y-96899998D01*
X129733684Y-96899998D01*
X129741313Y-96883292D01*
X129761795Y-96740835D01*
X129741313Y-96598378D01*
X129681525Y-96467462D01*
X129587276Y-96358692D01*
X129466201Y-96280882D01*
X129466199Y-96280881D01*
X129466197Y-96280880D01*
X129466198Y-96280880D01*
X129328111Y-96240335D01*
X129328109Y-96240335D01*
X129184187Y-96240335D01*
X129184184Y-96240335D01*
X129046097Y-96280880D01*
X128925021Y-96358691D01*
X128830771Y-96467461D01*
X128830770Y-96467463D01*
X128770982Y-96598378D01*
X128750501Y-96740835D01*
X119550500Y-96740835D01*
X119550500Y-95300000D01*
X141194353Y-95300000D01*
X141214834Y-95442456D01*
X141260504Y-95542457D01*
X141274623Y-95573373D01*
X141368872Y-95682143D01*
X141489947Y-95759953D01*
X141489950Y-95759954D01*
X141489949Y-95759954D01*
X141628036Y-95800499D01*
X141628038Y-95800500D01*
X141628039Y-95800500D01*
X141771962Y-95800500D01*
X141771962Y-95800499D01*
X141910050Y-95759954D01*
X141910051Y-95759954D01*
X141910053Y-95759953D01*
X141973557Y-95719141D01*
X142040594Y-95699457D01*
X142107634Y-95719141D01*
X142134307Y-95742254D01*
X142168869Y-95782140D01*
X142168872Y-95782143D01*
X142289947Y-95859953D01*
X142289950Y-95859954D01*
X142289949Y-95859954D01*
X142428036Y-95900499D01*
X142428038Y-95900500D01*
X142428039Y-95900500D01*
X142571962Y-95900500D01*
X142571962Y-95900499D01*
X142710053Y-95859953D01*
X142831128Y-95782143D01*
X142925377Y-95673373D01*
X142985165Y-95542457D01*
X143005647Y-95400000D01*
X142985165Y-95257543D01*
X142925377Y-95126627D01*
X142831128Y-95017857D01*
X142795076Y-94994688D01*
X149987238Y-94994688D01*
X149987238Y-94994691D01*
X150007875Y-95151450D01*
X150007876Y-95151452D01*
X150068384Y-95297531D01*
X150164638Y-95422972D01*
X150290079Y-95519226D01*
X150436158Y-95579734D01*
X150514539Y-95590053D01*
X150592919Y-95600372D01*
X150592920Y-95600372D01*
X150592921Y-95600372D01*
X150645174Y-95593492D01*
X150749682Y-95579734D01*
X150895761Y-95519226D01*
X151021202Y-95422972D01*
X151117456Y-95297531D01*
X151177964Y-95151452D01*
X151198602Y-94994690D01*
X151177964Y-94837928D01*
X151117456Y-94691849D01*
X151021202Y-94566408D01*
X151003854Y-94553096D01*
X150963277Y-94521960D01*
X150922075Y-94465532D01*
X150917920Y-94395786D01*
X150925967Y-94372078D01*
X150985165Y-94242457D01*
X151005647Y-94100000D01*
X150985165Y-93957543D01*
X150925377Y-93826627D01*
X150842689Y-93731199D01*
X150813666Y-93667647D01*
X150823610Y-93598489D01*
X150842687Y-93568802D01*
X150925377Y-93473373D01*
X150985165Y-93342457D01*
X150993138Y-93287005D01*
X151698141Y-93287005D01*
X151718622Y-93429461D01*
X151760949Y-93522143D01*
X151778411Y-93560378D01*
X151872660Y-93669148D01*
X151993735Y-93746958D01*
X151993738Y-93746959D01*
X151993737Y-93746959D01*
X152131824Y-93787504D01*
X152131826Y-93787505D01*
X152131827Y-93787505D01*
X152275750Y-93787505D01*
X152275750Y-93787504D01*
X152413841Y-93746958D01*
X152534916Y-93669148D01*
X152626477Y-93563479D01*
X152685255Y-93525705D01*
X152755124Y-93525705D01*
X152787227Y-93540365D01*
X152818364Y-93560376D01*
X152879948Y-93599954D01*
X153018036Y-93640499D01*
X153018038Y-93640500D01*
X153018039Y-93640500D01*
X153161962Y-93640500D01*
X153161962Y-93640499D01*
X153300053Y-93599953D01*
X153421128Y-93522143D01*
X153515377Y-93413373D01*
X153575165Y-93282457D01*
X153595647Y-93140000D01*
X153575165Y-92997543D01*
X153515377Y-92866627D01*
X153421128Y-92757857D01*
X153300053Y-92680047D01*
X153300051Y-92680046D01*
X153300049Y-92680045D01*
X153300050Y-92680045D01*
X153161963Y-92639500D01*
X153161961Y-92639500D01*
X153018039Y-92639500D01*
X153018036Y-92639500D01*
X152879949Y-92680045D01*
X152758873Y-92757856D01*
X152667310Y-92863525D01*
X152608531Y-92901299D01*
X152538662Y-92901299D01*
X152506557Y-92886637D01*
X152413839Y-92827050D01*
X152275751Y-92786505D01*
X152275749Y-92786505D01*
X152131827Y-92786505D01*
X152131824Y-92786505D01*
X151993737Y-92827050D01*
X151872661Y-92904861D01*
X151778411Y-93013631D01*
X151778410Y-93013633D01*
X151718622Y-93144548D01*
X151698141Y-93287005D01*
X150993138Y-93287005D01*
X151005647Y-93200000D01*
X150985165Y-93057543D01*
X150925377Y-92926627D01*
X150831128Y-92817857D01*
X150710053Y-92740047D01*
X150710051Y-92740046D01*
X150710049Y-92740045D01*
X150710050Y-92740045D01*
X150571963Y-92699500D01*
X150571961Y-92699500D01*
X150428039Y-92699500D01*
X150428036Y-92699500D01*
X150289949Y-92740045D01*
X150168873Y-92817856D01*
X150074623Y-92926626D01*
X150074622Y-92926628D01*
X150014834Y-93057543D01*
X149994353Y-93200000D01*
X150014834Y-93342456D01*
X150054569Y-93429461D01*
X150074623Y-93473373D01*
X150116882Y-93522143D01*
X150157308Y-93568798D01*
X150186332Y-93632354D01*
X150176388Y-93701512D01*
X150157308Y-93731202D01*
X150074623Y-93826627D01*
X150074622Y-93826628D01*
X150014834Y-93957543D01*
X149994353Y-94100000D01*
X150014834Y-94242456D01*
X150074622Y-94373371D01*
X150074625Y-94373377D01*
X150134680Y-94442684D01*
X150163705Y-94506240D01*
X150153761Y-94575398D01*
X150139343Y-94599372D01*
X150068384Y-94691847D01*
X150007876Y-94837927D01*
X150007875Y-94837929D01*
X149987238Y-94994688D01*
X142795076Y-94994688D01*
X142710053Y-94940047D01*
X142710051Y-94940046D01*
X142710049Y-94940045D01*
X142710050Y-94940045D01*
X142571963Y-94899500D01*
X142571961Y-94899500D01*
X142428039Y-94899500D01*
X142428036Y-94899500D01*
X142289949Y-94940045D01*
X142289946Y-94940047D01*
X142226441Y-94980858D01*
X142159401Y-95000542D01*
X142092362Y-94980856D01*
X142065690Y-94957744D01*
X142031129Y-94917858D01*
X142031128Y-94917857D01*
X141910053Y-94840047D01*
X141910051Y-94840046D01*
X141910049Y-94840045D01*
X141910050Y-94840045D01*
X141771963Y-94799500D01*
X141771961Y-94799500D01*
X141628039Y-94799500D01*
X141628036Y-94799500D01*
X141489949Y-94840045D01*
X141368873Y-94917856D01*
X141274623Y-95026626D01*
X141274622Y-95026628D01*
X141214834Y-95157543D01*
X141194353Y-95300000D01*
X119550500Y-95300000D01*
X119550500Y-94324998D01*
X126144318Y-94324998D01*
X126144318Y-94325001D01*
X126164955Y-94481760D01*
X126164956Y-94481762D01*
X126200017Y-94566408D01*
X126225464Y-94627841D01*
X126321718Y-94753282D01*
X126447159Y-94849536D01*
X126593238Y-94910044D01*
X126652584Y-94917857D01*
X126749999Y-94930682D01*
X126750000Y-94930682D01*
X126750001Y-94930682D01*
X126847408Y-94917858D01*
X126906762Y-94910044D01*
X127052841Y-94849536D01*
X127178282Y-94753282D01*
X127274536Y-94627841D01*
X127335044Y-94481762D01*
X127355682Y-94325000D01*
X127335044Y-94168238D01*
X127274536Y-94022159D01*
X127178282Y-93896718D01*
X127052841Y-93800464D01*
X127021555Y-93787505D01*
X126906762Y-93739956D01*
X126906760Y-93739955D01*
X126750001Y-93719318D01*
X126749999Y-93719318D01*
X126593239Y-93739955D01*
X126593237Y-93739956D01*
X126447160Y-93800463D01*
X126321718Y-93896718D01*
X126225463Y-94022160D01*
X126164956Y-94168237D01*
X126164955Y-94168239D01*
X126144318Y-94324998D01*
X119550500Y-94324998D01*
X119550500Y-92526616D01*
X126166970Y-92526616D01*
X126166970Y-92526619D01*
X126187607Y-92683378D01*
X126187608Y-92683380D01*
X126248116Y-92829459D01*
X126344370Y-92954900D01*
X126469811Y-93051154D01*
X126615890Y-93111662D01*
X126694271Y-93121981D01*
X126772651Y-93132300D01*
X126772652Y-93132300D01*
X126772653Y-93132300D01*
X126824906Y-93125420D01*
X126929414Y-93111662D01*
X127075493Y-93051154D01*
X127200934Y-92954900D01*
X127297188Y-92829459D01*
X127357696Y-92683380D01*
X127378334Y-92526618D01*
X127357696Y-92369856D01*
X127297188Y-92223777D01*
X127200934Y-92098336D01*
X127075493Y-92002082D01*
X127034357Y-91985043D01*
X126929414Y-91941574D01*
X126929412Y-91941573D01*
X126772653Y-91920936D01*
X126772651Y-91920936D01*
X126615891Y-91941573D01*
X126615889Y-91941574D01*
X126469812Y-92002081D01*
X126344370Y-92098336D01*
X126248115Y-92223778D01*
X126187608Y-92369855D01*
X126187607Y-92369857D01*
X126166970Y-92526616D01*
X119550500Y-92526616D01*
X119550500Y-90378711D01*
X122149500Y-90378711D01*
X122149500Y-90621288D01*
X122181161Y-90861785D01*
X122243947Y-91096104D01*
X122304892Y-91243237D01*
X122336776Y-91320212D01*
X122458064Y-91530289D01*
X122458066Y-91530292D01*
X122458067Y-91530293D01*
X122605733Y-91722736D01*
X122605739Y-91722743D01*
X122777256Y-91894260D01*
X122777262Y-91894265D01*
X122969711Y-92041936D01*
X123179788Y-92163224D01*
X123403900Y-92256054D01*
X123638211Y-92318838D01*
X123818586Y-92342584D01*
X123878711Y-92350500D01*
X123878712Y-92350500D01*
X124121289Y-92350500D01*
X124169388Y-92344167D01*
X124361789Y-92318838D01*
X124596100Y-92256054D01*
X124820212Y-92163224D01*
X125030289Y-92041936D01*
X125222738Y-91894265D01*
X125394265Y-91722738D01*
X125541936Y-91530289D01*
X125663224Y-91320212D01*
X125756054Y-91096100D01*
X125818838Y-90861789D01*
X125850500Y-90621288D01*
X125850500Y-90399998D01*
X127794318Y-90399998D01*
X127794318Y-90400001D01*
X127814955Y-90556760D01*
X127814956Y-90556762D01*
X127875464Y-90702842D01*
X127968826Y-90824514D01*
X127994020Y-90889683D01*
X127979981Y-90958128D01*
X127968826Y-90975486D01*
X127875464Y-91097157D01*
X127814956Y-91243237D01*
X127814955Y-91243239D01*
X127794318Y-91399998D01*
X127794318Y-91400001D01*
X127814955Y-91556760D01*
X127814956Y-91556762D01*
X127875464Y-91702841D01*
X127971718Y-91828282D01*
X128097159Y-91924536D01*
X128243238Y-91985044D01*
X128321619Y-91995363D01*
X128399999Y-92005682D01*
X128400000Y-92005682D01*
X128400001Y-92005682D01*
X128452254Y-91998802D01*
X128556762Y-91985044D01*
X128702841Y-91924536D01*
X128824515Y-91831171D01*
X128889683Y-91805979D01*
X128958127Y-91820017D01*
X128975478Y-91831167D01*
X129097159Y-91924536D01*
X129243238Y-91985044D01*
X129321619Y-91995363D01*
X129399999Y-92005682D01*
X129400000Y-92005682D01*
X129400001Y-92005682D01*
X129452254Y-91998802D01*
X129556762Y-91985044D01*
X129702841Y-91924536D01*
X129828282Y-91828282D01*
X129924536Y-91702841D01*
X129985044Y-91556762D01*
X130005682Y-91400000D01*
X129985044Y-91243238D01*
X129924536Y-91097159D01*
X129831171Y-90975484D01*
X129805979Y-90910317D01*
X129820017Y-90841873D01*
X129831167Y-90824521D01*
X129924536Y-90702841D01*
X129985044Y-90556762D01*
X130005682Y-90400000D01*
X130002879Y-90378712D01*
X130002879Y-90378711D01*
X152649500Y-90378711D01*
X152649500Y-90621288D01*
X152681161Y-90861785D01*
X152743947Y-91096104D01*
X152804892Y-91243237D01*
X152836776Y-91320212D01*
X152958064Y-91530289D01*
X152958066Y-91530292D01*
X152958067Y-91530293D01*
X153105733Y-91722736D01*
X153105739Y-91722743D01*
X153277256Y-91894260D01*
X153277262Y-91894265D01*
X153469711Y-92041936D01*
X153679788Y-92163224D01*
X153903900Y-92256054D01*
X154138211Y-92318838D01*
X154318586Y-92342584D01*
X154378711Y-92350500D01*
X154378712Y-92350500D01*
X154621289Y-92350500D01*
X154669388Y-92344167D01*
X154861789Y-92318838D01*
X155096100Y-92256054D01*
X155320212Y-92163224D01*
X155530289Y-92041936D01*
X155722738Y-91894265D01*
X155894265Y-91722738D01*
X156041936Y-91530289D01*
X156163224Y-91320212D01*
X156256054Y-91096100D01*
X156318838Y-90861789D01*
X156350500Y-90621288D01*
X156350500Y-90378712D01*
X156318838Y-90138211D01*
X156256054Y-89903900D01*
X156163224Y-89679788D01*
X156041936Y-89469711D01*
X155894265Y-89277262D01*
X155894260Y-89277256D01*
X155722743Y-89105739D01*
X155722736Y-89105733D01*
X155530293Y-88958067D01*
X155530292Y-88958066D01*
X155530289Y-88958064D01*
X155320212Y-88836776D01*
X155320205Y-88836773D01*
X155096104Y-88743947D01*
X154861785Y-88681161D01*
X154621289Y-88649500D01*
X154621288Y-88649500D01*
X154378712Y-88649500D01*
X154378711Y-88649500D01*
X154138214Y-88681161D01*
X153903895Y-88743947D01*
X153679794Y-88836773D01*
X153679785Y-88836777D01*
X153469706Y-88958067D01*
X153277263Y-89105733D01*
X153277256Y-89105739D01*
X153105739Y-89277256D01*
X153105733Y-89277263D01*
X152958067Y-89469706D01*
X152836777Y-89679785D01*
X152836773Y-89679794D01*
X152743947Y-89903895D01*
X152681161Y-90138214D01*
X152649500Y-90378711D01*
X130002879Y-90378711D01*
X129985044Y-90243239D01*
X129985044Y-90243238D01*
X129924536Y-90097159D01*
X129828282Y-89971718D01*
X129702841Y-89875464D01*
X129556762Y-89814956D01*
X129556760Y-89814955D01*
X129400001Y-89794318D01*
X129399999Y-89794318D01*
X129243239Y-89814955D01*
X129243237Y-89814956D01*
X129097157Y-89875464D01*
X128975486Y-89968826D01*
X128910317Y-89994020D01*
X128841872Y-89979981D01*
X128824514Y-89968826D01*
X128702842Y-89875464D01*
X128556762Y-89814956D01*
X128556760Y-89814955D01*
X128400001Y-89794318D01*
X128399999Y-89794318D01*
X128243239Y-89814955D01*
X128243237Y-89814956D01*
X128097160Y-89875463D01*
X127971718Y-89971718D01*
X127875463Y-90097160D01*
X127814956Y-90243237D01*
X127814955Y-90243239D01*
X127794318Y-90399998D01*
X125850500Y-90399998D01*
X125850500Y-90378712D01*
X125818838Y-90138211D01*
X125756054Y-89903900D01*
X125663224Y-89679788D01*
X125541936Y-89469711D01*
X125394265Y-89277262D01*
X125394260Y-89277256D01*
X125222743Y-89105739D01*
X125222736Y-89105733D01*
X125030293Y-88958067D01*
X125030292Y-88958066D01*
X125030289Y-88958064D01*
X124820212Y-88836776D01*
X124820205Y-88836773D01*
X124596104Y-88743947D01*
X124361785Y-88681161D01*
X124121289Y-88649500D01*
X124121288Y-88649500D01*
X123878712Y-88649500D01*
X123878711Y-88649500D01*
X123638214Y-88681161D01*
X123403895Y-88743947D01*
X123179794Y-88836773D01*
X123179785Y-88836777D01*
X122969706Y-88958067D01*
X122777263Y-89105733D01*
X122777256Y-89105739D01*
X122605739Y-89277256D01*
X122605733Y-89277263D01*
X122458067Y-89469706D01*
X122336777Y-89679785D01*
X122336773Y-89679794D01*
X122243947Y-89903895D01*
X122181161Y-90138214D01*
X122149500Y-90378711D01*
X119550500Y-90378711D01*
X119550500Y-88253750D01*
X119550726Y-88246263D01*
X119562598Y-88050000D01*
X131294353Y-88050000D01*
X131314834Y-88192456D01*
X131341114Y-88250000D01*
X131374623Y-88323373D01*
X131468872Y-88432143D01*
X131589947Y-88509953D01*
X131589950Y-88509954D01*
X131589949Y-88509954D01*
X131728036Y-88550499D01*
X131728038Y-88550500D01*
X131728039Y-88550500D01*
X131871962Y-88550500D01*
X131871962Y-88550499D01*
X132010053Y-88509953D01*
X132131128Y-88432143D01*
X132206287Y-88345403D01*
X132265064Y-88307629D01*
X132334934Y-88307629D01*
X132393711Y-88345402D01*
X132468872Y-88432143D01*
X132589947Y-88509953D01*
X132589950Y-88509954D01*
X132589949Y-88509954D01*
X132728036Y-88550499D01*
X132728038Y-88550500D01*
X132728039Y-88550500D01*
X132871962Y-88550500D01*
X132871962Y-88550499D01*
X133010053Y-88509953D01*
X133131128Y-88432143D01*
X133225377Y-88323373D01*
X133285165Y-88192457D01*
X133305647Y-88050000D01*
X145994353Y-88050000D01*
X146014834Y-88192456D01*
X146041114Y-88250000D01*
X146074623Y-88323373D01*
X146168872Y-88432143D01*
X146289947Y-88509953D01*
X146289950Y-88509954D01*
X146289949Y-88509954D01*
X146428036Y-88550499D01*
X146428038Y-88550500D01*
X146428039Y-88550500D01*
X146571962Y-88550500D01*
X146571962Y-88550499D01*
X146710053Y-88509953D01*
X146831128Y-88432143D01*
X146906287Y-88345403D01*
X146965064Y-88307629D01*
X147034934Y-88307629D01*
X147093711Y-88345402D01*
X147168872Y-88432143D01*
X147289947Y-88509953D01*
X147289950Y-88509954D01*
X147289949Y-88509954D01*
X147428036Y-88550499D01*
X147428038Y-88550500D01*
X147428039Y-88550500D01*
X147571962Y-88550500D01*
X147571962Y-88550499D01*
X147710053Y-88509953D01*
X147831128Y-88432143D01*
X147925377Y-88323373D01*
X147985165Y-88192457D01*
X148005647Y-88050000D01*
X147985165Y-87907543D01*
X147925377Y-87776627D01*
X147831128Y-87667857D01*
X147710053Y-87590047D01*
X147710051Y-87590046D01*
X147710049Y-87590045D01*
X147710050Y-87590045D01*
X147590804Y-87555032D01*
X147532025Y-87517258D01*
X147503000Y-87453702D01*
X147503000Y-87418410D01*
X147505647Y-87400000D01*
X147485165Y-87257543D01*
X147425377Y-87126627D01*
X147331128Y-87017857D01*
X147210053Y-86940047D01*
X147210051Y-86940046D01*
X147210049Y-86940045D01*
X147210050Y-86940045D01*
X147071963Y-86899500D01*
X147071961Y-86899500D01*
X146928039Y-86899500D01*
X146928036Y-86899500D01*
X146789949Y-86940045D01*
X146668873Y-87017856D01*
X146574623Y-87126626D01*
X146574622Y-87126628D01*
X146514834Y-87257543D01*
X146494353Y-87400000D01*
X146494353Y-87400004D01*
X146496999Y-87418411D01*
X146487054Y-87487570D01*
X146441298Y-87540372D01*
X146409196Y-87555032D01*
X146289948Y-87590045D01*
X146168873Y-87667856D01*
X146074623Y-87776626D01*
X146074622Y-87776628D01*
X146014834Y-87907543D01*
X145994353Y-88050000D01*
X133305647Y-88050000D01*
X133285165Y-87907543D01*
X133225377Y-87776627D01*
X133131128Y-87667857D01*
X133010053Y-87590047D01*
X133010051Y-87590046D01*
X133010049Y-87590045D01*
X133010050Y-87590045D01*
X132890804Y-87555032D01*
X132832025Y-87517258D01*
X132803000Y-87453702D01*
X132803000Y-87418410D01*
X132805647Y-87400000D01*
X132785165Y-87257543D01*
X132725377Y-87126627D01*
X132631128Y-87017857D01*
X132510053Y-86940047D01*
X132510051Y-86940046D01*
X132510049Y-86940045D01*
X132510050Y-86940045D01*
X132371963Y-86899500D01*
X132371961Y-86899500D01*
X132228039Y-86899500D01*
X132228036Y-86899500D01*
X132089949Y-86940045D01*
X131968873Y-87017856D01*
X131874623Y-87126626D01*
X131874622Y-87126628D01*
X131814834Y-87257543D01*
X131794353Y-87400000D01*
X131794353Y-87400004D01*
X131796999Y-87418411D01*
X131787054Y-87487570D01*
X131741298Y-87540372D01*
X131709196Y-87555032D01*
X131589948Y-87590045D01*
X131468873Y-87667856D01*
X131374623Y-87776626D01*
X131374622Y-87776628D01*
X131314834Y-87907543D01*
X131294353Y-88050000D01*
X119562598Y-88050000D01*
X119566084Y-87992359D01*
X119567889Y-87977500D01*
X119604053Y-87780160D01*
X119613062Y-87730995D01*
X119616645Y-87716461D01*
X119631791Y-87667857D01*
X119691202Y-87477202D01*
X119696504Y-87463219D01*
X119799361Y-87234679D01*
X119806320Y-87221421D01*
X119833412Y-87176606D01*
X119935975Y-87006946D01*
X119944462Y-86994650D01*
X120099034Y-86797354D01*
X120108949Y-86786163D01*
X120286163Y-86608949D01*
X120297354Y-86599034D01*
X120494650Y-86444462D01*
X120506946Y-86435975D01*
X120721421Y-86306319D01*
X120734680Y-86299361D01*
X120963219Y-86196504D01*
X120977202Y-86191202D01*
X121216467Y-86116643D01*
X121230995Y-86113062D01*
X121477506Y-86067888D01*
X121492359Y-86066084D01*
X121746264Y-86050726D01*
X121753751Y-86050500D01*
X121797595Y-86050500D01*
X156702405Y-86050500D01*
X156746249Y-86050500D01*
X156753736Y-86050726D01*
G37*
%TD.AperFunction*%
%TD*%
M02*
