M48
; DRILL file {KiCad 8.0.6} date 2025-09-02T14:19:05+0200
; FORMAT={-:-/ absolute / inch / decimal}
; #@! TF.CreationDate,2025-09-02T14:19:05+02:00
; #@! TF.GenerationSoftware,Kicad,Pcbnew,8.0.6
; #@! TF.FileFunction,Plated,1,4,PTH
FMAT,2
INCH
; #@! TA.AperFunction,Plated,PTH,ComponentDrill
T1C0.0098
; #@! TA.AperFunction,Plated,PTH,ViaDrill
T2C0.0118
; #@! TA.AperFunction,Plated,PTH,ComponentDrill
T3C0.0118
; #@! TA.AperFunction,Plated,PTH,ViaDrill
T4C0.0157
; #@! TA.AperFunction,Plated,PTH,ComponentDrill
T5C0.0236
%
G90
G05
T1
X4.7785Y-4.3976
X4.8159Y-4.375
X4.8159Y-4.4203
X4.8533Y-4.3976
T2
X4.8829Y-4.3773
X4.9065Y-4.3566
X4.9567Y-3.9961
X4.9754Y-4.7776
X4.9914Y-3.6782
X5.0079Y-4.7772
X5.0669Y-4.8681
X5.0888Y-3.8087
X5.0906Y-3.4665
X5.1102Y-3.4409
X5.1113Y-3.9625
X5.1299Y-3.4665
X5.1299Y-4.3081
X5.1299Y-4.3553
X5.1299Y-4.4026
X5.1299Y-4.4498
X5.1299Y-4.497
X5.1496Y-4.8681
X5.1572Y-4.7655
X5.1575Y-4.0748
X5.1625Y-4.5583
X5.188Y-4.5768
X5.189Y-3.4665
X5.1909Y-4.3081
X5.1909Y-4.3553
X5.1909Y-4.4026
X5.1909Y-4.4498
X5.1909Y-4.497
X5.1949Y-4.7657
X5.2087Y-3.4409
X5.2126Y-3.9213
X5.2146Y-4.5582
X5.2283Y-3.4665
X5.2323Y-4.1906
X5.2392Y-3.8927
X5.2441Y-4.8583
X5.2579Y-3.9774
X5.2588Y-3.9429
X5.2589Y-4.0118
X5.2638Y-4.8839
X5.2835Y-4.8583
X5.2992Y-4.0441
X5.3169Y-4.8701
X5.3189Y-4.7539
X5.3312Y-4.4532
X5.3346Y-4.2047
X5.3346Y-4.3406
X5.3384Y-4.6004
X5.3543Y-3.8779
X5.3661Y-4.1102
X5.3676Y-4.2101
X5.3692Y-4.3405
X5.3701Y-4.0039
X5.3701Y-4.1693
X5.372Y-3.9508
X5.374Y-4.5354
X5.3767Y-4.3711
X5.3858Y-3.878
X5.4252Y-4.3307
X5.4272Y-4.7539
X5.4272Y-4.8681
X5.4291Y-3.7559
X5.4528Y-4.4953
X5.4567Y-4.3327
X5.4587Y-4.2265
X5.4764Y-4.6299
X5.4803Y-3.9685
X5.4803Y-4.0157
X5.4803Y-4.063
X5.4803Y-4.1102
X5.4863Y-4.4436
X5.4882Y-4.3307
X5.5082Y-4.228
X5.5175Y-4.366
X5.5276Y-3.9685
X5.5276Y-4.0157
X5.5276Y-4.063
X5.5276Y-4.1102
X5.5354Y-3.7528
X5.5354Y-4.7539
X5.5364Y-4.8681
X5.5433Y-4.2224
X5.549Y-4.3656
X5.5747Y-4.2224
X5.5748Y-3.9685
X5.5748Y-4.0157
X5.5748Y-4.063
X5.5748Y-4.1102
X5.5787Y-3.752
X5.6102Y-3.7559
X5.622Y-3.9685
X5.622Y-4.0157
X5.622Y-4.063
X5.622Y-4.1102
X5.6417Y-4.7854
X5.6427Y-4.7519
X5.6457Y-3.8504
X5.6783Y-4.8598
X5.6821Y-4.6398
X5.685Y-4.5748
X5.685Y-4.6063
X5.689Y-3.8583
X5.6949Y-4.5236
X5.6969Y-4.4449
X5.6969Y-4.8858
X5.6969Y-4.4822
X5.7154Y-4.8598
X5.7165Y-4.5748
X5.7165Y-4.6063
X5.7283Y-3.9744
X5.7283Y-4.1457
X5.7302Y-4.0059
X5.7304Y-4.4763
X5.7311Y-4.054
X5.7328Y-4.1768
X5.7343Y-4.6398
X5.752Y-4.7854
X5.752Y-4.752
X5.7677Y-3.4665
X5.7746Y-4.1772
X5.7835Y-4.4567
X5.7854Y-4.5413
X5.7854Y-4.7854
X5.7854Y-4.8602
X5.7874Y-3.4409
X5.8051Y-4.8858
X5.8071Y-3.4665
X5.8071Y-4.7598
X5.8248Y-4.8602
X5.8268Y-4.7854
X5.8445Y-3.8209
X5.8543Y-4.2008
X5.8583Y-4.2598
X5.8701Y-4.4252
X5.876Y-3.4665
X5.8937Y-4.7854
X5.8937Y-4.8583
X5.8957Y-3.4409
X5.8976Y-4.0866
X5.9134Y-4.7598
X5.9134Y-4.8858
X5.9154Y-3.4665
X5.9154Y-4.2028
X5.9252Y-3.6693
X5.9252Y-3.7047
X5.9331Y-4.7854
X5.9331Y-4.8583
X5.9338Y-3.9808
X5.9923Y-3.6727
X6.002Y-3.8907
X6.0049Y-4.0354
X6.0272Y-3.6669
X6.1299Y-4.4331
T3
X5.002Y-3.9161
X5.0394Y-3.8965
X5.0394Y-3.9358
X5.0768Y-3.9161
T4
X4.7323Y-4.0512
X4.7323Y-4.1457
X4.7323Y-4.2283
X4.7362Y-3.6575
X4.7362Y-3.8622
X4.7874Y-3.4528
X4.8238Y-4.0512
X4.8238Y-4.1457
X4.8307Y-4.5787
X4.8307Y-4.6181
X4.8701Y-4.5787
X4.8701Y-4.6181
X4.872Y-4.3102
X4.8819Y-4.4941
X4.8819Y-4.5335
X4.9085Y-4.4176
X4.911Y-4.3194
X4.9331Y-4.2087
X4.9331Y-4.248
X4.9386Y-4.2929
X4.9429Y-3.9567
X4.9567Y-3.8583
X4.9724Y-4.2087
X4.9724Y-4.248
X4.9784Y-4.563
X4.9787Y-4.5186
X4.9803Y-4.6909
X4.9902Y-3.7136
X4.991Y-3.6428
X5.0227Y-4.6289
X5.0354Y-4.1496
X5.0394Y-4.0709
X5.0551Y-3.5591
X5.0551Y-3.5984
X5.0945Y-3.5591
X5.0945Y-3.5984
X5.1083Y-4.874
X5.1201Y-3.6673
X5.122Y-3.7638
X5.1299Y-4.0512
X5.1299Y-4.1457
X5.1496Y-4.0157
X5.1614Y-4.2313
X5.1693Y-3.6063
X5.2323Y-4.0433
X5.2323Y-4.0795
X5.2402Y-3.815
X5.2402Y-3.8543
X5.2579Y-3.5561
X5.2795Y-3.815
X5.2795Y-3.8543
X5.2834Y-4.1909
X5.2992Y-3.5561
X5.2992Y-3.5955
X5.3465Y-3.7165
X5.4843Y-3.4784
X5.4857Y-4.4804
X5.4882Y-4.5197
X5.4882Y-4.5591
X5.4882Y-4.5965
X5.5551Y-4.3307
X5.6535Y-4.3189
X5.6654Y-3.6535
X5.6929Y-4.3189
X5.7283Y-4.2283
X5.7362Y-3.8504
X5.7441Y-3.6535
X5.7677Y-4.2756
X5.7795Y-3.8504
X5.8228Y-3.8898
X5.8228Y-3.9252
X5.8228Y-4.2953
X5.8228Y-4.3386
X5.8228Y-4.4724
X5.8425Y-4.6378
X5.8622Y-4.0906
X5.8967Y-3.9843
X5.9016Y-4.6299
X5.9026Y-4.5551
X5.9026Y-4.5945
X5.9289Y-3.7399
X5.9305Y-4.3287
X5.9399Y-3.9459
X5.9409Y-4.6299
X5.9705Y-4.0531
X5.9724Y-3.8661
X5.9843Y-3.563
X5.9843Y-4.6299
X5.997Y-4.9134
X6.0236Y-4.6299
X6.0315Y-3.8661
X6.0315Y-4.0118
X6.0315Y-4.4606
X6.0551Y-4.2677
X6.0591Y-4.0866
X6.063Y-4.4409
X6.063Y-4.4803
X6.1024Y-4.4055
X6.1063Y-3.8307
X6.1102Y-4.3228
X6.1142Y-4.2835
X6.1378Y-3.9961
X6.1378Y-4.1063
X6.1417Y-4.6299
X6.1535Y-4.2835
X6.1535Y-4.3228
X6.1575Y-4.4055
X6.1654Y-4.5276
X6.1811Y-4.6299
X6.189Y-4.7638
X6.1929Y-3.4606
X6.1929Y-4.2835
X6.1929Y-4.3228
X6.2008Y-4.4055
X6.2333Y-3.6693
T5
G00X5.9778Y-4.2354
M15
G01X6.0211Y-4.2354
M16
G05
G00X5.9778Y-4.5756
M15
G01X6.0211Y-4.5756
M16
G05
G00X6.1482Y-4.2354
M15
G01X6.1797Y-4.2354
M16
G05
G00X6.1482Y-4.5756
M15
G01X6.1797Y-4.5756
M16
G05
M30
