%TF.GenerationSoftware,KiCad,Pcbnew,8.0.6*%
%TF.CreationDate,2025-09-02T14:19:07+02:00*%
%TF.ProjectId,atmos-fc,61746d6f-732d-4666-932e-6b696361645f,rev?*%
%TF.SameCoordinates,Original*%
%TF.FileFunction,Copper,L4,Bot*%
%TF.FilePolarity,Positive*%
%FSLAX46Y46*%
G04 Gerber Fmt 4.6, Leading zero omitted, Abs format (unit mm)*
G04 Created by KiCad (PCBNEW 8.0.6) date 2025-09-02 14:19:07*
%MOMM*%
%LPD*%
G01*
G04 APERTURE LIST*
%TA.AperFunction,ComponentPad*%
%ADD10C,0.500000*%
%TD*%
%TA.AperFunction,ComponentPad*%
%ADD11C,0.650000*%
%TD*%
%TA.AperFunction,ComponentPad*%
%ADD12O,2.100000X1.000000*%
%TD*%
%TA.AperFunction,ComponentPad*%
%ADD13O,1.800000X1.000000*%
%TD*%
%TA.AperFunction,ViaPad*%
%ADD14C,0.600000*%
%TD*%
%TA.AperFunction,ViaPad*%
%ADD15C,0.800000*%
%TD*%
%TA.AperFunction,Conductor*%
%ADD16C,0.500000*%
%TD*%
%TA.AperFunction,Conductor*%
%ADD17C,0.750000*%
%TD*%
%TA.AperFunction,Conductor*%
%ADD18C,1.000000*%
%TD*%
%TA.AperFunction,Conductor*%
%ADD19C,0.200000*%
%TD*%
%TA.AperFunction,Conductor*%
%ADD20C,1.200000*%
%TD*%
%TA.AperFunction,Conductor*%
%ADD21C,0.300000*%
%TD*%
G04 APERTURE END LIST*
D10*
%TO.P,U2,9,PAD*%
%TO.N,GND*%
X122325000Y-112275000D03*
X121375000Y-111700000D03*
X123275000Y-111700000D03*
X122325000Y-111125000D03*
%TD*%
D11*
%TO.P,U1,13,EP*%
%TO.N,GND*%
X128000001Y-98970000D03*
X128950001Y-99470000D03*
X127050001Y-99470000D03*
X128000001Y-99970000D03*
%TD*%
D12*
%TO.P,J3,S1,SHIELD*%
%TO.N,GND*%
X152385000Y-116220000D03*
D13*
X156565000Y-116220000D03*
D12*
X152385000Y-107580000D03*
D13*
X156565000Y-107580000D03*
%TD*%
D14*
%TO.N,GND*%
X130300000Y-111825000D03*
D15*
X125549500Y-100500000D03*
D14*
X152450000Y-98825000D03*
X143300000Y-121550000D03*
D15*
X152000000Y-90500000D03*
D14*
X131850000Y-109425000D03*
D15*
X130300000Y-105300000D03*
D14*
X141600000Y-104400000D03*
X130300000Y-88050000D03*
X136000000Y-98499500D03*
D15*
X127900000Y-105400000D03*
D14*
X146100000Y-121550000D03*
X145551089Y-113698911D03*
X140600000Y-95320500D03*
X144700000Y-124100500D03*
D15*
X147900000Y-113600000D03*
X133550000Y-90325000D03*
D14*
X137850000Y-123650000D03*
D15*
X146800000Y-97800000D03*
D14*
X139200000Y-104400000D03*
X149800000Y-103800000D03*
X142800000Y-100800000D03*
X141600000Y-100800000D03*
D15*
X139400000Y-115800000D03*
X156000000Y-117600000D03*
X121600000Y-87700000D03*
D14*
X142800000Y-104400000D03*
D15*
X156300000Y-109800000D03*
D14*
X139200000Y-103200000D03*
X131850000Y-113025000D03*
X145170000Y-123440000D03*
X148450000Y-97050000D03*
D15*
X157300000Y-109800000D03*
D14*
X135594313Y-116850000D03*
X152525000Y-102500000D03*
D15*
X129750000Y-123800000D03*
X131100000Y-107475000D03*
D14*
X137900000Y-95400000D03*
D15*
X156600000Y-115000000D03*
X135800000Y-94400000D03*
D14*
X138600000Y-110050000D03*
X137850000Y-120750000D03*
X139200000Y-100800000D03*
X130300000Y-114225000D03*
X131850000Y-114225000D03*
X130300000Y-109425000D03*
X144325000Y-117850000D03*
D15*
X131300000Y-91600000D03*
X155900000Y-101500000D03*
X124000000Y-115150000D03*
X130100000Y-95600000D03*
D14*
X130300000Y-113025000D03*
X140400000Y-104400000D03*
D15*
X120300000Y-98100000D03*
D14*
X149750000Y-87400000D03*
X142800000Y-103200000D03*
D15*
X152325000Y-124800000D03*
X120300000Y-92900000D03*
D14*
X124625197Y-110657064D03*
X140144250Y-110896428D03*
D15*
X153000000Y-117600000D03*
D14*
X131850000Y-111825000D03*
D15*
X128000000Y-103400000D03*
X157000000Y-117600000D03*
X120200000Y-105300000D03*
X156300000Y-108800000D03*
X134600000Y-91325000D03*
X145900000Y-92800000D03*
D14*
X133550000Y-101025000D03*
X147500000Y-120900000D03*
X148000000Y-121550000D03*
D15*
X152000000Y-117600000D03*
D14*
X144230000Y-123440000D03*
D15*
X125900000Y-98000000D03*
X143900000Y-92800000D03*
X130300000Y-102900000D03*
D14*
X141600000Y-103200000D03*
X150250000Y-88050000D03*
D15*
X122525500Y-105300000D03*
X130800000Y-102000000D03*
X130050000Y-93150000D03*
X122525500Y-102900000D03*
X150900000Y-117600000D03*
X145500000Y-107399500D03*
X157300000Y-87900000D03*
X157500000Y-111900000D03*
X134199500Y-106450000D03*
D14*
X150718544Y-101111769D03*
D15*
X155300000Y-108800000D03*
X126500000Y-119150000D03*
D14*
X135412235Y-113112235D03*
X139200000Y-102000000D03*
D15*
X139400000Y-114800000D03*
X157300000Y-108800000D03*
X139300000Y-88350500D03*
D14*
X135100000Y-120750000D03*
X140600000Y-120750000D03*
D15*
X134600000Y-90325000D03*
X147900000Y-109100000D03*
X120200000Y-102900000D03*
D14*
X142800000Y-102000000D03*
X149100000Y-112400000D03*
X131775001Y-116250000D03*
X133075000Y-98875000D03*
X155700000Y-112600000D03*
D15*
X124000000Y-114150000D03*
D14*
X149250000Y-88050000D03*
D15*
X123749455Y-109479977D03*
X149900000Y-117600000D03*
D14*
X134600000Y-102719500D03*
D15*
X139400000Y-116750000D03*
X153800500Y-108400000D03*
D14*
X130300000Y-110625000D03*
D15*
X126450500Y-115900000D03*
D14*
X146950000Y-121550000D03*
X140400000Y-103200000D03*
X136569260Y-111025602D03*
D15*
X155100000Y-97300000D03*
X155200000Y-109800000D03*
X146500000Y-108600000D03*
D14*
X145650000Y-117850000D03*
D15*
X157200000Y-121000000D03*
X145700000Y-97800000D03*
D14*
X135500000Y-106800000D03*
D15*
X149925000Y-116700000D03*
X120200000Y-107400000D03*
D14*
X129800000Y-87400000D03*
X126782105Y-93426071D03*
X141600000Y-102000000D03*
D15*
X158325000Y-93200000D03*
D14*
X131850000Y-110625000D03*
X140400000Y-100800000D03*
D15*
X147900000Y-110200000D03*
D14*
X129300000Y-88050000D03*
X140400000Y-102000000D03*
D15*
%TO.N,+3V3*%
X147900000Y-98800000D03*
D14*
X148800000Y-108200000D03*
D15*
X127577384Y-117574500D03*
D14*
X145200000Y-116200000D03*
D15*
X141100000Y-110000000D03*
X122700000Y-116300000D03*
X123700000Y-116300000D03*
X122700000Y-117300000D03*
X132900000Y-103620500D03*
X148400000Y-117800000D03*
D14*
X144400000Y-116200000D03*
D15*
X123700000Y-117300000D03*
D14*
X150250000Y-106750000D03*
D15*
X147900000Y-99700000D03*
X150592920Y-94994690D03*
X143600000Y-109700000D03*
X149925000Y-115700000D03*
D14*
X144400000Y-117000000D03*
D15*
X144600000Y-109700000D03*
X132900000Y-102700000D03*
X155900000Y-104300000D03*
X139337653Y-113802443D03*
D14*
X145200000Y-117000000D03*
%TO.N,/Connectors/CURRENT_SENSE_C*%
X133575000Y-101900000D03*
X141700000Y-95300000D03*
D15*
%TO.N,+BATT_P*%
X134100000Y-96900000D03*
X128400000Y-90400000D03*
X128400000Y-91400000D03*
D14*
X149700000Y-123400000D03*
X150200000Y-124100000D03*
D15*
X134100000Y-97900000D03*
D14*
X150700000Y-123400000D03*
D15*
X129400000Y-90400000D03*
X133100000Y-96900000D03*
X133100000Y-97900000D03*
X129400000Y-91400000D03*
%TO.N,+5V*%
X126300000Y-107900000D03*
D14*
X149700000Y-121550000D03*
X132800000Y-88050000D03*
X147000000Y-87400000D03*
X150200000Y-120900000D03*
X139100000Y-117600000D03*
X133200000Y-123400000D03*
X146950000Y-123450000D03*
X147500000Y-88050000D03*
X150700000Y-121550000D03*
X146500000Y-88050000D03*
D15*
X125300000Y-107900000D03*
X124675500Y-112207094D03*
D14*
X136500000Y-115200000D03*
X131800000Y-88050000D03*
D15*
X126458088Y-114771499D03*
D14*
X132300000Y-87400000D03*
X147450000Y-124100000D03*
D15*
X125300000Y-106900000D03*
D14*
X133700000Y-124050000D03*
X147950000Y-123450000D03*
D15*
X126300000Y-106900000D03*
D14*
X134200000Y-123400000D03*
D15*
%TO.N,/Power Management/BUCK_BST*%
X126750000Y-94325000D03*
D14*
X129256148Y-96740835D03*
%TO.N,/Power Management/BIAS*%
X129826768Y-100647142D03*
X125900000Y-101500000D03*
D15*
%TO.N,/Connectors/VIDEO_CAM*%
X126772652Y-92526618D03*
D14*
X124024500Y-111184667D03*
D15*
%TO.N,/Connectors/+5V_USB*%
X154000000Y-112800000D03*
X125440621Y-109040621D03*
X154000000Y-113800000D03*
D14*
X127200000Y-121340000D03*
X126375000Y-121350000D03*
D15*
X153200000Y-113300000D03*
X150635498Y-109950000D03*
X124740621Y-109712533D03*
D14*
%TO.N,/Connectors/UART4_TX_C*%
X146676089Y-106100500D03*
D15*
X155000000Y-111900000D03*
D14*
%TO.N,/Connectors/I2C_SDA*%
X146100571Y-120700498D03*
X140798996Y-107250000D03*
X146950000Y-115350000D03*
%TO.N,/Connectors/I2C_SCK*%
X141598499Y-107250000D03*
X143325000Y-120699500D03*
X146900000Y-113200000D03*
D15*
%TO.N,/Connectors/UART4_RX_C*%
X148900000Y-103900000D03*
X156400000Y-111900000D03*
D14*
%TO.N,/Connectors/VIDEO_VTX*%
X140625000Y-123650000D03*
X128700000Y-123650000D03*
%TO.N,/Connectors/UART3_TX_C*%
X130800000Y-123650000D03*
X135050000Y-123700000D03*
%TO.N,/MCU/OSD_SPI_SCK*%
X132399500Y-99600000D03*
X131000000Y-103500000D03*
%TO.N,/MCU/OSD_SPI_MOSI*%
X133572421Y-100150401D03*
X135500000Y-110250000D03*
%TO.N,/MCU/MCU_VBAT_SENSE*%
X132900500Y-106440500D03*
X136400000Y-101700000D03*
D15*
%TO.N,/Flash Memory/FLASH_SPI_SCK*%
X151700000Y-98200000D03*
X151650000Y-102950000D03*
%TO.N,/Flash Memory/FLASH_SPI_MOSI*%
X153200000Y-98200000D03*
X153200000Y-101900000D03*
D14*
%TO.N,/MCU/BOOT0*%
X145499293Y-100949500D03*
D15*
X153900000Y-103800000D03*
D14*
%TO.N,/IMU/IMU_SPI_SCK*%
X144701115Y-113846707D03*
X137800000Y-110000000D03*
%TO.N,/IMU/IMU_SPI_MOSI*%
X139400000Y-110000000D03*
X144700000Y-112900000D03*
%TO.N,/MCU/LED_BLUE_EN*%
X143400000Y-97800000D03*
X153090000Y-93140000D03*
%TO.N,/MCU/LED_GREEN_EN*%
X152203788Y-93287005D03*
X144500000Y-98000000D03*
%TO.N,/MCU/OSD_SPI_MISO*%
X136336322Y-106936322D03*
X136450000Y-100350000D03*
%TO.N,/IMU/IMU_SPI_MISO*%
X140943680Y-110885816D03*
X138650500Y-107353628D03*
%TO.N,/Flash Memory/FLASH_SPI_MISO*%
X148700000Y-106700000D03*
X145571089Y-102971089D03*
%TO.N,/Connectors/TELEMETRY*%
X142500000Y-95400000D03*
X145546089Y-101750500D03*
%TO.N,/Connectors/UART2_RX*%
X145500000Y-105300000D03*
X150500000Y-93200000D03*
D15*
X150874110Y-100225821D03*
%TO.N,/Connectors/UART2_TX*%
X149775000Y-101200500D03*
D14*
X145613067Y-106091467D03*
X150500000Y-94100000D03*
%TO.N,/Connectors/UART3_RX*%
X131950000Y-121050000D03*
X132450000Y-115778902D03*
X136400000Y-105900000D03*
%TO.N,/Connectors/UART3_TX*%
X131127963Y-115780376D03*
X136300000Y-104400000D03*
X130992477Y-121042477D03*
%TO.N,/MCU/BUZZER_CTRL*%
X138500000Y-114180500D03*
X139908208Y-107390894D03*
%TO.N,/MCU/OSD_SPI_~{CS}*%
X136800000Y-98500000D03*
X136376514Y-110249683D03*
%TO.N,/IMU/IMU_SPI_~{CS}*%
X139352827Y-112866335D03*
X144650000Y-114900000D03*
%TD*%
D16*
%TO.N,GND*%
X152385000Y-107580000D02*
X154180000Y-107580000D01*
%TO.N,+3V3*%
X149925000Y-115125000D02*
X149200000Y-114400000D01*
X143925000Y-116525000D02*
X144400000Y-117000000D01*
X144800000Y-116200000D02*
X144400000Y-116200000D01*
D17*
X122700000Y-116300000D02*
X122700000Y-117300000D01*
D16*
X144600000Y-109823285D02*
X144600000Y-109700000D01*
X140300000Y-118700000D02*
X140300000Y-114497918D01*
X143400000Y-117000000D02*
X144400000Y-117000000D01*
X148950000Y-116350000D02*
X149600000Y-115700000D01*
D17*
X122700000Y-117300000D02*
X123700000Y-117300000D01*
D16*
X144400000Y-117000000D02*
X144800000Y-117000000D01*
X148400000Y-117800000D02*
X147500000Y-118700000D01*
X144400000Y-117000000D02*
X145200000Y-117000000D01*
X144800000Y-116200000D02*
X144800000Y-117000000D01*
X144800000Y-117000000D02*
X145200000Y-117000000D01*
D17*
X122700000Y-116300000D02*
X123700000Y-116300000D01*
D16*
X132325000Y-103275000D02*
X132900000Y-102700000D01*
D18*
X123300000Y-117300000D02*
X123700000Y-117700000D01*
D16*
X132900000Y-102700000D02*
X132900000Y-103620500D01*
X129150000Y-120000000D02*
X126000000Y-120000000D01*
X145200000Y-117000000D02*
X145200000Y-116200000D01*
X145200000Y-116200000D02*
X144800000Y-116200000D01*
X130450000Y-118700000D02*
X129150000Y-120000000D01*
X128600000Y-116551884D02*
X128600000Y-108400000D01*
X132900000Y-103620500D02*
X132670500Y-103620500D01*
D19*
X150500000Y-106500000D02*
X153700000Y-106500000D01*
D16*
X147925000Y-98800000D02*
X147900000Y-98800000D01*
X144400000Y-116200000D02*
X144400000Y-116600000D01*
X146000000Y-98800000D02*
X147900000Y-98800000D01*
X149200000Y-114400000D02*
X149200000Y-113697918D01*
X144600000Y-109700000D02*
X144600000Y-100200000D01*
X132150000Y-104850000D02*
X132150000Y-104200000D01*
D17*
X123700000Y-117700000D02*
X124350000Y-118350000D01*
D16*
X148152582Y-112650500D02*
X147427215Y-112650500D01*
D19*
X146850000Y-111825000D02*
X147775000Y-110900000D01*
D17*
X123700000Y-117300000D02*
X123700000Y-116300000D01*
D19*
X148189950Y-110900000D02*
X148800000Y-110289950D01*
D16*
X122700000Y-117300000D02*
X123300000Y-117300000D01*
X144400000Y-116600000D02*
X144800000Y-117000000D01*
X144600000Y-100200000D02*
X146000000Y-98800000D01*
X147900000Y-99700000D02*
X147900000Y-98800000D01*
X150592920Y-94994690D02*
X150592920Y-96132080D01*
X149925000Y-115700000D02*
X149925000Y-115125000D01*
X143600000Y-109700000D02*
X144600000Y-109700000D01*
X139604525Y-113802443D02*
X139337653Y-113802443D01*
X123700000Y-117700000D02*
X123700000Y-117300000D01*
X142900000Y-118700000D02*
X142900000Y-117500000D01*
X126000000Y-120000000D02*
X124350000Y-118350000D01*
X123700000Y-117300000D02*
X122700000Y-116300000D01*
X147427215Y-112650500D02*
X144600000Y-109823285D01*
D19*
X147775000Y-110900000D02*
X148189950Y-110900000D01*
D16*
X144200000Y-116200000D02*
X143925000Y-116475000D01*
X127577384Y-117574500D02*
X128600000Y-116551884D01*
X142900000Y-118700000D02*
X140300000Y-118700000D01*
X132150000Y-103450000D02*
X132325000Y-103275000D01*
D19*
X153700000Y-106500000D02*
X155900000Y-104300000D01*
D16*
X140300000Y-118700000D02*
X130450000Y-118700000D01*
X128600000Y-108400000D02*
X132150000Y-104850000D01*
X132150000Y-104200000D02*
X132150000Y-103450000D01*
X143925000Y-116475000D02*
X143400000Y-117000000D01*
X132670500Y-103620500D02*
X132325000Y-103275000D01*
X148400000Y-117800000D02*
X148950000Y-117250000D01*
X148950000Y-117250000D02*
X148950000Y-116350000D01*
X144400000Y-116200000D02*
X144200000Y-116200000D01*
X143925000Y-116475000D02*
X143925000Y-116525000D01*
X149200000Y-113697918D02*
X148152582Y-112650500D01*
X140300000Y-114497918D02*
X139604525Y-113802443D01*
X149600000Y-115700000D02*
X149925000Y-115700000D01*
D19*
X148800000Y-110289950D02*
X148800000Y-108200000D01*
D16*
X150592920Y-96132080D02*
X147925000Y-98800000D01*
X147500000Y-118700000D02*
X142900000Y-118700000D01*
X132729500Y-103620500D02*
X132150000Y-104200000D01*
X132900000Y-103620500D02*
X132729500Y-103620500D01*
X124350000Y-118350000D02*
X123300000Y-117300000D01*
X142900000Y-117500000D02*
X143400000Y-117000000D01*
D19*
X150250000Y-106750000D02*
X150500000Y-106500000D01*
%TO.N,/Connectors/CURRENT_SENSE_C*%
X135600000Y-97900000D02*
X139100000Y-97900000D01*
X132825000Y-101600000D02*
X132825000Y-100050000D01*
X133575000Y-101900000D02*
X133125000Y-101900000D01*
X134450000Y-99050000D02*
X135600000Y-97900000D01*
X133125000Y-101900000D02*
X132825000Y-101600000D01*
X132825000Y-100050000D02*
X133825000Y-99050000D01*
X133825000Y-99050000D02*
X134450000Y-99050000D01*
X139100000Y-97900000D02*
X141700000Y-95300000D01*
D17*
%TO.N,+BATT_P*%
X123090672Y-124866206D02*
X123451281Y-124933616D01*
X149700000Y-123400000D02*
X150700000Y-123400000D01*
X150200000Y-124650000D02*
X150200000Y-124100000D01*
X149875000Y-124975000D02*
X150200000Y-124650000D01*
X121191582Y-123808418D02*
X121462695Y-124055571D01*
X150700000Y-123400000D02*
X150700000Y-123600000D01*
X120050000Y-109700000D02*
X120050000Y-121371907D01*
X120050000Y-121371907D02*
X120066384Y-121548719D01*
D20*
X130400000Y-90400000D02*
X127625000Y-90400000D01*
D17*
X134100000Y-97900000D02*
X134100000Y-96900000D01*
X127250000Y-90400000D02*
X123500000Y-94150000D01*
X120450000Y-122771526D02*
X120530230Y-122932650D01*
X127625000Y-90400000D02*
X127250000Y-90400000D01*
X123500000Y-94150000D02*
X123500000Y-106250000D01*
X120944429Y-123537305D02*
X121191582Y-123808418D01*
X120530230Y-122932650D02*
X120723354Y-123244555D01*
D20*
X134100000Y-92652943D02*
X134100000Y-95900000D01*
D17*
X124255328Y-124975000D02*
X148650000Y-124975000D01*
D20*
X127625000Y-90600000D02*
X127625000Y-90400000D01*
D17*
X123922871Y-124972871D02*
X124253199Y-124972871D01*
D20*
X129400000Y-91400000D02*
X129400000Y-90400000D01*
X134100000Y-95900000D02*
X134100000Y-96900000D01*
D17*
X127300000Y-90400000D02*
X128400000Y-90400000D01*
X134100000Y-97900000D02*
X133100000Y-97900000D01*
X123500000Y-106250000D02*
X120050000Y-109700000D01*
D20*
X130400000Y-90400000D02*
X131847057Y-90400000D01*
D17*
X120234187Y-122262176D02*
X120366708Y-122604253D01*
X148650000Y-124975000D02*
X149875000Y-124975000D01*
X120133794Y-121909328D02*
X120234187Y-122262176D01*
D20*
X133100000Y-96900000D02*
X134100000Y-96900000D01*
D17*
X149700000Y-123600000D02*
X150200000Y-124100000D01*
X128400000Y-91400000D02*
X128400000Y-90400000D01*
X120723354Y-123244555D02*
X120944429Y-123537305D01*
X150700000Y-123600000D02*
X150200000Y-124100000D01*
D20*
X129400000Y-91400000D02*
X130400000Y-90400000D01*
X133100000Y-96900000D02*
X134100000Y-95900000D01*
D17*
X123919013Y-124969013D02*
X123922871Y-124972871D01*
X121462695Y-124055571D02*
X121755445Y-124276646D01*
X124253199Y-124972871D02*
X124255328Y-124975000D01*
D20*
X129400000Y-91400000D02*
X128425000Y-91400000D01*
X131847057Y-90400000D02*
X134100000Y-92652943D01*
D17*
X133100000Y-96900000D02*
X133100000Y-97900000D01*
X134100000Y-97900000D02*
X133100000Y-96900000D01*
X122067350Y-124469770D02*
X122395747Y-124633292D01*
X122395747Y-124633292D02*
X122737824Y-124765813D01*
X122737824Y-124765813D02*
X123090672Y-124866206D01*
X123451281Y-124933616D02*
X123821070Y-124967882D01*
X123821070Y-124967882D02*
X123919013Y-124969013D01*
X149700000Y-123400000D02*
X149700000Y-123600000D01*
X120066384Y-121548719D02*
X120133794Y-121909328D01*
X120366708Y-122604253D02*
X120428650Y-122728650D01*
D20*
X128425000Y-91400000D02*
X127625000Y-90600000D01*
D17*
X121755445Y-124276646D02*
X122067350Y-124469770D01*
D16*
%TO.N,+5V*%
X157275000Y-103475000D02*
X157275000Y-90574997D01*
X123530867Y-123559974D02*
X123842859Y-123597856D01*
X139100000Y-117600000D02*
X135904974Y-117600000D01*
X155791882Y-88056577D02*
X155501156Y-87916571D01*
X146730000Y-89200000D02*
X132500000Y-89200000D01*
X157236806Y-90093005D02*
X157165002Y-89778414D01*
X127300500Y-115547918D02*
X126524081Y-114771499D01*
X156317386Y-88429442D02*
X156065104Y-88228254D01*
X122159681Y-122840319D02*
X122394925Y-123048727D01*
X155196583Y-87809997D02*
X154881992Y-87738194D01*
X125361589Y-112761589D02*
X125361589Y-113675000D01*
X126400000Y-122500000D02*
X133700000Y-122500000D01*
X131800000Y-87900000D02*
X132300000Y-87400000D01*
D17*
X125300000Y-106900000D02*
X126300000Y-106900000D01*
D16*
X132300000Y-88550000D02*
X131800000Y-88050000D01*
X158118274Y-122811316D02*
X158268589Y-122448423D01*
X156557728Y-124533112D02*
X156884324Y-124314888D01*
X146950000Y-123450000D02*
X146950000Y-123600000D01*
X123225717Y-123484761D02*
X123530867Y-123559974D01*
X132300000Y-89000000D02*
X132300000Y-88550000D01*
X157465703Y-123787957D02*
X157714888Y-123484324D01*
X147450000Y-122950000D02*
X147950000Y-123450000D01*
X154500000Y-125100000D02*
X154696396Y-125097741D01*
X147500000Y-89200000D02*
X147270000Y-89200000D01*
X147000000Y-88930000D02*
X147000000Y-87400000D01*
X151900000Y-122500000D02*
X154400000Y-125000000D01*
X132800000Y-88050000D02*
X132300000Y-88550000D01*
X158268589Y-122448423D02*
X158382611Y-122072543D01*
X147950000Y-123450000D02*
X147950000Y-123600000D01*
X122653574Y-123227260D02*
X122931858Y-123373315D01*
X157058427Y-89473841D02*
X156918421Y-89183116D01*
X155087298Y-125059241D02*
X155472543Y-124982611D01*
X121951273Y-122605075D02*
X122159681Y-122840319D01*
X158500000Y-104700000D02*
X157275000Y-103475000D01*
X124675500Y-112207094D02*
X124807094Y-112207094D01*
X127350000Y-118750000D02*
X126550000Y-117950000D01*
X155501156Y-87916571D02*
X155196583Y-87809997D01*
X129400000Y-117600000D02*
X128250000Y-118750000D01*
X133700000Y-122500000D02*
X133700000Y-124050000D01*
X147950000Y-123600000D02*
X147450000Y-124100000D01*
X133200000Y-123400000D02*
X133200000Y-123550000D01*
X157714888Y-123484324D02*
X157933112Y-123157728D01*
X156918421Y-89183116D02*
X156746744Y-88909894D01*
X158459241Y-121687298D02*
X158497741Y-121296396D01*
X156065104Y-88228254D02*
X155791882Y-88056577D01*
X132800000Y-87900000D02*
X132300000Y-87400000D01*
X132500000Y-89200000D02*
X132300000Y-89000000D01*
X147000000Y-88930000D02*
X147000000Y-88550000D01*
X153261806Y-87738194D02*
X151800000Y-89200000D01*
X149700000Y-121550000D02*
X149700000Y-121400000D01*
X126550000Y-117002582D02*
X127300500Y-116252082D01*
X121400000Y-115482594D02*
X121400000Y-120900000D01*
X121515239Y-121774283D02*
X121626685Y-122068142D01*
X158382611Y-122072543D02*
X158459241Y-121687298D01*
X146500000Y-87900000D02*
X147000000Y-87400000D01*
X149700000Y-121400000D02*
X150200000Y-120900000D01*
X156211316Y-124718274D02*
X156557728Y-124533112D01*
X121440026Y-121469133D02*
X121515239Y-121774283D01*
X133700000Y-122900000D02*
X134200000Y-123400000D01*
X158497741Y-121296396D02*
X158500000Y-121100000D01*
X128250000Y-118750000D02*
X127350000Y-118750000D01*
X147450000Y-122500000D02*
X147450000Y-122950000D01*
X121402144Y-121157141D02*
X121440026Y-121469133D01*
D17*
X125300000Y-107900000D02*
X126300000Y-107900000D01*
D16*
X133700000Y-122500000D02*
X133700000Y-122900000D01*
X149700000Y-121550000D02*
X150200000Y-122050000D01*
X147000000Y-88550000D02*
X146500000Y-88050000D01*
X147450000Y-122950000D02*
X146950000Y-123450000D01*
X147500000Y-89200000D02*
X146730000Y-89200000D01*
X132300000Y-88550000D02*
X132300000Y-87400000D01*
D17*
X126300000Y-107900000D02*
X126300000Y-106900000D01*
D16*
X150200000Y-122500000D02*
X150200000Y-122050000D01*
X156884324Y-124314888D02*
X157187957Y-124065703D01*
X158500000Y-121100000D02*
X158500000Y-104700000D01*
X126524081Y-114771499D02*
X126458088Y-114771499D01*
X157272935Y-90413657D02*
X157236806Y-90093005D01*
X151800000Y-89200000D02*
X147500000Y-89200000D01*
X155848423Y-124868589D02*
X156211316Y-124718274D01*
D17*
X125300000Y-107900000D02*
X125300000Y-106900000D01*
D16*
X134200000Y-123550000D02*
X133700000Y-124050000D01*
X157187957Y-124065703D02*
X157465703Y-123787957D01*
X157933112Y-123157728D02*
X158118274Y-122811316D01*
X133200000Y-123550000D02*
X133700000Y-124050000D01*
X156545556Y-88657612D02*
X156317386Y-88429442D01*
X124000000Y-123600000D02*
X125300000Y-123600000D01*
X126430000Y-107030000D02*
X126300000Y-106900000D01*
X147000000Y-88930000D02*
X146730000Y-89200000D01*
X124807094Y-112207094D02*
X125361589Y-112761589D01*
X132800000Y-88050000D02*
X132800000Y-87900000D01*
X124675500Y-112207094D02*
X126430000Y-110452594D01*
X147500000Y-87900000D02*
X147000000Y-87400000D01*
X134200000Y-123400000D02*
X134200000Y-123550000D01*
X124675500Y-112207094D02*
X121400000Y-115482594D01*
X146950000Y-123600000D02*
X147450000Y-124100000D01*
X135904974Y-117600000D02*
X129400000Y-117600000D01*
X147500000Y-88050000D02*
X147500000Y-87900000D01*
X146500000Y-88050000D02*
X146500000Y-87900000D01*
X121772740Y-122346426D02*
X121951273Y-122605075D01*
X150700000Y-121400000D02*
X150200000Y-120900000D01*
X150200000Y-122500000D02*
X150200000Y-120900000D01*
X157275000Y-90574997D02*
X157272935Y-90413657D01*
X121400000Y-121000000D02*
X121402144Y-121157141D01*
X125300000Y-123600000D02*
X126400000Y-122500000D01*
X150200000Y-122050000D02*
X150700000Y-121550000D01*
X125361589Y-113675000D02*
X126458088Y-114771499D01*
X154881992Y-87738194D02*
X153261806Y-87738194D01*
X126430000Y-110452594D02*
X126430000Y-108590000D01*
X155472543Y-124982611D02*
X155848423Y-124868589D01*
X136500000Y-115200000D02*
X136500000Y-117600000D01*
X126430000Y-108590000D02*
X126430000Y-107030000D01*
X147450000Y-122500000D02*
X150200000Y-122500000D01*
D17*
X125300000Y-106900000D02*
X126300000Y-107900000D01*
D16*
X154696396Y-125097741D02*
X155087298Y-125059241D01*
X125740000Y-107900000D02*
X125300000Y-107900000D01*
X147270000Y-89200000D02*
X147000000Y-88930000D01*
X136500000Y-117600000D02*
X135904974Y-117600000D01*
X131800000Y-88050000D02*
X131800000Y-87900000D01*
X133700000Y-122500000D02*
X147450000Y-122500000D01*
X150200000Y-122500000D02*
X151900000Y-122500000D01*
X123842859Y-123597856D02*
X124000000Y-123600000D01*
X127300500Y-116252082D02*
X127300500Y-115547918D01*
X122931858Y-123373315D02*
X123225717Y-123484761D01*
X157165002Y-89778414D02*
X157058427Y-89473841D01*
X126430000Y-108590000D02*
X125740000Y-107900000D01*
X126550000Y-117950000D02*
X126550000Y-117002582D01*
X147000000Y-88550000D02*
X147500000Y-88050000D01*
X156746744Y-88909894D02*
X156545556Y-88657612D01*
X150700000Y-121550000D02*
X150700000Y-121400000D01*
X133700000Y-122900000D02*
X133200000Y-123400000D01*
X121626685Y-122068142D02*
X121772740Y-122346426D01*
X122394925Y-123048727D02*
X122653574Y-123227260D01*
X147450000Y-124100000D02*
X147450000Y-122950000D01*
X121400000Y-121000000D02*
G75*
G03*
X124000000Y-123600000I2600000J0D01*
G01*
D21*
%TO.N,/Power Management/BUCK_BST*%
X129256148Y-95956148D02*
X129256148Y-96740835D01*
X126750000Y-94325000D02*
X127625000Y-94325000D01*
X127625000Y-94325000D02*
X129256148Y-95956148D01*
%TO.N,/Power Management/BIAS*%
X125900000Y-101500000D02*
X128973910Y-101500000D01*
X128973910Y-101500000D02*
X129826768Y-100647142D01*
D19*
%TO.N,/Connectors/VIDEO_CAM*%
X124850000Y-94449270D02*
X124850000Y-105875000D01*
X123049955Y-110210122D02*
X124024500Y-111184667D01*
X126772652Y-92526618D02*
X124850000Y-94449270D01*
X124450000Y-106275000D02*
X124450000Y-107425000D01*
X124850000Y-105875000D02*
X124450000Y-106275000D01*
X124450000Y-107425000D02*
X123049955Y-108825045D01*
X123049955Y-108825045D02*
X123049955Y-110210122D01*
D16*
%TO.N,/Connectors/+5V_USB*%
X154500000Y-117700000D02*
X154500000Y-114700000D01*
X126375000Y-121350000D02*
X129625000Y-121350000D01*
D17*
X154000000Y-113800000D02*
X154500000Y-114300000D01*
X154500000Y-114300000D02*
X154500000Y-114700000D01*
D16*
X153485498Y-112800000D02*
X150635498Y-109950000D01*
X148250500Y-119949500D02*
X149300000Y-118900000D01*
X153700000Y-112800000D02*
X153485498Y-112800000D01*
X149300000Y-118900000D02*
X153300000Y-118900000D01*
X129625000Y-121350000D02*
X131025500Y-119949500D01*
X131025500Y-119949500D02*
X148250500Y-119949500D01*
X153300000Y-118900000D02*
X154500000Y-117700000D01*
D19*
%TO.N,/Connectors/UART4_TX_C*%
X147875589Y-107300000D02*
X146676089Y-106100500D01*
X153200000Y-111400000D02*
X149100000Y-107300000D01*
X155000000Y-111900000D02*
X154500000Y-111400000D01*
X154500000Y-111400000D02*
X153200000Y-111400000D01*
X149100000Y-107300000D02*
X147875589Y-107300000D01*
%TO.N,/Connectors/I2C_SDA*%
X141950000Y-110450000D02*
X141950000Y-108499639D01*
X142550000Y-111050000D02*
X141950000Y-110450000D01*
X143750000Y-111050000D02*
X142550000Y-111050000D01*
X140798996Y-107348635D02*
X140798996Y-107250000D01*
X140798996Y-107250000D02*
X140801037Y-107252041D01*
X146950000Y-115350000D02*
X146950000Y-114250000D01*
X146950000Y-114250000D02*
X143750000Y-111050000D01*
X141950000Y-108499639D02*
X140798996Y-107348635D01*
%TO.N,/Connectors/I2C_SCK*%
X142900000Y-110400000D02*
X142600000Y-110100000D01*
X142600000Y-108251501D02*
X141598499Y-107250000D01*
X142600000Y-110100000D02*
X142600000Y-108251501D01*
X144100000Y-110400000D02*
X142900000Y-110400000D01*
X146900000Y-113200000D02*
X144100000Y-110400000D01*
%TO.N,/Connectors/UART4_RX_C*%
X153325000Y-110700000D02*
X149300000Y-106675000D01*
X149300000Y-106675000D02*
X149300000Y-104300000D01*
X156400000Y-111900000D02*
X155200000Y-110700000D01*
X149300000Y-104300000D02*
X148900000Y-103900000D01*
X155200000Y-110700000D02*
X153325000Y-110700000D01*
%TO.N,/MCU/OSD_SPI_SCK*%
X132050000Y-99949500D02*
X132399500Y-99600000D01*
X131000000Y-103475000D02*
X132050000Y-102425000D01*
X132050000Y-102425000D02*
X132050000Y-99949500D01*
X131000000Y-103500000D02*
X131000000Y-103475000D01*
%TO.N,/MCU/OSD_SPI_MOSI*%
X137650000Y-106600000D02*
X135500000Y-108750000D01*
X133572421Y-100150401D02*
X133972822Y-99750000D01*
X133972822Y-99750000D02*
X136900000Y-99750000D01*
X137650000Y-100500000D02*
X137650000Y-106600000D01*
X136900000Y-99750000D02*
X137650000Y-100500000D01*
X135500000Y-108750000D02*
X135500000Y-110250000D01*
%TO.N,/MCU/MCU_VBAT_SENSE*%
X136400000Y-102025000D02*
X136400000Y-101700000D01*
X132900500Y-106440500D02*
X132900500Y-105524500D01*
X132900500Y-105524500D02*
X136400000Y-102025000D01*
%TO.N,/Flash Memory/FLASH_SPI_SCK*%
X151700000Y-102900000D02*
X151700000Y-98200000D01*
X151650000Y-102950000D02*
X151700000Y-102900000D01*
%TO.N,/Flash Memory/FLASH_SPI_MOSI*%
X153200000Y-101900000D02*
X153200000Y-98200000D01*
%TO.N,/MCU/BOOT0*%
X145499293Y-100949500D02*
X146249500Y-100949500D01*
X149750000Y-102550000D02*
X151000000Y-103800000D01*
X147850000Y-102550000D02*
X149750000Y-102550000D01*
X151000000Y-103800000D02*
X153900000Y-103800000D01*
X146249500Y-100949500D02*
X147850000Y-102550000D01*
%TO.N,/IMU/IMU_SPI_SCK*%
X143304408Y-112450000D02*
X139784314Y-112450000D01*
X143900000Y-113048529D02*
X143900000Y-113045592D01*
X139784314Y-112450000D02*
X137800000Y-110465686D01*
X143900000Y-113045592D02*
X143304408Y-112450000D01*
X144251471Y-113400000D02*
X143900000Y-113048529D01*
X144701115Y-113846707D02*
X144254408Y-113400000D01*
X144254408Y-113400000D02*
X144251471Y-113400000D01*
X137800000Y-110465686D02*
X137800000Y-110000000D01*
%TO.N,/IMU/IMU_SPI_MOSI*%
X143500000Y-111700000D02*
X140100000Y-111700000D01*
X140100000Y-111700000D02*
X139400000Y-111000000D01*
X144700000Y-112900000D02*
X143500000Y-111700000D01*
X139400000Y-111000000D02*
X139400000Y-110000000D01*
%TO.N,/MCU/LED_BLUE_EN*%
X153090000Y-92940000D02*
X151950000Y-91800000D01*
X153090000Y-93140000D02*
X153090000Y-92940000D01*
X151950000Y-91800000D02*
X149400000Y-91800000D01*
X149400000Y-91800000D02*
X143400000Y-97800000D01*
%TO.N,/MCU/LED_GREEN_EN*%
X144500000Y-97900000D02*
X144500000Y-98000000D01*
X151516783Y-92600000D02*
X149800000Y-92600000D01*
X152203788Y-93287005D02*
X151516783Y-92600000D01*
X149800000Y-92600000D02*
X144500000Y-97900000D01*
%TO.N,/MCU/OSD_SPI_MISO*%
X137000000Y-100900000D02*
X136450000Y-100350000D01*
X137000000Y-106272644D02*
X137000000Y-100900000D01*
X136336322Y-106936322D02*
X137000000Y-106272644D01*
%TO.N,/Flash Memory/FLASH_SPI_MISO*%
X145571089Y-103571089D02*
X145571089Y-102971089D01*
X148700000Y-106700000D02*
X145571089Y-103571089D01*
%TO.N,/Connectors/UART2_RX*%
X152200000Y-94400000D02*
X151000000Y-93200000D01*
X150874110Y-100225821D02*
X150874110Y-98035940D01*
X152200000Y-96710050D02*
X152200000Y-94400000D01*
X151000000Y-93200000D02*
X150500000Y-93200000D01*
X150874110Y-98035940D02*
X152200000Y-96710050D01*
%TO.N,/Connectors/UART2_TX*%
X151475000Y-96450000D02*
X151475000Y-94625000D01*
X149775000Y-98150000D02*
X151475000Y-96450000D01*
X149775000Y-101200500D02*
X149775000Y-98150000D01*
X151475000Y-94625000D02*
X150950000Y-94100000D01*
X150950000Y-94100000D02*
X150500000Y-94100000D01*
%TO.N,/Connectors/UART3_RX*%
X134900000Y-106150000D02*
X135150000Y-105900000D01*
X132450000Y-115778902D02*
X134500000Y-113728902D01*
X135150000Y-105900000D02*
X136400000Y-105900000D01*
X134900000Y-106875000D02*
X134900000Y-106150000D01*
X134500000Y-113728902D02*
X134500000Y-107275000D01*
X134500000Y-107275000D02*
X134900000Y-106875000D01*
%TO.N,/Connectors/UART3_TX*%
X133500000Y-113423529D02*
X133500000Y-106110050D01*
X131143153Y-115780376D02*
X133500000Y-113423529D01*
X133500000Y-106110050D02*
X135210050Y-104400000D01*
X135210050Y-104400000D02*
X136300000Y-104400000D01*
X131127963Y-115780376D02*
X131143153Y-115780376D01*
%TO.N,/MCU/BUZZER_CTRL*%
X137168760Y-109683898D02*
X139461764Y-107390894D01*
X138500000Y-114180500D02*
X138500000Y-112450000D01*
X137168760Y-111118760D02*
X137168760Y-109683898D01*
X138500000Y-112450000D02*
X137168760Y-111118760D01*
X139461764Y-107390894D02*
X139908208Y-107390894D01*
%TO.N,/MCU/OSD_SPI_~{CS}*%
X138250000Y-99950000D02*
X136800000Y-98500000D01*
X136450000Y-110176197D02*
X136450000Y-108700000D01*
X136376514Y-110249683D02*
X136450000Y-110176197D01*
X138250000Y-106900000D02*
X138250000Y-99950000D01*
X136450000Y-108700000D02*
X138250000Y-106900000D01*
%TO.N,/IMU/IMU_SPI_~{CS}*%
X144650000Y-114849112D02*
X143000888Y-113200000D01*
X139391495Y-112866335D02*
X139352827Y-112866335D01*
X143000888Y-113200000D02*
X139725160Y-113200000D01*
X144650000Y-114900000D02*
X144650000Y-114849112D01*
X139725160Y-113200000D02*
X139391495Y-112866335D01*
%TD*%
%TA.AperFunction,Conductor*%
%TO.N,/Connectors/+5V_USB*%
G36*
X153347657Y-112319685D02*
G01*
X153368299Y-112336319D01*
X153373788Y-112341808D01*
X153387837Y-112354997D01*
X153399576Y-112365341D01*
X153490069Y-112420565D01*
X153555116Y-112446059D01*
X153555129Y-112446064D01*
X153614329Y-112462622D01*
X153614333Y-112462623D01*
X153726594Y-112461178D01*
X153795103Y-112447457D01*
X153824387Y-112437082D01*
X153836111Y-112433571D01*
X153837771Y-112433162D01*
X153872754Y-112424540D01*
X153937417Y-112408603D01*
X153967090Y-112405000D01*
X154032913Y-112405000D01*
X154062580Y-112408601D01*
X154078252Y-112412464D01*
X154111207Y-112418691D01*
X154138156Y-112422264D01*
X154145995Y-112423200D01*
X154257917Y-112414359D01*
X154266742Y-112411977D01*
X154336593Y-112413510D01*
X154394528Y-112452564D01*
X154422152Y-112516741D01*
X154415558Y-112574159D01*
X154405968Y-112600467D01*
X154405967Y-112600469D01*
X154394508Y-112669380D01*
X154394507Y-112669393D01*
X154392598Y-112756326D01*
X154396086Y-112785048D01*
X154396086Y-112814944D01*
X154388152Y-112880278D01*
X154380998Y-112909300D01*
X154357661Y-112970836D01*
X154343770Y-112997305D01*
X154303212Y-113056064D01*
X154297636Y-113064434D01*
X154293226Y-113071297D01*
X154254449Y-113160064D01*
X154236982Y-113227720D01*
X154236982Y-113227724D01*
X154227681Y-113288495D01*
X154227681Y-113288499D01*
X154242652Y-113399759D01*
X154242653Y-113399763D01*
X154264535Y-113466117D01*
X154264538Y-113466124D01*
X154303244Y-113543983D01*
X154361309Y-113628103D01*
X154378053Y-113650153D01*
X154378054Y-113650154D01*
X154392408Y-113667376D01*
X154411062Y-113687802D01*
X154411087Y-113687828D01*
X154423948Y-113700689D01*
X154457433Y-113762012D01*
X154452449Y-113831704D01*
X154423949Y-113876051D01*
X154336317Y-113963682D01*
X154274997Y-113997166D01*
X154248638Y-114000000D01*
X153468268Y-114000000D01*
X153401229Y-113980315D01*
X153357846Y-113932419D01*
X153346096Y-113909422D01*
X153324046Y-113866264D01*
X153290706Y-113814607D01*
X153205715Y-113741250D01*
X153205712Y-113741248D01*
X153205709Y-113741246D01*
X153145338Y-113706095D01*
X153145332Y-113706092D01*
X153067497Y-113674176D01*
X153064823Y-113673290D01*
X153046216Y-113665386D01*
X153038166Y-113661161D01*
X152987297Y-113634463D01*
X152962698Y-113617483D01*
X152913434Y-113573839D01*
X152893614Y-113551467D01*
X152857705Y-113499444D01*
X152857704Y-113499443D01*
X152856225Y-113497301D01*
X152842334Y-113470832D01*
X152838846Y-113461635D01*
X152818999Y-113409301D01*
X152811846Y-113380280D01*
X152809309Y-113359384D01*
X152803913Y-113314939D01*
X152803913Y-113285058D01*
X152811846Y-113219714D01*
X152819000Y-113190695D01*
X152821076Y-113185220D01*
X152842337Y-113129160D01*
X152856223Y-113102700D01*
X152891988Y-113050887D01*
X152911460Y-113018577D01*
X152925592Y-112991471D01*
X152930970Y-112980637D01*
X152959420Y-112872030D01*
X152964404Y-112802338D01*
X152962596Y-112740882D01*
X152939300Y-112669389D01*
X152927815Y-112634140D01*
X152927811Y-112634130D01*
X152894328Y-112572811D01*
X152887165Y-112563243D01*
X152862746Y-112497779D01*
X152877596Y-112429506D01*
X152898741Y-112401258D01*
X152963684Y-112336315D01*
X153025006Y-112302833D01*
X153051362Y-112300000D01*
X153280618Y-112300000D01*
X153347657Y-112319685D01*
G37*
%TD.AperFunction*%
%TD*%
%TA.AperFunction,Conductor*%
%TO.N,+5V*%
G36*
X147296171Y-87846168D02*
G01*
X147296859Y-87846799D01*
X147500707Y-88049293D01*
X147500762Y-88049348D01*
X147703200Y-88253140D01*
X147706599Y-88261425D01*
X147703145Y-88269687D01*
X147702457Y-88270318D01*
X147260731Y-88644086D01*
X147252201Y-88646814D01*
X147244900Y-88643427D01*
X146906572Y-88305099D01*
X146903145Y-88296826D01*
X146905911Y-88289271D01*
X147279683Y-87847540D01*
X147287641Y-87843440D01*
X147296171Y-87846168D01*
G37*
%TD.AperFunction*%
%TD*%
%TA.AperFunction,Conductor*%
%TO.N,+3V3*%
G36*
X132625479Y-102425713D02*
G01*
X132627124Y-102427075D01*
X132900707Y-102699293D01*
X132900749Y-102699335D01*
X133172924Y-102972875D01*
X133176330Y-102981156D01*
X133172882Y-102989421D01*
X133171237Y-102990783D01*
X132519104Y-103436978D01*
X132510341Y-103438822D01*
X132504224Y-103435595D01*
X132164404Y-103095775D01*
X132160977Y-103087502D01*
X132163021Y-103080895D01*
X132609217Y-102428761D01*
X132616716Y-102423869D01*
X132625479Y-102425713D01*
G37*
%TD.AperFunction*%
%TD*%
%TA.AperFunction,Conductor*%
%TO.N,+3V3*%
G36*
X133285939Y-102699964D02*
G01*
X133294202Y-102703412D01*
X133297608Y-102711693D01*
X133297408Y-102713820D01*
X133151790Y-103490456D01*
X133146897Y-103497956D01*
X133140290Y-103500000D01*
X132659710Y-103500000D01*
X132651437Y-103496573D01*
X132648210Y-103490456D01*
X132502591Y-102713820D01*
X132504435Y-102705057D01*
X132511935Y-102700164D01*
X132514052Y-102699964D01*
X132900000Y-102699000D01*
X133285939Y-102699964D01*
G37*
%TD.AperFunction*%
%TD*%
%TA.AperFunction,Conductor*%
%TO.N,+5V*%
G36*
X124400979Y-111932807D02*
G01*
X124402624Y-111934169D01*
X124676207Y-112206387D01*
X124676249Y-112206429D01*
X124948424Y-112479969D01*
X124951830Y-112488250D01*
X124948382Y-112496515D01*
X124946737Y-112497877D01*
X124294604Y-112944072D01*
X124285841Y-112945916D01*
X124279724Y-112942689D01*
X123939904Y-112602869D01*
X123936477Y-112594596D01*
X123938521Y-112587989D01*
X124384717Y-111935855D01*
X124392216Y-111930963D01*
X124400979Y-111932807D01*
G37*
%TD.AperFunction*%
%TD*%
%TA.AperFunction,Conductor*%
%TO.N,+3V3*%
G36*
X144418188Y-116712125D02*
G01*
X144432792Y-116721861D01*
X144549999Y-116800000D01*
X144550000Y-116800000D01*
X145020498Y-116800000D01*
X145028771Y-116803427D01*
X145032198Y-116811700D01*
X145028771Y-116819973D01*
X145028517Y-116820220D01*
X144620378Y-117204370D01*
X144612005Y-117207545D01*
X144604105Y-117204143D01*
X144403446Y-117004429D01*
X144400000Y-116996164D01*
X144400000Y-116721861D01*
X144403427Y-116713588D01*
X144411700Y-116710161D01*
X144418188Y-116712125D01*
G37*
%TD.AperFunction*%
%TD*%
%TA.AperFunction,Conductor*%
%TO.N,+3V3*%
G36*
X145487327Y-116199957D02*
G01*
X145495588Y-116203411D01*
X145498987Y-116211696D01*
X145498947Y-116212629D01*
X145450894Y-116789272D01*
X145446792Y-116797232D01*
X145439234Y-116800000D01*
X144960766Y-116800000D01*
X144952493Y-116796573D01*
X144949106Y-116789272D01*
X144901052Y-116212629D01*
X144903780Y-116204099D01*
X144911740Y-116199997D01*
X144912653Y-116199957D01*
X145200000Y-116199000D01*
X145487327Y-116199957D01*
G37*
%TD.AperFunction*%
%TD*%
%TA.AperFunction,Conductor*%
%TO.N,+3V3*%
G36*
X145447507Y-116403427D02*
G01*
X145450894Y-116410728D01*
X145498947Y-116987370D01*
X145496219Y-116995900D01*
X145488259Y-117000002D01*
X145487326Y-117000042D01*
X145200039Y-117000999D01*
X145199961Y-117000999D01*
X144912673Y-117000042D01*
X144904411Y-116996588D01*
X144901012Y-116988303D01*
X144901052Y-116987370D01*
X144949106Y-116410728D01*
X144953208Y-116402768D01*
X144960766Y-116400000D01*
X145439234Y-116400000D01*
X145447507Y-116403427D01*
G37*
%TD.AperFunction*%
%TD*%
%TA.AperFunction,Conductor*%
%TO.N,+5V*%
G36*
X126748053Y-114498074D02*
G01*
X126749032Y-114499192D01*
X127220723Y-115112706D01*
X127223049Y-115121352D01*
X127219721Y-115128109D01*
X126879822Y-115468008D01*
X126871549Y-115471435D01*
X126865631Y-115469827D01*
X126667336Y-115353536D01*
X126313784Y-115146193D01*
X126308381Y-115139052D01*
X126308882Y-115131652D01*
X126456484Y-114772969D01*
X126459052Y-114769129D01*
X126731508Y-114498031D01*
X126739788Y-114494626D01*
X126748053Y-114498074D01*
G37*
%TD.AperFunction*%
%TD*%
%TA.AperFunction,Conductor*%
%TO.N,+3V3*%
G36*
X150742149Y-106403876D02*
G01*
X150746388Y-106411765D01*
X150746447Y-106412937D01*
X150746447Y-106595955D01*
X150743950Y-106603180D01*
X150470260Y-106951779D01*
X150462455Y-106956170D01*
X150453832Y-106953757D01*
X150452803Y-106952847D01*
X150252462Y-106753446D01*
X150249016Y-106745181D01*
X150249016Y-106745114D01*
X150249489Y-106603180D01*
X150249964Y-106460542D01*
X150253418Y-106452283D01*
X150260491Y-106448943D01*
X150733576Y-106401296D01*
X150742149Y-106403876D01*
G37*
%TD.AperFunction*%
%TD*%
%TA.AperFunction,Conductor*%
%TO.N,+5V*%
G36*
X133932467Y-123289149D02*
G01*
X134198517Y-123398393D01*
X134202373Y-123400970D01*
X134404671Y-123604621D01*
X134408070Y-123612906D01*
X134405402Y-123620304D01*
X134050623Y-124051173D01*
X134042719Y-124055382D01*
X134034154Y-124052768D01*
X134033318Y-124052009D01*
X133695110Y-123713801D01*
X133691683Y-123705528D01*
X133693147Y-123699861D01*
X133917790Y-123294303D01*
X133924797Y-123288727D01*
X133932467Y-123289149D01*
G37*
%TD.AperFunction*%
%TD*%
%TA.AperFunction,Conductor*%
%TO.N,+5V*%
G36*
X147226485Y-123339177D02*
G01*
X147232209Y-123344304D01*
X147456851Y-123749859D01*
X147457862Y-123758756D01*
X147454889Y-123763801D01*
X147116681Y-124102009D01*
X147108408Y-124105436D01*
X147100135Y-124102009D01*
X147099386Y-124101184D01*
X146744597Y-123670304D01*
X146741983Y-123661739D01*
X146745327Y-123654623D01*
X146947629Y-123450967D01*
X146951480Y-123448394D01*
X147217532Y-123339150D01*
X147226485Y-123339177D01*
G37*
%TD.AperFunction*%
%TD*%
%TA.AperFunction,Conductor*%
%TO.N,+5V*%
G36*
X149996171Y-120696168D02*
G01*
X149996859Y-120696799D01*
X150200707Y-120899293D01*
X150200762Y-120899348D01*
X150403200Y-121103140D01*
X150406599Y-121111425D01*
X150403145Y-121119687D01*
X150402457Y-121120318D01*
X149960731Y-121494086D01*
X149952201Y-121496814D01*
X149944900Y-121493427D01*
X149606572Y-121155099D01*
X149603145Y-121146826D01*
X149605911Y-121139271D01*
X149979683Y-120697540D01*
X149987641Y-120693440D01*
X149996171Y-120696168D01*
G37*
%TD.AperFunction*%
%TD*%
%TA.AperFunction,Conductor*%
%TO.N,+5V*%
G36*
X147210729Y-123505912D02*
G01*
X147652457Y-123879681D01*
X147656559Y-123887641D01*
X147653831Y-123896171D01*
X147653200Y-123896859D01*
X147450762Y-124100652D01*
X147450707Y-124100707D01*
X147246859Y-124303200D01*
X147238574Y-124306599D01*
X147230312Y-124303145D01*
X147229681Y-124302457D01*
X147058970Y-124100707D01*
X146855912Y-123860729D01*
X146853185Y-123852201D01*
X146856571Y-123844901D01*
X147194901Y-123506571D01*
X147203173Y-123503145D01*
X147210729Y-123505912D01*
G37*
%TD.AperFunction*%
%TD*%
%TA.AperFunction,Conductor*%
%TO.N,+5V*%
G36*
X125463076Y-107536858D02*
G01*
X125464759Y-107537726D01*
X126158830Y-107969993D01*
X126164041Y-107977275D01*
X126162576Y-107986109D01*
X126160918Y-107988197D01*
X125821505Y-108327610D01*
X125813232Y-108331037D01*
X125812525Y-108331016D01*
X125310973Y-108300664D01*
X125302922Y-108296743D01*
X125299980Y-108289007D01*
X125299297Y-107901643D01*
X125300197Y-107897123D01*
X125447775Y-107543154D01*
X125454122Y-107536837D01*
X125463076Y-107536858D01*
G37*
%TD.AperFunction*%
%TD*%
%TA.AperFunction,Conductor*%
%TO.N,+3V3*%
G36*
X132625451Y-103345919D02*
G01*
X132625749Y-103346206D01*
X132899035Y-103618130D01*
X132901603Y-103621972D01*
X133048739Y-103979522D01*
X133048718Y-103988476D01*
X133042663Y-103994669D01*
X132450138Y-104257498D01*
X132441186Y-104257720D01*
X132437121Y-104255076D01*
X132097211Y-103915166D01*
X132093784Y-103906893D01*
X132096902Y-103898940D01*
X132608919Y-103346544D01*
X132617053Y-103342808D01*
X132625451Y-103345919D01*
G37*
%TD.AperFunction*%
%TD*%
%TA.AperFunction,Conductor*%
%TO.N,/Connectors/CURRENT_SENSE_C*%
G36*
X133459157Y-101626667D02*
G01*
X133464139Y-101632325D01*
X133573835Y-101896204D01*
X133573846Y-101905159D01*
X133573827Y-101905206D01*
X133465450Y-102164585D01*
X133459098Y-102170897D01*
X133450143Y-102170870D01*
X133448558Y-102170060D01*
X132999924Y-101896204D01*
X132960912Y-101872390D01*
X132955637Y-101865156D01*
X132957023Y-101856309D01*
X132958732Y-101854136D01*
X133087442Y-101725426D01*
X133092651Y-101722409D01*
X133450276Y-101625523D01*
X133459157Y-101626667D01*
G37*
%TD.AperFunction*%
%TD*%
%TA.AperFunction,Conductor*%
%TO.N,+3V3*%
G36*
X148295775Y-98064404D02*
G01*
X148635595Y-98404224D01*
X148639022Y-98412497D01*
X148636978Y-98419104D01*
X148190783Y-99071237D01*
X148183283Y-99076130D01*
X148174520Y-99074286D01*
X148172875Y-99072924D01*
X147899293Y-98800707D01*
X147899251Y-98800665D01*
X147627075Y-98527124D01*
X147623669Y-98518843D01*
X147627117Y-98510578D01*
X147628756Y-98509220D01*
X148280895Y-98063020D01*
X148289658Y-98061177D01*
X148295775Y-98064404D01*
G37*
%TD.AperFunction*%
%TD*%
%TA.AperFunction,Conductor*%
%TO.N,+5V*%
G36*
X147287327Y-87399957D02*
G01*
X147295588Y-87403411D01*
X147298987Y-87411696D01*
X147298947Y-87412629D01*
X147250894Y-87989272D01*
X147246792Y-87997232D01*
X147239234Y-88000000D01*
X146760766Y-88000000D01*
X146752493Y-87996573D01*
X146749106Y-87989272D01*
X146701052Y-87412629D01*
X146703780Y-87404099D01*
X146711740Y-87399997D01*
X146712653Y-87399957D01*
X147000000Y-87399000D01*
X147287327Y-87399957D01*
G37*
%TD.AperFunction*%
%TD*%
%TA.AperFunction,Conductor*%
%TO.N,+5V*%
G36*
X147682467Y-123339149D02*
G01*
X147948517Y-123448393D01*
X147952373Y-123450970D01*
X148154671Y-123654621D01*
X148158070Y-123662906D01*
X148155402Y-123670304D01*
X147800623Y-124101173D01*
X147792719Y-124105382D01*
X147784154Y-124102768D01*
X147783318Y-124102009D01*
X147445110Y-123763801D01*
X147441683Y-123755528D01*
X147443147Y-123749861D01*
X147667790Y-123344303D01*
X147674797Y-123338727D01*
X147682467Y-123339149D01*
G37*
%TD.AperFunction*%
%TD*%
%TA.AperFunction,Conductor*%
%TO.N,+5V*%
G36*
X125071275Y-111471498D02*
G01*
X125411095Y-111811318D01*
X125414522Y-111819591D01*
X125412478Y-111826198D01*
X124966283Y-112478331D01*
X124958783Y-112483224D01*
X124950020Y-112481380D01*
X124948375Y-112480018D01*
X124674793Y-112207801D01*
X124674751Y-112207759D01*
X124402575Y-111934218D01*
X124399169Y-111925937D01*
X124402617Y-111917672D01*
X124404256Y-111916314D01*
X125056395Y-111470114D01*
X125065158Y-111468271D01*
X125071275Y-111471498D01*
G37*
%TD.AperFunction*%
%TD*%
%TA.AperFunction,Conductor*%
%TO.N,+5V*%
G36*
X150487327Y-120899957D02*
G01*
X150495588Y-120903411D01*
X150498987Y-120911696D01*
X150498947Y-120912629D01*
X150450894Y-121489272D01*
X150446792Y-121497232D01*
X150439234Y-121500000D01*
X149960766Y-121500000D01*
X149952493Y-121496573D01*
X149949106Y-121489272D01*
X149901052Y-120912629D01*
X149903780Y-120904099D01*
X149911740Y-120899997D01*
X149912653Y-120899957D01*
X150200000Y-120899000D01*
X150487327Y-120899957D01*
G37*
%TD.AperFunction*%
%TD*%
%TA.AperFunction,Conductor*%
%TO.N,+3V3*%
G36*
X127973159Y-116838904D02*
G01*
X128312979Y-117178724D01*
X128316406Y-117186997D01*
X128314362Y-117193604D01*
X127868167Y-117845737D01*
X127860667Y-117850630D01*
X127851904Y-117848786D01*
X127850259Y-117847424D01*
X127576677Y-117575207D01*
X127576635Y-117575165D01*
X127304459Y-117301624D01*
X127301053Y-117293343D01*
X127304501Y-117285078D01*
X127306140Y-117283720D01*
X127958279Y-116837520D01*
X127967042Y-116835677D01*
X127973159Y-116838904D01*
G37*
%TD.AperFunction*%
%TD*%
%TA.AperFunction,Conductor*%
%TO.N,+5V*%
G36*
X150496171Y-121346168D02*
G01*
X150496859Y-121346799D01*
X150700707Y-121549293D01*
X150700762Y-121549348D01*
X150903200Y-121753140D01*
X150906599Y-121761425D01*
X150903145Y-121769687D01*
X150902457Y-121770318D01*
X150460731Y-122144086D01*
X150452201Y-122146814D01*
X150444900Y-122143427D01*
X150106572Y-121805099D01*
X150103145Y-121796826D01*
X150105911Y-121789271D01*
X150479683Y-121347540D01*
X150487641Y-121343440D01*
X150496171Y-121346168D01*
G37*
%TD.AperFunction*%
%TD*%
%TA.AperFunction,Conductor*%
%TO.N,+5V*%
G36*
X133955099Y-123456572D02*
G01*
X134293427Y-123794900D01*
X134296854Y-123803173D01*
X134294086Y-123810731D01*
X133920318Y-124252457D01*
X133912358Y-124256559D01*
X133903828Y-124253831D01*
X133903140Y-124253200D01*
X133699293Y-124050707D01*
X133699238Y-124050652D01*
X133496799Y-123846859D01*
X133493400Y-123838574D01*
X133496854Y-123830312D01*
X133497523Y-123829697D01*
X133939270Y-123455912D01*
X133947798Y-123453185D01*
X133955099Y-123456572D01*
G37*
%TD.AperFunction*%
%TD*%
%TA.AperFunction,Conductor*%
%TO.N,+3V3*%
G36*
X123703780Y-117310098D02*
G01*
X123703786Y-117310112D01*
X123745326Y-117410128D01*
X123745335Y-117419083D01*
X123742794Y-117422889D01*
X123420730Y-117744954D01*
X123412457Y-117748381D01*
X123404184Y-117744954D01*
X123401099Y-117739485D01*
X123332850Y-117462811D01*
X123334195Y-117453960D01*
X123339705Y-117449213D01*
X123688480Y-117303800D01*
X123697433Y-117303780D01*
X123703780Y-117310098D01*
G37*
%TD.AperFunction*%
%TD*%
%TA.AperFunction,Conductor*%
%TO.N,+3V3*%
G36*
X132270885Y-103030801D02*
G01*
X133040381Y-103247375D01*
X133047415Y-103252915D01*
X133048472Y-103261807D01*
X133048015Y-103263125D01*
X132901151Y-103616731D01*
X132894813Y-103623057D01*
X132549054Y-103765887D01*
X132540099Y-103765878D01*
X132533773Y-103759540D01*
X132532980Y-103753601D01*
X132549530Y-103623057D01*
X132581331Y-103372221D01*
X132581329Y-103372219D01*
X132581329Y-103372218D01*
X132259447Y-103050337D01*
X132256020Y-103042064D01*
X132259447Y-103033791D01*
X132267720Y-103030364D01*
X132270885Y-103030801D01*
G37*
%TD.AperFunction*%
%TD*%
%TA.AperFunction,Conductor*%
%TO.N,+3V3*%
G36*
X150978859Y-94994654D02*
G01*
X150987122Y-94998102D01*
X150990528Y-95006383D01*
X150990328Y-95008510D01*
X150844710Y-95785146D01*
X150839817Y-95792646D01*
X150833210Y-95794690D01*
X150352630Y-95794690D01*
X150344357Y-95791263D01*
X150341130Y-95785146D01*
X150195511Y-95008510D01*
X150197355Y-94999747D01*
X150204855Y-94994854D01*
X150206972Y-94994654D01*
X150592920Y-94993690D01*
X150978859Y-94994654D01*
G37*
%TD.AperFunction*%
%TD*%
%TA.AperFunction,Conductor*%
%TO.N,+5V*%
G36*
X146719687Y-87846854D02*
G01*
X146720313Y-87847537D01*
X147094086Y-88289269D01*
X147096814Y-88297798D01*
X147093427Y-88305099D01*
X146755099Y-88643427D01*
X146746826Y-88646854D01*
X146739269Y-88644086D01*
X146297541Y-88270317D01*
X146293440Y-88262358D01*
X146296168Y-88253828D01*
X146296783Y-88253156D01*
X146499293Y-88049293D01*
X146703142Y-87846798D01*
X146711425Y-87843400D01*
X146719687Y-87846854D01*
G37*
%TD.AperFunction*%
%TD*%
%TA.AperFunction,Conductor*%
%TO.N,+3V3*%
G36*
X122863795Y-116935133D02*
G01*
X122863950Y-116935199D01*
X122878216Y-116941430D01*
X123602478Y-117257779D01*
X123608688Y-117264231D01*
X123608517Y-117273184D01*
X123606068Y-117276774D01*
X123267393Y-117615449D01*
X123260798Y-117618755D01*
X122713354Y-117698065D01*
X122704675Y-117695860D01*
X122700097Y-117688164D01*
X122699976Y-117686507D01*
X122699856Y-117618755D01*
X122699297Y-117301643D01*
X122700197Y-117297123D01*
X122848494Y-116941429D01*
X122854841Y-116935112D01*
X122863795Y-116935133D01*
G37*
%TD.AperFunction*%
%TD*%
%TA.AperFunction,Conductor*%
%TO.N,+5V*%
G36*
X147349864Y-87397990D02*
G01*
X147350614Y-87398817D01*
X147603922Y-87706451D01*
X147705402Y-87829695D01*
X147708016Y-87838260D01*
X147704671Y-87845378D01*
X147502373Y-88049029D01*
X147498516Y-88051606D01*
X147232469Y-88160849D01*
X147223514Y-88160822D01*
X147217790Y-88155695D01*
X146993148Y-87750140D01*
X146992137Y-87741243D01*
X146995108Y-87736200D01*
X147333319Y-87397989D01*
X147341591Y-87394563D01*
X147349864Y-87397990D01*
G37*
%TD.AperFunction*%
%TD*%
%TA.AperFunction,Conductor*%
%TO.N,+5V*%
G36*
X150419687Y-120696854D02*
G01*
X150420313Y-120697537D01*
X150794086Y-121139269D01*
X150796814Y-121147798D01*
X150793427Y-121155099D01*
X150455099Y-121493427D01*
X150446826Y-121496854D01*
X150439269Y-121494086D01*
X149997541Y-121120317D01*
X149993440Y-121112358D01*
X149996168Y-121103828D01*
X149996783Y-121103156D01*
X150199293Y-120899293D01*
X150403142Y-120696798D01*
X150411425Y-120693400D01*
X150419687Y-120696854D01*
G37*
%TD.AperFunction*%
%TD*%
%TA.AperFunction,Conductor*%
%TO.N,+3V3*%
G36*
X122989421Y-116027117D02*
G01*
X122990783Y-116028762D01*
X123436978Y-116680895D01*
X123438822Y-116689658D01*
X123435595Y-116695775D01*
X123095775Y-117035595D01*
X123087502Y-117039022D01*
X123080895Y-117036978D01*
X122428762Y-116590783D01*
X122423869Y-116583283D01*
X122425713Y-116574520D01*
X122427075Y-116572875D01*
X122699251Y-116299335D01*
X122699293Y-116299293D01*
X122972875Y-116027075D01*
X122981156Y-116023669D01*
X122989421Y-116027117D01*
G37*
%TD.AperFunction*%
%TD*%
%TA.AperFunction,Conductor*%
%TO.N,+5V*%
G36*
X132596171Y-87846168D02*
G01*
X132596859Y-87846799D01*
X132800707Y-88049293D01*
X132800762Y-88049348D01*
X133003200Y-88253140D01*
X133006599Y-88261425D01*
X133003145Y-88269687D01*
X133002457Y-88270318D01*
X132560731Y-88644086D01*
X132552201Y-88646814D01*
X132544900Y-88643427D01*
X132206572Y-88305099D01*
X132203145Y-88296826D01*
X132205911Y-88289271D01*
X132579683Y-87847540D01*
X132587641Y-87843440D01*
X132596171Y-87846168D01*
G37*
%TD.AperFunction*%
%TD*%
%TA.AperFunction,Conductor*%
%TO.N,/Connectors/CURRENT_SENSE_C*%
G36*
X141433174Y-95189439D02*
G01*
X141596804Y-95256629D01*
X141696184Y-95297436D01*
X141702536Y-95303748D01*
X141702563Y-95303815D01*
X141810559Y-95566824D01*
X141810532Y-95575779D01*
X141804670Y-95581877D01*
X141353867Y-95791523D01*
X141344920Y-95791904D01*
X141340660Y-95789187D01*
X141210812Y-95659339D01*
X141207385Y-95651066D01*
X141208474Y-95646136D01*
X141418124Y-95195327D01*
X141424718Y-95189273D01*
X141433174Y-95189439D01*
G37*
%TD.AperFunction*%
%TD*%
%TA.AperFunction,Conductor*%
%TO.N,+5V*%
G36*
X139095900Y-117303780D02*
G01*
X139100002Y-117311740D01*
X139100042Y-117312673D01*
X139101000Y-117600000D01*
X139101000Y-117600078D01*
X139100042Y-117887326D01*
X139096588Y-117895588D01*
X139088303Y-117898987D01*
X139087370Y-117898947D01*
X138510728Y-117850894D01*
X138502768Y-117846792D01*
X138500000Y-117839234D01*
X138500000Y-117360766D01*
X138503427Y-117352493D01*
X138510728Y-117349106D01*
X139087371Y-117301052D01*
X139095900Y-117303780D01*
G37*
%TD.AperFunction*%
%TD*%
%TA.AperFunction,Conductor*%
%TO.N,+3V3*%
G36*
X149066851Y-108310496D02*
G01*
X149073163Y-108316848D01*
X149073330Y-108325305D01*
X148902807Y-108792313D01*
X148896751Y-108798909D01*
X148891817Y-108800000D01*
X148708183Y-108800000D01*
X148699910Y-108796573D01*
X148697193Y-108792313D01*
X148526669Y-108325302D01*
X148527050Y-108316358D01*
X148533147Y-108310496D01*
X148795490Y-108200883D01*
X148804444Y-108200857D01*
X149066851Y-108310496D01*
G37*
%TD.AperFunction*%
%TD*%
%TA.AperFunction,Conductor*%
%TO.N,+5V*%
G36*
X136787327Y-115199957D02*
G01*
X136795588Y-115203411D01*
X136798987Y-115211696D01*
X136798947Y-115212629D01*
X136750894Y-115789272D01*
X136746792Y-115797232D01*
X136739234Y-115800000D01*
X136260766Y-115800000D01*
X136252493Y-115796573D01*
X136249106Y-115789272D01*
X136201052Y-115212629D01*
X136203780Y-115204099D01*
X136211740Y-115199997D01*
X136212653Y-115199957D01*
X136500000Y-115199000D01*
X136787327Y-115199957D01*
G37*
%TD.AperFunction*%
%TD*%
%TA.AperFunction,Conductor*%
%TO.N,+3V3*%
G36*
X148148563Y-98903427D02*
G01*
X148151790Y-98909544D01*
X148297408Y-99686179D01*
X148295564Y-99694942D01*
X148288064Y-99699835D01*
X148285937Y-99700035D01*
X147900029Y-99700999D01*
X147899971Y-99700999D01*
X147514062Y-99700035D01*
X147505797Y-99696587D01*
X147502391Y-99688306D01*
X147502591Y-99686179D01*
X147648210Y-98909544D01*
X147653103Y-98902044D01*
X147659710Y-98900000D01*
X148140290Y-98900000D01*
X148148563Y-98903427D01*
G37*
%TD.AperFunction*%
%TD*%
%TA.AperFunction,Conductor*%
%TO.N,+3V3*%
G36*
X144688897Y-116199973D02*
G01*
X144697161Y-116203419D01*
X144700553Y-116211090D01*
X144717939Y-116559459D01*
X144714929Y-116567892D01*
X144714527Y-116568315D01*
X144377182Y-116905660D01*
X144368909Y-116909087D01*
X144360636Y-116905660D01*
X144358049Y-116901739D01*
X144127125Y-116325508D01*
X144127228Y-116316554D01*
X144133474Y-116310360D01*
X144397118Y-116200201D01*
X144401651Y-116199298D01*
X144688897Y-116199973D01*
G37*
%TD.AperFunction*%
%TD*%
%TA.AperFunction,Conductor*%
%TO.N,GND*%
G36*
X151687652Y-123070185D02*
G01*
X151708294Y-123086819D01*
X153859294Y-125237819D01*
X153892779Y-125299142D01*
X153887795Y-125368834D01*
X153845923Y-125424767D01*
X153780459Y-125449184D01*
X153771613Y-125449500D01*
X150655164Y-125449500D01*
X150588125Y-125429815D01*
X150542370Y-125377011D01*
X150532426Y-125307853D01*
X150561451Y-125244297D01*
X150567483Y-125237819D01*
X150724692Y-125080609D01*
X150724695Y-125080606D01*
X150731293Y-125070732D01*
X150731294Y-125070731D01*
X150788950Y-124984441D01*
X150798620Y-124969969D01*
X150849540Y-124847036D01*
X150860192Y-124793489D01*
X150875500Y-124716533D01*
X150875500Y-124431163D01*
X150895185Y-124364124D01*
X150911819Y-124343482D01*
X151224693Y-124030608D01*
X151224695Y-124030606D01*
X151239757Y-124008064D01*
X151298620Y-123919969D01*
X151319059Y-123870624D01*
X151349541Y-123797036D01*
X151375500Y-123666531D01*
X151375500Y-123533469D01*
X151375500Y-123333469D01*
X151375500Y-123333466D01*
X151348691Y-123198692D01*
X151354918Y-123129100D01*
X151397781Y-123073923D01*
X151463670Y-123050678D01*
X151470308Y-123050500D01*
X151620613Y-123050500D01*
X151687652Y-123070185D01*
G37*
%TD.AperFunction*%
%TA.AperFunction,Conductor*%
G36*
X154833586Y-88291802D02*
G01*
X155037158Y-88338266D01*
X155050511Y-88342113D01*
X155283590Y-88423669D01*
X155296426Y-88428986D01*
X155500244Y-88527140D01*
X155518902Y-88536125D01*
X155531070Y-88542850D01*
X155700802Y-88649500D01*
X155740146Y-88674221D01*
X155751484Y-88682266D01*
X155944538Y-88836221D01*
X155954906Y-88845487D01*
X156129506Y-89020087D01*
X156138772Y-89030455D01*
X156292724Y-89223504D01*
X156300771Y-89234845D01*
X156432147Y-89443929D01*
X156438873Y-89456099D01*
X156546005Y-89678559D01*
X156551327Y-89691407D01*
X156632884Y-89924485D01*
X156636733Y-89937846D01*
X156691679Y-90178575D01*
X156694008Y-90192284D01*
X156722139Y-90441953D01*
X156722909Y-90454249D01*
X156724490Y-90577705D01*
X156724500Y-90579293D01*
X156724500Y-103547475D01*
X156750743Y-103645413D01*
X156762016Y-103687485D01*
X156834490Y-103813015D01*
X157389404Y-104367929D01*
X157913181Y-104891705D01*
X157946666Y-104953028D01*
X157949500Y-104979386D01*
X157949500Y-121096107D01*
X157949492Y-121097534D01*
X157947613Y-121260814D01*
X157947024Y-121271541D01*
X157914638Y-121600371D01*
X157912852Y-121612408D01*
X157849154Y-121932637D01*
X157846198Y-121944441D01*
X157751411Y-122256912D01*
X157747311Y-122268370D01*
X157622356Y-122570038D01*
X157617153Y-122581039D01*
X157463228Y-122869008D01*
X157456973Y-122879444D01*
X157391494Y-122977441D01*
X157278401Y-123146699D01*
X157275577Y-123150925D01*
X157268327Y-123160700D01*
X157061182Y-123413107D01*
X157053010Y-123422123D01*
X156822123Y-123653010D01*
X156813107Y-123661182D01*
X156560703Y-123868324D01*
X156550929Y-123875573D01*
X156279445Y-124056973D01*
X156269007Y-124063229D01*
X155981031Y-124217156D01*
X155970031Y-124222359D01*
X155668368Y-124347312D01*
X155656910Y-124351412D01*
X155344441Y-124446198D01*
X155332637Y-124449154D01*
X155012407Y-124512852D01*
X155000370Y-124514638D01*
X154779071Y-124536433D01*
X154710425Y-124523414D01*
X154679236Y-124500711D01*
X152238016Y-122059491D01*
X152238015Y-122059490D01*
X152112485Y-121987016D01*
X152112482Y-121987015D01*
X152088202Y-121980508D01*
X152088202Y-121980509D01*
X152030338Y-121965004D01*
X151972475Y-121949500D01*
X151972474Y-121949500D01*
X151370078Y-121949500D01*
X151303039Y-121929815D01*
X151257284Y-121877011D01*
X151247340Y-121807853D01*
X151255517Y-121778048D01*
X151278137Y-121723436D01*
X151285044Y-121706762D01*
X151305682Y-121550000D01*
X151305628Y-121549592D01*
X151285044Y-121393239D01*
X151285044Y-121393238D01*
X151240187Y-121284945D01*
X151234980Y-121269607D01*
X151212984Y-121187515D01*
X151203278Y-121170703D01*
X151203278Y-121170702D01*
X151140512Y-121061988D01*
X151140508Y-121061983D01*
X151048159Y-120969634D01*
X151030610Y-120946618D01*
X151030586Y-120946636D01*
X151030175Y-120946047D01*
X151028073Y-120943291D01*
X151027301Y-120941934D01*
X150954808Y-120856260D01*
X150653528Y-120500202D01*
X150647035Y-120492830D01*
X150645510Y-120491098D01*
X150644901Y-120490434D01*
X150639527Y-120484931D01*
X150629866Y-120473782D01*
X150628281Y-120471716D01*
X150502842Y-120375464D01*
X150356762Y-120314956D01*
X150356760Y-120314955D01*
X150200001Y-120294318D01*
X150199999Y-120294318D01*
X150043239Y-120314955D01*
X150043237Y-120314956D01*
X149897157Y-120375464D01*
X149771716Y-120471719D01*
X149764328Y-120481347D01*
X149750231Y-120495865D01*
X149750554Y-120496194D01*
X149746467Y-120500205D01*
X149372693Y-120941939D01*
X149371296Y-120944342D01*
X149351786Y-120969686D01*
X149259490Y-121061983D01*
X149196723Y-121170698D01*
X149196724Y-121170699D01*
X149187014Y-121187517D01*
X149165021Y-121269595D01*
X149159808Y-121284952D01*
X149114956Y-121393234D01*
X149094318Y-121549998D01*
X149094318Y-121550001D01*
X149114955Y-121706760D01*
X149114957Y-121706765D01*
X149144483Y-121778048D01*
X149151952Y-121847517D01*
X149120676Y-121909996D01*
X149060587Y-121945648D01*
X149029922Y-121949500D01*
X130103387Y-121949500D01*
X130036348Y-121929815D01*
X129990593Y-121877011D01*
X129980649Y-121807853D01*
X130009674Y-121744297D01*
X130015692Y-121737831D01*
X130342027Y-121411496D01*
X130403347Y-121378014D01*
X130473038Y-121382998D01*
X130528080Y-121423693D01*
X130564195Y-121470759D01*
X130689636Y-121567013D01*
X130835715Y-121627521D01*
X130892851Y-121635043D01*
X130992476Y-121648159D01*
X130992477Y-121648159D01*
X130992478Y-121648159D01*
X131065009Y-121638610D01*
X131149239Y-121627521D01*
X131295318Y-121567013D01*
X131390850Y-121493708D01*
X131456018Y-121468514D01*
X131524463Y-121482552D01*
X131541814Y-121493702D01*
X131647159Y-121574536D01*
X131793238Y-121635044D01*
X131871619Y-121645363D01*
X131949999Y-121655682D01*
X131950000Y-121655682D01*
X131950001Y-121655682D01*
X132007143Y-121648159D01*
X132106762Y-121635044D01*
X132252841Y-121574536D01*
X132378282Y-121478282D01*
X132474536Y-121352841D01*
X132535044Y-121206762D01*
X132554104Y-121061985D01*
X132555682Y-121050001D01*
X132555682Y-121049998D01*
X132535044Y-120893239D01*
X132535044Y-120893238D01*
X132474536Y-120747159D01*
X132474535Y-120747158D01*
X132474535Y-120747157D01*
X132437956Y-120699487D01*
X132412761Y-120634318D01*
X132426799Y-120565873D01*
X132475613Y-120515883D01*
X132536331Y-120500000D01*
X142604188Y-120500000D01*
X142671227Y-120519685D01*
X142716982Y-120572489D01*
X142727127Y-120640186D01*
X142719318Y-120699500D01*
X142719318Y-120699501D01*
X142739955Y-120856260D01*
X142739956Y-120856262D01*
X142797935Y-120996237D01*
X142800464Y-121002341D01*
X142896718Y-121127782D01*
X143022159Y-121224036D01*
X143168238Y-121284544D01*
X143240261Y-121294026D01*
X143324999Y-121305182D01*
X143325000Y-121305182D01*
X143325001Y-121305182D01*
X143377254Y-121298302D01*
X143481762Y-121284544D01*
X143627841Y-121224036D01*
X143753282Y-121127782D01*
X143849536Y-121002341D01*
X143910044Y-120856262D01*
X143927626Y-120722716D01*
X143930682Y-120699501D01*
X143930682Y-120699500D01*
X143922873Y-120640186D01*
X143933638Y-120571150D01*
X143980018Y-120518894D01*
X144045812Y-120500000D01*
X145379890Y-120500000D01*
X145446929Y-120519685D01*
X145492684Y-120572489D01*
X145502829Y-120640185D01*
X145494889Y-120700496D01*
X145494889Y-120700499D01*
X145515526Y-120857258D01*
X145515527Y-120857260D01*
X145575621Y-121002341D01*
X145576035Y-121003339D01*
X145672289Y-121128780D01*
X145797730Y-121225034D01*
X145943809Y-121285542D01*
X146008252Y-121294026D01*
X146100570Y-121306180D01*
X146100571Y-121306180D01*
X146100572Y-121306180D01*
X146192890Y-121294026D01*
X146257333Y-121285542D01*
X146403412Y-121225034D01*
X146528853Y-121128780D01*
X146625107Y-121003339D01*
X146685615Y-120857260D01*
X146706253Y-120700498D01*
X146703484Y-120679464D01*
X146698313Y-120640185D01*
X146709079Y-120571150D01*
X146755459Y-120518894D01*
X146821252Y-120500000D01*
X148322972Y-120500000D01*
X148322974Y-120500000D01*
X148322975Y-120500000D01*
X148462985Y-120462484D01*
X148492477Y-120445457D01*
X148588515Y-120390010D01*
X149491706Y-119486819D01*
X149553029Y-119453334D01*
X149579387Y-119450500D01*
X153133134Y-119450500D01*
X153200173Y-119470185D01*
X153245928Y-119522989D01*
X153255872Y-119592147D01*
X153226847Y-119655703D01*
X153220815Y-119662181D01*
X153105739Y-119777256D01*
X153105733Y-119777263D01*
X152958067Y-119969706D01*
X152836777Y-120179785D01*
X152836773Y-120179794D01*
X152743947Y-120403895D01*
X152681161Y-120638214D01*
X152649500Y-120878711D01*
X152649500Y-121121288D01*
X152681161Y-121361785D01*
X152743947Y-121596104D01*
X152805331Y-121744297D01*
X152836776Y-121820212D01*
X152958064Y-122030289D01*
X152958066Y-122030292D01*
X152958067Y-122030293D01*
X153105733Y-122222736D01*
X153105739Y-122222743D01*
X153277256Y-122394260D01*
X153277262Y-122394265D01*
X153469711Y-122541936D01*
X153679788Y-122663224D01*
X153903900Y-122756054D01*
X154138211Y-122818838D01*
X154318586Y-122842584D01*
X154378711Y-122850500D01*
X154378712Y-122850500D01*
X154621289Y-122850500D01*
X154669388Y-122844167D01*
X154861789Y-122818838D01*
X155096100Y-122756054D01*
X155320212Y-122663224D01*
X155530289Y-122541936D01*
X155722738Y-122394265D01*
X155894265Y-122222738D01*
X156041936Y-122030289D01*
X156163224Y-121820212D01*
X156256054Y-121596100D01*
X156318838Y-121361789D01*
X156350500Y-121121288D01*
X156350500Y-120878712D01*
X156347544Y-120856262D01*
X156334306Y-120755703D01*
X156318838Y-120638211D01*
X156256054Y-120403900D01*
X156163224Y-120179788D01*
X156041936Y-119969711D01*
X155894265Y-119777262D01*
X155894260Y-119777256D01*
X155722743Y-119605739D01*
X155722736Y-119605733D01*
X155530293Y-119458067D01*
X155530292Y-119458066D01*
X155530289Y-119458064D01*
X155358661Y-119358974D01*
X155320214Y-119336777D01*
X155320205Y-119336773D01*
X155096104Y-119243947D01*
X154861785Y-119181161D01*
X154621289Y-119149500D01*
X154621288Y-119149500D01*
X154378712Y-119149500D01*
X154378711Y-119149500D01*
X154138210Y-119181162D01*
X154119606Y-119186147D01*
X154049756Y-119184484D01*
X153991894Y-119145320D01*
X153964391Y-119081092D01*
X153975978Y-119012190D01*
X153999830Y-118978694D01*
X154940510Y-118038015D01*
X155012984Y-117912485D01*
X155050500Y-117772475D01*
X155050500Y-115129600D01*
X155070185Y-115062561D01*
X155071398Y-115060709D01*
X155076865Y-115052527D01*
X155098620Y-115019969D01*
X155149540Y-114897036D01*
X155158153Y-114853736D01*
X155175500Y-114766533D01*
X155175500Y-114233467D01*
X155175442Y-114233175D01*
X155175442Y-114233174D01*
X155158807Y-114149546D01*
X155149541Y-114102964D01*
X155116723Y-114023737D01*
X155107098Y-114000499D01*
X155107095Y-114000493D01*
X155098622Y-113980035D01*
X155098616Y-113980025D01*
X155024698Y-113869398D01*
X155024697Y-113869397D01*
X155024695Y-113869394D01*
X154930606Y-113775305D01*
X154627096Y-113471795D01*
X154612727Y-113454554D01*
X154554666Y-113370439D01*
X154532784Y-113304086D01*
X154550249Y-113236434D01*
X154554652Y-113229581D01*
X154624818Y-113127930D01*
X154685140Y-112968872D01*
X154705645Y-112800000D01*
X154695870Y-112719499D01*
X154707330Y-112650579D01*
X154754233Y-112598793D01*
X154821689Y-112580585D01*
X154848641Y-112584158D01*
X154914944Y-112600500D01*
X155085056Y-112600500D01*
X155250225Y-112559790D01*
X155329692Y-112518081D01*
X155400849Y-112480736D01*
X155400850Y-112480734D01*
X155400852Y-112480734D01*
X155528183Y-112367929D01*
X155597951Y-112266853D01*
X155652233Y-112222864D01*
X155721681Y-112215204D01*
X155784246Y-112246307D01*
X155802047Y-112266851D01*
X155841704Y-112324303D01*
X155871816Y-112367928D01*
X155999150Y-112480736D01*
X156129422Y-112549108D01*
X156149775Y-112559790D01*
X156314944Y-112600500D01*
X156485056Y-112600500D01*
X156650225Y-112559790D01*
X156729692Y-112518081D01*
X156800849Y-112480736D01*
X156800850Y-112480734D01*
X156800852Y-112480734D01*
X156928183Y-112367929D01*
X157024818Y-112227930D01*
X157085140Y-112068872D01*
X157105645Y-111900000D01*
X157085140Y-111731128D01*
X157024818Y-111572070D01*
X156928183Y-111432071D01*
X156800852Y-111319266D01*
X156800849Y-111319263D01*
X156650226Y-111240210D01*
X156485056Y-111199500D01*
X156317255Y-111199500D01*
X156250216Y-111179815D01*
X156229574Y-111163181D01*
X155445915Y-110379522D01*
X155445913Y-110379520D01*
X155382098Y-110342676D01*
X155354589Y-110326793D01*
X155293224Y-110310351D01*
X155252727Y-110299500D01*
X155252726Y-110299500D01*
X153542254Y-110299500D01*
X153475215Y-110279815D01*
X153454573Y-110263181D01*
X152967617Y-109776225D01*
X152934132Y-109714902D01*
X152939116Y-109645210D01*
X152980988Y-109589277D01*
X153023201Y-109568770D01*
X153107135Y-109546281D01*
X153238365Y-109470515D01*
X153345515Y-109363365D01*
X153421281Y-109232135D01*
X153460500Y-109085766D01*
X153460500Y-108934234D01*
X153421281Y-108787865D01*
X153345515Y-108656635D01*
X153238365Y-108549485D01*
X153159734Y-108504087D01*
X153107136Y-108473719D01*
X153018942Y-108450088D01*
X152960766Y-108434500D01*
X152809234Y-108434500D01*
X152662863Y-108473719D01*
X152531635Y-108549485D01*
X152531632Y-108549487D01*
X152424487Y-108656632D01*
X152424485Y-108656635D01*
X152348720Y-108787863D01*
X152326230Y-108871795D01*
X152289864Y-108931455D01*
X152227017Y-108961984D01*
X152157642Y-108953689D01*
X152118774Y-108927382D01*
X150603644Y-107412252D01*
X150570159Y-107350929D01*
X150575143Y-107281237D01*
X150615837Y-107226197D01*
X150678282Y-107178282D01*
X150693251Y-107158773D01*
X150709824Y-107141070D01*
X150710550Y-107140434D01*
X150861691Y-106947925D01*
X150918573Y-106907352D01*
X150959223Y-106900500D01*
X153752725Y-106900500D01*
X153752727Y-106900500D01*
X153854588Y-106873207D01*
X153945913Y-106820480D01*
X155548288Y-105218103D01*
X155588749Y-105191129D01*
X156158576Y-104956494D01*
X156165058Y-104953737D01*
X156170173Y-104950248D01*
X156182411Y-104942896D01*
X156300852Y-104880734D01*
X156428183Y-104767929D01*
X156524818Y-104627930D01*
X156585140Y-104468872D01*
X156605645Y-104300000D01*
X156585140Y-104131128D01*
X156582442Y-104124015D01*
X156551119Y-104041422D01*
X156524818Y-103972070D01*
X156522608Y-103968869D01*
X156475071Y-103900000D01*
X156428183Y-103832071D01*
X156314244Y-103731130D01*
X156300849Y-103719263D01*
X156150226Y-103640210D01*
X155985056Y-103599500D01*
X155814944Y-103599500D01*
X155814942Y-103599500D01*
X155649777Y-103640208D01*
X155649773Y-103640210D01*
X155499150Y-103719263D01*
X155371816Y-103832072D01*
X155275181Y-103972070D01*
X155275181Y-103972072D01*
X155261145Y-104009081D01*
X155249239Y-104032581D01*
X155243504Y-104041422D01*
X155008871Y-104611245D01*
X154981892Y-104651713D01*
X153570426Y-106063181D01*
X153509103Y-106096666D01*
X153482745Y-106099500D01*
X150733791Y-106099500D01*
X150723336Y-106099058D01*
X150715153Y-106098365D01*
X150702965Y-106097334D01*
X150702963Y-106097334D01*
X150702962Y-106097334D01*
X150693594Y-106098277D01*
X150687651Y-106098876D01*
X150675227Y-106099500D01*
X150447273Y-106099500D01*
X150345413Y-106126793D01*
X150345412Y-106126793D01*
X150345410Y-106126794D01*
X150341374Y-106128466D01*
X150306356Y-106137278D01*
X150229874Y-106144981D01*
X150225423Y-106146216D01*
X150224628Y-106146437D01*
X150207660Y-106149891D01*
X150093238Y-106164955D01*
X149947158Y-106225464D01*
X149899985Y-106261661D01*
X149834816Y-106286854D01*
X149766371Y-106272815D01*
X149716382Y-106224001D01*
X149700500Y-106163284D01*
X149700500Y-104247275D01*
X149700500Y-104247273D01*
X149673207Y-104145413D01*
X149620480Y-104054087D01*
X149620478Y-104054085D01*
X149616416Y-104047049D01*
X149618268Y-104045979D01*
X149597147Y-103991341D01*
X149597621Y-103966080D01*
X149599577Y-103949973D01*
X149605645Y-103900000D01*
X149585140Y-103731128D01*
X149580641Y-103719266D01*
X149524817Y-103572068D01*
X149470216Y-103492966D01*
X149428183Y-103432071D01*
X149327910Y-103343237D01*
X149300849Y-103319263D01*
X149150226Y-103240210D01*
X148985056Y-103199500D01*
X148814944Y-103199500D01*
X148649773Y-103240210D01*
X148499150Y-103319263D01*
X148371816Y-103432072D01*
X148275182Y-103572068D01*
X148214860Y-103731125D01*
X148214859Y-103731130D01*
X148194355Y-103900000D01*
X148214859Y-104068869D01*
X148214860Y-104068874D01*
X148275182Y-104227931D01*
X148306915Y-104273903D01*
X148371817Y-104367929D01*
X148462141Y-104447949D01*
X148499150Y-104480736D01*
X148649773Y-104559789D01*
X148649775Y-104559790D01*
X148805175Y-104598092D01*
X148865555Y-104633248D01*
X148897344Y-104695467D01*
X148899500Y-104718489D01*
X148899500Y-105979187D01*
X148879815Y-106046226D01*
X148827011Y-106091981D01*
X148759316Y-106102126D01*
X148696487Y-106093855D01*
X148632590Y-106065589D01*
X148624990Y-106058597D01*
X146061674Y-103495281D01*
X146028189Y-103433958D01*
X146033173Y-103364266D01*
X146050977Y-103332116D01*
X146095625Y-103273930D01*
X146156133Y-103127851D01*
X146176771Y-102971089D01*
X146175922Y-102964643D01*
X146156133Y-102814328D01*
X146156133Y-102814327D01*
X146095625Y-102668248D01*
X145999371Y-102542807D01*
X145877871Y-102449577D01*
X145836670Y-102393150D01*
X145832515Y-102323404D01*
X145866728Y-102262483D01*
X145877859Y-102252837D01*
X145974371Y-102178782D01*
X146070625Y-102053341D01*
X146131133Y-101907262D01*
X146151771Y-101750500D01*
X146149064Y-101729942D01*
X146159828Y-101660911D01*
X146206207Y-101608654D01*
X146273475Y-101589767D01*
X146340276Y-101610246D01*
X146359684Y-101626077D01*
X147604087Y-102870480D01*
X147695412Y-102923207D01*
X147797273Y-102950500D01*
X147902727Y-102950500D01*
X149532745Y-102950500D01*
X149599784Y-102970185D01*
X149620426Y-102986819D01*
X150754087Y-104120480D01*
X150845412Y-104173207D01*
X150947273Y-104200500D01*
X153260194Y-104200500D01*
X153327233Y-104220185D01*
X153362244Y-104254060D01*
X153371815Y-104267927D01*
X153371817Y-104267929D01*
X153378560Y-104273903D01*
X153499150Y-104380736D01*
X153649773Y-104459789D01*
X153649775Y-104459790D01*
X153814944Y-104500500D01*
X153985056Y-104500500D01*
X154150225Y-104459790D01*
X154229692Y-104418081D01*
X154300849Y-104380736D01*
X154300850Y-104380734D01*
X154300852Y-104380734D01*
X154428183Y-104267929D01*
X154524818Y-104127930D01*
X154585140Y-103968872D01*
X154605645Y-103800000D01*
X154585140Y-103631128D01*
X154524818Y-103472070D01*
X154504883Y-103443190D01*
X154484709Y-103413962D01*
X154428183Y-103332071D01*
X154300852Y-103219266D01*
X154300849Y-103219263D01*
X154150226Y-103140210D01*
X153985056Y-103099500D01*
X153814944Y-103099500D01*
X153649773Y-103140210D01*
X153499150Y-103219263D01*
X153371816Y-103332071D01*
X153362244Y-103345940D01*
X153307961Y-103389930D01*
X153260194Y-103399500D01*
X152408357Y-103399500D01*
X152341318Y-103379815D01*
X152295563Y-103327011D01*
X152285619Y-103257853D01*
X152292415Y-103231529D01*
X152305450Y-103197160D01*
X152335140Y-103118872D01*
X152355645Y-102950000D01*
X152335140Y-102781128D01*
X152334094Y-102778371D01*
X152318931Y-102738389D01*
X154774500Y-102738389D01*
X154774500Y-102861610D01*
X154798535Y-102982444D01*
X154798538Y-102982454D01*
X154845687Y-103096283D01*
X154845692Y-103096292D01*
X154914141Y-103198732D01*
X154914144Y-103198736D01*
X155001263Y-103285855D01*
X155001267Y-103285858D01*
X155103707Y-103354307D01*
X155103713Y-103354310D01*
X155103714Y-103354311D01*
X155217548Y-103401463D01*
X155312965Y-103420442D01*
X155338389Y-103425499D01*
X155338393Y-103425500D01*
X155338394Y-103425500D01*
X155461607Y-103425500D01*
X155461607Y-103425499D01*
X155582452Y-103401463D01*
X155696286Y-103354311D01*
X155798733Y-103285858D01*
X155885858Y-103198733D01*
X155954311Y-103096286D01*
X156001463Y-102982452D01*
X156025500Y-102861606D01*
X156025500Y-102738394D01*
X156001463Y-102617548D01*
X155955225Y-102505921D01*
X155954312Y-102503716D01*
X155954307Y-102503707D01*
X155885858Y-102401267D01*
X155885855Y-102401263D01*
X155798736Y-102314144D01*
X155798732Y-102314141D01*
X155696292Y-102245692D01*
X155696283Y-102245687D01*
X155595322Y-102203868D01*
X155582452Y-102198537D01*
X155582448Y-102198536D01*
X155582444Y-102198535D01*
X155461610Y-102174500D01*
X155461606Y-102174500D01*
X155338394Y-102174500D01*
X155338389Y-102174500D01*
X155217555Y-102198535D01*
X155217545Y-102198538D01*
X155103716Y-102245687D01*
X155103707Y-102245692D01*
X155001267Y-102314141D01*
X155001263Y-102314144D01*
X154914144Y-102401263D01*
X154914141Y-102401267D01*
X154845692Y-102503707D01*
X154845687Y-102503716D01*
X154798538Y-102617545D01*
X154798535Y-102617555D01*
X154774500Y-102738389D01*
X152318931Y-102738389D01*
X152274817Y-102622068D01*
X152220106Y-102542807D01*
X152178183Y-102482071D01*
X152167110Y-102472261D01*
X152142273Y-102450257D01*
X152105146Y-102391068D01*
X152100500Y-102357442D01*
X152100500Y-98836853D01*
X152120185Y-98769814D01*
X152142268Y-98744042D01*
X152228183Y-98667929D01*
X152324818Y-98527930D01*
X152334058Y-98503564D01*
X152376236Y-98447862D01*
X152441833Y-98423805D01*
X152510023Y-98439032D01*
X152559157Y-98488707D01*
X152565942Y-98503565D01*
X152575182Y-98527931D01*
X152614605Y-98585044D01*
X152671817Y-98667929D01*
X152757728Y-98744040D01*
X152794853Y-98803226D01*
X152799500Y-98836853D01*
X152799500Y-101263146D01*
X152779815Y-101330185D01*
X152757727Y-101355961D01*
X152671818Y-101432069D01*
X152575182Y-101572068D01*
X152514860Y-101731125D01*
X152514859Y-101731130D01*
X152494355Y-101900000D01*
X152514859Y-102068869D01*
X152514860Y-102068874D01*
X152575182Y-102227931D01*
X152607697Y-102275036D01*
X152671817Y-102367929D01*
X152777505Y-102461560D01*
X152799150Y-102480736D01*
X152945806Y-102557707D01*
X152949775Y-102559790D01*
X153114944Y-102600500D01*
X153285056Y-102600500D01*
X153450225Y-102559790D01*
X153553436Y-102505620D01*
X153600849Y-102480736D01*
X153600850Y-102480734D01*
X153600852Y-102480734D01*
X153728183Y-102367929D01*
X153824818Y-102227930D01*
X153885140Y-102068872D01*
X153905645Y-101900000D01*
X153885140Y-101731128D01*
X153824818Y-101572070D01*
X153728183Y-101432071D01*
X153728181Y-101432069D01*
X153642273Y-101355961D01*
X153605146Y-101296772D01*
X153600500Y-101263146D01*
X153600500Y-98836853D01*
X153620185Y-98769814D01*
X153642268Y-98744042D01*
X153728183Y-98667929D01*
X153824818Y-98527930D01*
X153885140Y-98368872D01*
X153905645Y-98200000D01*
X153885140Y-98031128D01*
X153873334Y-97999999D01*
X153855017Y-97951700D01*
X153824818Y-97872070D01*
X153822357Y-97868505D01*
X153790476Y-97822318D01*
X153728183Y-97732071D01*
X153600852Y-97619266D01*
X153600849Y-97619263D01*
X153450226Y-97540210D01*
X153285056Y-97499500D01*
X153114944Y-97499500D01*
X152949773Y-97540210D01*
X152799150Y-97619263D01*
X152682638Y-97722484D01*
X152672882Y-97731128D01*
X152671816Y-97732072D01*
X152575183Y-97872067D01*
X152565942Y-97896435D01*
X152523763Y-97952137D01*
X152458166Y-97976194D01*
X152389975Y-97960967D01*
X152340843Y-97911290D01*
X152334058Y-97896435D01*
X152326655Y-97876915D01*
X152324818Y-97872070D01*
X152228183Y-97732071D01*
X152100852Y-97619266D01*
X152100850Y-97619265D01*
X152100848Y-97619263D01*
X152090262Y-97613707D01*
X152040050Y-97565121D01*
X152024077Y-97497102D01*
X152047414Y-97431245D01*
X152060198Y-97416242D01*
X152435703Y-97040737D01*
X152435708Y-97040734D01*
X152445911Y-97030530D01*
X152445913Y-97030530D01*
X152520480Y-96955963D01*
X152573207Y-96864637D01*
X152576995Y-96850500D01*
X152600501Y-96762777D01*
X152600501Y-96657323D01*
X152600501Y-96649728D01*
X152600500Y-96649710D01*
X152600500Y-94347275D01*
X152600499Y-94347271D01*
X152597184Y-94334900D01*
X152594532Y-94325000D01*
X152573207Y-94245412D01*
X152520480Y-94154087D01*
X152405430Y-94039037D01*
X152371945Y-93977714D01*
X152376929Y-93908022D01*
X152418801Y-93852089D01*
X152445652Y-93836798D01*
X152506629Y-93811541D01*
X152632070Y-93715287D01*
X152641100Y-93703517D01*
X152697525Y-93662314D01*
X152767271Y-93658157D01*
X152786930Y-93664441D01*
X152787158Y-93664535D01*
X152787159Y-93664536D01*
X152933238Y-93725044D01*
X153011619Y-93735363D01*
X153089999Y-93745682D01*
X153090000Y-93745682D01*
X153090001Y-93745682D01*
X153142254Y-93738802D01*
X153246762Y-93725044D01*
X153392841Y-93664536D01*
X153518282Y-93568282D01*
X153614536Y-93442841D01*
X153675044Y-93296762D01*
X153695682Y-93140000D01*
X153675044Y-92983238D01*
X153614536Y-92837159D01*
X153518282Y-92711718D01*
X153518280Y-92711717D01*
X153518280Y-92711716D01*
X153392841Y-92615464D01*
X153392838Y-92615462D01*
X153311520Y-92581779D01*
X153271292Y-92554899D01*
X152195915Y-91479522D01*
X152195913Y-91479520D01*
X152150250Y-91453156D01*
X152104589Y-91426793D01*
X152053657Y-91413146D01*
X152002727Y-91399500D01*
X149347273Y-91399500D01*
X149245413Y-91426793D01*
X149245410Y-91426794D01*
X149177688Y-91465894D01*
X149170675Y-91469942D01*
X149154087Y-91479519D01*
X149154085Y-91479521D01*
X143475008Y-97158597D01*
X143413685Y-97192082D01*
X143403513Y-97193855D01*
X143243238Y-97214956D01*
X143097160Y-97275463D01*
X142971718Y-97371718D01*
X142875463Y-97497160D01*
X142814956Y-97643237D01*
X142814955Y-97643239D01*
X142794318Y-97799998D01*
X142794318Y-97800001D01*
X142814955Y-97956760D01*
X142814956Y-97956762D01*
X142861393Y-98068872D01*
X142875464Y-98102841D01*
X142971718Y-98228282D01*
X143097159Y-98324536D01*
X143243238Y-98385044D01*
X143321619Y-98395363D01*
X143399999Y-98405682D01*
X143400000Y-98405682D01*
X143400001Y-98405682D01*
X143452254Y-98398802D01*
X143556762Y-98385044D01*
X143702841Y-98324536D01*
X143788327Y-98258939D01*
X143853494Y-98233747D01*
X143921939Y-98247785D01*
X143971221Y-98295907D01*
X143971401Y-98295804D01*
X143971770Y-98296444D01*
X143971929Y-98296599D01*
X143972295Y-98297353D01*
X143975460Y-98302836D01*
X143988772Y-98320185D01*
X144071718Y-98428282D01*
X144197159Y-98524536D01*
X144343238Y-98585044D01*
X144420267Y-98595185D01*
X144499999Y-98605682D01*
X144500000Y-98605682D01*
X144500001Y-98605682D01*
X144579733Y-98595185D01*
X144656762Y-98585044D01*
X144802841Y-98524536D01*
X144928282Y-98428282D01*
X145024536Y-98302841D01*
X145085044Y-98156762D01*
X145105682Y-98000000D01*
X145100543Y-97960967D01*
X145097459Y-97937541D01*
X145108224Y-97868505D01*
X145132714Y-97833677D01*
X149701637Y-93264754D01*
X149762958Y-93231271D01*
X149832650Y-93236255D01*
X149888583Y-93278127D01*
X149912255Y-93336248D01*
X149914956Y-93356762D01*
X149975464Y-93502842D01*
X150030460Y-93574514D01*
X150055654Y-93639683D01*
X150041615Y-93708128D01*
X150030460Y-93725486D01*
X149975464Y-93797157D01*
X149914956Y-93943237D01*
X149914955Y-93943239D01*
X149894318Y-94099998D01*
X149894318Y-94100001D01*
X149914955Y-94256760D01*
X149914957Y-94256765D01*
X149975461Y-94402836D01*
X149975461Y-94402837D01*
X149975463Y-94402840D01*
X149975464Y-94402841D01*
X150012530Y-94451147D01*
X150037724Y-94516314D01*
X150023686Y-94584759D01*
X150016204Y-94597072D01*
X149968103Y-94666758D01*
X149968102Y-94666758D01*
X149907780Y-94825815D01*
X149907779Y-94825820D01*
X149887275Y-94994690D01*
X149894342Y-95052895D01*
X149894734Y-95059353D01*
X149895243Y-95064807D01*
X149896053Y-95069125D01*
X149897272Y-95077026D01*
X149907779Y-95163558D01*
X149907779Y-95163560D01*
X149907780Y-95163562D01*
X149915704Y-95184457D01*
X149921635Y-95205568D01*
X150010504Y-95679534D01*
X150038941Y-95831195D01*
X150031948Y-95900714D01*
X150004746Y-95941728D01*
X148173452Y-97773022D01*
X148135798Y-97798802D01*
X148108382Y-97810889D01*
X147648313Y-98125673D01*
X147601144Y-98145211D01*
X147056266Y-98247376D01*
X147033414Y-98249500D01*
X145927525Y-98249500D01*
X145821072Y-98278024D01*
X145821071Y-98278023D01*
X145787517Y-98287015D01*
X145787514Y-98287016D01*
X145661986Y-98359489D01*
X145661983Y-98359491D01*
X144159489Y-99861985D01*
X144108965Y-99949499D01*
X144108963Y-99949501D01*
X144087018Y-99987509D01*
X144087017Y-99987510D01*
X144087016Y-99987515D01*
X144049500Y-100127525D01*
X144049500Y-100127527D01*
X144049500Y-108939676D01*
X144029815Y-109006715D01*
X143977011Y-109052470D01*
X143907853Y-109062414D01*
X143867876Y-109049473D01*
X143850226Y-109040210D01*
X143850227Y-109040210D01*
X143685056Y-108999500D01*
X143514944Y-108999500D01*
X143349773Y-109040210D01*
X143199148Y-109119265D01*
X143194937Y-109122172D01*
X143128582Y-109144053D01*
X143060931Y-109126586D01*
X143013462Y-109075316D01*
X143000500Y-109020120D01*
X143000500Y-108198776D01*
X143000500Y-108198774D01*
X142977379Y-108112485D01*
X142973207Y-108096913D01*
X142920480Y-108005588D01*
X142239901Y-107325009D01*
X142206416Y-107263686D01*
X142204643Y-107253513D01*
X142200530Y-107222273D01*
X142183543Y-107093238D01*
X142123035Y-106947159D01*
X142026781Y-106821718D01*
X141901340Y-106725464D01*
X141899698Y-106724784D01*
X141755261Y-106664956D01*
X141755259Y-106664955D01*
X141598500Y-106644318D01*
X141598498Y-106644318D01*
X141441738Y-106664955D01*
X141441736Y-106664956D01*
X141295657Y-106725464D01*
X141274230Y-106741905D01*
X141209059Y-106767096D01*
X141140615Y-106753055D01*
X141123263Y-106741903D01*
X141101840Y-106725465D01*
X140955758Y-106664956D01*
X140955756Y-106664955D01*
X140798997Y-106644318D01*
X140798995Y-106644318D01*
X140642235Y-106664955D01*
X140642233Y-106664956D01*
X140496156Y-106725463D01*
X140472860Y-106743339D01*
X140370714Y-106821718D01*
X140370713Y-106821719D01*
X140370712Y-106821720D01*
X140364131Y-106830296D01*
X140307701Y-106871495D01*
X140237954Y-106875645D01*
X140218308Y-106869364D01*
X140064973Y-106805851D01*
X140064968Y-106805849D01*
X139908209Y-106785212D01*
X139908207Y-106785212D01*
X139751447Y-106805849D01*
X139751445Y-106805850D01*
X139605368Y-106866357D01*
X139605367Y-106866358D01*
X139479926Y-106962612D01*
X139479924Y-106962614D01*
X139477115Y-106964770D01*
X139416926Y-106988038D01*
X139417097Y-106989333D01*
X139409037Y-106990394D01*
X139307177Y-107017687D01*
X139307170Y-107017690D01*
X139292175Y-107026347D01*
X139224274Y-107042817D01*
X139158248Y-107019963D01*
X139131804Y-106994445D01*
X139095520Y-106947160D01*
X139078782Y-106925346D01*
X138953341Y-106829092D01*
X138935543Y-106821720D01*
X138897230Y-106805850D01*
X138807262Y-106768584D01*
X138758313Y-106762139D01*
X138694418Y-106733873D01*
X138655947Y-106675549D01*
X138650500Y-106639201D01*
X138650500Y-100012729D01*
X138650501Y-100012716D01*
X138650501Y-99897274D01*
X138650366Y-99896772D01*
X138623207Y-99795413D01*
X138623206Y-99795412D01*
X138623206Y-99795410D01*
X138623205Y-99795409D01*
X138606150Y-99765869D01*
X138606149Y-99765868D01*
X138570480Y-99704087D01*
X138495913Y-99629520D01*
X138495912Y-99629519D01*
X138491582Y-99625189D01*
X138491571Y-99625179D01*
X137441402Y-98575009D01*
X137407917Y-98513686D01*
X137406144Y-98503512D01*
X137403145Y-98480734D01*
X137397873Y-98440684D01*
X137408639Y-98371649D01*
X137455019Y-98319394D01*
X137520812Y-98300500D01*
X139152725Y-98300500D01*
X139152727Y-98300500D01*
X139254588Y-98273207D01*
X139345913Y-98220480D01*
X141495541Y-96070850D01*
X141530928Y-96046099D01*
X141933494Y-95858887D01*
X141933557Y-95858858D01*
X141940749Y-95853718D01*
X141965381Y-95840051D01*
X141978264Y-95834715D01*
X142047730Y-95827248D01*
X142101197Y-95850902D01*
X142111781Y-95859023D01*
X142197157Y-95924535D01*
X142197158Y-95924535D01*
X142197159Y-95924536D01*
X142343238Y-95985044D01*
X142421619Y-95995363D01*
X142499999Y-96005682D01*
X142500000Y-96005682D01*
X142500001Y-96005682D01*
X142552254Y-95998802D01*
X142656762Y-95985044D01*
X142802841Y-95924536D01*
X142928282Y-95828282D01*
X143024536Y-95702841D01*
X143085044Y-95556762D01*
X143105682Y-95400000D01*
X143085044Y-95243238D01*
X143024536Y-95097159D01*
X142928282Y-94971718D01*
X142802841Y-94875464D01*
X142796291Y-94872751D01*
X142656762Y-94814956D01*
X142656760Y-94814955D01*
X142500001Y-94794318D01*
X142499999Y-94794318D01*
X142343239Y-94814955D01*
X142343234Y-94814957D01*
X142221739Y-94865282D01*
X142152270Y-94872751D01*
X142098803Y-94849098D01*
X142002841Y-94775464D01*
X141856762Y-94714956D01*
X141856760Y-94714955D01*
X141700001Y-94694318D01*
X141699999Y-94694318D01*
X141543239Y-94714955D01*
X141543237Y-94714956D01*
X141397160Y-94775463D01*
X141271716Y-94871719D01*
X141175463Y-94997159D01*
X141159931Y-95034657D01*
X141146289Y-95059254D01*
X141141118Y-95066495D01*
X141141112Y-95066505D01*
X140953898Y-95469070D01*
X140929143Y-95504462D01*
X138970426Y-97463181D01*
X138909103Y-97496666D01*
X138882745Y-97499500D01*
X135660339Y-97499500D01*
X135660323Y-97499499D01*
X135652727Y-97499499D01*
X135547273Y-97499499D01*
X135479366Y-97517695D01*
X135445412Y-97526793D01*
X135354084Y-97579522D01*
X135279518Y-97654089D01*
X135010407Y-97923199D01*
X134949084Y-97956684D01*
X134879392Y-97951700D01*
X134823459Y-97909828D01*
X134799630Y-97850464D01*
X134793503Y-97800001D01*
X134785140Y-97731128D01*
X134783557Y-97726953D01*
X134775500Y-97682985D01*
X134775500Y-97547515D01*
X134795185Y-97480476D01*
X134796398Y-97478624D01*
X134898009Y-97326553D01*
X134898009Y-97326552D01*
X134898013Y-97326547D01*
X134965894Y-97162666D01*
X134965894Y-97162661D01*
X134965896Y-97162658D01*
X135000499Y-96988695D01*
X135000500Y-96988693D01*
X135000500Y-92564252D01*
X135000499Y-92564248D01*
X134997123Y-92547270D01*
X134997123Y-92547269D01*
X134965896Y-92390284D01*
X134965895Y-92390277D01*
X134914373Y-92265894D01*
X134910296Y-92256052D01*
X134898013Y-92226397D01*
X134898013Y-92226396D01*
X134898011Y-92226394D01*
X134898011Y-92226392D01*
X134799465Y-92078909D01*
X134762488Y-92041932D01*
X134674035Y-91953479D01*
X133816656Y-91096100D01*
X133099268Y-90378711D01*
X152649500Y-90378711D01*
X152649500Y-90621288D01*
X152681161Y-90861785D01*
X152743947Y-91096104D01*
X152828611Y-91300500D01*
X152836776Y-91320212D01*
X152958064Y-91530289D01*
X152958066Y-91530292D01*
X152958067Y-91530293D01*
X153105733Y-91722736D01*
X153105739Y-91722743D01*
X153277256Y-91894260D01*
X153277262Y-91894265D01*
X153469711Y-92041936D01*
X153679788Y-92163224D01*
X153903900Y-92256054D01*
X154138211Y-92318838D01*
X154318586Y-92342584D01*
X154378711Y-92350500D01*
X154378712Y-92350500D01*
X154621289Y-92350500D01*
X154669388Y-92344167D01*
X154861789Y-92318838D01*
X155096100Y-92256054D01*
X155320212Y-92163224D01*
X155530289Y-92041936D01*
X155722738Y-91894265D01*
X155894265Y-91722738D01*
X156041936Y-91530289D01*
X156163224Y-91320212D01*
X156256054Y-91096100D01*
X156318838Y-90861789D01*
X156350500Y-90621288D01*
X156350500Y-90378712D01*
X156344632Y-90334143D01*
X156339805Y-90297472D01*
X156318838Y-90138211D01*
X156256054Y-89903900D01*
X156163224Y-89679788D01*
X156041936Y-89469711D01*
X155981018Y-89390321D01*
X155894266Y-89277263D01*
X155894260Y-89277256D01*
X155722743Y-89105739D01*
X155722736Y-89105733D01*
X155530293Y-88958067D01*
X155530292Y-88958066D01*
X155530289Y-88958064D01*
X155352297Y-88855300D01*
X155320214Y-88836777D01*
X155320205Y-88836773D01*
X155096104Y-88743947D01*
X154978944Y-88712554D01*
X154861789Y-88681162D01*
X154861788Y-88681161D01*
X154861785Y-88681161D01*
X154621289Y-88649500D01*
X154621288Y-88649500D01*
X154378712Y-88649500D01*
X154378711Y-88649500D01*
X154138214Y-88681161D01*
X153903895Y-88743947D01*
X153679794Y-88836773D01*
X153679785Y-88836777D01*
X153541861Y-88916408D01*
X153480911Y-88951598D01*
X153469706Y-88958067D01*
X153277263Y-89105733D01*
X153277256Y-89105739D01*
X153105739Y-89277256D01*
X153105733Y-89277263D01*
X152958067Y-89469706D01*
X152836777Y-89679785D01*
X152836773Y-89679794D01*
X152743947Y-89903895D01*
X152681161Y-90138214D01*
X152649500Y-90378711D01*
X133099268Y-90378711D01*
X132682738Y-89962181D01*
X132649253Y-89900858D01*
X132654237Y-89831166D01*
X132696109Y-89775233D01*
X132761573Y-89750816D01*
X132770419Y-89750500D01*
X151872472Y-89750500D01*
X151872474Y-89750500D01*
X151872475Y-89750500D01*
X152012485Y-89712984D01*
X152035840Y-89699500D01*
X152138015Y-89640510D01*
X153453512Y-88325013D01*
X153514835Y-88291528D01*
X153541193Y-88288694D01*
X154805995Y-88288694D01*
X154833586Y-88291802D01*
G37*
%TD.AperFunction*%
%TA.AperFunction,Conductor*%
G36*
X130318690Y-123070185D02*
G01*
X130364445Y-123122989D01*
X130374389Y-123192147D01*
X130350027Y-123249986D01*
X130275464Y-123347157D01*
X130214956Y-123493237D01*
X130214955Y-123493239D01*
X130194318Y-123649998D01*
X130194318Y-123650001D01*
X130214955Y-123806760D01*
X130214956Y-123806762D01*
X130271480Y-123943224D01*
X130275464Y-123952841D01*
X130371718Y-124078282D01*
X130371720Y-124078283D01*
X130371722Y-124078286D01*
X130377465Y-124084029D01*
X130376185Y-124085308D01*
X130411413Y-124133555D01*
X130415566Y-124203301D01*
X130381353Y-124264220D01*
X130319635Y-124296972D01*
X130294723Y-124299500D01*
X129205277Y-124299500D01*
X129138238Y-124279815D01*
X129092483Y-124227011D01*
X129082539Y-124157853D01*
X129111564Y-124094297D01*
X129123730Y-124082833D01*
X129128277Y-124078286D01*
X129128277Y-124078285D01*
X129128282Y-124078282D01*
X129224536Y-123952841D01*
X129285044Y-123806762D01*
X129303506Y-123666531D01*
X129305682Y-123650001D01*
X129305682Y-123649998D01*
X129285044Y-123493239D01*
X129285044Y-123493238D01*
X129224536Y-123347159D01*
X129224535Y-123347158D01*
X129224535Y-123347157D01*
X129149973Y-123249986D01*
X129124779Y-123184817D01*
X129138817Y-123116372D01*
X129187631Y-123066383D01*
X129248349Y-123050500D01*
X130251651Y-123050500D01*
X130318690Y-123070185D01*
G37*
%TD.AperFunction*%
%TA.AperFunction,Conductor*%
G36*
X140143690Y-123070185D02*
G01*
X140189445Y-123122989D01*
X140199389Y-123192147D01*
X140175027Y-123249986D01*
X140100464Y-123347157D01*
X140039956Y-123493237D01*
X140039955Y-123493239D01*
X140019318Y-123649998D01*
X140019318Y-123650001D01*
X140039955Y-123806760D01*
X140039956Y-123806762D01*
X140096480Y-123943224D01*
X140100464Y-123952841D01*
X140196718Y-124078282D01*
X140196720Y-124078283D01*
X140196722Y-124078286D01*
X140202465Y-124084029D01*
X140201185Y-124085308D01*
X140236413Y-124133555D01*
X140240566Y-124203301D01*
X140206353Y-124264220D01*
X140144635Y-124296972D01*
X140119723Y-124299500D01*
X135598349Y-124299500D01*
X135531310Y-124279815D01*
X135485555Y-124227011D01*
X135475611Y-124157853D01*
X135499973Y-124100014D01*
X135562631Y-124018356D01*
X135574536Y-124002841D01*
X135635044Y-123856762D01*
X135653701Y-123715046D01*
X135655682Y-123700001D01*
X135655682Y-123699998D01*
X135635044Y-123543239D01*
X135635044Y-123543238D01*
X135574536Y-123397159D01*
X135478282Y-123271718D01*
X135478279Y-123271715D01*
X135478277Y-123271713D01*
X135472535Y-123265971D01*
X135473814Y-123264691D01*
X135438587Y-123216445D01*
X135434434Y-123146699D01*
X135468647Y-123085780D01*
X135530365Y-123053028D01*
X135555277Y-123050500D01*
X140076651Y-123050500D01*
X140143690Y-123070185D01*
G37*
%TD.AperFunction*%
%TA.AperFunction,Conductor*%
G36*
X146346961Y-123070185D02*
G01*
X146392716Y-123122989D01*
X146402660Y-123192147D01*
X146394483Y-123221952D01*
X146364957Y-123293234D01*
X146364955Y-123293239D01*
X146344318Y-123449998D01*
X146344318Y-123450001D01*
X146364955Y-123606760D01*
X146364957Y-123606765D01*
X146409808Y-123715046D01*
X146415019Y-123730397D01*
X146420978Y-123752633D01*
X146429343Y-123783850D01*
X146429343Y-123783853D01*
X146437014Y-123812478D01*
X146437016Y-123812485D01*
X146496978Y-123916344D01*
X146509489Y-123938013D01*
X146509491Y-123938016D01*
X146601838Y-124030363D01*
X146619390Y-124053382D01*
X146619414Y-124053366D01*
X146619815Y-124053940D01*
X146621921Y-124056702D01*
X146622695Y-124058062D01*
X146622699Y-124058067D01*
X146654291Y-124095404D01*
X146682568Y-124159296D01*
X146671813Y-124228333D01*
X146625441Y-124280596D01*
X146559631Y-124299500D01*
X141130277Y-124299500D01*
X141063238Y-124279815D01*
X141017483Y-124227011D01*
X141007539Y-124157853D01*
X141036564Y-124094297D01*
X141048730Y-124082833D01*
X141053277Y-124078286D01*
X141053277Y-124078285D01*
X141053282Y-124078282D01*
X141149536Y-123952841D01*
X141210044Y-123806762D01*
X141228506Y-123666531D01*
X141230682Y-123650001D01*
X141230682Y-123649998D01*
X141210044Y-123493239D01*
X141210044Y-123493238D01*
X141149536Y-123347159D01*
X141149535Y-123347158D01*
X141149535Y-123347157D01*
X141074973Y-123249986D01*
X141049779Y-123184817D01*
X141063817Y-123116372D01*
X141112631Y-123066383D01*
X141173349Y-123050500D01*
X146279922Y-123050500D01*
X146346961Y-123070185D01*
G37*
%TD.AperFunction*%
%TA.AperFunction,Conductor*%
G36*
X124751092Y-113089736D02*
G01*
X124798351Y-113141198D01*
X124811089Y-113195942D01*
X124811089Y-113747475D01*
X124844879Y-113873581D01*
X124847535Y-113883491D01*
X124848606Y-113887488D01*
X124921076Y-114013011D01*
X124921080Y-114013016D01*
X125456055Y-114547991D01*
X125470712Y-114565651D01*
X125821607Y-115078498D01*
X125829225Y-115093085D01*
X125829786Y-115092791D01*
X125833268Y-115099427D01*
X125864435Y-115144579D01*
X125929905Y-115239428D01*
X125929906Y-115239429D01*
X125929907Y-115239430D01*
X125946060Y-115253740D01*
X125954666Y-115262144D01*
X125956764Y-115264402D01*
X125957133Y-115264799D01*
X125960036Y-115267249D01*
X125969290Y-115274320D01*
X126057233Y-115352231D01*
X126057234Y-115352231D01*
X126057236Y-115352233D01*
X126134960Y-115393025D01*
X126154548Y-115406406D01*
X126154575Y-115406370D01*
X126156122Y-115407480D01*
X126158646Y-115409205D01*
X126159232Y-115409714D01*
X126159236Y-115409716D01*
X126159238Y-115409718D01*
X126484323Y-115600366D01*
X126484325Y-115600369D01*
X126573799Y-115652841D01*
X126672318Y-115710618D01*
X126688487Y-115720100D01*
X126713439Y-115739382D01*
X126713681Y-115739624D01*
X126747166Y-115800947D01*
X126750000Y-115827305D01*
X126750000Y-115972695D01*
X126730315Y-116039734D01*
X126713681Y-116060376D01*
X126109491Y-116664565D01*
X126109489Y-116664568D01*
X126041559Y-116782229D01*
X126041558Y-116782230D01*
X126037017Y-116790094D01*
X126037016Y-116790095D01*
X126018258Y-116860102D01*
X125999500Y-116930107D01*
X125999500Y-118022475D01*
X126004847Y-118042429D01*
X126033055Y-118147705D01*
X126033062Y-118147728D01*
X126033065Y-118147739D01*
X126037016Y-118162485D01*
X126109490Y-118288015D01*
X127011985Y-119190510D01*
X127011986Y-119190511D01*
X127011988Y-119190512D01*
X127059794Y-119218112D01*
X127108011Y-119268678D01*
X127121235Y-119337285D01*
X127095268Y-119402150D01*
X127038354Y-119442679D01*
X126997796Y-119449500D01*
X126279387Y-119449500D01*
X126212348Y-119429815D01*
X126191706Y-119413181D01*
X125043036Y-118264511D01*
X125009551Y-118203188D01*
X125009114Y-118201093D01*
X124999541Y-118152964D01*
X124948620Y-118030031D01*
X124948618Y-118030028D01*
X124948616Y-118030024D01*
X124874695Y-117919394D01*
X124874692Y-117919390D01*
X124508237Y-117552936D01*
X124474752Y-117491613D01*
X124474313Y-117489507D01*
X124469737Y-117466502D01*
X124414157Y-117332322D01*
X124405622Y-117299818D01*
X124385140Y-117131128D01*
X124383557Y-117126953D01*
X124375500Y-117082985D01*
X124375500Y-116517015D01*
X124383560Y-116473040D01*
X124385139Y-116468875D01*
X124385139Y-116468874D01*
X124385140Y-116468872D01*
X124405645Y-116300000D01*
X124385140Y-116131128D01*
X124324818Y-115972070D01*
X124228183Y-115832071D01*
X124110870Y-115728141D01*
X124100849Y-115719263D01*
X123950226Y-115640210D01*
X123785056Y-115599500D01*
X123614944Y-115599500D01*
X123528132Y-115620897D01*
X123498457Y-115624500D01*
X122901543Y-115624500D01*
X122871868Y-115620897D01*
X122785056Y-115599500D01*
X122614944Y-115599500D01*
X122449773Y-115640210D01*
X122299149Y-115719264D01*
X122299147Y-115719266D01*
X122238737Y-115772784D01*
X122175504Y-115802505D01*
X122106241Y-115793321D01*
X122052938Y-115748148D01*
X122032518Y-115681329D01*
X122051466Y-115614077D01*
X122068826Y-115592291D01*
X124451997Y-113209119D01*
X124469644Y-113194473D01*
X124617069Y-113093603D01*
X124683512Y-113071994D01*
X124751092Y-113089736D01*
G37*
%TD.AperFunction*%
%TA.AperFunction,Conductor*%
G36*
X149551993Y-108323835D02*
G01*
X149576405Y-108342798D01*
X150356968Y-109123361D01*
X150390453Y-109184684D01*
X150385469Y-109254376D01*
X150343597Y-109310309D01*
X150326914Y-109320838D01*
X150234647Y-109369265D01*
X150234646Y-109369266D01*
X150120363Y-109470512D01*
X150107314Y-109482072D01*
X150010680Y-109622068D01*
X149950358Y-109781125D01*
X149950357Y-109781130D01*
X149929853Y-109950000D01*
X149950357Y-110118869D01*
X149950358Y-110118874D01*
X150010680Y-110277931D01*
X150055371Y-110342676D01*
X150107315Y-110417929D01*
X150181277Y-110483453D01*
X150234648Y-110530736D01*
X150385272Y-110609790D01*
X150385271Y-110609790D01*
X150489187Y-110635402D01*
X150526209Y-110644527D01*
X150584216Y-110677243D01*
X151616176Y-111709203D01*
X152626197Y-112719223D01*
X152659682Y-112780546D01*
X152654698Y-112850238D01*
X152640566Y-112877344D01*
X152575183Y-112972068D01*
X152575182Y-112972068D01*
X152514860Y-113131125D01*
X152514859Y-113131130D01*
X152494355Y-113300000D01*
X152514859Y-113468869D01*
X152514860Y-113468874D01*
X152575182Y-113627931D01*
X152606284Y-113672989D01*
X152671817Y-113767929D01*
X152766795Y-113852072D01*
X152799150Y-113880736D01*
X152932926Y-113950947D01*
X152949775Y-113959790D01*
X152991578Y-113970093D01*
X152991617Y-113970103D01*
X153051997Y-114005259D01*
X153083786Y-114067478D01*
X153076890Y-114137007D01*
X153033499Y-114191770D01*
X152967389Y-114214380D01*
X152961942Y-114214500D01*
X152809234Y-114214500D01*
X152662863Y-114253719D01*
X152531635Y-114329485D01*
X152531632Y-114329487D01*
X152424487Y-114436632D01*
X152424485Y-114436635D01*
X152348719Y-114567863D01*
X152319888Y-114675464D01*
X152309500Y-114714234D01*
X152309500Y-114865766D01*
X152328669Y-114937307D01*
X152348719Y-115012136D01*
X152386602Y-115077750D01*
X152424485Y-115143365D01*
X152531635Y-115250515D01*
X152662865Y-115326281D01*
X152809234Y-115365500D01*
X152809236Y-115365500D01*
X152960764Y-115365500D01*
X152960766Y-115365500D01*
X153107135Y-115326281D01*
X153238365Y-115250515D01*
X153345515Y-115143365D01*
X153421281Y-115012135D01*
X153460500Y-114865766D01*
X153460500Y-114714234D01*
X153421281Y-114567865D01*
X153395387Y-114523016D01*
X153378915Y-114455118D01*
X153401767Y-114389091D01*
X153456688Y-114345900D01*
X153526241Y-114339258D01*
X153585001Y-114368201D01*
X153599148Y-114380734D01*
X153637757Y-114400997D01*
X153667811Y-114423112D01*
X153788181Y-114543482D01*
X153821666Y-114604805D01*
X153824500Y-114631163D01*
X153824500Y-114766531D01*
X153824500Y-114766533D01*
X153824499Y-114766533D01*
X153850458Y-114897030D01*
X153850461Y-114897040D01*
X153901377Y-115019964D01*
X153901378Y-115019966D01*
X153901379Y-115019968D01*
X153901380Y-115019969D01*
X153923133Y-115052525D01*
X153928602Y-115060709D01*
X153949480Y-115127387D01*
X153949500Y-115129600D01*
X153949500Y-117420613D01*
X153929815Y-117487652D01*
X153913181Y-117508294D01*
X153108294Y-118313181D01*
X153046971Y-118346666D01*
X153020613Y-118349500D01*
X149227525Y-118349500D01*
X149116847Y-118379156D01*
X149046997Y-118377493D01*
X148989135Y-118338330D01*
X148961631Y-118274102D01*
X148973218Y-118205199D01*
X148982702Y-118188945D01*
X149024818Y-118127930D01*
X149085140Y-117968872D01*
X149090414Y-117925429D01*
X149118034Y-117861252D01*
X149125807Y-117852716D01*
X149390510Y-117588015D01*
X149462984Y-117462485D01*
X149468180Y-117443092D01*
X149500500Y-117322475D01*
X149500500Y-116629386D01*
X149520185Y-116562347D01*
X149536810Y-116541714D01*
X149660592Y-116417931D01*
X149721911Y-116384449D01*
X149777946Y-116385219D01*
X149839939Y-116400499D01*
X149839942Y-116400500D01*
X149839944Y-116400500D01*
X150010056Y-116400500D01*
X150175225Y-116359790D01*
X150289144Y-116300000D01*
X150325849Y-116280736D01*
X150325850Y-116280734D01*
X150325852Y-116280734D01*
X150453183Y-116167929D01*
X150549818Y-116027930D01*
X150610140Y-115868872D01*
X150630645Y-115700000D01*
X150610140Y-115531128D01*
X150549818Y-115372070D01*
X150545283Y-115365500D01*
X150497450Y-115296201D01*
X150475567Y-115229846D01*
X150475500Y-115225761D01*
X150475500Y-115052527D01*
X150475500Y-115052525D01*
X150437984Y-114912515D01*
X150431820Y-114901839D01*
X150365510Y-114786985D01*
X149786819Y-114208294D01*
X149753334Y-114146971D01*
X149750500Y-114120613D01*
X149750500Y-113625445D01*
X149750500Y-113625443D01*
X149712984Y-113485433D01*
X149712982Y-113485430D01*
X149712983Y-113485430D01*
X149705238Y-113472016D01*
X149705236Y-113472014D01*
X149703422Y-113468872D01*
X149640510Y-113359903D01*
X148490597Y-112209990D01*
X148365067Y-112137516D01*
X148365064Y-112137515D01*
X148335227Y-112129519D01*
X148335227Y-112129520D01*
X148280141Y-112114760D01*
X148225057Y-112100000D01*
X148225056Y-112100000D01*
X147706602Y-112100000D01*
X147639563Y-112080315D01*
X147618921Y-112063681D01*
X147485997Y-111930757D01*
X147452512Y-111869434D01*
X147457496Y-111799742D01*
X147485997Y-111755395D01*
X147904573Y-111336819D01*
X147965896Y-111303334D01*
X147992254Y-111300500D01*
X148242675Y-111300500D01*
X148242677Y-111300500D01*
X148344538Y-111273207D01*
X148435863Y-111220480D01*
X149120480Y-110535863D01*
X149173207Y-110444538D01*
X149200500Y-110342677D01*
X149200500Y-110237223D01*
X149200500Y-108889653D01*
X149208022Y-108847122D01*
X149237317Y-108766893D01*
X149360136Y-108430529D01*
X149360317Y-108430043D01*
X149360320Y-108430027D01*
X149360324Y-108430019D01*
X149361776Y-108421297D01*
X149369526Y-108394222D01*
X149374164Y-108383026D01*
X149418000Y-108328626D01*
X149484293Y-108306558D01*
X149551993Y-108323835D01*
G37*
%TD.AperFunction*%
%TA.AperFunction,Conductor*%
G36*
X147940234Y-113220685D02*
G01*
X147960876Y-113237319D01*
X148613181Y-113889624D01*
X148646666Y-113950947D01*
X148649500Y-113977305D01*
X148649500Y-114472476D01*
X148666850Y-114537229D01*
X148687014Y-114612480D01*
X148687016Y-114612485D01*
X148759489Y-114738013D01*
X148759491Y-114738016D01*
X149183794Y-115162319D01*
X149217279Y-115223642D01*
X149212295Y-115293334D01*
X149183794Y-115337681D01*
X148509491Y-116011983D01*
X148509487Y-116011988D01*
X148437322Y-116136984D01*
X148437017Y-116137511D01*
X148437016Y-116137515D01*
X148399500Y-116277525D01*
X148399500Y-116277527D01*
X148399500Y-116970613D01*
X148379815Y-117037652D01*
X148363178Y-117058297D01*
X148348715Y-117072759D01*
X148290712Y-117105472D01*
X148149773Y-117140210D01*
X147999150Y-117219263D01*
X147871816Y-117332072D01*
X147775182Y-117472068D01*
X147775182Y-117472069D01*
X147714860Y-117631124D01*
X147714859Y-117631129D01*
X147709584Y-117674572D01*
X147681960Y-117738749D01*
X147674169Y-117747304D01*
X147308294Y-118113181D01*
X147246971Y-118146666D01*
X147220613Y-118149500D01*
X143574500Y-118149500D01*
X143507461Y-118129815D01*
X143461706Y-118077011D01*
X143450500Y-118025500D01*
X143450500Y-117779387D01*
X143470185Y-117712348D01*
X143486819Y-117691706D01*
X143591706Y-117586819D01*
X143653029Y-117553334D01*
X143679387Y-117550500D01*
X143751020Y-117550500D01*
X143779713Y-117554367D01*
X143779719Y-117554339D01*
X143780397Y-117554459D01*
X143783845Y-117554924D01*
X143784531Y-117555112D01*
X143785358Y-117555339D01*
X144362000Y-117603392D01*
X144374284Y-117604167D01*
X144375217Y-117604207D01*
X144382705Y-117604293D01*
X144397445Y-117605345D01*
X144400000Y-117605682D01*
X144412029Y-117604097D01*
X144432265Y-117603803D01*
X144432270Y-117603338D01*
X144437987Y-117603390D01*
X144437999Y-117603392D01*
X144789703Y-117574083D01*
X144810295Y-117574083D01*
X145162000Y-117603392D01*
X145174284Y-117604167D01*
X145175217Y-117604207D01*
X145182704Y-117604293D01*
X145197446Y-117605345D01*
X145200000Y-117605682D01*
X145356762Y-117585044D01*
X145502841Y-117524536D01*
X145628282Y-117428282D01*
X145724536Y-117302841D01*
X145785044Y-117156762D01*
X145805682Y-117000000D01*
X145804097Y-116987970D01*
X145803803Y-116967734D01*
X145803338Y-116967730D01*
X145803390Y-116962011D01*
X145803392Y-116962000D01*
X145774083Y-116610294D01*
X145774083Y-116589700D01*
X145803392Y-116237999D01*
X145804167Y-116225715D01*
X145804207Y-116224782D01*
X145804293Y-116217294D01*
X145805345Y-116202557D01*
X145805682Y-116200000D01*
X145785044Y-116043238D01*
X145724536Y-115897159D01*
X145628282Y-115771718D01*
X145502841Y-115675464D01*
X145448224Y-115652841D01*
X145356762Y-115614956D01*
X145356760Y-115614955D01*
X145200001Y-115594318D01*
X145199999Y-115594318D01*
X145093377Y-115608355D01*
X145024342Y-115597589D01*
X144972086Y-115551209D01*
X144953201Y-115483940D01*
X144973682Y-115417140D01*
X145001703Y-115387042D01*
X145078282Y-115328282D01*
X145174536Y-115202841D01*
X145235044Y-115056762D01*
X145249009Y-114950685D01*
X145255682Y-114900001D01*
X145255682Y-114899998D01*
X145241923Y-114795492D01*
X145235044Y-114743238D01*
X145174536Y-114597159D01*
X145078282Y-114471718D01*
X145078279Y-114471716D01*
X145077697Y-114470957D01*
X145052503Y-114405787D01*
X145066541Y-114337343D01*
X145100583Y-114297097D01*
X145129397Y-114274989D01*
X145225651Y-114149548D01*
X145286159Y-114003469D01*
X145306797Y-113846707D01*
X145298760Y-113785663D01*
X145286159Y-113689946D01*
X145286159Y-113689945D01*
X145225651Y-113543866D01*
X145225650Y-113543865D01*
X145225650Y-113543864D01*
X145152177Y-113448112D01*
X145126983Y-113382943D01*
X145141021Y-113314498D01*
X145152171Y-113297148D01*
X145187050Y-113251692D01*
X145243477Y-113210491D01*
X145313223Y-113206336D01*
X145373106Y-113239499D01*
X146513181Y-114379574D01*
X146546666Y-114440897D01*
X146549500Y-114467255D01*
X146549500Y-114843419D01*
X146529815Y-114910458D01*
X146523876Y-114918905D01*
X146425464Y-115047157D01*
X146364956Y-115193237D01*
X146364955Y-115193239D01*
X146344318Y-115349998D01*
X146344318Y-115350001D01*
X146364955Y-115506760D01*
X146364956Y-115506762D01*
X146375047Y-115531125D01*
X146425464Y-115652841D01*
X146521718Y-115778282D01*
X146647159Y-115874536D01*
X146793238Y-115935044D01*
X146809144Y-115937138D01*
X146949999Y-115955682D01*
X146950000Y-115955682D01*
X146950001Y-115955682D01*
X147002254Y-115948802D01*
X147106762Y-115935044D01*
X147252841Y-115874536D01*
X147378282Y-115778282D01*
X147474536Y-115652841D01*
X147535044Y-115506762D01*
X147552319Y-115375547D01*
X147555682Y-115350001D01*
X147555682Y-115349998D01*
X147540182Y-115232267D01*
X147535044Y-115193238D01*
X147474536Y-115047159D01*
X147474535Y-115047158D01*
X147474535Y-115047157D01*
X147376124Y-114918905D01*
X147350930Y-114853736D01*
X147350500Y-114843419D01*
X147350500Y-114197275D01*
X147350500Y-114197273D01*
X147323207Y-114095413D01*
X147270480Y-114004087D01*
X147195913Y-113929520D01*
X147182762Y-113916369D01*
X147149277Y-113855046D01*
X147154261Y-113785354D01*
X147196133Y-113729421D01*
X147198554Y-113727824D01*
X147202836Y-113724537D01*
X147202841Y-113724536D01*
X147328282Y-113628282D01*
X147424536Y-113502841D01*
X147485044Y-113356762D01*
X147491356Y-113308814D01*
X147519622Y-113244919D01*
X147577946Y-113206447D01*
X147614295Y-113201000D01*
X147873195Y-113201000D01*
X147940234Y-113220685D01*
G37*
%TD.AperFunction*%
%TA.AperFunction,Conductor*%
G36*
X132419334Y-105461705D02*
G01*
X132475267Y-105503577D01*
X132499684Y-105569041D01*
X132500000Y-105577887D01*
X132500000Y-105933919D01*
X132480315Y-106000958D01*
X132474376Y-106009405D01*
X132375964Y-106137657D01*
X132315456Y-106283737D01*
X132315455Y-106283739D01*
X132294818Y-106440498D01*
X132294818Y-106440501D01*
X132315455Y-106597260D01*
X132315456Y-106597262D01*
X132368559Y-106725465D01*
X132375964Y-106743341D01*
X132472218Y-106868782D01*
X132597659Y-106965036D01*
X132743738Y-107025544D01*
X132900500Y-107046182D01*
X132959317Y-107038438D01*
X133028348Y-107049203D01*
X133080605Y-107095582D01*
X133099500Y-107161377D01*
X133099500Y-113206273D01*
X133079815Y-113273312D01*
X133063181Y-113293954D01*
X131218760Y-115138375D01*
X131157437Y-115171860D01*
X131131079Y-115174694D01*
X131127961Y-115174694D01*
X130971202Y-115195331D01*
X130971200Y-115195332D01*
X130825123Y-115255839D01*
X130699681Y-115352094D01*
X130603426Y-115477536D01*
X130542919Y-115623613D01*
X130542918Y-115623615D01*
X130522281Y-115780374D01*
X130522281Y-115780377D01*
X130542918Y-115937136D01*
X130542919Y-115937138D01*
X130602815Y-116081741D01*
X130603427Y-116083217D01*
X130699681Y-116208658D01*
X130825122Y-116304912D01*
X130971201Y-116365420D01*
X131049582Y-116375739D01*
X131127962Y-116386058D01*
X131127963Y-116386058D01*
X131127964Y-116386058D01*
X131180217Y-116379178D01*
X131284725Y-116365420D01*
X131430804Y-116304912D01*
X131556245Y-116208658D01*
X131652499Y-116083217D01*
X131674726Y-116029554D01*
X131718565Y-115975154D01*
X131784858Y-115953088D01*
X131852558Y-115970366D01*
X131900169Y-116021503D01*
X131903846Y-116029554D01*
X131925464Y-116081743D01*
X132021718Y-116207184D01*
X132147159Y-116303438D01*
X132293238Y-116363946D01*
X132327693Y-116368482D01*
X132449999Y-116384584D01*
X132450000Y-116384584D01*
X132450001Y-116384584D01*
X132502254Y-116377704D01*
X132606762Y-116363946D01*
X132752841Y-116303438D01*
X132878282Y-116207184D01*
X132974536Y-116081743D01*
X133035044Y-115935664D01*
X133055682Y-115778902D01*
X133055681Y-115778899D01*
X133056144Y-115775387D01*
X133084410Y-115711491D01*
X133091390Y-115703903D01*
X134820480Y-113974815D01*
X134873207Y-113883490D01*
X134900500Y-113781629D01*
X134900500Y-113676175D01*
X134900500Y-110798348D01*
X134920185Y-110731309D01*
X134972989Y-110685554D01*
X135042147Y-110675610D01*
X135099985Y-110699972D01*
X135107840Y-110705999D01*
X135197157Y-110774535D01*
X135197158Y-110774535D01*
X135197159Y-110774536D01*
X135343238Y-110835044D01*
X135421619Y-110845363D01*
X135499999Y-110855682D01*
X135500000Y-110855682D01*
X135500001Y-110855682D01*
X135552254Y-110848802D01*
X135656762Y-110835044D01*
X135802841Y-110774536D01*
X135862979Y-110728390D01*
X135928144Y-110703197D01*
X135996589Y-110717235D01*
X136013950Y-110728392D01*
X136073671Y-110774218D01*
X136073672Y-110774218D01*
X136073673Y-110774219D01*
X136219752Y-110834727D01*
X136298133Y-110845046D01*
X136376513Y-110855365D01*
X136376514Y-110855365D01*
X136376515Y-110855365D01*
X136428768Y-110848485D01*
X136533276Y-110834727D01*
X136596808Y-110808410D01*
X136666276Y-110800942D01*
X136728756Y-110832217D01*
X136764408Y-110892306D01*
X136768260Y-110922972D01*
X136768260Y-111066033D01*
X136768260Y-111171487D01*
X136778365Y-111209199D01*
X136795553Y-111273349D01*
X136821916Y-111319010D01*
X136848280Y-111364673D01*
X137467195Y-111983588D01*
X138063181Y-112579573D01*
X138096666Y-112640896D01*
X138099500Y-112667254D01*
X138099500Y-113673919D01*
X138079815Y-113740958D01*
X138073876Y-113749405D01*
X137975464Y-113877657D01*
X137914956Y-114023737D01*
X137914955Y-114023739D01*
X137894318Y-114180498D01*
X137894318Y-114180501D01*
X137914955Y-114337260D01*
X137914956Y-114337262D01*
X137970963Y-114472476D01*
X137975464Y-114483341D01*
X138071718Y-114608782D01*
X138197159Y-114705036D01*
X138343238Y-114765544D01*
X138421619Y-114775863D01*
X138499999Y-114786182D01*
X138500000Y-114786182D01*
X138500001Y-114786182D01*
X138569190Y-114777073D01*
X138656762Y-114765544D01*
X138802841Y-114705036D01*
X138928282Y-114608782D01*
X138997301Y-114518834D01*
X139053728Y-114477632D01*
X139123474Y-114473477D01*
X139132980Y-114476066D01*
X139332863Y-114539166D01*
X139358606Y-114546074D01*
X139358625Y-114546079D01*
X139360590Y-114546515D01*
X139386954Y-114551168D01*
X139447771Y-114559174D01*
X139479035Y-114567550D01*
X139522117Y-114585395D01*
X139541290Y-114595377D01*
X139544088Y-114597160D01*
X139553694Y-114603281D01*
X139553700Y-114603284D01*
X139557282Y-114605150D01*
X139557286Y-114605152D01*
X139557296Y-114605157D01*
X139606449Y-114625533D01*
X139639849Y-114636076D01*
X139690199Y-114666642D01*
X139713181Y-114689624D01*
X139746666Y-114750947D01*
X139749500Y-114777305D01*
X139749500Y-117094723D01*
X139729815Y-117161762D01*
X139677011Y-117207517D01*
X139607853Y-117217461D01*
X139544297Y-117188436D01*
X139532833Y-117176269D01*
X139528286Y-117171722D01*
X139528283Y-117171720D01*
X139528282Y-117171718D01*
X139402841Y-117075464D01*
X139361396Y-117058297D01*
X139256762Y-117014956D01*
X139256760Y-117014955D01*
X139100002Y-116994318D01*
X139100000Y-116994318D01*
X139095333Y-116994932D01*
X139087962Y-116995902D01*
X139067733Y-116996199D01*
X139067729Y-116996660D01*
X139062000Y-116996607D01*
X139061999Y-116996607D01*
X139021284Y-117000000D01*
X138485357Y-117044661D01*
X138485353Y-117044661D01*
X138485352Y-117044662D01*
X138482670Y-117045372D01*
X138450942Y-117049500D01*
X137174500Y-117049500D01*
X137107461Y-117029815D01*
X137061706Y-116977011D01*
X137050500Y-116925500D01*
X137050500Y-115848979D01*
X137054367Y-115820287D01*
X137054339Y-115820282D01*
X137054461Y-115819593D01*
X137054926Y-115816145D01*
X137055339Y-115814642D01*
X137103392Y-115237999D01*
X137104167Y-115225715D01*
X137104207Y-115224782D01*
X137104293Y-115217294D01*
X137105345Y-115202557D01*
X137105682Y-115200000D01*
X137085044Y-115043238D01*
X137024536Y-114897159D01*
X136928282Y-114771718D01*
X136802841Y-114675464D01*
X136656762Y-114614956D01*
X136656760Y-114614955D01*
X136500001Y-114594318D01*
X136499999Y-114594318D01*
X136343239Y-114614955D01*
X136343237Y-114614956D01*
X136197160Y-114675463D01*
X136071718Y-114771718D01*
X135975463Y-114897160D01*
X135914956Y-115043237D01*
X135914955Y-115043239D01*
X135894318Y-115199998D01*
X135894318Y-115200006D01*
X135895901Y-115212038D01*
X135896199Y-115232267D01*
X135896660Y-115232272D01*
X135896607Y-115238001D01*
X135944661Y-115814647D01*
X135944662Y-115814650D01*
X135945371Y-115817327D01*
X135949500Y-115849059D01*
X135949500Y-116925500D01*
X135929815Y-116992539D01*
X135877011Y-117038294D01*
X135825500Y-117049500D01*
X129327525Y-117049500D01*
X129215097Y-117079625D01*
X129215096Y-117079624D01*
X129187514Y-117087016D01*
X129180001Y-117090128D01*
X129179329Y-117088505D01*
X129121089Y-117102630D01*
X129055064Y-117079773D01*
X129011878Y-117024848D01*
X129005242Y-116955294D01*
X129035617Y-116896385D01*
X129035564Y-116896344D01*
X129035791Y-116896047D01*
X129037263Y-116893194D01*
X129039241Y-116891167D01*
X129040510Y-116889899D01*
X129112984Y-116764369D01*
X129119927Y-116738457D01*
X129150500Y-116624359D01*
X129150500Y-108679387D01*
X129170185Y-108612348D01*
X129186819Y-108591706D01*
X132288319Y-105490206D01*
X132349642Y-105456721D01*
X132419334Y-105461705D01*
G37*
%TD.AperFunction*%
%TA.AperFunction,Conductor*%
G36*
X131489734Y-91320185D02*
G01*
X131510376Y-91336819D01*
X133163181Y-92989623D01*
X133196666Y-93050946D01*
X133199500Y-93077304D01*
X133199500Y-95475637D01*
X133179815Y-95542676D01*
X133163181Y-95563318D01*
X132400540Y-96325958D01*
X132400534Y-96325965D01*
X132367568Y-96375304D01*
X132367568Y-96375305D01*
X132301985Y-96473455D01*
X132268046Y-96555393D01*
X132234106Y-96637329D01*
X132234103Y-96637341D01*
X132199500Y-96811303D01*
X132199500Y-96988696D01*
X132234103Y-97162659D01*
X132234104Y-97162663D01*
X132234105Y-97162666D01*
X132255765Y-97214956D01*
X132301983Y-97326541D01*
X132301987Y-97326547D01*
X132350733Y-97399500D01*
X132393283Y-97463181D01*
X132403603Y-97478626D01*
X132424480Y-97545304D01*
X132424500Y-97547516D01*
X132424500Y-97682985D01*
X132416443Y-97726953D01*
X132414861Y-97731123D01*
X132414859Y-97731130D01*
X132394355Y-97900000D01*
X132414859Y-98068869D01*
X132414860Y-98068874D01*
X132475182Y-98227931D01*
X132525078Y-98300216D01*
X132571817Y-98367929D01*
X132639941Y-98428281D01*
X132699150Y-98480736D01*
X132849773Y-98559789D01*
X132849775Y-98559790D01*
X133014944Y-98600500D01*
X133185056Y-98600500D01*
X133271868Y-98579103D01*
X133301543Y-98575500D01*
X133433745Y-98575500D01*
X133500784Y-98595185D01*
X133546539Y-98647989D01*
X133556483Y-98717147D01*
X133527458Y-98780703D01*
X133521426Y-98787181D01*
X133504518Y-98804089D01*
X133061968Y-99246637D01*
X133000645Y-99280122D01*
X132930953Y-99275138D01*
X132875912Y-99234443D01*
X132827782Y-99171718D01*
X132702341Y-99075464D01*
X132556262Y-99014956D01*
X132556260Y-99014955D01*
X132399501Y-98994318D01*
X132399499Y-98994318D01*
X132242739Y-99014955D01*
X132242737Y-99014956D01*
X132096660Y-99075463D01*
X131971218Y-99171718D01*
X131874963Y-99297160D01*
X131814456Y-99443237D01*
X131814456Y-99443238D01*
X131793355Y-99603513D01*
X131765088Y-99667409D01*
X131758099Y-99675007D01*
X131729521Y-99703585D01*
X131676793Y-99794911D01*
X131665093Y-99838577D01*
X131653393Y-99882243D01*
X131650797Y-99891929D01*
X131649500Y-99896772D01*
X131649500Y-102207744D01*
X131629815Y-102274783D01*
X131613181Y-102295425D01*
X131046218Y-102862387D01*
X130984895Y-102895872D01*
X130974723Y-102897645D01*
X130874183Y-102910882D01*
X130843238Y-102914956D01*
X130843237Y-102914956D01*
X130697160Y-102975463D01*
X130571718Y-103071718D01*
X130475463Y-103197160D01*
X130414956Y-103343237D01*
X130414955Y-103343239D01*
X130394318Y-103499998D01*
X130394318Y-103500001D01*
X130414955Y-103656760D01*
X130414956Y-103656762D01*
X130471933Y-103794318D01*
X130475464Y-103802841D01*
X130571718Y-103928282D01*
X130697159Y-104024536D01*
X130843238Y-104085044D01*
X130868950Y-104088429D01*
X130999999Y-104105682D01*
X131000000Y-104105682D01*
X131000001Y-104105682D01*
X131052254Y-104098802D01*
X131156762Y-104085044D01*
X131302841Y-104024536D01*
X131400014Y-103949972D01*
X131465182Y-103924778D01*
X131533627Y-103938816D01*
X131583617Y-103987630D01*
X131599500Y-104048348D01*
X131599500Y-104570613D01*
X131579815Y-104637652D01*
X131563181Y-104658294D01*
X128159491Y-108061983D01*
X128159489Y-108061986D01*
X128092410Y-108178173D01*
X128092409Y-108178174D01*
X128087017Y-108187512D01*
X128087016Y-108187513D01*
X128076186Y-108227931D01*
X128049500Y-108327525D01*
X128049500Y-108327527D01*
X128049500Y-115281834D01*
X128029815Y-115348873D01*
X127977011Y-115394628D01*
X127907853Y-115404572D01*
X127844297Y-115375547D01*
X127819594Y-115341292D01*
X127817549Y-115342473D01*
X127810278Y-115329879D01*
X127741012Y-115209906D01*
X127741008Y-115209901D01*
X127481792Y-114950685D01*
X127464615Y-114929191D01*
X127462919Y-114926504D01*
X127427885Y-114880937D01*
X127355650Y-114786983D01*
X127008286Y-114335177D01*
X127004541Y-114330038D01*
X126986272Y-114303571D01*
X126986266Y-114303565D01*
X126977586Y-114295875D01*
X126970156Y-114288720D01*
X126959585Y-114277655D01*
X126959582Y-114277653D01*
X126959581Y-114277652D01*
X126957255Y-114276128D01*
X126942997Y-114265231D01*
X126906240Y-114232668D01*
X126902348Y-114229006D01*
X126900109Y-114227149D01*
X126897047Y-114224525D01*
X126885731Y-114214500D01*
X126858940Y-114190765D01*
X126858939Y-114190764D01*
X126812214Y-114166240D01*
X126799822Y-114158783D01*
X126252242Y-113784125D01*
X126234582Y-113769468D01*
X125948408Y-113483294D01*
X125914923Y-113421971D01*
X125912089Y-113395613D01*
X125912089Y-112689116D01*
X125912089Y-112689114D01*
X125874573Y-112549104D01*
X125872701Y-112545862D01*
X125872699Y-112545854D01*
X125872698Y-112545855D01*
X125802103Y-112423580D01*
X125802097Y-112423572D01*
X125715913Y-112337388D01*
X125696469Y-112312159D01*
X125694708Y-112309138D01*
X125621818Y-112224790D01*
X125592880Y-112161197D01*
X125602916Y-112092052D01*
X125613300Y-112073699D01*
X125642076Y-112031642D01*
X125662874Y-112001247D01*
X125677530Y-111983588D01*
X126230015Y-111431103D01*
X126870510Y-110790609D01*
X126942984Y-110665079D01*
X126948491Y-110644527D01*
X126957800Y-110609789D01*
X126973751Y-110550255D01*
X126980500Y-110525069D01*
X126980500Y-108517525D01*
X126980500Y-108102752D01*
X126984105Y-108073070D01*
X126985140Y-108068870D01*
X126988252Y-108043239D01*
X127005645Y-107900000D01*
X126985140Y-107731128D01*
X126985139Y-107731127D01*
X126984236Y-107723683D01*
X126985209Y-107723564D01*
X126984476Y-107676320D01*
X126985692Y-107670633D01*
X127005088Y-106919862D01*
X127005157Y-106916448D01*
X127005161Y-106916175D01*
X127005149Y-106911967D01*
X127005644Y-106903568D01*
X127005644Y-106900008D01*
X127005645Y-106900000D01*
X126985140Y-106731128D01*
X126967852Y-106685544D01*
X126944905Y-106625036D01*
X126924818Y-106572070D01*
X126828183Y-106432071D01*
X126703620Y-106321718D01*
X126700849Y-106319263D01*
X126550226Y-106240210D01*
X126385056Y-106199500D01*
X126214944Y-106199500D01*
X126128132Y-106220897D01*
X126098457Y-106224500D01*
X125501543Y-106224500D01*
X125471868Y-106220897D01*
X125385056Y-106199500D01*
X125338406Y-106199500D01*
X125271367Y-106179815D01*
X125225612Y-106127011D01*
X125215668Y-106057853D01*
X125221256Y-106037479D01*
X125221103Y-106037438D01*
X125223207Y-106029587D01*
X125250500Y-105927727D01*
X125250500Y-102005276D01*
X125270185Y-101938237D01*
X125322989Y-101892482D01*
X125392147Y-101882538D01*
X125455703Y-101911563D01*
X125467166Y-101923730D01*
X125471713Y-101928277D01*
X125471715Y-101928279D01*
X125471718Y-101928282D01*
X125597159Y-102024536D01*
X125743238Y-102085044D01*
X125821619Y-102095363D01*
X125899999Y-102105682D01*
X125900000Y-102105682D01*
X125900001Y-102105682D01*
X125952254Y-102098802D01*
X126056762Y-102085044D01*
X126202841Y-102024536D01*
X126265933Y-101976123D01*
X126331102Y-101950930D01*
X126341419Y-101950500D01*
X129033218Y-101950500D01*
X129033219Y-101950500D01*
X129123583Y-101926286D01*
X129147797Y-101919799D01*
X129250524Y-101860489D01*
X129833190Y-101277821D01*
X129894511Y-101244338D01*
X129904664Y-101242568D01*
X129983530Y-101232186D01*
X130129609Y-101171678D01*
X130255050Y-101075424D01*
X130351304Y-100949983D01*
X130411812Y-100803904D01*
X130432450Y-100647142D01*
X130431656Y-100641113D01*
X130411812Y-100490381D01*
X130411812Y-100490380D01*
X130351304Y-100344301D01*
X130255050Y-100218860D01*
X130129609Y-100122606D01*
X129983530Y-100062098D01*
X129983528Y-100062097D01*
X129826769Y-100041460D01*
X129826767Y-100041460D01*
X129670007Y-100062097D01*
X129670005Y-100062098D01*
X129523928Y-100122605D01*
X129398486Y-100218860D01*
X129302231Y-100344302D01*
X129241724Y-100490380D01*
X129231343Y-100569226D01*
X129203076Y-100633122D01*
X129196085Y-100640720D01*
X128823626Y-101013181D01*
X128762303Y-101046666D01*
X128735945Y-101049500D01*
X126341419Y-101049500D01*
X126274380Y-101029815D01*
X126265933Y-101023876D01*
X126202842Y-100975464D01*
X126056762Y-100914956D01*
X126056760Y-100914955D01*
X125900001Y-100894318D01*
X125899999Y-100894318D01*
X125743239Y-100914955D01*
X125743237Y-100914956D01*
X125597160Y-100975463D01*
X125548005Y-101013181D01*
X125504367Y-101046666D01*
X125471713Y-101071722D01*
X125465971Y-101077465D01*
X125464691Y-101076185D01*
X125416445Y-101111413D01*
X125346699Y-101115566D01*
X125285780Y-101081353D01*
X125253028Y-101019635D01*
X125250500Y-100994723D01*
X125250500Y-94666523D01*
X125270185Y-94599484D01*
X125286814Y-94578847D01*
X125873488Y-93992173D01*
X125934810Y-93958689D01*
X126004502Y-93963673D01*
X126060435Y-94005545D01*
X126084852Y-94071009D01*
X126077111Y-94123824D01*
X126064860Y-94156126D01*
X126064859Y-94156130D01*
X126052640Y-94256765D01*
X126044355Y-94325000D01*
X126047059Y-94347271D01*
X126064859Y-94493869D01*
X126064860Y-94493874D01*
X126125182Y-94652931D01*
X126134728Y-94666760D01*
X126221817Y-94792929D01*
X126285218Y-94849097D01*
X126349150Y-94905736D01*
X126499773Y-94984789D01*
X126499775Y-94984790D01*
X126664944Y-95025500D01*
X126835056Y-95025500D01*
X127000225Y-94984790D01*
X127150852Y-94905734D01*
X127241062Y-94825815D01*
X127262656Y-94806685D01*
X127325889Y-94776963D01*
X127344883Y-94775500D01*
X127387035Y-94775500D01*
X127454074Y-94795185D01*
X127474716Y-94811819D01*
X128769329Y-96106432D01*
X128802814Y-96167755D01*
X128805648Y-96194113D01*
X128805648Y-96299415D01*
X128785963Y-96366454D01*
X128780024Y-96374901D01*
X128731612Y-96437992D01*
X128671104Y-96584072D01*
X128671103Y-96584074D01*
X128650466Y-96740833D01*
X128650466Y-96740836D01*
X128671103Y-96897595D01*
X128671104Y-96897597D01*
X128708838Y-96988696D01*
X128731612Y-97043676D01*
X128827866Y-97169117D01*
X128953307Y-97265371D01*
X129099386Y-97325879D01*
X129104506Y-97326553D01*
X129256147Y-97346517D01*
X129256148Y-97346517D01*
X129256149Y-97346517D01*
X129308402Y-97339637D01*
X129412910Y-97325879D01*
X129558989Y-97265371D01*
X129684430Y-97169117D01*
X129780684Y-97043676D01*
X129841192Y-96897597D01*
X129861830Y-96740835D01*
X129850835Y-96657323D01*
X129841192Y-96584074D01*
X129841192Y-96584073D01*
X129780684Y-96437994D01*
X129780683Y-96437993D01*
X129780683Y-96437992D01*
X129732272Y-96374901D01*
X129707078Y-96309731D01*
X129706648Y-96299415D01*
X129706648Y-95896841D01*
X129706648Y-95896839D01*
X129675947Y-95782262D01*
X129672479Y-95776255D01*
X129616638Y-95679534D01*
X127901614Y-93964511D01*
X127850250Y-93934856D01*
X127798888Y-93905201D01*
X127786780Y-93901957D01*
X127774673Y-93898713D01*
X127774670Y-93898712D01*
X127728175Y-93886254D01*
X127684309Y-93874500D01*
X127684308Y-93874500D01*
X127344883Y-93874500D01*
X127277844Y-93854815D01*
X127262656Y-93843315D01*
X127150852Y-93744266D01*
X127150850Y-93744264D01*
X127000226Y-93665210D01*
X126835056Y-93624500D01*
X126664944Y-93624500D01*
X126664942Y-93624500D01*
X126534424Y-93656669D01*
X126464622Y-93653600D01*
X126407560Y-93613279D01*
X126381355Y-93548510D01*
X126394328Y-93479855D01*
X126417065Y-93448595D01*
X126602224Y-93263436D01*
X126663547Y-93229952D01*
X126689905Y-93227118D01*
X126857708Y-93227118D01*
X127022877Y-93186408D01*
X127111303Y-93139998D01*
X127173501Y-93107354D01*
X127173502Y-93107352D01*
X127173504Y-93107352D01*
X127300835Y-92994547D01*
X127397470Y-92854548D01*
X127457792Y-92695490D01*
X127478297Y-92526618D01*
X127457792Y-92357746D01*
X127397470Y-92198688D01*
X127397001Y-92198009D01*
X127328978Y-92099461D01*
X127300835Y-92058689D01*
X127173504Y-91945884D01*
X127173501Y-91945881D01*
X127022879Y-91866828D01*
X127008178Y-91863205D01*
X126947798Y-91828048D01*
X126916010Y-91765828D01*
X126922906Y-91696300D01*
X126950171Y-91655128D01*
X127090719Y-91514580D01*
X127152042Y-91481096D01*
X127221734Y-91486080D01*
X127266081Y-91514581D01*
X127850960Y-92099461D01*
X127850964Y-92099464D01*
X127998446Y-92198009D01*
X127998455Y-92198014D01*
X128004457Y-92200500D01*
X128162334Y-92265895D01*
X128336303Y-92300499D01*
X128336307Y-92300500D01*
X128336308Y-92300500D01*
X129488693Y-92300500D01*
X129488694Y-92300499D01*
X129662666Y-92265895D01*
X129758021Y-92226397D01*
X129826547Y-92198013D01*
X129914959Y-92138936D01*
X129974036Y-92099464D01*
X130736680Y-91336818D01*
X130798003Y-91303334D01*
X130824361Y-91300500D01*
X131422695Y-91300500D01*
X131489734Y-91320185D01*
G37*
%TD.AperFunction*%
%TA.AperFunction,Conductor*%
G36*
X123968834Y-106838981D02*
G01*
X124024767Y-106880853D01*
X124049184Y-106946317D01*
X124049500Y-106955163D01*
X124049500Y-107207745D01*
X124029815Y-107274784D01*
X124013181Y-107295426D01*
X122729477Y-108579129D01*
X122729473Y-108579135D01*
X122676747Y-108670457D01*
X122676748Y-108670458D01*
X122649455Y-108772318D01*
X122649455Y-110262848D01*
X122676748Y-110364711D01*
X122701027Y-110406762D01*
X122729475Y-110456035D01*
X122729477Y-110456037D01*
X123383097Y-111109657D01*
X123416582Y-111170980D01*
X123418355Y-111181152D01*
X123426130Y-111240210D01*
X123439456Y-111341429D01*
X123499964Y-111487508D01*
X123596218Y-111612949D01*
X123721659Y-111709203D01*
X123867738Y-111769711D01*
X123906553Y-111774821D01*
X123970450Y-111803087D01*
X124008921Y-111861412D01*
X124009752Y-111931277D01*
X123992706Y-111967781D01*
X123688124Y-112412941D01*
X123673467Y-112430601D01*
X120959491Y-115144577D01*
X120959485Y-115144585D01*
X120956885Y-115149089D01*
X120906317Y-115197303D01*
X120837709Y-115210524D01*
X120772845Y-115184554D01*
X120732319Y-115127639D01*
X120725500Y-115087086D01*
X120725500Y-110031163D01*
X120745185Y-109964124D01*
X120761819Y-109943482D01*
X123837819Y-106867482D01*
X123899142Y-106833997D01*
X123968834Y-106838981D01*
G37*
%TD.AperFunction*%
%TA.AperFunction,Conductor*%
G36*
X124543623Y-108000280D02*
G01*
X124599557Y-108042152D01*
X124616232Y-108072491D01*
X124675182Y-108227930D01*
X124675182Y-108227931D01*
X124771818Y-108367930D01*
X124864555Y-108450088D01*
X124901682Y-108509277D01*
X124900914Y-108579142D01*
X124884378Y-108613343D01*
X124815804Y-108712689D01*
X124815803Y-108712690D01*
X124755481Y-108871745D01*
X124755480Y-108871751D01*
X124751321Y-108906007D01*
X124723699Y-108970185D01*
X124665764Y-109009241D01*
X124657900Y-109011457D01*
X124490394Y-109052743D01*
X124339771Y-109131796D01*
X124212437Y-109244605D01*
X124115803Y-109384601D01*
X124055481Y-109543658D01*
X124055480Y-109543663D01*
X124034976Y-109712533D01*
X124055480Y-109881402D01*
X124055481Y-109881407D01*
X124115803Y-110040464D01*
X124173504Y-110124057D01*
X124212438Y-110180462D01*
X124305433Y-110262848D01*
X124339771Y-110293269D01*
X124488445Y-110371299D01*
X124490396Y-110372323D01*
X124655565Y-110413033D01*
X124825677Y-110413033D01*
X124990846Y-110372323D01*
X125077595Y-110326793D01*
X125141470Y-110293269D01*
X125141471Y-110293267D01*
X125141473Y-110293267D01*
X125268804Y-110180462D01*
X125365439Y-110040463D01*
X125425761Y-109881405D01*
X125429920Y-109847147D01*
X125457540Y-109782971D01*
X125515473Y-109743913D01*
X125523342Y-109741696D01*
X125525675Y-109741121D01*
X125525677Y-109741121D01*
X125690846Y-109700411D01*
X125697869Y-109696724D01*
X125766376Y-109682996D01*
X125831431Y-109708485D01*
X125872378Y-109765098D01*
X125879500Y-109806518D01*
X125879500Y-110173206D01*
X125859815Y-110240245D01*
X125843181Y-110260887D01*
X124899004Y-111205063D01*
X124881343Y-111219720D01*
X124821779Y-111260474D01*
X124755336Y-111282084D01*
X124687756Y-111264342D01*
X124640497Y-111212879D01*
X124628820Y-111174321D01*
X124609544Y-111027906D01*
X124609544Y-111027905D01*
X124549036Y-110881826D01*
X124452782Y-110756385D01*
X124327341Y-110660131D01*
X124312754Y-110654089D01*
X124205807Y-110609790D01*
X124181262Y-110599623D01*
X124125077Y-110592226D01*
X124020985Y-110578522D01*
X123957089Y-110550255D01*
X123949490Y-110543264D01*
X123486774Y-110080548D01*
X123453289Y-110019225D01*
X123450455Y-109992867D01*
X123450455Y-109042298D01*
X123470140Y-108975259D01*
X123486769Y-108954621D01*
X124412611Y-108028779D01*
X124473932Y-107995296D01*
X124543623Y-108000280D01*
G37*
%TD.AperFunction*%
%TA.AperFunction,Conductor*%
G36*
X140488896Y-107771529D02*
G01*
X140496154Y-107774535D01*
X140496155Y-107774536D01*
X140642234Y-107835044D01*
X140688920Y-107841190D01*
X140752817Y-107869456D01*
X140760416Y-107876448D01*
X141513181Y-108629213D01*
X141546666Y-108690536D01*
X141549500Y-108716894D01*
X141549500Y-109239676D01*
X141529815Y-109306715D01*
X141477011Y-109352470D01*
X141407853Y-109362414D01*
X141367876Y-109349473D01*
X141350226Y-109340210D01*
X141350227Y-109340210D01*
X141185056Y-109299500D01*
X141014944Y-109299500D01*
X140849773Y-109340210D01*
X140699150Y-109419263D01*
X140628254Y-109482072D01*
X140572882Y-109531128D01*
X140571816Y-109532072D01*
X140475182Y-109672068D01*
X140414860Y-109831125D01*
X140414859Y-109831130D01*
X140394355Y-110000000D01*
X140414859Y-110168869D01*
X140414860Y-110168874D01*
X140464400Y-110299500D01*
X140475182Y-110327930D01*
X140490035Y-110349449D01*
X140511918Y-110415802D01*
X140494453Y-110483453D01*
X140486361Y-110495374D01*
X140419144Y-110582973D01*
X140358636Y-110729053D01*
X140358635Y-110729055D01*
X140337998Y-110885814D01*
X140337998Y-110885817D01*
X140358635Y-111042576D01*
X140358637Y-111042581D01*
X140367326Y-111063558D01*
X140374795Y-111133027D01*
X140343520Y-111195506D01*
X140283431Y-111231158D01*
X140213605Y-111228664D01*
X140165084Y-111198691D01*
X139836819Y-110870426D01*
X139803334Y-110809103D01*
X139800500Y-110782745D01*
X139800500Y-110506580D01*
X139820185Y-110439541D01*
X139826124Y-110431093D01*
X139828279Y-110428283D01*
X139828282Y-110428282D01*
X139924536Y-110302841D01*
X139985044Y-110156762D01*
X140005682Y-110000000D01*
X139999099Y-109950000D01*
X139985044Y-109843239D01*
X139985044Y-109843238D01*
X139924536Y-109697159D01*
X139828282Y-109571718D01*
X139702841Y-109475464D01*
X139556762Y-109414956D01*
X139556760Y-109414955D01*
X139400001Y-109394318D01*
X139399999Y-109394318D01*
X139243239Y-109414955D01*
X139243237Y-109414956D01*
X139097160Y-109475463D01*
X138971718Y-109571718D01*
X138875463Y-109697160D01*
X138814956Y-109843237D01*
X138814955Y-109843239D01*
X138794318Y-109999998D01*
X138794318Y-110000001D01*
X138814955Y-110156760D01*
X138814956Y-110156762D01*
X138865145Y-110277930D01*
X138875464Y-110302841D01*
X138971718Y-110428282D01*
X138971720Y-110428283D01*
X138973876Y-110431093D01*
X138999070Y-110496263D01*
X138999500Y-110506580D01*
X138999500Y-110799431D01*
X138979815Y-110866470D01*
X138927011Y-110912225D01*
X138857853Y-110922169D01*
X138794297Y-110893144D01*
X138787819Y-110887112D01*
X138347531Y-110446824D01*
X138314046Y-110385501D01*
X138319030Y-110315809D01*
X138321575Y-110310412D01*
X138321426Y-110310351D01*
X138375227Y-110180462D01*
X138385044Y-110156762D01*
X138405682Y-110000000D01*
X138399099Y-109950000D01*
X138385044Y-109843239D01*
X138385044Y-109843238D01*
X138324536Y-109697159D01*
X138228282Y-109571718D01*
X138228280Y-109571717D01*
X138228280Y-109571716D01*
X138124906Y-109492395D01*
X138083703Y-109435967D01*
X138079548Y-109366221D01*
X138112709Y-109306340D01*
X139474835Y-107944214D01*
X139536156Y-107910731D01*
X139605848Y-107915715D01*
X139609966Y-107917336D01*
X139716056Y-107961278D01*
X139751446Y-107975938D01*
X139829827Y-107986257D01*
X139908207Y-107996576D01*
X139908208Y-107996576D01*
X139908209Y-107996576D01*
X139960462Y-107989696D01*
X140064970Y-107975938D01*
X140211049Y-107915430D01*
X140336490Y-107819176D01*
X140343064Y-107810608D01*
X140399489Y-107769403D01*
X140469235Y-107765245D01*
X140488896Y-107771529D01*
G37*
%TD.AperFunction*%
%TA.AperFunction,Conductor*%
G36*
X146229825Y-106506789D02*
G01*
X146239485Y-106517936D01*
X146247807Y-106528782D01*
X146373248Y-106625036D01*
X146519327Y-106685544D01*
X146676089Y-106706182D01*
X146676090Y-106706181D01*
X146679602Y-106706644D01*
X146743499Y-106734910D01*
X146751098Y-106741902D01*
X147629676Y-107620480D01*
X147721001Y-107673207D01*
X147822862Y-107700500D01*
X148174918Y-107700500D01*
X148241957Y-107720185D01*
X148287712Y-107772989D01*
X148297656Y-107842147D01*
X148277858Y-107889154D01*
X148279528Y-107890119D01*
X148275465Y-107897156D01*
X148214956Y-108043237D01*
X148214955Y-108043239D01*
X148194318Y-108199998D01*
X148194318Y-108200001D01*
X148214956Y-108356763D01*
X148230487Y-108394258D01*
X148238235Y-108421301D01*
X148239700Y-108430084D01*
X148391978Y-108847122D01*
X148399500Y-108889653D01*
X148399500Y-110072695D01*
X148379815Y-110139734D01*
X148363181Y-110160376D01*
X148060376Y-110463181D01*
X147999053Y-110496666D01*
X147972695Y-110499500D01*
X147835339Y-110499500D01*
X147835323Y-110499499D01*
X147827727Y-110499499D01*
X147722273Y-110499499D01*
X147628836Y-110524536D01*
X147628835Y-110524535D01*
X147620414Y-110526792D01*
X147620413Y-110526792D01*
X147529084Y-110579522D01*
X147454518Y-110654089D01*
X146919604Y-111189002D01*
X146858281Y-111222487D01*
X146788589Y-111217503D01*
X146744242Y-111189002D01*
X145341964Y-109786724D01*
X145308479Y-109725401D01*
X145306549Y-109707447D01*
X145303580Y-109682996D01*
X145285140Y-109531128D01*
X145224818Y-109372070D01*
X145218811Y-109363367D01*
X145172450Y-109296201D01*
X145150567Y-109229846D01*
X145150500Y-109225761D01*
X145150500Y-106735421D01*
X145170185Y-106668382D01*
X145222989Y-106622627D01*
X145292147Y-106612683D01*
X145321949Y-106620859D01*
X145456305Y-106676511D01*
X145487410Y-106680606D01*
X145613066Y-106697149D01*
X145613067Y-106697149D01*
X145613068Y-106697149D01*
X145701216Y-106685544D01*
X145769829Y-106676511D01*
X145915908Y-106616003D01*
X146041349Y-106519749D01*
X146042734Y-106517943D01*
X146044291Y-106516806D01*
X146047096Y-106514002D01*
X146047533Y-106514439D01*
X146099157Y-106476739D01*
X146168903Y-106472580D01*
X146229825Y-106506789D01*
G37*
%TD.AperFunction*%
%TA.AperFunction,Conductor*%
G36*
X156753736Y-86050726D02*
G01*
X157007638Y-86066084D01*
X157022495Y-86067888D01*
X157269000Y-86113061D01*
X157283536Y-86116644D01*
X157522791Y-86191200D01*
X157536788Y-86196508D01*
X157765319Y-86299361D01*
X157778578Y-86306320D01*
X157885808Y-86371143D01*
X157993045Y-86435970D01*
X158005356Y-86444468D01*
X158202636Y-86599027D01*
X158213844Y-86608957D01*
X158391042Y-86786155D01*
X158400972Y-86797363D01*
X158543784Y-86979649D01*
X158555527Y-86994637D01*
X158564033Y-87006960D01*
X158693679Y-87221421D01*
X158700638Y-87234680D01*
X158803491Y-87463211D01*
X158808800Y-87477211D01*
X158883354Y-87716461D01*
X158886938Y-87731001D01*
X158932110Y-87977500D01*
X158933915Y-87992364D01*
X158949274Y-88246263D01*
X158949500Y-88253750D01*
X158949500Y-102472261D01*
X158929815Y-102539300D01*
X158877011Y-102585055D01*
X158807853Y-102594999D01*
X158744297Y-102565974D01*
X158710940Y-102519716D01*
X158704313Y-102503719D01*
X158704311Y-102503714D01*
X158704309Y-102503711D01*
X158704307Y-102503707D01*
X158635858Y-102401267D01*
X158635855Y-102401263D01*
X158548736Y-102314144D01*
X158548732Y-102314141D01*
X158446292Y-102245692D01*
X158446283Y-102245687D01*
X158345322Y-102203868D01*
X158332452Y-102198537D01*
X158332448Y-102198536D01*
X158332444Y-102198535D01*
X158211610Y-102174500D01*
X158211606Y-102174500D01*
X158088394Y-102174500D01*
X158044347Y-102183261D01*
X157973690Y-102197315D01*
X157904098Y-102191086D01*
X157848922Y-102148223D01*
X157825678Y-102082333D01*
X157825500Y-102075697D01*
X157825500Y-90655185D01*
X157826364Y-90640570D01*
X157826379Y-90640430D01*
X157826382Y-90640421D01*
X157825510Y-90572289D01*
X157825500Y-90570702D01*
X157825500Y-90502522D01*
X157825479Y-90502363D01*
X157824427Y-90487755D01*
X157824091Y-90461496D01*
X157825466Y-90441427D01*
X157828088Y-90424040D01*
X157823729Y-90385360D01*
X157822960Y-90373065D01*
X157822462Y-90334143D01*
X157817693Y-90317215D01*
X157813827Y-90297480D01*
X157789502Y-90081589D01*
X157788810Y-90063082D01*
X157789631Y-90041164D01*
X157781930Y-90007428D01*
X157779605Y-89993746D01*
X157775730Y-89959349D01*
X157767718Y-89938935D01*
X157762255Y-89921226D01*
X157712946Y-89705193D01*
X157710185Y-89686877D01*
X157708547Y-89665003D01*
X157697115Y-89632334D01*
X157693269Y-89618982D01*
X157685572Y-89585257D01*
X157675322Y-89565864D01*
X157667919Y-89548898D01*
X157594727Y-89339726D01*
X157589932Y-89321831D01*
X157588356Y-89313501D01*
X157585856Y-89300286D01*
X157570844Y-89269114D01*
X157565529Y-89256281D01*
X157554098Y-89223614D01*
X157541739Y-89205487D01*
X157532481Y-89189452D01*
X157436335Y-88989804D01*
X157429564Y-88972553D01*
X157423100Y-88951596D01*
X157404696Y-88922308D01*
X157397971Y-88910142D01*
X157382958Y-88878965D01*
X157368653Y-88862342D01*
X157357654Y-88847440D01*
X157239757Y-88659809D01*
X157231097Y-88643422D01*
X157226819Y-88633617D01*
X157222330Y-88623327D01*
X157200750Y-88596266D01*
X157192712Y-88584937D01*
X157191889Y-88583628D01*
X157174306Y-88555644D01*
X157174305Y-88555643D01*
X157174304Y-88555641D01*
X157158230Y-88540727D01*
X157145631Y-88527150D01*
X157007468Y-88353898D01*
X156997033Y-88338591D01*
X156986070Y-88319603D01*
X156986067Y-88319600D01*
X156986066Y-88319597D01*
X156961602Y-88295133D01*
X156952335Y-88284764D01*
X156930766Y-88257717D01*
X156913123Y-88244696D01*
X156899076Y-88232607D01*
X156742387Y-88075918D01*
X156730299Y-88061872D01*
X156717280Y-88044231D01*
X156690231Y-88022660D01*
X156679863Y-88013394D01*
X156655403Y-87988934D01*
X156655401Y-87988932D01*
X156636402Y-87977963D01*
X156621102Y-87967531D01*
X156447850Y-87829367D01*
X156434269Y-87816766D01*
X156419354Y-87800691D01*
X156390057Y-87782282D01*
X156378723Y-87774239D01*
X156351674Y-87752668D01*
X156351670Y-87752666D01*
X156331575Y-87743899D01*
X156315190Y-87735240D01*
X156239227Y-87687509D01*
X156127554Y-87617340D01*
X156112645Y-87606336D01*
X156096031Y-87592038D01*
X156064863Y-87577028D01*
X156052701Y-87570307D01*
X156023400Y-87551896D01*
X156013187Y-87548745D01*
X156002436Y-87545429D01*
X155985188Y-87538659D01*
X155879153Y-87487596D01*
X155785546Y-87442517D01*
X155769508Y-87433258D01*
X155751382Y-87420900D01*
X155751379Y-87420899D01*
X155751378Y-87420898D01*
X155718725Y-87409472D01*
X155705883Y-87404153D01*
X155697672Y-87400199D01*
X155674711Y-87389142D01*
X155674709Y-87389141D01*
X155674706Y-87389140D01*
X155653168Y-87385065D01*
X155635266Y-87380269D01*
X155426113Y-87307084D01*
X155409125Y-87299672D01*
X155389739Y-87289426D01*
X155389738Y-87289425D01*
X155356007Y-87281726D01*
X155342651Y-87277878D01*
X155309997Y-87266453D01*
X155309990Y-87266451D01*
X155288126Y-87264813D01*
X155269800Y-87262051D01*
X155091786Y-87221421D01*
X155016788Y-87204303D01*
X155012298Y-87203190D01*
X154976463Y-87193588D01*
X154954467Y-87187694D01*
X154954466Y-87187694D01*
X154946407Y-87186633D01*
X154946438Y-87186392D01*
X154941948Y-87185886D01*
X154941926Y-87186128D01*
X154933829Y-87185368D01*
X154874021Y-87187607D01*
X154869384Y-87187694D01*
X153189328Y-87187694D01*
X153167334Y-87193587D01*
X153167335Y-87193588D01*
X153049321Y-87225210D01*
X153049319Y-87225210D01*
X153049319Y-87225211D01*
X152923792Y-87297683D01*
X152923789Y-87297685D01*
X151608294Y-88613181D01*
X151546971Y-88646666D01*
X151520613Y-88649500D01*
X148048349Y-88649500D01*
X147981310Y-88629815D01*
X147935555Y-88577011D01*
X147925611Y-88507853D01*
X147949973Y-88450014D01*
X148024535Y-88352842D01*
X148024534Y-88352842D01*
X148024536Y-88352841D01*
X148085044Y-88206762D01*
X148105682Y-88050000D01*
X148104922Y-88044230D01*
X148085044Y-87893239D01*
X148085044Y-87893238D01*
X148040187Y-87784945D01*
X148034980Y-87769607D01*
X148012984Y-87687515D01*
X148012982Y-87687512D01*
X148012982Y-87687510D01*
X148012981Y-87687509D01*
X147991444Y-87650206D01*
X147991442Y-87650204D01*
X147969616Y-87612400D01*
X147940510Y-87561985D01*
X147848159Y-87469634D01*
X147830610Y-87446618D01*
X147830586Y-87446636D01*
X147830175Y-87446047D01*
X147828073Y-87443291D01*
X147827301Y-87441934D01*
X147713197Y-87307084D01*
X147453528Y-87000202D01*
X147449708Y-86995865D01*
X147445510Y-86991098D01*
X147444901Y-86990434D01*
X147439527Y-86984931D01*
X147429866Y-86973782D01*
X147428281Y-86971716D01*
X147302842Y-86875464D01*
X147156762Y-86814956D01*
X147156760Y-86814955D01*
X147000001Y-86794318D01*
X146999999Y-86794318D01*
X146843239Y-86814955D01*
X146843237Y-86814956D01*
X146697157Y-86875464D01*
X146571716Y-86971719D01*
X146564328Y-86981347D01*
X146550231Y-86995865D01*
X146550554Y-86996194D01*
X146546467Y-87000205D01*
X146172693Y-87441939D01*
X146171296Y-87444342D01*
X146151786Y-87469686D01*
X146059491Y-87561982D01*
X146008558Y-87650204D01*
X146008556Y-87650206D01*
X145987018Y-87687509D01*
X145987014Y-87687518D01*
X145965021Y-87769595D01*
X145959808Y-87784952D01*
X145914956Y-87893234D01*
X145894318Y-88049998D01*
X145894318Y-88050001D01*
X145914955Y-88206760D01*
X145914956Y-88206762D01*
X145975464Y-88352842D01*
X146050027Y-88450014D01*
X146075221Y-88515183D01*
X146061183Y-88583628D01*
X146012369Y-88633617D01*
X145951651Y-88649500D01*
X133348349Y-88649500D01*
X133281310Y-88629815D01*
X133235555Y-88577011D01*
X133225611Y-88507853D01*
X133249973Y-88450014D01*
X133324535Y-88352842D01*
X133324534Y-88352842D01*
X133324536Y-88352841D01*
X133385044Y-88206762D01*
X133405682Y-88050000D01*
X133404922Y-88044230D01*
X133385044Y-87893239D01*
X133385044Y-87893238D01*
X133340187Y-87784945D01*
X133334980Y-87769607D01*
X133312984Y-87687515D01*
X133312982Y-87687512D01*
X133312982Y-87687510D01*
X133312981Y-87687509D01*
X133291444Y-87650206D01*
X133291442Y-87650204D01*
X133269616Y-87612400D01*
X133240510Y-87561985D01*
X133148159Y-87469634D01*
X133130610Y-87446618D01*
X133130586Y-87446636D01*
X133130175Y-87446047D01*
X133128073Y-87443291D01*
X133127301Y-87441934D01*
X133013197Y-87307084D01*
X132753528Y-87000202D01*
X132749708Y-86995865D01*
X132745510Y-86991098D01*
X132744901Y-86990434D01*
X132739527Y-86984931D01*
X132729866Y-86973782D01*
X132728281Y-86971716D01*
X132602842Y-86875464D01*
X132456762Y-86814956D01*
X132456760Y-86814955D01*
X132300001Y-86794318D01*
X132299999Y-86794318D01*
X132143239Y-86814955D01*
X132143237Y-86814956D01*
X131997157Y-86875464D01*
X131871716Y-86971719D01*
X131864328Y-86981347D01*
X131850231Y-86995865D01*
X131850554Y-86996194D01*
X131846467Y-87000205D01*
X131472693Y-87441939D01*
X131471296Y-87444342D01*
X131451786Y-87469686D01*
X131359491Y-87561982D01*
X131308558Y-87650204D01*
X131308556Y-87650206D01*
X131287018Y-87687509D01*
X131287014Y-87687518D01*
X131265021Y-87769595D01*
X131259808Y-87784952D01*
X131214956Y-87893234D01*
X131194318Y-88049998D01*
X131194318Y-88050001D01*
X131214955Y-88206760D01*
X131214956Y-88206762D01*
X131261692Y-88319594D01*
X131275464Y-88352841D01*
X131371718Y-88478282D01*
X131381345Y-88485669D01*
X131395860Y-88499764D01*
X131396190Y-88499441D01*
X131400204Y-88503530D01*
X131400206Y-88503532D01*
X131705597Y-88761939D01*
X131744059Y-88820268D01*
X131749500Y-88856598D01*
X131749500Y-89072475D01*
X131757907Y-89103848D01*
X131757907Y-89103851D01*
X131757908Y-89103851D01*
X131757908Y-89103852D01*
X131785144Y-89205499D01*
X131787016Y-89212485D01*
X131845337Y-89313501D01*
X131861809Y-89381401D01*
X131838956Y-89447428D01*
X131784034Y-89490618D01*
X131737949Y-89499500D01*
X127536306Y-89499500D01*
X127362341Y-89534103D01*
X127362332Y-89534106D01*
X127198459Y-89601983D01*
X127198446Y-89601990D01*
X127050968Y-89700533D01*
X127050962Y-89700537D01*
X126981764Y-89769734D01*
X126941547Y-89796608D01*
X126930037Y-89801376D01*
X126930036Y-89801377D01*
X126930032Y-89801379D01*
X126930031Y-89801380D01*
X126902002Y-89820108D01*
X126819391Y-89875306D01*
X126819390Y-89875307D01*
X126062181Y-90632517D01*
X126000858Y-90666002D01*
X125931166Y-90661018D01*
X125875233Y-90619146D01*
X125850816Y-90553682D01*
X125850500Y-90544836D01*
X125850500Y-90378711D01*
X125839805Y-90297472D01*
X125818838Y-90138211D01*
X125756054Y-89903900D01*
X125663224Y-89679788D01*
X125541936Y-89469711D01*
X125481018Y-89390321D01*
X125394266Y-89277263D01*
X125394260Y-89277256D01*
X125222743Y-89105739D01*
X125222736Y-89105733D01*
X125030293Y-88958067D01*
X125030292Y-88958066D01*
X125030289Y-88958064D01*
X124852297Y-88855300D01*
X124820214Y-88836777D01*
X124820205Y-88836773D01*
X124596104Y-88743947D01*
X124478944Y-88712554D01*
X124361789Y-88681162D01*
X124361788Y-88681161D01*
X124361785Y-88681161D01*
X124121289Y-88649500D01*
X124121288Y-88649500D01*
X123878712Y-88649500D01*
X123878711Y-88649500D01*
X123638214Y-88681161D01*
X123403895Y-88743947D01*
X123179794Y-88836773D01*
X123179785Y-88836777D01*
X123041861Y-88916408D01*
X122980911Y-88951598D01*
X122969706Y-88958067D01*
X122777263Y-89105733D01*
X122777256Y-89105739D01*
X122605739Y-89277256D01*
X122605733Y-89277263D01*
X122458067Y-89469706D01*
X122336777Y-89679785D01*
X122336773Y-89679794D01*
X122243947Y-89903895D01*
X122181161Y-90138214D01*
X122149500Y-90378711D01*
X122149500Y-90621288D01*
X122181161Y-90861785D01*
X122243947Y-91096104D01*
X122328611Y-91300500D01*
X122336776Y-91320212D01*
X122458064Y-91530289D01*
X122458066Y-91530292D01*
X122458067Y-91530293D01*
X122605733Y-91722736D01*
X122605739Y-91722743D01*
X122777256Y-91894260D01*
X122777262Y-91894265D01*
X122969711Y-92041936D01*
X123179788Y-92163224D01*
X123403900Y-92256054D01*
X123638211Y-92318838D01*
X123818586Y-92342584D01*
X123878711Y-92350500D01*
X124044836Y-92350500D01*
X124111875Y-92370185D01*
X124157630Y-92422989D01*
X124167574Y-92492147D01*
X124138549Y-92555703D01*
X124132517Y-92562181D01*
X122975307Y-93719390D01*
X122975304Y-93719394D01*
X122901383Y-93830024D01*
X122901378Y-93830034D01*
X122850459Y-93952963D01*
X122850457Y-93952971D01*
X122831478Y-94048387D01*
X122831478Y-94048388D01*
X122824500Y-94083467D01*
X122824500Y-105918837D01*
X122804815Y-105985876D01*
X122788181Y-106006518D01*
X119762181Y-109032518D01*
X119700858Y-109066003D01*
X119631166Y-109061019D01*
X119575233Y-109019147D01*
X119550816Y-108953683D01*
X119550500Y-108944837D01*
X119550500Y-88253750D01*
X119550726Y-88246263D01*
X119553115Y-88206762D01*
X119566084Y-87992359D01*
X119567889Y-87977500D01*
X119569717Y-87967528D01*
X119613062Y-87730995D01*
X119616645Y-87716461D01*
X119691202Y-87477202D01*
X119696504Y-87463219D01*
X119799361Y-87234679D01*
X119806320Y-87221421D01*
X119935975Y-87006946D01*
X119944462Y-86994650D01*
X120099034Y-86797354D01*
X120108949Y-86786163D01*
X120286163Y-86608949D01*
X120297354Y-86599034D01*
X120494650Y-86444462D01*
X120506946Y-86435975D01*
X120721421Y-86306319D01*
X120734680Y-86299361D01*
X120963219Y-86196504D01*
X120977202Y-86191202D01*
X121216467Y-86116643D01*
X121230995Y-86113062D01*
X121477506Y-86067888D01*
X121492359Y-86066084D01*
X121746264Y-86050726D01*
X121753751Y-86050500D01*
X121797595Y-86050500D01*
X156702405Y-86050500D01*
X156746249Y-86050500D01*
X156753736Y-86050726D01*
G37*
%TD.AperFunction*%
%TA.AperFunction,Conductor*%
G36*
X135883257Y-106320185D02*
G01*
X135929012Y-106372989D01*
X135938956Y-106442147D01*
X135912114Y-106500922D01*
X135912988Y-106501593D01*
X135910073Y-106505391D01*
X135909931Y-106505703D01*
X135909381Y-106506293D01*
X135908041Y-106508039D01*
X135908040Y-106508040D01*
X135858910Y-106572068D01*
X135811785Y-106633482D01*
X135751278Y-106779559D01*
X135751277Y-106779561D01*
X135730640Y-106936320D01*
X135730640Y-106936323D01*
X135751277Y-107093082D01*
X135751278Y-107093084D01*
X135811786Y-107239163D01*
X135908040Y-107364604D01*
X135947902Y-107395191D01*
X136028397Y-107456958D01*
X136069599Y-107513386D01*
X136073754Y-107583132D01*
X136040591Y-107643014D01*
X135179522Y-108504084D01*
X135179517Y-108504090D01*
X135131887Y-108586589D01*
X135081320Y-108634805D01*
X135012713Y-108648027D01*
X134947848Y-108622059D01*
X134907320Y-108565145D01*
X134900500Y-108524589D01*
X134900500Y-107492255D01*
X134920185Y-107425216D01*
X134936819Y-107404574D01*
X135220478Y-107120915D01*
X135220482Y-107120910D01*
X135229937Y-107104532D01*
X135229944Y-107104520D01*
X135273207Y-107029587D01*
X135300500Y-106927727D01*
X135300500Y-106424500D01*
X135320185Y-106357461D01*
X135372989Y-106311706D01*
X135424500Y-106300500D01*
X135816218Y-106300500D01*
X135883257Y-106320185D01*
G37*
%TD.AperFunction*%
%TA.AperFunction,Conductor*%
G36*
X134464121Y-105814834D02*
G01*
X134520055Y-105856705D01*
X134544472Y-105922170D01*
X134529620Y-105990443D01*
X134528179Y-105993010D01*
X134526794Y-105995408D01*
X134526793Y-105995412D01*
X134510937Y-106054588D01*
X134510937Y-106054589D01*
X134510936Y-106054588D01*
X134499500Y-106097269D01*
X134499500Y-106657745D01*
X134479815Y-106724784D01*
X134463181Y-106745426D01*
X134179522Y-107029084D01*
X134179520Y-107029087D01*
X134131887Y-107111589D01*
X134081319Y-107159804D01*
X134012712Y-107173026D01*
X133947847Y-107147058D01*
X133907320Y-107090143D01*
X133900500Y-107049588D01*
X133900500Y-106327305D01*
X133920185Y-106260266D01*
X133936819Y-106239624D01*
X134130217Y-106046226D01*
X134333109Y-105843333D01*
X134394430Y-105809850D01*
X134464121Y-105814834D01*
G37*
%TD.AperFunction*%
%TA.AperFunction,Conductor*%
G36*
X135796227Y-100170185D02*
G01*
X135841982Y-100222989D01*
X135852127Y-100290686D01*
X135844318Y-100350000D01*
X135844318Y-100350001D01*
X135864955Y-100506760D01*
X135864956Y-100506762D01*
X135923102Y-100647140D01*
X135925464Y-100652841D01*
X136021718Y-100778282D01*
X136147159Y-100874536D01*
X136147160Y-100874536D01*
X136147161Y-100874537D01*
X136208835Y-100900083D01*
X136263239Y-100943924D01*
X136285304Y-101010218D01*
X136268025Y-101077917D01*
X136216888Y-101125528D01*
X136208837Y-101129205D01*
X136097159Y-101175464D01*
X135971718Y-101271718D01*
X135875463Y-101397160D01*
X135814956Y-101543237D01*
X135814955Y-101543239D01*
X135794318Y-101699998D01*
X135794318Y-101700001D01*
X135814955Y-101856760D01*
X135814957Y-101856765D01*
X135837987Y-101912365D01*
X135845456Y-101981834D01*
X135814180Y-102044313D01*
X135811107Y-102047498D01*
X133630966Y-104227639D01*
X133569643Y-104261124D01*
X133556461Y-104260181D01*
X133541738Y-104312441D01*
X133524373Y-104334233D01*
X132912181Y-104946425D01*
X132850858Y-104979910D01*
X132781166Y-104974926D01*
X132725233Y-104933054D01*
X132700816Y-104867590D01*
X132700500Y-104858744D01*
X132700500Y-104561298D01*
X132720185Y-104494259D01*
X132772989Y-104448504D01*
X132774180Y-104447967D01*
X133166535Y-104273929D01*
X133169202Y-104272731D01*
X133176245Y-104267787D01*
X133189837Y-104259498D01*
X133300852Y-104201234D01*
X133354466Y-104153735D01*
X133417697Y-104124015D01*
X133424789Y-104124955D01*
X133434453Y-104080531D01*
X133441226Y-104069531D01*
X133524818Y-103948430D01*
X133585140Y-103789372D01*
X133605645Y-103620500D01*
X133598577Y-103562298D01*
X133598188Y-103555888D01*
X133597676Y-103550388D01*
X133597676Y-103550379D01*
X133596864Y-103546053D01*
X133595645Y-103538150D01*
X133585140Y-103451628D01*
X133577214Y-103430729D01*
X133571285Y-103409629D01*
X133528811Y-103183097D01*
X133528811Y-103137400D01*
X133571283Y-102910876D01*
X133577216Y-102889763D01*
X133585140Y-102868872D01*
X133595646Y-102782336D01*
X133596864Y-102774446D01*
X133597676Y-102770120D01*
X133601566Y-102742420D01*
X133601766Y-102740293D01*
X133602011Y-102733571D01*
X133602833Y-102723157D01*
X133605645Y-102700003D01*
X133605645Y-102700002D01*
X133603509Y-102682409D01*
X133596736Y-102626629D01*
X133608196Y-102557707D01*
X133655100Y-102505921D01*
X133703647Y-102488745D01*
X133731762Y-102485044D01*
X133877841Y-102424536D01*
X134003282Y-102328282D01*
X134099536Y-102202841D01*
X134160044Y-102056762D01*
X134177558Y-101923730D01*
X134180682Y-101900001D01*
X134180682Y-101899998D01*
X134166923Y-101795492D01*
X134160044Y-101743238D01*
X134099536Y-101597159D01*
X134003282Y-101471718D01*
X133877841Y-101375464D01*
X133864420Y-101369905D01*
X133731762Y-101314956D01*
X133731760Y-101314955D01*
X133575001Y-101294318D01*
X133574999Y-101294318D01*
X133418234Y-101314956D01*
X133418232Y-101314957D01*
X133400226Y-101322415D01*
X133374026Y-101330019D01*
X133370749Y-101330589D01*
X133301328Y-101322684D01*
X133247202Y-101278502D01*
X133225554Y-101212070D01*
X133225500Y-101208423D01*
X133225500Y-100842257D01*
X133245185Y-100775218D01*
X133297989Y-100729463D01*
X133367147Y-100719519D01*
X133396953Y-100727696D01*
X133415659Y-100735445D01*
X133494040Y-100745764D01*
X133572420Y-100756083D01*
X133572421Y-100756083D01*
X133572422Y-100756083D01*
X133624675Y-100749203D01*
X133729183Y-100735445D01*
X133875262Y-100674937D01*
X134000703Y-100578683D01*
X134096957Y-100453242D01*
X134157465Y-100307163D01*
X134163896Y-100258313D01*
X134192163Y-100194418D01*
X134250487Y-100155947D01*
X134286835Y-100150500D01*
X135729188Y-100150500D01*
X135796227Y-100170185D01*
G37*
%TD.AperFunction*%
%TA.AperFunction,Conductor*%
G36*
X149293834Y-98312203D02*
G01*
X149349767Y-98354075D01*
X149374184Y-98419539D01*
X149374500Y-98428385D01*
X149374500Y-100563646D01*
X149354815Y-100630685D01*
X149332727Y-100656461D01*
X149246818Y-100732569D01*
X149150182Y-100872568D01*
X149089860Y-101031625D01*
X149089859Y-101031630D01*
X149069355Y-101200500D01*
X149089859Y-101369369D01*
X149089860Y-101369374D01*
X149150182Y-101528431D01*
X149197623Y-101597160D01*
X149246817Y-101668429D01*
X149339459Y-101750502D01*
X149374150Y-101781236D01*
X149497382Y-101845913D01*
X149524775Y-101860290D01*
X149689944Y-101901000D01*
X149860056Y-101901000D01*
X150025225Y-101860290D01*
X150134684Y-101802841D01*
X150175849Y-101781236D01*
X150175850Y-101781234D01*
X150175852Y-101781234D01*
X150303183Y-101668429D01*
X150399818Y-101528430D01*
X150460140Y-101369372D01*
X150480645Y-101200500D01*
X150460140Y-101031628D01*
X150460137Y-101031620D01*
X150460096Y-101031452D01*
X150460102Y-101031315D01*
X150459236Y-101024183D01*
X150460421Y-101024039D01*
X150463163Y-100961649D01*
X150503480Y-100904586D01*
X150568249Y-100878378D01*
X150616369Y-100884758D01*
X150616602Y-100883816D01*
X150742940Y-100914955D01*
X150789054Y-100926321D01*
X150959166Y-100926321D01*
X151124335Y-100885611D01*
X151124337Y-100885610D01*
X151131347Y-100882952D01*
X151132544Y-100886108D01*
X151186099Y-100875252D01*
X151251210Y-100900594D01*
X151292284Y-100957116D01*
X151299500Y-100998798D01*
X151299500Y-102269430D01*
X151279815Y-102336469D01*
X151253870Y-102363286D01*
X151254762Y-102364293D01*
X151249149Y-102369265D01*
X151249148Y-102369266D01*
X151186761Y-102424536D01*
X151121816Y-102482072D01*
X151025182Y-102622068D01*
X150964860Y-102781125D01*
X150964859Y-102781131D01*
X150950369Y-102900465D01*
X150922747Y-102964643D01*
X150864812Y-103003699D01*
X150794959Y-103005234D01*
X150739592Y-102973199D01*
X149995915Y-102229522D01*
X149995913Y-102229520D01*
X149942251Y-102198538D01*
X149904589Y-102176793D01*
X149850737Y-102162364D01*
X149802727Y-102149500D01*
X149802726Y-102149500D01*
X148067255Y-102149500D01*
X148000216Y-102129815D01*
X147979574Y-102113181D01*
X146495415Y-100629022D01*
X146495413Y-100629020D01*
X146408228Y-100578683D01*
X146404089Y-100576293D01*
X146319958Y-100553751D01*
X146302227Y-100549000D01*
X146302226Y-100549000D01*
X146005873Y-100549000D01*
X145938834Y-100529315D01*
X145930386Y-100523376D01*
X145927576Y-100521220D01*
X145927575Y-100521218D01*
X145802134Y-100424964D01*
X145656055Y-100364456D01*
X145546258Y-100350001D01*
X145514782Y-100345857D01*
X145450886Y-100317590D01*
X145412415Y-100259266D01*
X145411584Y-100189401D01*
X145443285Y-100135239D01*
X146191706Y-99386819D01*
X146253029Y-99353334D01*
X146279387Y-99350500D01*
X147033420Y-99350500D01*
X147056270Y-99352624D01*
X147121901Y-99364929D01*
X147184165Y-99396630D01*
X147219406Y-99456961D01*
X147216560Y-99523825D01*
X147216654Y-99523849D01*
X147216539Y-99524313D01*
X147216435Y-99526768D01*
X147214998Y-99530763D01*
X147214860Y-99531126D01*
X147204352Y-99617659D01*
X147203135Y-99625547D01*
X147202331Y-99629836D01*
X147202321Y-99629897D01*
X147198432Y-99657582D01*
X147198233Y-99659695D01*
X147198233Y-99659701D01*
X147197986Y-99666451D01*
X147197165Y-99676852D01*
X147194355Y-99699998D01*
X147194355Y-99699999D01*
X147214859Y-99868869D01*
X147214860Y-99868874D01*
X147275182Y-100027931D01*
X147335898Y-100115892D01*
X147371817Y-100167929D01*
X147473841Y-100258314D01*
X147499150Y-100280736D01*
X147619343Y-100343818D01*
X147649775Y-100359790D01*
X147814944Y-100400500D01*
X147985056Y-100400500D01*
X148150225Y-100359790D01*
X148230630Y-100317590D01*
X148300849Y-100280736D01*
X148300850Y-100280734D01*
X148300852Y-100280734D01*
X148428183Y-100167929D01*
X148524818Y-100027930D01*
X148585140Y-99868872D01*
X148605645Y-99700000D01*
X148598577Y-99641798D01*
X148598188Y-99635388D01*
X148597676Y-99629888D01*
X148597676Y-99629879D01*
X148596864Y-99625547D01*
X148595645Y-99617650D01*
X148593502Y-99600000D01*
X148585140Y-99531128D01*
X148583487Y-99526768D01*
X148577218Y-99510238D01*
X148571284Y-99489120D01*
X148553942Y-99396630D01*
X148530733Y-99272847D01*
X148530733Y-99227150D01*
X148554789Y-99098848D01*
X148574324Y-99051686D01*
X148833208Y-98673315D01*
X148847855Y-98655667D01*
X149162820Y-98340703D01*
X149224142Y-98307219D01*
X149293834Y-98312203D01*
G37*
%TD.AperFunction*%
%TA.AperFunction,Conductor*%
G36*
X136146227Y-98320185D02*
G01*
X136191982Y-98372989D01*
X136202127Y-98440686D01*
X136194318Y-98500000D01*
X136194318Y-98500001D01*
X136214955Y-98656760D01*
X136214956Y-98656762D01*
X136251106Y-98744037D01*
X136275464Y-98802841D01*
X136371718Y-98928282D01*
X136497159Y-99024536D01*
X136643238Y-99085044D01*
X136730407Y-99096519D01*
X136776293Y-99102561D01*
X136840190Y-99130827D01*
X136878661Y-99189152D01*
X136879492Y-99259017D01*
X136842420Y-99318240D01*
X136779214Y-99348019D01*
X136760108Y-99349500D01*
X135016255Y-99349500D01*
X134949216Y-99329815D01*
X134903461Y-99277011D01*
X134893517Y-99207853D01*
X134922542Y-99144297D01*
X134928574Y-99137819D01*
X135729573Y-98336819D01*
X135790896Y-98303334D01*
X135817254Y-98300500D01*
X136079188Y-98300500D01*
X136146227Y-98320185D01*
G37*
%TD.AperFunction*%
%TD*%
%TA.AperFunction,Conductor*%
%TO.N,+3V3*%
G36*
X123589867Y-117254671D02*
G01*
X123689887Y-117296213D01*
X123696213Y-117302551D01*
X123696204Y-117311506D01*
X123696198Y-117311520D01*
X123550787Y-117660292D01*
X123544440Y-117666610D01*
X123537186Y-117667149D01*
X123535000Y-117666610D01*
X123416778Y-117637447D01*
X123260515Y-117598900D01*
X123253304Y-117593593D01*
X123251959Y-117584740D01*
X123255043Y-117579271D01*
X123577110Y-117257203D01*
X123585382Y-117253777D01*
X123589867Y-117254671D01*
G37*
%TD.AperFunction*%
%TD*%
%TA.AperFunction,Conductor*%
%TO.N,+3V3*%
G36*
X148285939Y-98799964D02*
G01*
X148294202Y-98803412D01*
X148297608Y-98811693D01*
X148297408Y-98813820D01*
X148151790Y-99590456D01*
X148146897Y-99597956D01*
X148140290Y-99600000D01*
X147659710Y-99600000D01*
X147651437Y-99596573D01*
X147648210Y-99590456D01*
X147502591Y-98813820D01*
X147504435Y-98805057D01*
X147511935Y-98800164D01*
X147514052Y-98799964D01*
X147900000Y-98799000D01*
X148285939Y-98799964D01*
G37*
%TD.AperFunction*%
%TD*%
%TA.AperFunction,Conductor*%
%TO.N,+5V*%
G36*
X147219687Y-87196854D02*
G01*
X147220313Y-87197537D01*
X147594086Y-87639269D01*
X147596814Y-87647798D01*
X147593427Y-87655099D01*
X147255099Y-87993427D01*
X147246826Y-87996854D01*
X147239269Y-87994086D01*
X146797541Y-87620317D01*
X146793440Y-87612358D01*
X146796168Y-87603828D01*
X146796783Y-87603156D01*
X146999293Y-87399293D01*
X147203142Y-87196798D01*
X147211425Y-87193400D01*
X147219687Y-87196854D01*
G37*
%TD.AperFunction*%
%TD*%
%TA.AperFunction,Conductor*%
%TO.N,+3V3*%
G36*
X123319104Y-116563021D02*
G01*
X123971237Y-117009216D01*
X123976130Y-117016716D01*
X123974286Y-117025479D01*
X123972924Y-117027124D01*
X123700749Y-117300665D01*
X123700707Y-117300707D01*
X123427124Y-117572924D01*
X123418843Y-117576330D01*
X123410578Y-117572882D01*
X123409216Y-117571237D01*
X122963021Y-116919104D01*
X122961177Y-116910341D01*
X122964402Y-116904226D01*
X123304225Y-116564403D01*
X123312497Y-116560977D01*
X123319104Y-116563021D01*
G37*
%TD.AperFunction*%
%TD*%
%TA.AperFunction,Conductor*%
%TO.N,+5V*%
G36*
X147205099Y-122856572D02*
G01*
X147543427Y-123194900D01*
X147546854Y-123203173D01*
X147544086Y-123210731D01*
X147170318Y-123652457D01*
X147162358Y-123656559D01*
X147153828Y-123653831D01*
X147153140Y-123653200D01*
X146949293Y-123450707D01*
X146949238Y-123450652D01*
X146746799Y-123246859D01*
X146743400Y-123238574D01*
X146746854Y-123230312D01*
X146747523Y-123229697D01*
X147189270Y-122855912D01*
X147197798Y-122853185D01*
X147205099Y-122856572D01*
G37*
%TD.AperFunction*%
%TD*%
%TA.AperFunction,Conductor*%
%TO.N,+5V*%
G36*
X126688023Y-106899970D02*
G01*
X126696288Y-106903418D01*
X126699694Y-106911699D01*
X126699690Y-106911972D01*
X126680294Y-107662743D01*
X126676655Y-107670925D01*
X126668598Y-107674141D01*
X126187908Y-107674141D01*
X126179635Y-107670714D01*
X126177052Y-107666803D01*
X125934754Y-107063789D01*
X125934849Y-107054835D01*
X125941106Y-107048629D01*
X126297829Y-106899904D01*
X126302350Y-106899005D01*
X126688023Y-106899970D01*
G37*
%TD.AperFunction*%
%TD*%
%TA.AperFunction,Conductor*%
%TO.N,+5V*%
G36*
X132519687Y-87196854D02*
G01*
X132520313Y-87197537D01*
X132894086Y-87639269D01*
X132896814Y-87647798D01*
X132893427Y-87655099D01*
X132555099Y-87993427D01*
X132546826Y-87996854D01*
X132539269Y-87994086D01*
X132097541Y-87620317D01*
X132093440Y-87612358D01*
X132096168Y-87603828D01*
X132096783Y-87603156D01*
X132299293Y-87399293D01*
X132503142Y-87196798D01*
X132511425Y-87193400D01*
X132519687Y-87196854D01*
G37*
%TD.AperFunction*%
%TD*%
%TA.AperFunction,Conductor*%
%TO.N,+5V*%
G36*
X133455099Y-122806572D02*
G01*
X133793427Y-123144900D01*
X133796854Y-123153173D01*
X133794086Y-123160731D01*
X133420318Y-123602457D01*
X133412358Y-123606559D01*
X133403828Y-123603831D01*
X133403140Y-123603200D01*
X133199293Y-123400707D01*
X133199238Y-123400652D01*
X132996799Y-123196859D01*
X132993400Y-123188574D01*
X132996854Y-123180312D01*
X132997523Y-123179697D01*
X133439270Y-122805912D01*
X133447798Y-122803185D01*
X133455099Y-122806572D01*
G37*
%TD.AperFunction*%
%TD*%
%TA.AperFunction,Conductor*%
%TO.N,+5V*%
G36*
X149919687Y-121346854D02*
G01*
X149920313Y-121347537D01*
X150294086Y-121789269D01*
X150296814Y-121797798D01*
X150293427Y-121805099D01*
X149955099Y-122143427D01*
X149946826Y-122146854D01*
X149939269Y-122144086D01*
X149497541Y-121770317D01*
X149493440Y-121762358D01*
X149496168Y-121753828D01*
X149496783Y-121753156D01*
X149699293Y-121549293D01*
X149903142Y-121346798D01*
X149911425Y-121343400D01*
X149919687Y-121346854D01*
G37*
%TD.AperFunction*%
%TD*%
%TA.AperFunction,Conductor*%
%TO.N,+5V*%
G36*
X147710729Y-122855912D02*
G01*
X148152457Y-123229681D01*
X148156559Y-123237641D01*
X148153831Y-123246171D01*
X148153200Y-123246859D01*
X147950762Y-123450652D01*
X147950707Y-123450707D01*
X147746859Y-123653200D01*
X147738574Y-123656599D01*
X147730312Y-123653145D01*
X147729681Y-123652457D01*
X147558970Y-123450707D01*
X147355912Y-123210729D01*
X147353185Y-123202201D01*
X147356571Y-123194901D01*
X147694901Y-122856571D01*
X147703173Y-122853145D01*
X147710729Y-122855912D01*
G37*
%TD.AperFunction*%
%TD*%
%TA.AperFunction,Conductor*%
%TO.N,+5V*%
G36*
X133476485Y-123289177D02*
G01*
X133482209Y-123294304D01*
X133706851Y-123699859D01*
X133707862Y-123708756D01*
X133704889Y-123713801D01*
X133366681Y-124052009D01*
X133358408Y-124055436D01*
X133350135Y-124052009D01*
X133349386Y-124051184D01*
X132994597Y-123620304D01*
X132991983Y-123611739D01*
X132995327Y-123604623D01*
X133197629Y-123400967D01*
X133201480Y-123398394D01*
X133467532Y-123289150D01*
X133476485Y-123289177D01*
G37*
%TD.AperFunction*%
%TD*%
%TA.AperFunction,Conductor*%
%TO.N,+5V*%
G36*
X124965991Y-111933146D02*
G01*
X124966550Y-111933748D01*
X125463558Y-112508887D01*
X125466374Y-112517387D01*
X125462978Y-112524810D01*
X125123052Y-112864736D01*
X125114779Y-112868163D01*
X125109594Y-112866951D01*
X124532215Y-112581485D01*
X124526319Y-112574748D01*
X124526581Y-112566549D01*
X124673896Y-112208564D01*
X124676464Y-112204724D01*
X124949403Y-111933146D01*
X124949446Y-111933103D01*
X124957726Y-111929698D01*
X124965991Y-111933146D01*
G37*
%TD.AperFunction*%
%TD*%
%TA.AperFunction,Conductor*%
%TO.N,+3V3*%
G36*
X144194898Y-115994851D02*
G01*
X144399029Y-116197626D01*
X144401606Y-116201483D01*
X144510506Y-116466695D01*
X144510479Y-116475650D01*
X144504485Y-116481808D01*
X144088599Y-116669003D01*
X144079649Y-116669274D01*
X144075524Y-116666607D01*
X143737416Y-116328499D01*
X143733989Y-116320226D01*
X143737416Y-116311953D01*
X143738850Y-116310734D01*
X144179822Y-115993652D01*
X144188539Y-115991605D01*
X144194898Y-115994851D01*
G37*
%TD.AperFunction*%
%TD*%
%TA.AperFunction,Conductor*%
%TO.N,+5V*%
G36*
X146665845Y-87397231D02*
G01*
X146666681Y-87397990D01*
X147004889Y-87736198D01*
X147008316Y-87744471D01*
X147006851Y-87750140D01*
X146782209Y-88155695D01*
X146775202Y-88161272D01*
X146767530Y-88160849D01*
X146501483Y-88051606D01*
X146497626Y-88049029D01*
X146295328Y-87845378D01*
X146291929Y-87837093D01*
X146294596Y-87829696D01*
X146649379Y-87398824D01*
X146657280Y-87394617D01*
X146665845Y-87397231D01*
G37*
%TD.AperFunction*%
%TD*%
%TA.AperFunction,Conductor*%
%TO.N,+5V*%
G36*
X147697507Y-123503427D02*
G01*
X147700894Y-123510728D01*
X147748947Y-124087370D01*
X147746219Y-124095900D01*
X147738259Y-124100002D01*
X147737326Y-124100042D01*
X147450039Y-124100999D01*
X147449961Y-124100999D01*
X147162673Y-124100042D01*
X147154411Y-124096588D01*
X147151012Y-124088303D01*
X147151052Y-124087370D01*
X147199106Y-123510728D01*
X147203208Y-123502768D01*
X147210766Y-123500000D01*
X147689234Y-123500000D01*
X147697507Y-123503427D01*
G37*
%TD.AperFunction*%
%TD*%
%TA.AperFunction,Conductor*%
%TO.N,+3V3*%
G36*
X144620378Y-115995629D02*
G01*
X145028517Y-116379780D01*
X145032193Y-116387946D01*
X145029018Y-116396319D01*
X145020852Y-116399995D01*
X145020498Y-116400000D01*
X144550000Y-116400000D01*
X144418190Y-116487873D01*
X144409405Y-116489611D01*
X144401965Y-116484628D01*
X144400000Y-116478138D01*
X144400000Y-116203863D01*
X144403427Y-116195590D01*
X144403446Y-116195570D01*
X144604106Y-115995855D01*
X144612387Y-115992449D01*
X144620378Y-115995629D01*
G37*
%TD.AperFunction*%
%TD*%
%TA.AperFunction,Conductor*%
%TO.N,+3V3*%
G36*
X147894942Y-98404435D02*
G01*
X147899835Y-98411935D01*
X147900035Y-98414062D01*
X147901000Y-98800000D01*
X147901000Y-98800058D01*
X147900035Y-99185937D01*
X147896587Y-99194202D01*
X147888306Y-99197608D01*
X147886179Y-99197408D01*
X147109544Y-99051789D01*
X147102044Y-99046896D01*
X147100000Y-99040289D01*
X147100000Y-98559710D01*
X147103427Y-98551437D01*
X147109542Y-98548210D01*
X147886180Y-98402591D01*
X147894942Y-98404435D01*
G37*
%TD.AperFunction*%
%TD*%
%TA.AperFunction,Conductor*%
%TO.N,+3V3*%
G36*
X144395900Y-116703780D02*
G01*
X144400002Y-116711740D01*
X144400042Y-116712673D01*
X144401000Y-117000000D01*
X144401000Y-117000078D01*
X144400042Y-117287326D01*
X144396588Y-117295588D01*
X144388303Y-117298987D01*
X144387370Y-117298947D01*
X143810728Y-117250894D01*
X143802768Y-117246792D01*
X143800000Y-117239234D01*
X143800000Y-116760766D01*
X143803427Y-116752493D01*
X143810728Y-116749106D01*
X144387371Y-116701052D01*
X144395900Y-116703780D01*
G37*
%TD.AperFunction*%
%TD*%
%TA.AperFunction,Conductor*%
%TO.N,+3V3*%
G36*
X145195900Y-116703780D02*
G01*
X145200002Y-116711740D01*
X145200042Y-116712673D01*
X145201000Y-117000000D01*
X145201000Y-117000078D01*
X145200042Y-117287326D01*
X145196588Y-117295588D01*
X145188303Y-117298987D01*
X145187370Y-117298947D01*
X144610728Y-117250894D01*
X144602768Y-117246792D01*
X144600000Y-117239234D01*
X144600000Y-116760766D01*
X144603427Y-116752493D01*
X144610728Y-116749106D01*
X145187371Y-116701052D01*
X145195900Y-116703780D01*
G37*
%TD.AperFunction*%
%TD*%
%TA.AperFunction,Conductor*%
%TO.N,+3V3*%
G36*
X155896195Y-104297436D02*
G01*
X155902542Y-104303754D01*
X155902563Y-104303804D01*
X156048621Y-104658734D01*
X156048600Y-104667688D01*
X156042256Y-104674005D01*
X155412237Y-104933426D01*
X155403282Y-104933407D01*
X155399509Y-104930880D01*
X155269119Y-104800490D01*
X155265692Y-104792217D01*
X155266572Y-104787766D01*
X155525994Y-104157742D01*
X155532313Y-104151398D01*
X155541264Y-104151378D01*
X155896195Y-104297436D01*
G37*
%TD.AperFunction*%
%TD*%
%TA.AperFunction,Conductor*%
%TO.N,+5V*%
G36*
X146796171Y-87196168D02*
G01*
X146796859Y-87196799D01*
X147000707Y-87399293D01*
X147000762Y-87399348D01*
X147203200Y-87603140D01*
X147206599Y-87611425D01*
X147203145Y-87619687D01*
X147202457Y-87620318D01*
X146760731Y-87994086D01*
X146752201Y-87996814D01*
X146744900Y-87993427D01*
X146406572Y-87655099D01*
X146403145Y-87646826D01*
X146405911Y-87639271D01*
X146779683Y-87197540D01*
X146787641Y-87193440D01*
X146796171Y-87196168D01*
G37*
%TD.AperFunction*%
%TD*%
%TA.AperFunction,Conductor*%
%TO.N,+3V3*%
G36*
X133148563Y-102823927D02*
G01*
X133151790Y-102830044D01*
X133297408Y-103606679D01*
X133295564Y-103615442D01*
X133288064Y-103620335D01*
X133285937Y-103620535D01*
X132900029Y-103621499D01*
X132899971Y-103621499D01*
X132514062Y-103620535D01*
X132505797Y-103617087D01*
X132502391Y-103608806D01*
X132502591Y-103606679D01*
X132648210Y-102830044D01*
X132653103Y-102822544D01*
X132659710Y-102820500D01*
X133140290Y-102820500D01*
X133148563Y-102823927D01*
G37*
%TD.AperFunction*%
%TD*%
%TA.AperFunction,Conductor*%
%TO.N,+5V*%
G36*
X149865845Y-120897231D02*
G01*
X149866681Y-120897990D01*
X150204889Y-121236198D01*
X150208316Y-121244471D01*
X150206851Y-121250140D01*
X149982209Y-121655695D01*
X149975202Y-121661272D01*
X149967530Y-121660849D01*
X149701483Y-121551606D01*
X149697626Y-121549029D01*
X149495328Y-121345378D01*
X149491929Y-121337093D01*
X149494596Y-121329696D01*
X149849379Y-120898824D01*
X149857280Y-120894617D01*
X149865845Y-120897231D01*
G37*
%TD.AperFunction*%
%TD*%
%TA.AperFunction,Conductor*%
%TO.N,+5V*%
G36*
X133947507Y-123453427D02*
G01*
X133950894Y-123460728D01*
X133998947Y-124037370D01*
X133996219Y-124045900D01*
X133988259Y-124050002D01*
X133987326Y-124050042D01*
X133700039Y-124050999D01*
X133699961Y-124050999D01*
X133412673Y-124050042D01*
X133404411Y-124046588D01*
X133401012Y-124038303D01*
X133401052Y-124037370D01*
X133449106Y-123460728D01*
X133453208Y-123452768D01*
X133460766Y-123450000D01*
X133939234Y-123450000D01*
X133947507Y-123453427D01*
G37*
%TD.AperFunction*%
%TD*%
%TA.AperFunction,Conductor*%
%TO.N,+3V3*%
G36*
X139628726Y-113527018D02*
G01*
X140166031Y-114011299D01*
X140169882Y-114019384D01*
X140166889Y-114027823D01*
X140166471Y-114028263D01*
X139826654Y-114368080D01*
X139818381Y-114371507D01*
X139814859Y-114370964D01*
X139698417Y-114334205D01*
X139694817Y-114332330D01*
X139677630Y-114319143D01*
X139677631Y-114319143D01*
X139677625Y-114319139D01*
X139677621Y-114319137D01*
X139677616Y-114319134D01*
X139543715Y-114263672D01*
X139543706Y-114263669D01*
X139426826Y-114248281D01*
X139424831Y-114247838D01*
X139196723Y-114175828D01*
X139189865Y-114170070D01*
X139189088Y-114161149D01*
X139189417Y-114160238D01*
X139336049Y-113803913D01*
X139338617Y-113800073D01*
X139612642Y-113527414D01*
X139620922Y-113524009D01*
X139628726Y-113527018D01*
G37*
%TD.AperFunction*%
%TD*%
%TA.AperFunction,Conductor*%
%TO.N,+5V*%
G36*
X147705099Y-123506572D02*
G01*
X148043427Y-123844900D01*
X148046854Y-123853173D01*
X148044086Y-123860731D01*
X147670318Y-124302457D01*
X147662358Y-124306559D01*
X147653828Y-124303831D01*
X147653140Y-124303200D01*
X147449293Y-124100707D01*
X147449238Y-124100652D01*
X147246799Y-123896859D01*
X147243400Y-123888574D01*
X147246854Y-123880312D01*
X147247523Y-123879697D01*
X147689270Y-123505912D01*
X147697798Y-123503185D01*
X147705099Y-123506572D01*
G37*
%TD.AperFunction*%
%TD*%
%TA.AperFunction,Conductor*%
%TO.N,+5V*%
G36*
X150549864Y-120897990D02*
G01*
X150550614Y-120898817D01*
X150803922Y-121206451D01*
X150905402Y-121329695D01*
X150908016Y-121338260D01*
X150904671Y-121345378D01*
X150702373Y-121549029D01*
X150698516Y-121551606D01*
X150432469Y-121660849D01*
X150423514Y-121660822D01*
X150417790Y-121655695D01*
X150193148Y-121250140D01*
X150192137Y-121241243D01*
X150195108Y-121236200D01*
X150533319Y-120897989D01*
X150541591Y-120894563D01*
X150549864Y-120897990D01*
G37*
%TD.AperFunction*%
%TD*%
%TA.AperFunction,Conductor*%
%TO.N,+5V*%
G36*
X132019687Y-87846854D02*
G01*
X132020313Y-87847537D01*
X132394086Y-88289269D01*
X132396814Y-88297798D01*
X132393427Y-88305099D01*
X132055099Y-88643427D01*
X132046826Y-88646854D01*
X132039269Y-88644086D01*
X131597541Y-88270317D01*
X131593440Y-88262358D01*
X131596168Y-88253828D01*
X131596783Y-88253156D01*
X131799293Y-88049293D01*
X132003142Y-87846798D01*
X132011425Y-87843400D01*
X132019687Y-87846854D01*
G37*
%TD.AperFunction*%
%TD*%
%TA.AperFunction,Conductor*%
%TO.N,+3V3*%
G36*
X144412618Y-116701051D02*
G01*
X144989272Y-116749106D01*
X144997232Y-116753208D01*
X145000000Y-116760766D01*
X145000000Y-117239234D01*
X144996573Y-117247507D01*
X144989272Y-117250894D01*
X144412629Y-117298947D01*
X144404099Y-117296219D01*
X144399997Y-117288259D01*
X144399957Y-117287345D01*
X144399000Y-117000000D01*
X144399957Y-116712671D01*
X144403411Y-116704411D01*
X144411696Y-116701012D01*
X144412618Y-116701051D01*
G37*
%TD.AperFunction*%
%TD*%
%TA.AperFunction,Conductor*%
%TO.N,+3V3*%
G36*
X144995894Y-115995856D02*
G01*
X145196554Y-116195570D01*
X145200000Y-116203835D01*
X145200000Y-116478138D01*
X145196573Y-116486411D01*
X145188300Y-116489838D01*
X145181810Y-116487873D01*
X145050000Y-116400000D01*
X144579502Y-116400000D01*
X144571229Y-116396573D01*
X144567802Y-116388300D01*
X144571229Y-116380027D01*
X144571483Y-116379780D01*
X144653592Y-116302496D01*
X144979623Y-115995628D01*
X144987994Y-115992454D01*
X144995894Y-115995856D01*
G37*
%TD.AperFunction*%
%TD*%
%TA.AperFunction,Conductor*%
%TO.N,+5V*%
G36*
X132649864Y-87397990D02*
G01*
X132650614Y-87398817D01*
X132903922Y-87706451D01*
X133005402Y-87829695D01*
X133008016Y-87838260D01*
X133004671Y-87845378D01*
X132802373Y-88049029D01*
X132798516Y-88051606D01*
X132532469Y-88160849D01*
X132523514Y-88160822D01*
X132517790Y-88155695D01*
X132293148Y-87750140D01*
X132292137Y-87741243D01*
X132295108Y-87736200D01*
X132633319Y-87397989D01*
X132641591Y-87394563D01*
X132649864Y-87397990D01*
G37*
%TD.AperFunction*%
%TD*%
%TA.AperFunction,Conductor*%
%TO.N,+5V*%
G36*
X133960729Y-122805912D02*
G01*
X134402457Y-123179681D01*
X134406559Y-123187641D01*
X134403831Y-123196171D01*
X134403200Y-123196859D01*
X134200762Y-123400652D01*
X134200707Y-123400707D01*
X133996859Y-123603200D01*
X133988574Y-123606599D01*
X133980312Y-123603145D01*
X133979681Y-123602457D01*
X133808970Y-123400707D01*
X133605912Y-123160729D01*
X133603185Y-123152201D01*
X133606571Y-123144901D01*
X133944901Y-122806571D01*
X133953173Y-122803145D01*
X133960729Y-122805912D01*
G37*
%TD.AperFunction*%
%TD*%
%TA.AperFunction,Conductor*%
%TO.N,+3V3*%
G36*
X144160729Y-116405912D02*
G01*
X144602457Y-116779681D01*
X144606559Y-116787641D01*
X144603831Y-116796171D01*
X144603200Y-116796859D01*
X144400762Y-117000652D01*
X144400707Y-117000707D01*
X144196859Y-117203200D01*
X144188574Y-117206599D01*
X144180312Y-117203145D01*
X144179681Y-117202457D01*
X144008970Y-117000707D01*
X143805912Y-116760729D01*
X143803185Y-116752201D01*
X143806571Y-116744901D01*
X144144901Y-116406571D01*
X144153173Y-116403145D01*
X144160729Y-116405912D01*
G37*
%TD.AperFunction*%
%TD*%
%TA.AperFunction,Conductor*%
%TO.N,+5V*%
G36*
X126077192Y-114034520D02*
G01*
X126729325Y-114480715D01*
X126734218Y-114488215D01*
X126732374Y-114496978D01*
X126731012Y-114498623D01*
X126458837Y-114772164D01*
X126458795Y-114772206D01*
X126185212Y-115044423D01*
X126176931Y-115047829D01*
X126168666Y-115044381D01*
X126167304Y-115042736D01*
X125721109Y-114390603D01*
X125719265Y-114381840D01*
X125722490Y-114375725D01*
X126062313Y-114035902D01*
X126070585Y-114032476D01*
X126077192Y-114034520D01*
G37*
%TD.AperFunction*%
%TD*%
%TA.AperFunction,Conductor*%
%TO.N,+5V*%
G36*
X132587327Y-87399957D02*
G01*
X132595588Y-87403411D01*
X132598987Y-87411696D01*
X132598947Y-87412629D01*
X132550894Y-87989272D01*
X132546792Y-87997232D01*
X132539234Y-88000000D01*
X132060766Y-88000000D01*
X132052493Y-87996573D01*
X132049106Y-87989272D01*
X132001052Y-87412629D01*
X132003780Y-87404099D01*
X132011740Y-87399997D01*
X132012653Y-87399957D01*
X132300000Y-87399000D01*
X132587327Y-87399957D01*
G37*
%TD.AperFunction*%
%TD*%
%TA.AperFunction,Conductor*%
%TO.N,+5V*%
G36*
X131965845Y-87397231D02*
G01*
X131966681Y-87397990D01*
X132304889Y-87736198D01*
X132308316Y-87744471D01*
X132306851Y-87750140D01*
X132082209Y-88155695D01*
X132075202Y-88161272D01*
X132067530Y-88160849D01*
X131801483Y-88051606D01*
X131797626Y-88049029D01*
X131595328Y-87845378D01*
X131591929Y-87837093D01*
X131594596Y-87829696D01*
X131949379Y-87398824D01*
X131957280Y-87394617D01*
X131965845Y-87397231D01*
G37*
%TD.AperFunction*%
%TD*%
%TA.AperFunction,Conductor*%
%TO.N,+5V*%
G36*
X132096171Y-87196168D02*
G01*
X132096859Y-87196799D01*
X132300707Y-87399293D01*
X132300762Y-87399348D01*
X132503200Y-87603140D01*
X132506599Y-87611425D01*
X132503145Y-87619687D01*
X132502457Y-87620318D01*
X132060731Y-87994086D01*
X132052201Y-87996814D01*
X132044900Y-87993427D01*
X131706572Y-87655099D01*
X131703145Y-87646826D01*
X131705911Y-87639271D01*
X132079683Y-87197540D01*
X132087641Y-87193440D01*
X132096171Y-87196168D01*
G37*
%TD.AperFunction*%
%TD*%
%TA.AperFunction,Conductor*%
%TO.N,+3V3*%
G36*
X145198035Y-116715371D02*
G01*
X145200000Y-116721861D01*
X145200000Y-116996136D01*
X145196573Y-117004409D01*
X145196554Y-117004429D01*
X144995894Y-117204143D01*
X144987612Y-117207550D01*
X144979621Y-117204370D01*
X144571483Y-116820220D01*
X144567807Y-116812054D01*
X144570982Y-116803681D01*
X144579148Y-116800005D01*
X144579502Y-116800000D01*
X145050000Y-116800000D01*
X145181811Y-116712125D01*
X145190594Y-116710388D01*
X145198035Y-116715371D01*
G37*
%TD.AperFunction*%
%TD*%
%TA.AperFunction,Conductor*%
%TO.N,+5V*%
G36*
X133460729Y-123455912D02*
G01*
X133902457Y-123829681D01*
X133906559Y-123837641D01*
X133903831Y-123846171D01*
X133903200Y-123846859D01*
X133700762Y-124050652D01*
X133700707Y-124050707D01*
X133496859Y-124253200D01*
X133488574Y-124256599D01*
X133480312Y-124253145D01*
X133479681Y-124252457D01*
X133308970Y-124050707D01*
X133105912Y-123810729D01*
X133103185Y-123802201D01*
X133106571Y-123794901D01*
X133444901Y-123456571D01*
X133453173Y-123453145D01*
X133460729Y-123455912D01*
G37*
%TD.AperFunction*%
%TD*%
M02*
